<?xml version="1.0" encoding="UTF-8" ?>
<!DOCTYPE svg PUBLIC "-//W3C//DTD SVG 1.1//EN" "http://www.w3.org/Graphics/SVG/1.1/DTD/svg11.dtd">
<svg width="100pt" height="100pt" viewBox="0 0 100 100" version="1.1" xmlns="http://www.w3.org/2000/svg">
<g id="#41a6dfff">
<path fill="#41a6df" opacity="1.00" d=" M 0.00 0.00 L 11.64 0.00 C 25.59 8.90 39.52 17.83 53.83 26.13 C 56.16 27.49 58.34 29.07 60.47 30.71 C 54.54 32.97 49.65 37.87 47.87 44.02 C 45.44 51.63 48.23 60.50 54.47 65.47 C 60.93 70.86 70.84 71.53 77.90 66.88 C 85.41 62.55 88.82 52.96 86.73 44.69 C 91.20 46.50 95.52 48.66 100.00 50.44 L 100.00 90.11 C 77.36 84.27 54.94 77.14 33.76 67.15 C 37.99 66.31 42.54 64.65 45.05 60.94 C 46.54 58.40 43.78 54.92 40.95 55.77 C 38.32 57.12 36.09 59.56 32.95 59.62 C 27.15 60.32 21.65 54.80 22.37 49.01 C 22.65 43.75 27.76 39.41 33.01 40.02 C 36.22 40.04 38.39 42.68 41.11 43.93 C 44.01 44.57 46.79 40.77 44.84 38.30 C 40.53 33.00 32.74 31.43 26.40 33.58 C 20.06 35.88 15.20 42.12 15.01 48.93 C 14.76 52.47 15.85 55.93 17.46 59.04 C 11.24 57.10 5.88 53.31 0.00 50.61 L 0.00 0.00 Z" />
</g>
<g id="#2696d7ff">
<path fill="#2696d7" opacity="1.00" d=" M 11.64 0.00 L 100.00 0.00 L 100.00 50.44 C 95.52 48.66 91.20 46.50 86.73 44.69 C 84.04 33.55 71.22 26.85 60.47 30.71 C 58.34 29.07 56.16 27.49 53.83 26.13 C 39.52 17.83 25.59 8.90 11.64 0.00 Z" />
<path fill="#2696d7" opacity="1.00" d=" M 0.00 50.61 C 5.88 53.31 11.24 57.10 17.46 59.04 C 21.11 64.36 27.31 67.43 33.76 67.15 C 54.94 77.14 77.36 84.27 100.00 90.11 L 100.00 100.00 L 0.00 100.00 L 0.00 50.61 Z" />
</g>
<g id="#2e4553ff">
<path fill="#2e4553" opacity="1.00" d=" M 60.47 30.71 C 71.22 26.85 84.04 33.55 86.73 44.69 C 88.82 52.96 85.41 62.55 77.90 66.88 C 70.84 71.53 60.93 70.86 54.47 65.47 C 48.23 60.50 45.44 51.63 47.87 44.02 C 49.65 37.87 54.54 32.97 60.47 30.71 M 61.36 33.59 C 55.07 35.90 50.25 42.06 50.01 48.82 C 49.21 57.85 56.78 66.51 65.82 66.97 C 75.73 68.09 85.29 58.97 84.31 48.96 C 84.28 37.78 71.70 29.54 61.36 33.59 Z" />
<path fill="#2e4553" opacity="1.00" d=" M 65.19 40.19 C 72.23 38.37 79.18 46.16 76.50 52.96 C 74.51 60.00 64.22 62.05 59.73 56.25 C 54.73 51.05 58.06 41.27 65.19 40.19 Z" />
</g>
<g id="#ffffffff">
<path fill="#ffffff" opacity="1.00" d=" M 26.40 33.58 C 32.74 31.43 40.53 33.00 44.84 38.30 C 46.79 40.77 44.01 44.57 41.11 43.93 C 38.39 42.68 36.22 40.04 33.01 40.02 C 27.76 39.41 22.65 43.75 22.37 49.01 C 21.65 54.80 27.15 60.32 32.95 59.62 C 36.09 59.56 38.32 57.12 40.95 55.77 C 43.78 54.92 46.54 58.40 45.05 60.94 C 42.54 64.65 37.99 66.31 33.76 67.15 C 27.31 67.43 21.11 64.36 17.46 59.04 C 15.85 55.93 14.76 52.47 15.01 48.93 C 15.20 42.12 20.06 35.88 26.40 33.58 Z" />
<path fill="#ffffff" opacity="1.00" d=" M 61.36 33.59 C 71.70 29.54 84.28 37.78 84.31 48.96 C 85.29 58.97 75.73 68.09 65.82 66.97 C 56.78 66.51 49.21 57.85 50.01 48.82 C 50.25 42.06 55.07 35.90 61.36 33.59 M 65.19 40.19 C 58.06 41.27 54.73 51.05 59.73 56.25 C 64.22 62.05 74.51 60.00 76.50 52.96 C 79.18 46.16 72.23 38.37 65.19 40.19 Z" />
</g>
</svg>
