<svg xmlns="http://www.w3.org/2000/svg" viewBox="0 0 100 100"><path d="M0 0h11.64l42.2 26.13c2.33 1.36 4.5 2.94 6.64 4.58-5.93 2.26-10.82 7.16-12.6 13.3-2.43 7.6.36 16.48 6.6 21.45 6.46 5.4 16.37 6.06 23.43 1.4 7.5-4.33 10.92-13.92 8.83-22.2 4.47 1.8 8.8 3.97 13.27 5.75V90.1c-22.64-5.84-45.06-12.97-66.24-22.96 4.23-.84 8.78-2.5 11.3-6.2 1.5-2.54-1.27-6.02-4.1-5.17-2.63 1.35-4.86 3.8-8 3.85-5.8.7-11.3-4.82-10.58-10.6.28-5.26 5.4-9.6 10.64-9 3.2.02 5.38 2.66 8.1 3.9 2.9.64 5.68-3.16 3.73-5.63-4.3-5.3-12.1-6.87-18.44-4.72-6.34 2.3-11.2 8.54-11.4 15.35-.25 3.54.84 7 2.45 10.1C11.24 57.1 5.88 53.3 0 50.6V0z" fill="#41a6df"/><path d="M11.64 0H100v50.44c-4.48-1.78-8.8-3.94-13.27-5.75-2.7-11.14-15.5-17.84-26.26-13.98-2.13-1.64-4.3-3.22-6.64-4.58C39.52 17.83 25.6 8.9 11.64 0zM0 50.6c5.88 2.7 11.24 6.5 17.46 8.43 3.65 5.32 9.85 8.4 16.3 8.1 21.18 10 43.6 17.12 66.24 22.96v9.9H0V50.6z" fill="#2696d7"/><path d="M60.47 30.7c10.75-3.86 23.57 2.84 26.26 13.98 2.1 8.27-1.32 17.86-8.83 22.2-7.06 4.65-16.97 3.98-23.43-1.4-6.24-4.97-9.03-13.84-6.6-21.45 1.78-6.15 6.67-11.05 12.6-13.3m.9 2.88c-6.3 2.3-11.1 8.47-11.35 15.23-.8 9.03 6.77 17.7 15.8 18.15 9.9 1.12 19.47-8 18.5-18-.03-11.18-12.6-19.42-22.95-15.37zm3.83 6.6c7.04-1.82 14 5.97 11.3 12.77-2 7.04-12.28 9.1-16.77 3.3-5-5.2-1.67-14.98 5.46-16.06z" fill="#2e4553"/><path d="M26.4 33.58c6.34-2.15 14.13-.58 18.44 4.72 1.95 2.47-.83 6.27-3.73 5.63-2.72-1.25-4.9-3.9-8.1-3.9-5.25-.6-10.36 3.73-10.64 9-.72 5.8 4.78 11.3 10.58 10.6 3.14-.06 5.37-2.5 8-3.85 2.83-.85 5.6 2.63 4.1 5.17-2.5 3.7-7.06 5.37-11.3 6.2-6.45.28-12.65-2.8-16.3-8.1-1.6-3.1-2.7-6.57-2.45-10.1.2-6.8 5.05-13.05 11.4-15.35zm34.96.02c10.34-4.05 22.92 4.2 22.95 15.37.98 10-8.58 19.13-18.5 18-9.04-.46-16.6-9.12-15.8-18.15.24-6.76 5.06-12.92 11.35-15.23m3.83 6.6c-7.13 1.08-10.46 10.86-5.46 16.06 4.5 5.8 14.78 3.75 16.77-3.3 2.68-6.8-4.27-14.6-11.3-12.77z" fill="#fff"/></svg>
