<svg xmlns="http://www.w3.org/2000/svg" width="241" height="241" viewBox="0 0 180 180"><path d="M0 0h180v90.7c-.47-10.85-1.9-21.8-5.87-31.97-8.14-20.67-24.22-37.96-43.94-48.1C113.56 2.4 94.3-.33 76 2.62 45.07 6.97 18.1 29.7 6.64 58.46 3.12 66.9 1.94 76 .52 84.97.2 91.3.24 97.7 1.6 103.93c2.2 18.3 10.9 35.57 23.7 48.78 14.56 15.47 34.73 26.25 56.16 27.3H0V0zm81.55 40.82c11.52-1.6 23.8-.24 33.93 5.82 12.72 7.63 22.82 20.52 25.04 35.4 2.57 13.4-.62 27.82-8.72 38.8-6.22 8.17-14.5 15.02-24.28 18.4-11.42 3.9-24.14 3.82-35.48-.36-11.96-4.65-21.9-14-27.72-25.4-6.97-14.7-6.72-32.8 1.23-47.05 7.58-13.14 20.83-23.32 36-25.63zM99.6 180c20.72-1.16 40.2-11.4 54.6-26.07 4.13 3.52 7.67 7.65 11.67 11.32 4.7 4.83 10 9.13 14.14 14.47v.28H99.6z" fill="#2696d7"/><path d="M76 2.62c18.3-2.95 37.57-.23 54.2 8 19.72 10.13 35.8 27.42 43.94 48.1 3.97 10.18 5.4 21.12 5.87 31.97v89.03c-4.14-5.34-9.44-9.64-14.14-14.47-4-3.67-7.54-7.8-11.67-11.32-14.4 14.66-33.88 24.9-54.6 26.07h-18.1c-21.43-1.04-41.6-11.82-56.16-27.3-12.8-13.2-21.5-30.47-23.7-48.78C.24 97.7.2 91.3.52 84.97 1.94 76 3.12 66.9 6.64 58.46 18.1 29.7 45.07 6.97 76 2.62m5.56 38.2c-15.17 2.3-28.42 12.5-36 25.63-7.95 14.26-8.2 32.36-1.23 47.05 5.82 11.4 15.76 20.75 27.72 25.4 11.34 4.18 24.06 4.26 35.48.36 9.8-3.38 18.06-10.23 24.28-18.4 8.1-11 11.3-25.42 8.72-38.8-2.22-14.9-12.32-27.78-25.04-35.4-10.12-6.06-22.4-7.42-33.93-5.82z" fill="#fff"/></svg>