<?xml version="1.0" standalone="no"?>
<!DOCTYPE svg PUBLIC "-//W3C//DTD SVG 1.1//EN" "http://www.w3.org/Graphics/SVG/1.1/DTD/svg11.dtd" >
<svg xmlns="http://www.w3.org/2000/svg">
<metadata>Generated by IcoMoon</metadata>
<defs>
<font id="mb-icons" horiz-adv-x="1024">
<font-face units-per-em="1024" ascent="960" descent="-64" />
<missing-glyph horiz-adv-x="1024" />
<glyph unicode="&#x20;" horiz-adv-x="512" d="" />
<glyph unicode="&#xe900;" glyph-name="ad" d="M928 832h-832c-53 0-96-43-96-96v-576c0-53 43-96 96-96h832c53 0 96 43 96 96v576c0 53-43 96-96 96zM960 160c0-17.64-14.36-32-32-32h-832c-17.64 0-32 14.36-32 32v576c0 17.64 14.36 32 32 32h832c17.64 0 32-14.36 32-32v-576zM816 640h-32c-8.84 0-16-7.16-16-16v-129.76c-18.9 11-40.56 17.76-64 17.76-70.7 0-128-57.3-128-128s57.3-128 128-128c23.44 0 45.1 6.76 64 17.76v-1.76c0-8.84 7.16-16 16-16h32c8.84 0 16 7.16 16 16v352c0 8.84-7.16 16-16 16zM704 320c-35.28 0-64 28.72-64 64s28.72 64 64 64 64-28.72 64-64-28.72-64-64-64zM393.94 629.74c-2.377 6.051-8.167 10.258-14.94 10.26h-54.020c-6.62 0-12.56-4.080-14.94-10.26l-135.38-352c-4.040-10.48 3.7-21.74 14.94-21.74h34.3c6.62 0 12.56 4.080 14.94 10.26l45.3 117.74h135.72l45.28-117.74c2.377-6.051 8.167-10.258 14.94-10.26h34.3c11.24 0 18.96 11.26 14.94 21.74l-135.38 352zM308.74 448l43.26 112.46 43.26-112.46h-86.52z" />
<glyph unicode="&#xe901;" glyph-name="angle-double-down" horiz-adv-x="512" d="M239 434.2l-232 235.6c-9.4 9.4-9.4 24.6 0 34l14.2 14.2c9.4 9.4 24.6 9.4 34 0l200.8-204.6 200.8 204.4c9.4 9.4 24.6 9.4 34 0l14.2-14.2c9.4-9.4 9.4-24.6 0-34l-232-235.6c-9.4-9.2-24.6-9.2-34 0.2zM273 178.2l232 235.6c9.4 9.4 9.4 24.6 0 34l-14.2 14.2c-9.4 9.4-24.6 9.4-34 0l-200.8-204.6-200.8 204.4c-9.4 9.4-24.6 9.4-34 0l-14.2-14.2c-9.4-9.4-9.4-24.6 0-34l232-235.6c9.4-9.2 24.6-9.2 34 0.2z" />
<glyph unicode="&#xe902;" glyph-name="angle-double-left" horiz-adv-x="640" d="M306.2 465l235.6 232c9.4 9.4 24.6 9.4 34 0l14.2-14.2c9.4-9.4 9.4-24.6 0-34l-204.6-200.8 204.4-200.8c9.4-9.4 9.4-24.6 0-34l-14.2-14.2c-9.4-9.4-24.6-9.4-34 0l-235.6 232c-9.2 9.4-9.2 24.6 0.2 34zM50.2 431l235.6-232c9.4-9.4 24.6-9.4 34 0l14.2 14.2c9.4 9.4 9.4 24.6 0 34l-204.6 200.8 204.4 200.8c9.4 9.4 9.4 24.6 0 34l-14.2 14.2c-9.4 9.4-24.6 9.4-34 0l-235.6-232c-9.2-9.4-9.2-24.6 0.2-34z" />
<glyph unicode="&#xe903;" glyph-name="angle-double-right" horiz-adv-x="640" d="M333.8 431l-235.6-232c-9.4-9.4-24.6-9.4-34 0l-14.2 14.2c-9.4 9.4-9.4 24.6 0 34l204.6 200.8-204.4 200.8c-9.4 9.4-9.4 24.6 0 34l14.2 14.2c9.4 9.4 24.6 9.4 34 0l235.6-232c9.2-9.4 9.2-24.6-0.2-34zM589.8 465l-235.6 232c-9.4 9.4-24.6 9.4-34 0l-14.2-14.2c-9.4-9.4-9.4-24.6 0-34l204.6-200.8-204.4-200.8c-9.4-9.4-9.4-24.6 0-34l14.2-14.2c9.4-9.4 24.6-9.4 34 0l235.6 232c9.2 9.4 9.2 24.6-0.2 34z" />
<glyph unicode="&#xe904;" glyph-name="angle-double-up" horiz-adv-x="512" d="M273 461.8l232-235.6c9.4-9.4 9.4-24.6 0-34l-14.2-14.2c-9.4-9.4-24.6-9.4-34 0l-200.8 204.6-200.8-204.4c-9.4-9.4-24.6-9.4-34 0l-14.2 14.2c-9.4 9.4-9.4 24.6 0 34l232 235.6c9.4 9.2 24.6 9.2 34-0.2zM239 717.8l-232-235.6c-9.4-9.4-9.4-24.6 0-34l14.2-14.2c9.4-9.4 24.6-9.4 34 0l200.8 204.6 200.8-204.4c9.4-9.4 24.6-9.4 34 0l14.2 14.2c9.4 9.4 9.4 24.6 0 34l-232 235.6c-9.4 9.2-24.6 9.2-34-0.2z" />
<glyph unicode="&#xe905;" glyph-name="angle-down" horiz-adv-x="512" d="M239 306.2l-232 235.6c-9.4 9.4-9.4 24.6 0 34l14.2 14.2c9.4 9.4 24.6 9.4 34 0l200.8-204.6 200.8 204.4c9.4 9.4 24.6 9.4 34 0l14.2-14.2c9.4-9.4 9.4-24.6 0-34l-232-235.6c-9.4-9.2-24.6-9.2-34 0.2z" />
<glyph unicode="&#xe906;" glyph-name="angle-left" horiz-adv-x="384" d="M50.2 465l235.6 232c9.4 9.4 24.6 9.4 34 0l14.2-14.2c9.4-9.4 9.4-24.6 0-34l-204.6-200.8 204.4-200.8c9.4-9.4 9.4-24.6 0-34l-14.2-14.2c-9.4-9.4-24.6-9.4-34 0l-235.6 232c-9.2 9.4-9.2 24.6 0.2 34z" />
<glyph unicode="&#xe907;" glyph-name="angle-right" horiz-adv-x="384" d="M333.8 431l-235.6-232c-9.4-9.4-24.6-9.4-34 0l-14.2 14.2c-9.4 9.4-9.4 24.6 0 34l204.6 200.8-204.4 200.8c-9.4 9.4-9.4 24.6 0 34l14.2 14.2c9.4 9.4 24.6 9.4 34 0l235.6-232c9.2-9.4 9.2-24.6-0.2-34z" />
<glyph unicode="&#xe908;" glyph-name="angle-up" horiz-adv-x="512" d="M273 589.8l232-235.6c9.4-9.4 9.4-24.6 0-34l-14.2-14.2c-9.4-9.4-24.6-9.4-34 0l-200.8 204.6-200.8-204.4c-9.4-9.4-24.6-9.4-34 0l-14.2 14.2c-9.4 9.4-9.4 24.6 0 34l232 235.6c9.4 9.2 24.6 9.2 34-0.2z" />
<glyph unicode="&#xe909;" glyph-name="angry" horiz-adv-x="992" d="M496 944c-274 0-496-222-496-496s222-496 496-496 496 222 496 496-222 496-496 496zM496 16c-238.2 0-432 193.8-432 432s193.8 432 432 432 432-193.8 432-432-193.8-432-432-432zM496 288c-62.4 0-121.2-27.6-161.2-75.6-11.4-13.6-9.6-33.8 4-45s33.8-9.6 45 4c55.8 66.8 168.4 66.8 224.2 0 10.6-12.8 30.8-16 45-4 13.6 11.4 15.4 31.6 4 45-39.8 48-98.6 75.6-161 75.6zM400 480c0 5.8-1.8 11.2-3.4 16.4 1.2-0.2 2.2-0.4 3.4-0.4 13.8 0 26.4 9 30.6 22.8 5.2 17-4.4 34.8-21.4 39.8l-160 48c-16.8 5-34.8-4.6-39.8-21.4-5.2-17 4.4-34.8 21.4-39.8l62-18.6c-12.6-11.6-21-28.2-21-46.8 0-35.4 28.6-64 64-64s64.2 28.6 64.2 64zM742.8 606.6l-160-48c-17-5-26.6-23-21.4-39.8 4.2-13.8 16.8-22.8 30.6-22.8 1.2 0 2.2 0.4 3.4 0.4-1.4-5.4-3.4-10.6-3.4-16.4 0-35.4 28.6-64 64-64s64 28.6 64 64c0 18.6-8.2 35-21 46.8l62 18.6c17 5 26.6 23 21.4 39.8-4.8 17-22.8 26.4-39.6 21.4z" />
<glyph unicode="&#xe90a;" glyph-name="arrow-alt-circle-down" d="M512 944c-274 0-496-222-496-496s222-496 496-496 496 222 496 496-222 496-496 496zM944 448c0-237.4-192.2-432-432-432-237.4 0-432 192.2-432 432 0 237.4 192.2 432 432 432 237.4 0 432-192.2 432-432zM768 512h-128v208c0 26.4-21.6 48-48 48h-160c-26.4 0-48-21.6-48-48v-208h-128c-56.8 0-85.6-69-45.2-109.2l256-256c25-25 65.6-25 90.6 0l256 256c40 40.2 11.6 109.2-45.4 109.2zM512 192l-256 256h192v256h128v-256h192l-256-256z" />
<glyph unicode="&#xe90b;" glyph-name="arrow-circle-down" d="M512 944c-274 0-496-222-496-496s222-496 496-496 496 222 496 496-222 496-496 496zM944 448c0-237.4-192.2-432-432-432-237.4 0-432 192.2-432 432 0 237.4 192.2 432 432 432 237.4 0 432-192.2 432-432zM759 457l-13.8 13.8c-9.4 9.4-25 9.4-34.2-0.4l-165-171v380.6c0 13.2-10.8 24-24 24h-20c-13.2 0-24-10.8-24-24v-380.6l-165 171.2c-9.4 9.6-24.8 9.8-34.2 0.4l-13.8-13.8c-9.4-9.4-9.4-24.6 0-34l230-230.2c9.4-9.4 24.6-9.4 34 0l230 230.2c9.4 9.2 9.4 24.4 0 33.8z" />
<glyph unicode="&#xe90c;" glyph-name="arrow-circle-left" d="M1008 448c0 274-222 496-496 496s-496-222-496-496 222-496 496-496 496 222 496 496zM512 16c-237.4 0-432 192.2-432 432 0 237.4 192.2 432 432 432 237.4 0 432-192.2 432-432 0-237.4-192.2-432-432-432zM487 201l-230.2 230c-9.4 9.4-9.4 24.6 0 34l230.2 230c9.4 9.4 24.6 9.4 34 0l13.8-13.8c9.4-9.4 9.4-25-0.4-34.2l-171-165h380.6c13.2 0 24-10.8 24-24v-20c0-13.2-10.8-24-24-24h-380.6l171.2-165c9.6-9.4 9.8-24.8 0.4-34.2l-13.8-13.8c-9.6-9.4-24.8-9.4-34.2 0z" />
<glyph unicode="&#xe90d;" glyph-name="arrow-circle-right" d="M16 448c0-274 222-496 496-496s496 222 496 496-222 496-496 496-496-222-496-496zM512 880c237.4 0 432-192.2 432-432 0-237.4-192.2-432-432-432-237.4 0-432 192.2-432 432 0 237.4 192.2 432 432 432zM537 695l230.2-230c9.4-9.4 9.4-24.6 0-34l-230.2-230c-9.4-9.4-24.6-9.4-34 0l-13.8 13.8c-9.4 9.4-9.4 25 0.4 34.2l171.2 165h-380.8c-13.2 0-24 10.8-24 24v20c0 13.2 10.8 24 24 24h380.6l-171.2 165c-9.6 9.4-9.8 24.8-0.4 34.2l13.8 13.8c9.6 9.4 24.8 9.4 34.2 0z" />
<glyph unicode="&#xe90e;" glyph-name="arrow-circle-up" d="M512-48c274 0 496 222 496 496s-222 496-496 496-496-222-496-496 222-496 496-496zM80 448c0 237.4 192.2 432 432 432 237.4 0 432-192.2 432-432 0-237.4-192.2-432-432-432-237.4 0-432 192.2-432 432zM265 473l230 230.2c9.4 9.4 24.6 9.4 34 0l230-230.2c9.4-9.4 9.4-24.6 0-34l-13.8-13.8c-9.4-9.4-25-9.4-34.2 0.4l-165 171v-380.6c0-13.2-10.8-24-24-24h-20c-13.2 0-24 10.8-24 24v380.6l-165-171.2c-9.4-9.6-24.8-9.8-34.2-0.4l-13.8 13.8c-9.4 9.6-9.4 24.8 0 34.2z" />
<glyph unicode="&#xe90f;" glyph-name="arrow-down" horiz-adv-x="896" d="M887 463l-14.2 14.2c-9.4 9.4-24.6 9.4-34 0l-356.8-357v751.8c0 13.2-10.8 24-24 24h-20c-13.2 0-24-10.8-24-24v-751.8l-357 357c-9.4 9.4-24.6 9.4-34 0l-14.2-14.2c-9.4-9.4-9.4-24.6 0-34l422-422.2c9.4-9.4 24.6-9.4 34 0l422 422.2c9.6 9.6 9.6 24.6 0.2 34z" />
<glyph unicode="&#xe910;" glyph-name="arrow-left" horiz-adv-x="896" d="M463.072 8.93l14.142 14.14c9.372 9.372 9.372 24.568 0 33.942l-356.988 356.988h751.774c13.254 0 24 10.746 24 24v20c0 13.254-10.746 24-24 24h-751.774l356.988 356.988c9.372 9.372 9.372 24.568 0 33.942l-14.142 14.14c-9.372 9.372-24.568 9.372-33.94 0l-422.102-422.1c-9.372-9.372-9.372-24.568 0-33.942l422.102-422.1c9.372-9.372 24.568-9.372 33.94 0.002z" />
<glyph unicode="&#xe911;" glyph-name="arrow-right" horiz-adv-x="896" d="M432.928 887.070l-14.142-14.14c-9.372-9.372-9.372-24.568 0-33.942l356.988-356.988h-751.774c-13.254 0-24-10.746-24-24v-20c0-13.254 10.746-24 24-24h751.774l-356.988-356.988c-9.372-9.372-9.372-24.568 0-33.942l14.142-14.14c9.372-9.372 24.568-9.372 33.94 0l422.102 422.1c9.372 9.372 9.372 24.568 0 33.942l-422.102 422.098c-9.372 9.374-24.568 9.374-33.94 0z" />
<glyph unicode="&#xe912;" glyph-name="arrow-up" horiz-adv-x="896" d="M8.93 432.928l14.14-14.142c9.372-9.372 24.568-9.372 33.942 0l356.988 356.988v-751.774c0-13.254 10.746-24 24-24h20c13.254 0 24 10.746 24 24v751.774l356.988-356.986c9.372-9.372 24.568-9.372 33.942 0l14.14 14.142c9.372 9.372 9.372 24.568 0 33.94l-422.1 422.1c-9.372 9.372-24.568 9.372-33.942 0l-422.098-422.102c-9.374-9.372-9.374-24.568 0-33.94z" />
<glyph unicode="&#xe913;" glyph-name="calendar-alt" horiz-adv-x="896" d="M800 832h-96v112c0 8.8-7.2 16-16 16h-32c-8.8 0-16-7.2-16-16v-112h-384v112c0 8.8-7.2 16-16 16h-32c-8.8 0-16-7.2-16-16v-112h-96c-53 0-96-43-96-96v-704c0-53 43-96 96-96h704c53 0 96 43 96 96v704c0 53-43 96-96 96zM277.4 0h-181.4c-17.6 0-32 14.4-32 32v117.4h213.4v-149.4zM277.4 213.4h-213.4v149.4h213.4v-149.4zM64 426.6v149.4h213.4v-149.4h-213.4zM554.6 0h-213.2v149.4h213.4v-149.4zM554.6 213.4h-213.2v149.4h213.4v-149.4zM341.4 426.6v149.4h213.4v-149.4h-213.4zM832 32c0-17.6-14.4-32-32-32h-181.4v149.4h213.4v-117.4zM832 213.4h-213.4v149.4h213.4v-149.4zM832 426.6h-213.4v149.4h213.4v-149.4zM832 640h-768v96c0 17.6 14.4 32 32 32h704c17.6 0 32-14.4 32-32v-96z" />
<glyph unicode="&#xe914;" glyph-name="chevron-circle-down" d="M512 944c-274 0-496-222-496-496s222-496 496-496 496 222 496 496-222 496-496 496zM944 448c0-237.4-192.2-432-432-432-237.4 0-432 192.2-432 432 0 237.4 192.2 432 432 432 237.4 0 432-192.2 432-432zM529 274.8l230 230.2c9.4 9.4 9.4 24.6 0 34l-14.2 14.2c-9.4 9.4-24.6 9.4-34 0l-198.8-199.2-199 199c-9.4 9.4-24.6 9.4-34 0l-14.2-14.2c-9.4-9.4-9.4-24.6 0-34l230-230.2c9.6-9.2 24.8-9.2 34.2 0.2z" />
<glyph unicode="&#xe915;" glyph-name="chevron-circle-left" d="M1008 448c0 274-222 496-496 496s-496-222-496-496 222-496 496-496 496 222 496 496zM512 16c-237.4 0-432 192.2-432 432 0 237.4 192.2 432 432 432 237.4 0 432-192.2 432-432 0-237.4-192.2-432-432-432zM338.8 465l230.2 230c9.4 9.4 24.6 9.4 34 0l14.2-14.2c9.4-9.4 9.4-24.6 0-34l-199.2-198.8 199-199c9.4-9.4 9.4-24.6 0-34l-14.2-14.2c-9.4-9.4-24.6-9.4-34 0l-230.2 230c-9.2 9.6-9.2 24.8 0.2 34.2z" />
<glyph unicode="&#xe916;" glyph-name="chevron-circle-right" d="M16 448c0-274 222-496 496-496s496 222 496 496-222 496-496 496-496-222-496-496zM512 880c237.4 0 432-192.2 432-432 0-237.4-192.2-432-432-432-237.4 0-432 192.2-432 432 0 237.4 192.2 432 432 432zM685.2 431l-230.2-230c-9.4-9.4-24.6-9.4-34 0l-14.2 14.2c-9.4 9.4-9.4 24.6 0 34l199.2 198.8-199 199c-9.4 9.4-9.4 24.6 0 34l14.2 14.2c9.4 9.4 24.6 9.4 34 0l230.2-230c9.2-9.6 9.2-24.8-0.2-34.2z" />
<glyph unicode="&#xe917;" glyph-name="chevron-circle-up" d="M512-48c274 0 496 222 496 496s-222 496-496 496-496-222-496-496 222-496 496-496zM80 448c0 237.4 192.2 432 432 432 237.4 0 432-192.2 432-432 0-237.4-192.2-432-432-432-237.4 0-432 192.2-432 432zM529 621.2l230-230.2c9.4-9.4 9.4-24.6 0-34l-14.2-14.2c-9.4-9.4-24.6-9.4-34 0l-198.8 199.2-199-199c-9.4-9.4-24.6-9.4-34 0l-14.2 14.2c-9.4 9.4-9.4 24.6 0 34l230 230.2c9.6 9.2 24.8 9.2 34.2-0.2z" />
<glyph unicode="&#xe918;" glyph-name="comments" horiz-adv-x="1152" d="M1064 187.6c55 54.2 88 122.2 88 196.4 0 160-153 292.2-352.4 315.8-62.8 115.2-211 196.2-383.6 196.2-229.8 0-416-143.2-416-320 0-74 33-142 88-196.4-30.6-61.4-74.6-109-75.4-109.8-12.6-13.4-16.2-33-8.8-50 7.2-17 24-28 42.4-28 107 0 193.4 40.4 250.4 77.6 18.2-4.2 36.8-7.4 56-9.6 63-115 211-196 383.6-196 41.6 0 81.6 4.8 119.6 13.6 57-37 143.2-77.6 250.4-77.6 18.4 0 35 11 42.4 28 7.2 17 3.8 36.6-8.8 50-1 0.8-45.2 48.4-75.8 109.8zM284.4 338l-22.8-14.8c-40.2-26.2-101-56.4-175.4-65 17.6 22.6 40.4 55.2 59 92.8l20.8 41.6-33 32.6c-31.6 31-69 82.4-69 150.8 0 141.2 158 256 352 256s352-114.8 352-256-158-256-352-256c-35.4 0-70.8 4-105.2 12l-26.4 6zM890.4 131.2l-22.8 14.8-26.4-6.2c-34.4-8-69.8-12-105.2-12-130.2 0-244 51.8-304.8 128.6 222.6 6.4 400.8 146.8 400.8 319.6 0 19-2.6 37.4-6.6 55.4 150.8-29 262.6-128.8 262.6-247.4 0-68.4-37.4-119.8-69-150.8l-33-32.6 20.6-41.4c18.8-37.8 41.6-70.4 59-92.8-74.2 8.4-135 38.8-175.2 64.8zM814.8 666.6c0.2-0.4 0.2-0.8 0.4-1.2-0.2 0.4-0.2 0.8-0.4 1.2z" />
<glyph unicode="&#xe919;" glyph-name="comments-alt" horiz-adv-x="1152" d="M1024 640h-192v192c0 70.6-57.4 128-128 128h-576c-70.6 0-128-57.4-128-128v-320c0-70.6 57.4-128 128-128h64v-104c0-14.2 11.6-24 24-24 4.8 0 9.8 1.4 14.2 4.8l217.8 123.2h256c70.6 0 128 57.4 128 128v64h192c35.2 0 64-28.8 64-64v-320c0-35.2-28.8-64-64-64h-128v-99.2l-175 99.2h-209c-35.2 0-64 28.8-64 64v192l-64-36.2v-155.8c0-70.6 57.4-128 128-128h192l217.8-123.2c4.4-3.2 9.4-4.8 14.2-4.8 12.4 0 24 9.8 24 24v104h64c70.6 0 128 57.4 128 128v320c0 70.6-57.4 128-128 128zM768 512c0-35.2-28.8-64-64-64h-272.8l-14.6-8.4-160.6-90.8v99.2h-128c-35.2 0-64 28.8-64 64v320c0 35.2 28.8 64 64 64h576c35.2 0 64-28.8 64-64v-320z" />
<glyph unicode="&#xe91a;" glyph-name="dizzy" horiz-adv-x="992" d="M496 944c-274 0-496-222-496-496s222-496 496-496 496 222 496 496-222 496-496 496zM496 16c-238.2 0-432 193.8-432 432s193.8 432 432 432 432-193.8 432-432-193.8-432-432-432zM496 384c-70.6 0-128-57.4-128-128s57.4-128 128-128 128 57.4 128 128-57.4 128-128 128zM496 192c-35.2 0-64 28.8-64 64s28.8 64 64 64 64-28.8 64-64-28.8-64-64-64zM438.6 473.4c12.4 12.4 12.4 32.8 0 45.2l-57.4 57.4 57.4 57.4c12.4 12.4 12.4 32.8 0 45.2s-32.8 12.4-45.2 0l-57.4-57.4-57.4 57.4c-12.4 12.4-32.8 12.4-45.2 0s-12.4-32.8 0-45.2l57.4-57.4-57.4-57.4c-12.4-12.4-12.4-32.8 0-45.2s32.8-12.6 45.2 0l57.4 57.4 57.4-57.4c12.4-12.6 32.8-12.6 45.2 0zM758.6 678.6c-12.4 12.4-32.8 12.4-45.2 0l-57.4-57.4-57.4 57.4c-12.4 12.4-32.8 12.4-45.2 0s-12.4-32.8 0-45.2l57.4-57.4-57.4-57.4c-12.4-12.4-12.4-32.8 0-45.2s32.8-12.6 45.2 0l57.4 57.4 57.4-57.4c12.4-12.4 32.8-12.6 45.2 0 12.4 12.4 12.4 32.8 0 45.2l-57.4 57.4 57.4 57.4c12.6 12.4 12.6 32.8 0 45.2z" />
<glyph unicode="&#xe91b;" glyph-name="eye" horiz-adv-x="1152" d="M1138.708 496.738c-112.77 191.366-323.092 319.262-562.708 319.262-239.72 0-449.992-127.988-562.708-319.26-8.353-13.945-13.293-30.765-13.293-48.739s4.94-34.794 13.536-49.177l-0.243 0.438c112.772-191.368 323.092-319.262 562.708-319.262 239.72 0 449.992 127.988 562.708 319.262 8.352 13.945 13.291 30.765 13.291 48.738s-4.939 34.793-13.534 49.176l0.243-0.438zM832 504c0-136.966-114.616-248-256-248s-256 111.034-256 248 114.616 248 256 248 256-111.034 256-248zM1083.568 431.754c-103.894-176.308-295.838-287.754-507.568-287.754-212.582 0-404.122 112.21-507.568 287.752-2.783 4.649-4.429 10.256-4.429 16.247s1.646 11.598 4.51 16.393l-0.081-0.146c58.144 98.666 146.682 180.87 255.32 231.774-42.062-52.402-67.752-119.156-67.752-192.020 0-171.636 142.442-312 320-312 177.54 0 320 140.356 320 312 0 72.822-25.666 139.588-67.75 192.020 107.52-50.378 196.548-132.042 255.32-231.774 2.782-4.648 4.428-10.254 4.428-16.244 0-5.992-1.646-11.599-4.511-16.394l0.081 0.146zM448 512c0 21.794 5.454 42.312 15.060 60.274v-0.040c0-29.108 23.598-52.706 52.706-52.706s52.706 23.598 52.706 52.706-23.598 52.706-52.706 52.706h-0.040c17.962 9.606 38.48 15.060 60.274 15.060 70.692 0 128-57.308 128-128s-57.308-128-128-128-128 57.308-128 128z" />
<glyph unicode="&#xe91c;" glyph-name="file-archive" horiz-adv-x="768" d="M739.882 764.118l-167.764 167.764c-17.373 17.373-41.372 28.118-67.882 28.118h-408.236c-53.020 0-96-42.98-96-96v-832c0-53.020 42.98-96 96-96h576c53.020 0 96 42.98 96 96v664.236c0 26.51-10.745 50.509-28.118 67.882v0zM512 895.018c5.851-1.475 10.883-4.406 14.862-8.39v0l167.764-167.764c3.983-3.98 6.914-9.011 8.343-14.642l0.047-0.22h-191.016v191.016zM704 32c0-17.674-14.328-32-32-32h-576c-17.672 0-32 14.326-32 32v832c0 17.674 14.328 32 32 32h159.428v-64h64v64h128.572v-208c0-26.51 21.49-48 48-48h208v-608zM384 768h-64v64h64v-64zM320 768v-64h-64v64h64zM320 640v-64h-64v64h64zM384 640h-64v64h64v-64zM364.324 448h-44.324v64h-64v-64l-38.898-194.486c-12.986-64.93 36.676-125.514 102.898-125.514 66.218 0 115.884 60.582 102.898 125.514l-35.038 175.192c-2.275 11.079-11.946 19.294-23.536 19.294 0 0 0 0 0 0v0zM320.54 179.854c-35.836 0-64.888 24.21-64.888 54.072 0 29.864 29.050 54.072 64.888 54.072s64.888-24.208 64.888-54.072c0-29.862-29.052-54.072-64.888-54.072zM384 512h-64v64h64v-64z" />
<glyph unicode="&#xe91d;" glyph-name="flushed" horiz-adv-x="992" d="M496 944c-274 0-496-222-496-496s222-496 496-496 496 222 496 496-222 496-496 496zM496 16c-238.2 0-432 193.8-432 432s193.8 432 432 432 432-193.8 432-432-193.8-432-432-432zM688 672c-88.4 0-160-71.6-160-160s71.6-160 160-160 160 71.6 160 160-71.6 160-160 160zM688 416c-53 0-96 43-96 96s43 96 96 96 96-43 96-96-43-96-96-96zM688 560c-26.6 0-48-21.4-48-48s21.4-48 48-48 48 21.4 48 48-21.4 48-48 48zM464 512c0 88.4-71.6 160-160 160s-160-71.6-160-160 71.6-160 160-160 160 71.6 160 160zM304 416c-53 0-96 43-96 96s43 96 96 96 96-43 96-96-43-96-96-96zM304 560c-26.6 0-48-21.4-48-48s21.4-48 48-48 48 21.4 48 48-21.4 48-48 48zM624 224h-256c-17.6 0-32-14.4-32-32s14.4-32 32-32h256c17.6 0 32 14.4 32 32s-14.4 32-32 32z" />
<glyph unicode="&#xe91e;" glyph-name="frown" horiz-adv-x="992" d="M496 944c-274 0-496-222-496-496s222-496 496-496 496 222 496 496-222 496-496 496zM496 16c-238.2 0-432 193.8-432 432s193.8 432 432 432 432-193.8 432-432-193.8-432-432-432zM496 320c-88.8 0-172.4-39.2-229.6-107.6-11.4-13.6-9.6-33.8 4-45 13.6-11.4 33.8-9.6 45 4 44.8 53.6 110.6 84.4 180.4 84.4s135.6-30.8 180.4-84.4c10.6-12.8 30.8-16 45-4 13.6 11.4 15.4 31.6 4 45-56.8 68.4-140.4 107.6-229.2 107.6zM336 480c35.4 0 64 28.6 64 64s-28.6 64-64 64-64-28.6-64-64 28.6-64 64-64zM656 480c35.4 0 64 28.6 64 64s-28.6 64-64 64-64-28.6-64-64 28.6-64 64-64z" />
<glyph unicode="&#xe91f;" glyph-name="frown-open" horiz-adv-x="992" d="M496 944c-274 0-496-222-496-496s222-496 496-496 496 222 496 496-222 496-496 496zM496 16c-238.2 0-432 193.8-432 432s193.8 432 432 432 432-193.8 432-432-193.8-432-432-432zM336 480c35.4 0 64 28.6 64 64s-28.6 64-64 64-64-28.6-64-64 28.6-64 64-64zM656 608c-35.4 0-64-28.6-64-64s28.6-64 64-64 64 28.6 64 64-28.6 64-64 64zM496 384c-79.4 0-205.2-47.4-223-149-3.8-21.8 4-44.4 20.6-59 16.4-14.6 39.8-19.8 61.2-13.2 58.6 18 112.8 29.2 141.2 29.2s82.6-11.2 141.2-29.2c15.4-4.8 40.2-5.2 61.2 13.2 16.4 14.6 24.4 37.2 20.6 59-17.8 101.6-143.6 149-223 149zM496 256c-35.4 0-93.8-11.6-160-32 10.4 59.4 100.2 96 160 96s149.6-36.6 160-96c-66.2 20.4-124.6 32-160 32z" />
<glyph unicode="&#xe920;" glyph-name="grimace" horiz-adv-x="992" d="M496 944c-274 0-496-222-496-496s222-496 496-496 496 222 496 496-222 496-496 496zM496 16c-238.2 0-432 193.8-432 432s193.8 432 432 432 432-193.8 432-432-193.8-432-432-432zM336 480c35.4 0 64 28.6 64 64s-28.6 64-64 64-64-28.6-64-64 28.6-64 64-64zM656 480c35.4 0 64 28.6 64 64s-28.6 64-64 64-64-28.6-64-64 28.6-64 64-64zM688 416h-384c-53 0-96-43-96-96v-64c0-53 43-96 96-96h384c53 0 96 43 96 96v64c0 53-43 96-96 96zM352 224h-48c-17.6 0-32 14.4-32 32v16h80v-48zM352 304h-80v16c0 17.6 14.4 32 32 32h48v-48zM480 224h-96v48h96v-48zM480 304h-96v48h96v-48zM608 224h-96v48h96v-48zM608 304h-96v48h96v-48zM720 256c0-17.6-14.4-32-32-32h-48v48h80v-16zM720 304h-80v48h48c17.6 0 32-14.4 32-32v-16z" />
<glyph unicode="&#xe921;" glyph-name="grin" horiz-adv-x="992" d="M496 944c-274 0-496-222-496-496s222-496 496-496 496 222 496 496-222 496-496 496zM496 16c-238.2 0-432 193.8-432 432s193.8 432 432 432 432-193.8 432-432-193.8-432-432-432zM742.2 318.4c-60.4-19.4-150.2-30.4-246.2-30.4s-185.8 11-246.2 30.4c-10.6 3.4-22.2 1-30.6-6.2-8.4-7.4-12.4-18.4-10.6-29.6 18.4-110 166.4-186.6 287.6-186.6s269 76.6 287.6 186.6c1.8 11-2.2 22.2-10.6 29.6-8.6 7.4-20.4 9.8-31 6.2zM496 160c-70 0-154 32.6-197 80.6 115-21.6 279.2-21.6 394.2 0-43.2-48-127.2-80.6-197.2-80.6zM336 480c35.4 0 64 28.6 64 64s-28.6 64-64 64-64-28.6-64-64 28.6-64 64-64zM656 480c35.4 0 64 28.6 64 64s-28.6 64-64 64-64-28.6-64-64 28.6-64 64-64z" />
<glyph unicode="&#xe922;" glyph-name="grin-alt" horiz-adv-x="992" d="M496 944c-274 0-496-222-496-496s222-496 496-496 496 222 496 496-222 496-496 496zM496 16c-238.2 0-432 193.8-432 432s193.8 432 432 432 432-193.8 432-432-193.8-432-432-432zM368.6 448c24.8 37.4 30.2 74.6 31.4 112-1 37.4-6.6 74.6-31.4 112-16 24-50.2 22.8-65.4 0-24.8-37.4-30.2-74.6-31.4-112 1-37.4 6.6-74.6 31.4-112 16.2-24 50.4-22.8 65.4 0zM688.6 448c24.8 37.4 30.2 74.6 31.4 112-1 37.4-6.6 74.6-31.4 112-16 24-50.2 22.8-65.4 0-24.8-37.4-30.2-74.6-31.4-112 1-37.4 6.6-74.6 31.4-112 16.2-24 50.4-22.8 65.4 0zM742.2 318.4c-60.4-19.4-150.2-30.4-246.2-30.4s-185.8 11-246.2 30.4c-10.6 3.4-22.4 1-30.6-6.2-8.4-7.4-12.4-18.4-10.6-29.6 18.4-110 166.4-186.6 287.6-186.6s269 76.6 287.6 186.6c1.8 11-2.2 22.2-10.6 29.6-8.6 7.4-20.4 9.8-31 6.2zM496 160c-70 0-154 32.6-197 80.6 115-21.6 279.2-21.6 394.2 0-43.2-48-127.2-80.6-197.2-80.6z" />
<glyph unicode="&#xe923;" glyph-name="grin-beam" horiz-adv-x="992" d="M235.4 464.6c6.8-2.2 14.8 1 18.6 7.4l19 34c15.4 27.4 38.4 43.2 63 43.2s47.6-15.8 63-43.2l19-34c4.2-7.4 12.4-9.4 18.6-7.4 7.2 2.2 12 9 11.4 16.6-6.6 84.2-64.4 142.8-112 142.8s-105.4-58.6-112-142.8c-0.6-7.4 4.2-14.4 11.4-16.6zM555.4 464.6c6.8-2.2 14.8 1 18.6 7.4l19 34c15.4 27.4 38.4 43.2 63 43.2s47.6-15.8 63-43.2l19-34c4.2-7.4 12.4-9.4 18.6-7.4 7.2 2.2 12 9 11.4 16.6-6.6 84.2-64.4 142.8-112 142.8s-105.4-58.6-112-142.8c-0.6-7.4 4.2-14.4 11.4-16.6zM742.2 318.4c-60.4-19.4-150.2-30.4-246.2-30.4s-185.8 11-246.2 30.4c-10.6 3.4-22.2 1-30.6-6.2-8.4-7.4-12.4-18.4-10.6-29.6 18.4-110 166.4-186.6 287.6-186.6s269 76.6 287.6 186.6c1.8 11-2.2 22.2-10.6 29.6-8.6 7.4-20.4 9.8-31 6.2zM496 160c-70 0-154 32.6-197 80.6 115-21.6 279.2-21.6 394.2 0-43.2-48-127.2-80.6-197.2-80.6zM496 944c-274 0-496-222-496-496s222-496 496-496 496 222 496 496-222 496-496 496zM496 16c-238.2 0-432 193.8-432 432s193.8 432 432 432 432-193.8 432-432-193.8-432-432-432z" />
<glyph unicode="&#xe924;" glyph-name="grin-beam-sweat" horiz-adv-x="1008" d="M555.4 464.6c6.8-2.2 14.8 1 18.6 7.4l19 34c15.4 27.4 38.4 43.2 63 43.2s47.6-15.8 63-43.2l19-34c4.2-7.4 12.4-9.4 18.6-7.4 7.2 2.2 12 9 11.4 16.6-6.6 84.2-64.4 142.8-112 142.8s-105.4-58.6-112-142.8c-0.6-7.4 4.2-14.4 11.4-16.6zM235.4 464.6c6.8-2.2 14.8 1 18.6 7.4l19 34c15.4 27.4 38.4 43.2 63 43.2s47.6-15.8 63-43.2l19-34c4.2-7.4 12.4-9.4 18.6-7.4 7.2 2.2 12 9 11.4 16.6-6.6 84.2-64.4 142.8-112 142.8s-105.4-58.6-112-142.8c-0.6-7.4 4.2-14.4 11.4-16.6zM742.2 318.4c-60.4-19.4-150.2-30.4-246.2-30.4s-185.8 11-246.2 30.4c-10.6 3.4-22.2 1-30.6-6.2-8.4-7.4-12.4-18.4-10.6-29.6 18.4-110 166.4-186.6 287.6-186.6s269 76.6 287.6 186.6c1.8 11-2.2 22.2-10.6 29.6-8.6 7.4-20.4 9.8-31 6.2zM496 160c-70 0-154 32.6-197 80.6 115-21.6 279.2-21.6 394.2 0-43.2-48-127.2-80.6-197.2-80.6zM1008 725.4c0 54.4-56 145.8-102.8 212.8-7.6 11-24.4 21.8-41.2 21.8s-33.6-10.8-41.2-21.6c-16.8-24-34.6-51-50.6-78.4-79 53-174 84-276.2 84-274 0-496-222-496-496s222-496 496-496 496 222 496 496c0 59.2-11 115.8-30 168.6 28.2 27.2 46 65.8 46 108.8zM496 16c-238.2 0-432 193.8-432 432s193.8 432 432 432c91.4 0 176-28.8 246-77.4-13.2-29-22-56-22-77.2 0-82.4 64.6-149.4 144-149.4 14.8 0 28.6 3 42 7.2 14-42.6 22-88 22-135.2 0-238.2-193.8-432-432-432zM864 640c-44.2 0-80 38.4-80 85.4 0 25.8 31 87.6 80 159.8 49-72.4 80-134 80-159.8 0-47-35.8-85.4-80-85.4z" />
<glyph unicode="&#xe925;" glyph-name="grin-hearts" horiz-adv-x="992" d="M496 944c-274 0-496-222-496-496s222-496 496-496 496 222 496 496-222 496-496 496zM496 16c-238.2 0-432 193.8-432 432s193.8 432 432 432 432-193.8 432-432-193.8-432-432-432zM742.2 318.4c-60.4-19.4-150.2-30.4-246.2-30.4s-185.8 11-246.2 30.4c-23.2 7.4-45.2-12.6-41.4-35.8 18.4-110 166.4-186.6 287.6-186.6s269 76.6 287.6 186.6c3.8 23.2-18 43.2-41.4 35.8zM496 160c-70 0-154 32.6-197 80.6 115-21.6 279.2-21.6 394.2 0-43.2-48-127.2-80.6-197.2-80.6zM372.4 417.6c28.6-7.4 54.4 11 61 35.2l41 147.8c8.2 29.4 3.4 60.8-13 86.4s-43.2 43-73.6 47.8c-50.4 8.2-98.8-21.4-118.6-68-50.4 6-100.4-22-118.2-68.6-11-28.8-9.4-60.6 4.6-87.6 13.8-27 38.8-46.8 68.4-54.4l148.4-38.6zM211 575.2c10.4 27.6 40.8 31 57 26.8l45.6-11.8 12.4 45.4c6.6 23.8 29.4 39.4 51.8 36 26.2-4.2 41.8-29.2 35-54l-37.4-134.6-135.2 35c-24.2 6.2-38.8 31.8-29.2 57.2zM840.8 598c-17.8 46.6-68.2 74.6-118 68.6-19.8 46.6-69.4 76.4-118.6 68-30.4-4.8-57.2-22.2-73.6-47.8s-21.2-57-13-86.4l40.8-147.6c6.8-24.6 33-42.6 61-35.2l148.4 38.4c29.983 7.864 54.324 27.63 68.119 53.816l0.281 0.584c13.8 27 15.6 59 4.6 87.6zM751.8 518l-135.4-35-37.4 134.6c-6.8 24.6 8.8 49.8 35 54 27.4 4.4 46.8-18 51.6-35.8l12.4-45.4 46 11.6c24 6.2 49-5.6 57-26.8 9.6-25.4-5-51-29.2-57.2z" />
<glyph unicode="&#xe926;" glyph-name="grin-squint" horiz-adv-x="992" d="M496 944c-274 0-496-222-496-496s222-496 496-496 496 222 496 496-222 496-496 496zM496 16c-238.2 0-432 193.8-432 432s193.8 432 432 432 432-193.8 432-432-193.8-432-432-432zM237.8 432.4c7.2-8.4 19.8-11.4 30.6-5l160 96c7.2 4.4 11.6 12.2 11.6 20.6s-4.4 16.2-11.6 20.6l-160 96c-10.2 6-23 3.8-30.6-5-7.6-9-7.6-22-0.2-31l67.2-80.6-67.2-80.6c-7.6-9-7.4-22.2 0.2-31zM723.6 427.4c10.8-6.4 23.4-3.4 30.6 5 7.6 9 7.6 22 0.2 31l-67.2 80.6 67.2 80.6c7.6 9 7.4 22-0.2 31-7.8 8.8-20.6 10.8-30.6 5l-160-96c-7.2-4.4-11.6-12.2-11.6-20.6s4.4-16.2 11.6-20.6l160-96zM742.2 318.4c-60.4-19.4-150.2-30.4-246.2-30.4s-185.8 11-246.2 30.4c-10.6 3.4-22.4 1-30.6-6.2-8.4-7.4-12.4-18.4-10.6-29.6 18.4-110 166.4-186.6 287.6-186.6s269 76.6 287.6 186.6c1.8 11-2.2 22.2-10.6 29.6-8.6 7.4-20.4 9.8-31 6.2zM496 160c-70 0-154 32.6-197 80.6 115-21.6 279.2-21.6 394.2 0-43.2-48-127.2-80.6-197.2-80.6z" />
<glyph unicode="&#xe927;" glyph-name="grin-squint-tears" d="M804 547.8c-11.2-0.8-21-7.4-26.2-17.2-29.2-56.6-84.8-127.8-152.6-195.6-67.8-68-139.2-123.6-195.6-152.6-10-5-16.6-15-17.4-26.2s4.4-21.8 13.4-28.4c28.6-20.4 64.2-29.4 102-29.4 82 0 174.8 42 233.4 100.8 85.8 85.6 136 244.4 71.4 335.4-6.6 9-18 14.2-28.4 13.2zM715.6 244.4c-49.6-49.4-129.8-86.2-196.4-82.2 48.2 33 100.8 77.2 151 127.6 50.2 50.2 94.6 102.8 127.6 151 3.6-64.4-32.6-147-82.2-196.4zM415.8 487.6c-6 6-14.6 8.4-22.8 6.4l-181-45.4c-11.4-2.8-19-13.4-18.2-25.2 1-11.6 10.2-21 21.8-22l104.6-9.6 9.6-104.6c1-11.6 10.4-20.8 22-21.8 17.2-0.8 23.8 12.4 25.2 18.2l45.2 181c2 8.4-0.4 17-6.4 23zM495.2 537.8l181 45.2c11.4 2.8 19 13.4 18.2 25.2-1 11.6-10.2 21-21.8 22l-104.6 9.6-9.6 104.6c-1 11.6-10.4 20.8-22 21.8-11.4 0.2-22.4-6.8-25.2-18.2l-45.2-181c-2-8.2 0.4-16.8 6.4-22.8 10-10 22.6-6.4 22.8-6.4zM982.4 710.8c56.2 56.4 55.4 148.6-1.8 205.8-58.4 58.4-150.6 56.6-205.8 1.6-9-9-17-21.8-24.2-37-74.2 41-156.2 62.8-238.6 62.8-127 0-254-48.4-350.8-145.2-159.8-159.8-186-400.8-82-589.2-16-7.6-28.8-15.6-37.4-24.4-56.2-56.4-55.4-148.6 1.8-205.8 57-57 149-58.4 205.8-1.6 9 9 17 21.8 24.2 37 74-41 156-62.8 238.4-62.8 127 0 254 48.4 350.8 145.2 159.8 159.8 186 400.6 82 589.2 16 7.6 28.8 15.8 37.6 24.4zM820 873c14.8 14.8 34.8 23 56 23h0.8c22-0.2 42.6-9 58.4-24.8 32.2-32.2 33-84 1.8-115.2-13.2-13.2-64.6-33.6-166.6-49.6 16 102 36.4 153.4 49.6 166.6zM204 23c-31.4-31.4-83-30.6-115.2 1.6s-33 84-1.8 115.2c13.2 13.2 64.6 33.6 166.6 49.6-16-101.6-36.4-153.2-49.6-166.4zM817.6 142.6c-81.6-81.6-190.2-126.6-305.6-126.6-77.6 0-151.6 21.6-216.8 59.8 10.8 39.4 18.8 83.2 24.4 121.8 2.4 16-3 31.8-14.4 43.4-11.6 11.6-27.4 16.8-43.4 14.6-47.6-6.8-87.8-15-121.2-24-96.2 165.4-75.4 380.6 66 522 81.4 81.6 190 126.4 305.4 126.4 77.6 0 151.6-21.6 216.8-59.8-10.8-39.4-18.8-83.2-24.4-121.8-2.4-16 3-31.8 14.4-43.4 9.8-9.8 22.6-15 36-15 2.4 0 4.8 0.2 7.4 0.6 47.6 6.8 87.8 15 121.2 24 96.4-165.2 75.6-380.6-65.8-522z" />
<glyph unicode="&#xe928;" glyph-name="grin-stars" horiz-adv-x="992" d="M496 944c-274 0-496-222-496-496s222-496 496-496 496 222 496 496-222 496-496 496zM496 16c-238.2 0-432 193.8-432 432s193.8 432 432 432 432-193.8 432-432-193.8-432-432-432zM742.2 318.4c-60.4-19.4-150.2-30.4-246.2-30.4s-185.8 11-246.2 30.4c-23.2 7.4-45.2-12.6-41.4-35.8 18.4-110 166.4-186.6 287.6-186.6s269 76.6 287.6 186.6c3.8 23.2-18 43.2-41.4 35.8zM496 160c-70 0-154 32.6-197 80.6 115-21.6 279.2-21.6 394.2 0-43.2-48-127.2-80.6-197.2-80.6zM820.2 664l-70.6 10.2-31.6 64.2c-19 37.6-72.6 37.8-91.8 0l-31.6-64.2-71-10.2c-10.8-1.6-20-7.2-27.6-14.8-7.6 7.6-16.8 13.2-27.8 14.8l-70.6 10.2-31.6 64.2c-19 37.6-72.6 37.8-91.8 0l-31.6-64.2-71-10.2c-40.4-6-59.2-56.4-28.2-87.4l51.4-49.8-12.2-71.2c-6.8-42.8 38.4-72.6 73.8-53l63.6 33 63-32.6c37-20.4 81.2 10.4 74.4 53.2l-12.2 70.8 50.8 49 50.8-49.2-12.2-71.2c-6.8-42.8 38.4-72.6 73.8-53l63.6 33 63-32.6c37-20.4 81.2 10.4 74.4 53.2l-12.2 70.8 51.8 50.2c29.8 29.8 12.6 80.6-28.8 86.8zM376.4 549l13.4-77.8-69.8 36.4-69.8-36.2 13.4 77.8-57 55.4 78.4 11.2 35 71 35-71 78.4-11.2-57-55.6zM728.4 549l13.4-77.8-69.8 36.4-69.8-36.2 13.4 77.8-57 55.4 78.4 11.2 35 71 35-71 78.4-11.2-57-55.6z" />
<glyph unicode="&#xe929;" glyph-name="grin-tears" horiz-adv-x="1280" d="M699.4 464.6c6.8-2.2 14.8 1 18.6 7.4l19 34c15.4 27.4 38.4 43.2 63 43.2s47.6-15.8 63-43.2l19-34c4.2-7.4 12.4-9.4 18.6-7.4 7.2 2.2 12 9 11.4 16.6-6.6 84.2-64.4 142.8-112 142.8s-105.4-58.6-112-142.8c-0.6-7.4 4.2-14.4 11.4-16.6zM886.2 318.4c-60.4-19.4-150.2-30.4-246.2-30.4s-185.8 11-246.2 30.4c-10.6 3.4-22.2 1-30.6-6.2-8.4-7.4-12.6-18.4-10.6-29.6 18.6-110 166.4-186.6 287.6-186.6s269 76.6 287.6 186.6c1.8 11-2.2 22.2-10.6 29.6-8.6 7.4-20.2 9.8-31 6.2zM640 160c-70 0-154 32.6-197 80.6 115-21.6 279.2-21.6 394.2 0-43.2-48-127.2-80.6-197.2-80.6zM379.4 464.6c6.8-2.2 14.8 1 18.6 7.4l19 34c15.4 27.4 38.4 43.2 63 43.2s47.6-15.8 63-43.2l19-34c4.2-7.4 12.4-9.4 18.6-7.4 7.2 2.2 12 9 11.4 16.6-6.6 84.2-64.4 142.8-112 142.8s-105.4-58.6-112-142.8c-0.6-7.4 4.2-14.4 11.4-16.6zM1238.4 441.2c-18.4 18.4-53.6 34.4-104.8 47.8-21 254.8-233.6 455-493.6 455s-472.6-200.2-493.6-454.8c-51.2-13.4-86.4-29.4-104.8-47.8-56.2-56.4-55.4-148.6 1.8-205.8 23.6-23.6 88.4-65.8 165.4-29.4 85-151 245.4-254 431-254s346.2 103 431 254c76.8-36.2 141.6 5.6 165.4 29.4 57.6 57 58.4 149.4 2.2 205.6zM204 279c-31-31-82.8-31-115.4 1.8-32.2 32.2-33 84-1.8 115.2 13.2 13.2 64.6 33.6 166.6 49.6-15.8-102-36.2-153.4-49.4-166.6zM640 16c-165.2 0-308.2 93.8-380.8 230.4 31.2 44.4 50 135 60.2 207.2 2.4 16-3 31.8-14.4 43.4-11.6 11.6-27.4 16.8-43.4 14.6-17.4-2.6-33.6-5.2-49.2-8 27.4 211.8 208.2 376.4 427.6 376.4s400.2-164.6 427.6-376.6c-15.6 2.8-31.8 5.6-49.2 8-15.8 2.2-31.8-3-43.4-14.6s-16.8-27.2-14.4-43.4c10.4-72.2 29-162.8 60.2-207.2-72.6-136.4-215.6-230.2-380.8-230.2zM1191.4 280.8c-32.8-33-84.6-32.4-115.2-1.6-13.2 13.2-33.6 64.6-49.6 166.6 102-16 153.4-36.4 166.6-49.6 31.2-31.6 30.4-83.2-1.8-115.4z" />
<glyph unicode="&#xe92a;" glyph-name="grin-tongue" horiz-adv-x="992" d="M336 608c-35.4 0-64-28.6-64-64s28.6-64 64-64 64 28.6 64 64-28.6 64-64 64zM496 944c-274 0-496-222-496-496 0-242.2 173.6-443.6 403.2-487 27.6-15.4 59-25 92.8-25s65.2 9.6 92.8 25c229.6 43.4 403.2 244.8 403.2 487 0 274-222 496-496 496zM624 128c0-71.2-58.2-129-129.8-128-70.2 1-126.2 59.6-126.2 130v62c37.8 19 45.4 24.4 64 24.4h0.6c19.6-0.2 36.4-14 40.8-33.2l5.4-23.2c4.2-18.4 30.4-18.4 34.6 0l5.4 23.2c4.4 19.2 21.2 33 40.8 33.2h0.6c18.4 0 25.8-5.4 64-24.4v-64zM673.2 54.4c9.4 22.6 14.8 47.4 14.8 73.6v27.2c49.4 32.2 86.8 76 95.6 127.6 4 23.2-18 43.2-41.4 35.8-60.4-19.6-150.2-30.6-246.2-30.6s-185.8 11-246.2 30.4c-23.2 7.4-45.2-12.6-41.4-35.8 8.6-51.6 46-95.2 95.6-127.6v-27c0-26 5.4-50.8 14.8-73.6-150 67.8-254.8 218.6-254.8 393.6 0 238.2 193.8 432 432 432s432-193.8 432-432c0-175-104.8-325.8-254.8-393.6zM656 608c-35.4 0-64-28.6-64-64s28.6-64 64-64 64 28.6 64 64-28.6 64-64 64z" />
<glyph unicode="&#xe92b;" glyph-name="grin-tongue-squint" horiz-adv-x="992" d="M496 944c-274 0-496-222-496-496 0-242.2 173.6-443.6 403.2-487 27.6-15.4 59-25 92.8-25s65.2 9.6 92.8 25c229.6 43.4 403.2 244.8 403.2 487 0 274-222 496-496 496zM624 128c0-71.2-58.2-129-129.8-128-70.2 1-126.2 59.6-126.2 130v62c37.8 19 45.4 24.4 64 24.4h0.6c19.6-0.2 36.4-14 40.8-33.2l5.4-23.2c4.2-18.4 30.4-18.4 34.6 0l5.4 23.2c4.4 19.2 21.2 33 40.8 33.2h0.6c18.4 0 25.8-5.4 64-24.4v-64zM673.2 54.4c9.4 22.6 14.8 47.4 14.8 73.6v27.2c49.4 32.2 86.8 76 95.6 127.6 4 23.2-18 43.2-41.4 35.8-60.4-19.6-150.2-30.6-246.2-30.6s-185.8 11-246.2 30.4c-23.2 7.4-45.2-12.6-41.4-35.8 8.6-51.6 46-95.2 95.6-127.6v-27c0-26 5.4-50.8 14.8-73.6-150 67.8-254.8 218.6-254.8 393.6 0 238.2 193.8 432 432 432s432-193.8 432-432c0-175-104.8-325.8-254.8-393.6zM754.2 655.6c-7.6 8.8-20.4 11-30.6 5l-160-96c-7.2-4.4-11.6-12.2-11.6-20.6s4.4-16.2 11.6-20.6l160-96c10.8-6.4 23.4-3.4 30.6 5 7.6 9 7.6 22 0.2 31l-67.2 80.6 67.2 80.6c7.6 9 7.4 22.2-0.2 31zM428.4 564.6l-160 96c-10 6-22.8 4-30.6-5-7.6-9-7.6-22-0.2-31l67.2-80.6-67.2-80.6c-7.6-9-7.4-22 0.2-31 7.2-8.4 19.8-11.4 30.6-5l160 96c7.2 4.4 11.6 12.2 11.6 20.6s-4.4 16.2-11.6 20.6z" />
<glyph unicode="&#xe92c;" glyph-name="grin-tongue-wink" horiz-adv-x="992" d="M496 944c-274 0-496-222-496-496 0-242.2 173.6-443.6 403.2-487 27.6-15.4 59-25 92.8-25s65.2 9.6 92.8 25c229.6 43.4 403.2 244.8 403.2 487 0 274-222 496-496 496zM624 128c0-71.2-58.2-129-129.8-128-70.2 1-126.2 59.6-126.2 130v62c37.8 19 45.4 24.4 64 24.4h0.6c19.6-0.2 36.4-14 40.8-33.2l5.4-23.2c4.2-18.4 30.4-18.4 34.6 0l5.4 23.2c4.4 19.2 21.2 33 40.8 33.2h0.6c18.4 0 25.8-5.4 64-24.4v-64zM673.2 54.4c9.4 22.6 14.8 47.4 14.8 73.6v27.2c49.4 32.2 86.8 76 95.6 127.6 4 23.2-18 43.2-41.4 35.8-60.4-19.6-150.2-30.6-246.2-30.6s-185.8 11-246.2 30.4c-23.2 7.4-45.2-12.6-41.4-35.8 8.6-51.6 46-95.2 95.6-127.6v-27c0-26 5.4-50.8 14.8-73.6-150 67.8-254.8 218.6-254.8 393.6 0 238.2 193.8 432 432 432s432-193.8 432-432c0-175-104.8-325.8-254.8-393.6zM688 704c-88.4 0-160-71.6-160-160s71.6-160 160-160 160 71.6 160 160-71.6 160-160 160zM688 448c-53 0-96 43-96 96s43 96 96 96 96-43 96-96-43-96-96-96zM304 600c-51.4 0-111.8-33.8-119.6-84.2-1.6-10 3.4-20 12.2-24.8s19.8-3.6 27.4 3.2l19 17c29.6 26.4 92.4 26.4 122 0l19-17c5-4.4 16-9.4 27.4-3.2 8.8 4.8 13.8 14.8 12.2 24.8-7.8 50.4-68.2 84.2-119.6 84.2zM688 592c-26.6 0-48-21.4-48-48s21.4-48 48-48 48 21.4 48 48-21.4 48-48 48z" />
<glyph unicode="&#xe92d;" glyph-name="grin-wink" horiz-adv-x="992" d="M496 944c-274 0-496-222-496-496s222-496 496-496 496 222 496 496-222 496-496 496zM801.4 142.6c-39.6-39.6-86-70.8-137.4-92.6-53.2-22.6-109.8-34-168.2-34s-115 11.4-168.2 34c-51.4 21.8-97.6 53-137.4 92.6s-70.8 86-92.6 137.4c-22.6 53.2-34 109.8-34 168.2s11.4 115 34 168.2c21.8 51.4 53 97.6 92.6 137.4s86 70.8 137.4 92.6c53.2 22.6 109.8 34 168.2 34s115-11.4 168.2-34c51.4-21.8 97.6-53 137.4-92.6s70.8-86 92.6-137.4c22.6-53.2 34-109.8 34-168.2s-11.4-115-34-168.2c-21.6-51.6-52.8-97.8-92.6-137.4zM336 480c35.4 0 64 28.6 64 64s-28.6 64-64 64-64-28.6-64-64 28.6-64 64-64zM576 494l19 17c29.6 26.4 92.4 26.4 122 0l19-17c17-14.8 43.2-0.6 39.6 21.6-8 50.4-68.4 84.2-119.8 84.2s-111.8-33.8-119.8-84.2c-3.2-22.2 23.2-36.4 40-21.6zM752.2 320c-3.2 0-6.6-0.6-9.8-1.6-60.6-19.4-150.4-30.4-246.4-30.4s-185.8 11-246.2 30.4c-3.4 1-6.6 1.6-9.8 1.6-18.8 0-34.8-17.2-31.4-37.4 18.4-110 166.4-186.6 287.6-186.6s269 76.6 287.6 186.6c3.2 20.4-12.8 37.4-31.6 37.4zM645.2 202.8c-44.4-26.8-100.2-42.8-149.2-42.8s-104.8 16-149.2 42.8c-18.8 11.4-34.6 24.2-47 37.6 57.2-10.6 125.4-16.4 196-16.4 70.8 0 138.8 5.8 196 16.4-12-13.4-27.8-26.2-46.6-37.6z" />
<glyph unicode="&#xe92e;" glyph-name="kiss" horiz-adv-x="992" d="M496 944c-274 0-496-222-496-496s222-496 496-496 496 222 496 496-222 496-496 496zM496 16c-238.2 0-432 193.8-432 432s193.8 432 432 432 432-193.8 432-432-193.8-432-432-432zM608 344c0 38.4-57.6 83-143 88-7.6 0.8-14.8-4.8-16.4-12.4-1.8-7.6 2.2-15.4 9.4-18.4l33.8-14.4c26-11 41.6-27 41.6-43s-15.6-32-41.4-43l-34-14.4c-11.4-4.8-12-24.4 0-29.6l33.8-14.4c26-11 41.6-27 41.6-43s-15.6-32-41.4-43l-34-14.4c-7.2-3-11.2-10.8-9.4-18.4 1.6-7.2 8.2-12.4 15.6-12.4h1c85.6 5 143 49.6 143 88 0 26-26.8 54.6-70.4 72 43.4 18.2 70.2 46.8 70.2 72.8zM336 608c-35.4 0-64-28.6-64-64s28.6-64 64-64 64 28.6 64 64-28.6 64-64 64zM656 608c-35.4 0-64-28.6-64-64s28.6-64 64-64 64 28.6 64 64-28.6 64-64 64z" />
<glyph unicode="&#xe92f;" glyph-name="kiss-beam" horiz-adv-x="992" d="M496 944c-274 0-496-222-496-496s222-496 496-496 496 222 496 496-222 496-496 496zM496 16c-238.2 0-432 193.8-432 432s193.8 432 432 432 432-193.8 432-432-193.8-432-432-432zM608 344c0 38.4-57.6 83-143 88-7.6 0.8-14.8-4.8-16.4-12.4-1.8-7.6 2.2-15.4 9.4-18.4l33.8-14.4c26-11 41.6-27 41.6-43s-15.6-32-41.4-43l-34-14.4c-11.4-4.8-12-24.4 0-29.6l33.8-14.4c26-11 41.6-27 41.6-43s-15.6-32-41.4-43l-34-14.4c-7.2-3-11.2-10.8-9.4-18.4 1.6-7.2 8.2-12.4 15.6-12.4h1c85.6 5 143 49.6 143 88 0 26-26.8 54.6-70.4 72 43.4 18.2 70.2 46.8 70.2 72.8zM336 656c-47.6 0-105.4-58.6-112-142.8-0.6-7.4 4-14.4 11.2-16.6 7-2 15 1 18.6 7.4l19 34c15.4 27.4 38.4 43.2 63 43.2s47.6-15.8 63-43.2l19-34c4.2-7.4 12.4-9.4 18.6-7.4 7.2 2.2 11.8 9 11.2 16.6-6.2 84.2-64 142.8-111.6 142.8zM656 656c-47.6 0-105.4-58.6-112-142.8-0.6-7.4 4-14.4 11.2-16.6 7-2 15 1 18.6 7.4l19 34c15.4 27.4 38.4 43.2 63 43.2s47.6-15.8 63-43.2l19-34c4.2-7.4 12.4-9.4 18.6-7.4 7.2 2.2 11.8 9 11.2 16.6-6.2 84.2-64 142.8-111.6 142.8z" />
<glyph unicode="&#xe930;" glyph-name="kiss-wink-heart" horiz-adv-x="1008" d="M999.2 175.4c-10.4 27.2-30.4 48.6-54.8 63.6 30 63.6 47.6 134 47.6 209 0 274-222 496-496 496s-496-222-496-496 222-496 496-496c72.2 0 140.4 16.2 202.4 44.2 19-23.2 49.4-35.6 81.4-27.4l130.8 33.8c75 19.6 116.6 99.6 88.6 172.8zM646.4 155.2l27.6-99.8c-54.4-25-114.4-39.4-178-39.4-238.2 0-432 193.8-432 432s193.8 432 432 432 432-193.8 432-432c0-67.8-16-131.8-44-188.8-2 0.2-37.2 60.8-112.2 60.8-83.8 0-149-79.6-125.4-164.8zM894.4 64.6l-130.8-33.8c-8-2.2-17 2.6-19.6 11.2l-36 130.2c-10.4 37.8 13.8 76.6 53.6 82.8 35.4 5.6 68-19 77.2-52l3.6-13.2 13.4 3.4c28.6 7.4 69.4-3.4 83.6-40.8 14.4-37.6-7-77.8-45-87.8zM608 344c0 38.4-57.4 83-143 88-7.6 0.8-14.8-4.8-16.4-12.4-1.8-7.6 2.2-15.4 9.4-18.4l33.8-14.4c26-11 41.4-27 41.4-43s-15.4-32-41.4-43l-34-14.4c-11.4-4.8-12-24.4 0-29.6l33.8-14.4c26-11 41.4-27 41.4-43s-15.4-32-41.4-43l-34-14.4c-7.2-3-11.2-10.8-9.4-18.4 1.6-7.2 8.2-12.4 15.6-12.4h1c85.6 5 143 49.6 143 88 0 26-26.8 54.6-70.4 72 43.8 18.2 70.6 46.8 70.6 72.8zM336 608c-35.4 0-64-28.6-64-64s28.6-64 64-64 64 28.6 64 64-28.6 64-64 64zM807.6 515.8c-8 50.4-68.4 84.2-119.6 84.2s-111.8-33.8-119.6-84.2c-3.6-21.8 22.6-36.8 39.6-21.6l19 17c29.6 26.4 92.4 26.4 122 0l19-17c17.2-15 43.2-0.4 39.6 21.6z" />
<glyph unicode="&#xe931;" glyph-name="laugh" horiz-adv-x="992" d="M496 944c-274 0-496-222-496-496s222-496 496-496 496 222 496 496-222 496-496 496zM801.4 142.6c-39.6-39.6-86-70.8-137.4-92.6-53.2-22.6-109.8-34-168.2-34s-115 11.4-168.2 34c-51.4 21.8-97.6 53-137.4 92.6-39.6 39.6-70.8 86-92.6 137.4-22.6 53.2-34 109.8-34 168.2s11.4 115 34 168.2c21.8 51.4 53 97.6 92.6 137.4 39.6 39.6 86 70.8 137.4 92.6 53.2 22.6 109.8 34 168.2 34s115-11.4 168.2-34c51.4-21.8 97.6-53 137.4-92.6 39.6-39.6 70.8-86 92.6-137.4 22.6-53.2 34-109.8 34-168.2s-11.4-115-34-168.2c-21.6-51.6-52.8-97.8-92.6-137.4zM656 512c35.4 0 64 28.6 64 64s-28.6 64-64 64-64-28.6-64-64 28.6-64 64-64zM336 512c35.4 0 64 28.6 64 64s-28.6 64-64 64-64-28.6-64-64 28.6-64 64-64zM766 384h-540c-19.2 0-34.2-16.8-31.8-36 17.6-142 138.8-252 285.8-252h32c146.8 0 268 110 285.8 252 2.4 19.2-12.6 36-31.8 36zM512 160h-32c-100.4 0-187 66.6-214.8 160h461.6c-27.8-93.4-114.4-160-214.8-160z" />
<glyph unicode="&#xe932;" glyph-name="laugh-beam" horiz-adv-x="992" d="M496 944c-274 0-496-222-496-496s222-496 496-496 496 222 496 496-222 496-496 496zM801.4 142.6c-39.6-39.6-86-70.8-137.4-92.6-53.2-22.6-109.8-34-168.2-34s-115 11.4-168.2 34c-51.4 21.8-97.6 53-137.4 92.6-39.6 39.6-70.8 86-92.6 137.4-22.6 53.2-34 109.8-34 168.2s11.4 115 34 168.2c21.8 51.4 53 97.6 92.6 137.4 39.6 39.6 86 70.8 137.4 92.6 53.2 22.6 109.8 34 168.2 34s115-11.4 168.2-34c51.4-21.8 97.6-53 137.4-92.6 39.6-39.6 70.8-86 92.6-137.4 22.6-53.2 34-109.8 34-168.2s-11.4-115-34-168.2c-21.6-51.6-52.8-97.8-92.6-137.4zM574 504.2l19 34c15.4 27.4 38.4 43.2 63 43.2s47.6-15.8 63-43.2l19-34c8.2-14.8 31.2-8 29.8 9-6.6 84.2-64.4 142.8-112 142.8s-105.4-58.6-112-142.8c-1.2-17.2 22-23.8 30.2-9zM254 504.2l19 34c15.4 27.4 38.4 43.2 63 43.2s47.6-15.8 63-43.2l19-34c8.2-14.8 31.2-8 29.8 9-6.6 84.2-64.4 142.8-112 142.8s-105.4-58.6-112-142.8c-1.2-17 21.8-23.8 30.2-9zM766 384h-540c-19.2 0-34.2-16.8-31.8-36 17.6-142 138.8-252 285.8-252h32c146.8 0 268 110 285.8 252 2.4 19.2-12.6 36-31.8 36zM512 160h-32c-100.4 0-187 66.6-214.8 160h461.6c-27.8-93.4-114.4-160-214.8-160z" />
<glyph unicode="&#xe933;" glyph-name="laugh-squint" horiz-adv-x="992" d="M496 944c-274 0-496-222-496-496s222-496 496-496 496 222 496 496-222 496-496 496zM801.4 142.6c-39.6-39.6-86-70.8-137.4-92.6-53.2-22.6-109.8-34-168.2-34s-115 11.4-168.2 34c-51.4 21.8-97.6 53-137.4 92.6-39.6 39.6-70.8 86-92.6 137.4-22.6 53.2-34 109.8-34 168.2s11.4 115 34 168.2c21.8 51.4 53 97.6 92.6 137.4 39.6 39.6 86 70.8 137.4 92.6 53.2 22.6 109.8 34 168.2 34s115-11.4 168.2-34c51.4-21.8 97.6-53 137.4-92.6 39.6-39.6 70.8-86 92.6-137.4 22.6-53.2 34-109.8 34-168.2s-11.4-115-34-168.2c-21.6-51.6-52.8-97.8-92.6-137.4zM563.6 547.4l160-96c23-13.6 48 15.2 30.8 36l-67.2 80.6 67.2 80.6c17.2 20.6-7.6 49.6-30.8 36l-160-96c-15.4-9.4-15.4-31.8 0-41.2zM268.4 451.4l160 96c15.6 9.4 15.6 31.8 0 41.2l-160 96c-23.2 13.8-48-15.4-30.8-36l67.2-80.6-67.2-80.6c-17.4-20.8 7.6-49.6 30.8-36zM766 384h-540c-19.2 0-34.2-16.8-31.8-36 17.6-142 138.8-252 285.8-252h32c146.8 0 268 110 285.8 252 2.4 19.2-12.6 36-31.8 36zM512 160h-32c-100.4 0-187 66.6-214.8 160h461.6c-27.8-93.4-114.4-160-214.8-160z" />
<glyph unicode="&#xe934;" glyph-name="laugh-wink" horiz-adv-x="992" d="M496 944c-274 0-496-222-496-496s222-496 496-496 496 222 496 496-222 496-496 496zM801.4 142.6c-39.6-39.6-86-70.8-137.4-92.6-53.2-22.6-109.8-34-168.2-34s-115 11.4-168.2 34c-51.4 21.8-97.6 53-137.4 92.6s-70.8 86-92.6 137.4c-22.6 53.2-34 109.8-34 168.2s11.4 115 34 168.2c21.8 51.4 53 97.6 92.6 137.4s86 70.8 137.4 92.6c53.2 22.6 109.8 34 168.2 34s115-11.4 168.2-34c51.4-21.8 97.6-53 137.4-92.6s70.8-86 92.6-137.4c22.6-53.2 34-109.8 34-168.2s-11.4-115-34-168.2c-21.6-51.6-52.8-97.8-92.6-137.4zM576 526l19 17c29.6 26.4 92.4 26.4 122 0l19-17c17-14.8 43.2-0.6 39.6 21.6-8 50.4-68.4 84.2-119.8 84.2s-111.8-33.8-119.8-84.2c-3.2-22.2 23.2-36.4 40-21.6zM336 512c35.4 0 64 28.6 64 64s-28.6 64-64 64-64-28.6-64-64 28.6-64 64-64zM766 384h-540c-19.2 0-34.2-16.8-31.8-36 17.6-142 138.8-252 285.8-252h32c146.8 0 268 110 285.8 252 2.4 19.2-12.6 36-31.8 36zM512 160h-32c-100.4 0-187 66.6-214.8 160h461.6c-27.8-93.4-114.4-160-214.8-160z" />
<glyph unicode="&#xe935;" glyph-name="long-arrow-alt-down" horiz-adv-x="512" d="M446.702 320h-156.702v552c0 13.254-10.746 24-24 24h-20c-13.254 0-24-10.746-24-24v-552h-156.696c-58.776 0-86.536-69.182-46.462-109.254l191.904-192c24.994-24.992 65.514-24.994 90.51 0l191.91 192c39.954 39.954 12.534 109.254-46.464 109.254zM256 64l-192 192h384l-192-192z" />
<glyph unicode="&#xe936;" glyph-name="long-arrow-alt-left" horiz-adv-x="896" d="M320 257.298v156.702h552c13.254 0 24 10.746 24 24v20c0 13.254-10.746 24-24 24h-552v156.696c0 58.776-69.182 86.536-109.254 46.462l-192-191.904c-24.992-24.994-24.994-65.514 0-90.51l192-191.91c39.954-39.954 109.254-12.534 109.254 46.464zM64 448l192 192v-384l-192 192z" />
<glyph unicode="&#xe937;" glyph-name="long-arrow-alt-right" horiz-adv-x="896" d="M576 638.702v-156.702h-552c-13.254 0-24-10.746-24-24v-20c0-13.254 10.746-24 24-24h552v-156.696c0-58.776 69.182-86.536 109.254-46.462l192 191.904c24.992 24.994 24.994 65.514 0 90.51l-192 191.91c-39.954 39.954-109.254 12.534-109.254-46.464zM832 448l-192-192v384l192-192z" />
<glyph unicode="&#xe938;" glyph-name="long-arrow-alt-up" horiz-adv-x="512" d="M65.298 576h156.702v-552c0-13.254 10.746-24 24-24h20c13.254 0 24 10.746 24 24v552h156.696c58.776 0 86.536 69.182 46.462 109.254l-191.904 192c-24.994 24.992-65.514 24.994-90.51 0l-191.91-192c-39.954-39.954-12.534-109.254 46.464-109.254zM256 832l192-192h-384l192 192z" />
<glyph unicode="&#xe939;" glyph-name="meh" horiz-adv-x="992" d="M496 944c-274 0-496-222-496-496s222-496 496-496 496 222 496 496-222 496-496 496zM496 16c-238.2 0-432 193.8-432 432s193.8 432 432 432 432-193.8 432-432-193.8-432-432-432zM336 480c35.4 0 64 28.6 64 64s-28.6 64-64 64-64-28.6-64-64 28.6-64 64-64zM656 608c-35.4 0-64-28.6-64-64s28.6-64 64-64 64 28.6 64 64-28.6 64-64 64zM688 288h-384c-17.6 0-32-14.4-32-32s14.4-32 32-32h384c17.6 0 32 14.4 32 32s-14.4 32-32 32z" />
<glyph unicode="&#xe93a;" glyph-name="meh-blank" horiz-adv-x="992" d="M496 944c-274 0-496-222-496-496s222-496 496-496 496 222 496 496-222 496-496 496zM496 16c-238.2 0-432 193.8-432 432s193.8 432 432 432 432-193.8 432-432-193.8-432-432-432zM336 608c-35.4 0-64-28.6-64-64s28.6-64 64-64 64 28.6 64 64-28.6 64-64 64zM656 608c-35.4 0-64-28.6-64-64s28.6-64 64-64 64 28.6 64 64-28.6 64-64 64z" />
<glyph unicode="&#xe93b;" glyph-name="meh-rolling-eyes" horiz-adv-x="992" d="M448 512c0 79.6-64.4 144-144 144s-144-64.4-144-144 64.4-144 144-144 144 64.4 144 144zM304 432c-44.2 0-80 35.8-80 80 0 27.2 14.6 50.2 35.4 64.6-2-5.2-3.4-10.6-3.4-16.6 0-26.6 21.4-48 48-48s48 21.4 48 48c0 5.8-1.4 11.4-3.4 16.6 20.8-14.4 35.4-37.4 35.4-64.6 0-44.2-35.8-80-80-80zM688 656c-79.6 0-144-64.4-144-144s64.4-144 144-144 144 64.4 144 144-64.4 144-144 144zM688 432c-44.2 0-80 35.8-80 80 0 27.2 14.6 50.2 35.4 64.6-2-5.2-3.4-10.6-3.4-16.6 0-26.6 21.4-48 48-48s48 21.4 48 48c0 5.8-1.4 11.4-3.4 16.6 20.8-14.4 35.4-37.4 35.4-64.6 0-44.2-35.8-80-80-80zM496 944c-274 0-496-222-496-496s222-496 496-496 496 222 496 496-222 496-496 496zM496 16c-238.2 0-432 193.8-432 432s193.8 432 432 432 432-193.8 432-432-193.8-432-432-432zM624 224h-256c-17.6 0-32-14.4-32-32s14.4-32 32-32h256c17.6 0 32 14.4 32 32s-14.4 32-32 32z" />
<glyph unicode="&#xe93c;" glyph-name="sad-cry" horiz-adv-x="992" d="M496 944c-274 0-496-222-496-496s222-496 496-496 496 222 496 496-222 496-496 496zM752 100.8v315.2c0 17.6-14.4 32-32 32s-32-14.4-32-32v-354.4c-58-29-123-45.6-192-45.6s-134 16.6-192 45.6v354.4c0 17.6-14.4 32-32 32s-32-14.4-32-32v-315.2c-106.6 78.8-176 204.8-176 347.2 0 238.2 193.8 432 432 432s432-193.8 432-432c0-142.4-69.4-268.4-176-347.2zM411.6 491c8.8 4.8 13.8 14.8 12.2 24.8-8 50.4-68.4 84.2-119.6 84.2s-111.8-33.8-119.6-84.2c-1.6-10 3.4-20 12.2-24.8s19.8-3.6 27.4 3.2l19 17c29.6 26.4 92.4 26.4 122 0l19-17c5-4.6 15.8-9.6 27.4-3.2zM688 600c-51.4 0-111.8-33.8-119.6-84.2-1.6-10 3.4-20 12.2-24.8s19.8-3.6 27.4 3.2l19 17c29.6 26.4 92.4 26.4 122 0l19-17c5-4.4 16-9.4 27.4-3.2 8.8 4.8 13.8 14.8 12.2 24.8-7.8 50.4-68.2 84.2-119.6 84.2zM496 384c-61.8 0-112-57.4-112-128s50.2-128 112-128 112 57.4 112 128-50.2 128-112 128zM496 192c-26 0-48 29.4-48 64s22 64 48 64 48-29.4 48-64-22-64-48-64z" />
<glyph unicode="&#xe93d;" glyph-name="sad-tear" horiz-adv-x="992" d="M336 480c35.4 0 64 28.6 64 64s-28.6 64-64 64-64-28.6-64-64 28.6-64 64-64zM656 480c35.4 0 64 28.6 64 64s-28.6 64-64 64-64-28.6-64-64 28.6-64 64-64zM496 944c-274 0-496-222-496-496s222-496 496-496 496 222 496 496-222 496-496 496zM496 16c-238.2 0-432 193.8-432 432s193.8 432 432 432 432-193.8 432-432-193.8-432-432-432zM496 320c-22.4 0-44-3.4-65.4-8.2-14.4 25.2-32.2 53-56.2 84.8-18 24.2-58.8 24-76.8 0-59.4-79.2-89.6-138-89.6-174.6 0-69.4 57.4-126 128-126s128 56.6 128 126c0 8.8-2 19-5.4 30.2 12.2 2.4 24.6 3.8 37.4 3.8 69.8 0 135.6-30.8 180.4-84.4 10.6-12.8 30.8-16 45-4 13.6 11.4 15.4 31.6 4 45-57 68.2-140.6 107.4-229.4 107.4zM336 160c-35.4 0-64 27.8-64 62 0 15.4 20 57.6 64 119 44-61.4 64-103.6 64-119 0-34.2-28.6-62-64-62z" />
<glyph unicode="&#xe93e;" glyph-name="smile" horiz-adv-x="992" d="M496 944c-274 0-496-222-496-496s222-496 496-496 496 222 496 496-222 496-496 496zM496 16c-238.2 0-432 193.8-432 432s193.8 432 432 432 432-193.8 432-432-193.8-432-432-432zM676.4 308.4c-44.8-53.6-110.6-84.4-180.4-84.4s-135.6 30.8-180.4 84.4c-11.4 13.6-31.6 15.4-45 4-13.6-11.4-15.4-31.4-4-45 56.8-68.2 140.6-107.4 229.4-107.4s172.6 39.2 229.6 107.6c11.4 13.6 9.6 33.8-4 45s-33.8 9.4-45.2-4.2zM336 480c35.4 0 64 28.6 64 64s-28.6 64-64 64-64-28.6-64-64 28.6-64 64-64zM656 480c35.4 0 64 28.6 64 64s-28.6 64-64 64-64-28.6-64-64 28.6-64 64-64z" />
<glyph unicode="&#xe93f;" glyph-name="smile-beam" horiz-adv-x="992" d="M336 549.2c24.6 0 47.6-15.8 63-43.2l19-34c4.2-7.4 12.4-9.4 18.6-7.4 7.2 2.2 12 9 11.4 16.6-6.6 84.2-64.4 142.8-112 142.8s-105.4-58.6-112-142.8c-0.6-7.4 4.2-14.4 11.4-16.6 6.8-2.2 14.8 1 18.6 7.4l19 34c15.4 27.6 38.4 43.2 63 43.2zM496 944c-274 0-496-222-496-496s222-496 496-496 496 222 496 496-222 496-496 496zM496 16c-238.2 0-432 193.8-432 432s193.8 432 432 432 432-193.8 432-432-193.8-432-432-432zM656 624c-47.6 0-105.4-58.6-112-142.8-0.6-7.4 4.2-14.4 11.4-16.6 6.8-2.2 14.8 1 18.6 7.4l19 34c15.4 27.4 38.4 43.2 63 43.2s47.6-15.8 63-43.2l19-34c4.2-7.4 12.4-9.4 18.6-7.4 7.2 2.2 12 9 11.4 16.6-6.6 84.2-64.4 142.8-112 142.8zM676.4 308.4c-44.8-53.6-110.6-84.4-180.4-84.4s-135.6 30.8-180.4 84.4c-11.4 13.6-31.6 15.4-45 4-13.6-11.4-15.4-31.4-4-45 56.8-68.2 140.6-107.4 229.4-107.4s172.6 39.2 229.6 107.6c11.4 13.6 9.6 33.8-4 45-13.8 11.2-33.8 9.4-45.2-4.2z" />
<glyph unicode="&#xe940;" glyph-name="smile-wink" horiz-adv-x="992" d="M496 944c-274 0-496-222-496-496s222-496 496-496 496 222 496 496-222 496-496 496zM801.4 142.6c-39.6-39.6-86-70.8-137.4-92.6-53.2-22.6-109.8-34-168.2-34s-115 11.4-168.2 34c-51.4 21.8-97.6 53-137.4 92.6-39.6 39.6-70.8 86-92.6 137.4-22.6 53.2-34 109.8-34 168.2s11.4 115 34 168.2c21.8 51.4 53 97.6 92.6 137.4 39.6 39.6 86 70.8 137.4 92.6 53.2 22.6 109.8 34 168.2 34s115-11.4 168.2-34c51.4-21.8 97.6-53 137.4-92.6 39.6-39.6 70.8-86 92.6-137.4 22.6-53.2 34-109.8 34-168.2s-11.4-115-34-168.2c-21.6-51.6-52.8-97.8-92.6-137.4zM336 480c35.4 0 64 28.6 64 64s-28.6 64-64 64-64-28.6-64-64 28.6-64 64-64zM656 600c-51.4 0-111.8-33.8-119.8-84.2-3.4-22.4 23-36.4 39.6-21.6l19 17c29.6 26.4 92.4 26.4 122 0l19-17c17-14.8 43.2-0.6 39.6 21.6-7.6 50.4-68 84.2-119.4 84.2zM676.4 308.4c-44.8-53.6-110.6-84.4-180.4-84.4s-135.6 30.8-180.4 84.4c-27 32.4-76.4-8.4-49.2-41 57-68.2 140.6-107.4 229.6-107.4s172.6 39.2 229.6 107.6c27 32.4-22.2 73.4-49.2 40.8z" />
<glyph unicode="&#xe941;" glyph-name="star" horiz-adv-x="1152" d="M1056.2 617l-292.2 42.6-130.6 264.8c-23.4 47.2-91.2 47.8-114.8 0l-130.6-264.8-292.2-42.6c-52.4-7.6-73.4-72.2-35.4-109.2l211.4-206-50-291c-9-52.6 46.4-92 92.8-67.4l261.4 137.4 261.4-137.4c46.4-24.4 101.8 14.8 92.8 67.4l-50 291 211.4 206c38 37 17 101.6-35.4 109.2zM811.6 324.2l55.6-324-291.2 152.8-291-153 55.6 324-235.6 229.8 325.4 47.2 145.6 295 145.6-295 325.4-47.2-235.4-229.6z" />
<glyph unicode="&#xe942;" glyph-name="stars" d="M728.6 426.2l-209.8 30.6-93.8 190.6c-8.4 17-24.8 25.6-41.2 25.6s-32.6-8.4-41-25.6l-93.8-190.6-209.6-30.6c-37.6-5.4-52.6-52-25.4-78.6l151.8-148.2-36-209.4c-5.2-30 18.6-54 45.2-54 7 0 14.4 1.6 21.4 5.4l187.6 98.8 187.6-98.8c7-3.6 14.2-5.4 21.2-5.4 26.6 0 50.4 24 45.4 53.8l-35.8 209.4 151.8 148.2c27.2 26.8 12 73.2-25.6 78.8zM557.6 245.2l-24-23.6 5.6-33.2 29.6-173.2-185 97.6-29.8-15.8-155.2-81.8 29.6 173.2 5.6 33.2-24 23.6-125.4 122.8 206.8 30.2 14.8 30.2 77.8 157.6 77.6-157.6 14.8-30.2 33.2-4.8 173.6-25.4-125.6-122.8zM497.6 740.4l97.2-48.6 48.6-97.2c5.4-10.8 16.4-17.8 28.6-17.8s23.2 6.8 28.6 17.8l48.6 97.2 97.2 48.6c10.8 5.4 17.6 16.6 17.6 28.6s-6.8 23.2-17.6 28.6l-97.2 48.6-48.6 97.6c-10.8 21.8-46.4 21.8-57.2 0l-48.6-97.2-97.2-48.6c-10.8-5.4-17.6-16.6-17.6-28.6s6.8-23.4 17.6-29zM633 794c6.2 3 11.2 8.2 14.4 14.4l24.6 49.4 24.6-49.4c3.2-6.2 8.2-11.2 14.4-14.4l49.4-24.8-49.4-24.8c-6.2-3-11.2-8.2-14.4-14.4l-24.6-49.4-24.6 49.4c-3.2 6.2-8.2 11.2-14.4 14.4l-49.4 24.8 49.4 24.8zM960 576.8l-32 64-32-64-64-32 64-32 32-64 32 64 64 32-64 32z" />
<glyph unicode="&#xe943;" glyph-name="surprise" horiz-adv-x="992" d="M496 944c-274 0-496-222-496-496s222-496 496-496 496 222 496 496-222 496-496 496zM496 16c-238.2 0-432 193.8-432 432s193.8 432 432 432 432-193.8 432-432-193.8-432-432-432zM496 384c-70.6 0-128-57.4-128-128s57.4-128 128-128 128 57.4 128 128-57.4 128-128 128zM496 192c-35.2 0-64 28.8-64 64s28.8 64 64 64 64-28.8 64-64-28.8-64-64-64zM400 544c0 35.4-28.6 64-64 64s-64-28.6-64-64 28.6-64 64-64 64 28.6 64 64zM656 608c-35.4 0-64-28.6-64-64s28.6-64 64-64 64 28.6 64 64-28.6 64-64 64z" />
<glyph unicode="&#xe944;" glyph-name="syringe" d="M1019.4 797l-158.4 158.4c-6.2 6.2-16.4 6.2-22.6 0l-22.6-22.6c-6.2-6.2-6.2-16.4 0-22.6l56.6-56.6-90.6-90.6-147.2 147.2c-6.2 6.2-16.4 6.2-22.6 0l-22.6-22.6c-6.2-6.2-6.2-16.4 0-22.6l34-34-454.4-454.4c-34.6-34.6-51.2-82.2-46-130.8l14.2-127.2-132.6-132.6c-6.2-6.2-6.2-16.4 0-22.6l22.6-22.6c6.2-6.2 16.4-6.2 22.6 0l132.6 132.6 127.2-14.2c47.8-5.2 95.8 10.8 130.8 46l454.4 454.4 34-34c6.2-6.2 16.4-6.2 22.6 0l22.6 22.4c6.2 6.2 6.2 16.4 0 22.6l-147 147 90.6 90.6 56.6-56.6c6.2-6.2 16.4-6.2 22.6 0l22.6 22.6c6.2 6.4 6.2 16.4 0 22.8zM849.6 604.6l-454.2-454.4c-20.8-20.8-49.2-30.8-78.4-27.6l-117 13-13 117c-3.2 29.2 6.8 57.8 27.6 78.4l47 47 79.2-79.2c6.2-6.2 16.4-6.2 22.6 0l22.6 22.6c6.2 6.2 6.2 16.4 0 22.6l-79.2 79.2 90.6 90.6 79.2-79.2c6.2-6.2 16.4-6.2 22.6 0l22.6 22.6c6.2 6.2 6.2 16.4 0 22.6l-79.2 79.2 90.6 90.6 79.2-79.2c6.2-6.2 16.4-6.2 22.6 0l22.6 22.6c6.2 6.2 6.2 16.4 0 22.6l-79.6 79.6 90.6 90.6 181-181.2z" />
<glyph unicode="&#xe945;" glyph-name="tired" horiz-adv-x="992" d="M496 944c-274 0-496-222-496-496s222-496 496-496 496 222 496 496-222 496-496 496zM496 16c-238.2 0-432 193.8-432 432s193.8 432 432 432 432-193.8 432-432-193.8-432-432-432zM723.6 660.6l-160-96c-15.6-9.4-15.6-31.8 0-41.2l160-96c23.2-13.8 48 15.4 30.8 36l-67.2 80.6 67.2 80.6c17.2 20.6-7.6 49.6-30.8 36zM268.4 427.4l160 96c15.6 9.4 15.6 31.8 0 41.2l-160 96c-23.2 13.8-48-15.4-30.8-36l67.2-80.6-67.2-80.6c-17.2-20.6 7.6-49.8 30.8-36zM496 416c-103.8 0-230.6-87.6-246.4-213.4-1.6-12.6 1.8-25.4 9.2-33.8 1.2-1.4 11.6-13.4 26.4-7.2 51.8 22.2 128.8 34.8 211 34.8s159.2-12.6 211-34.8c11-4.8 21 1 26.4 7.2 7.2 8.4 10.6 21.2 9.2 33.8-16.2 125.8-143 213.4-246.8 213.4zM496 260.6c-61.2 0-119-6.4-168.6-18.2 31.6 65 106 109.6 168.6 109.6s137-44.6 168.6-109.6c-49.6 11.8-107.2 18.2-168.6 18.2z" />
<glyph unicode="&#xe946;" glyph-name="user-check" horiz-adv-x="1280" d="M1275.4 670.8l-28.2 28.4c-6.2 6.2-16.4 6.4-22.6 0l-230.4-223.4-106.6 106.8c-6.2 6.2-16.4 6.2-22.6 0l-28.4-28.2c-6.2-6.2-6.2-16.4 0-22.6l140.4-140.8c9.4-9.4 24.6-9.4 34 0l264.2 257.2c6.4 6.2 6.4 16.4 0.2 22.6zM627.2 384c-57.4 0-85-32-179.2-32s-121.6 32-179.2 32c-148.4 0-268.8-120.4-268.8-268.8v-83.2c0-53 43-96 96-96h704c53 0 96 43 96 96v83.2c0 148.4-120.4 268.8-268.8 268.8zM832 32c0-17.6-14.4-32-32-32h-704c-17.6 0-32 14.4-32 32v83.2c0 113 91.8 204.8 204.8 204.8 39.2 0 78.2-32 179.2-32 100.8 0 140 32 179.2 32 113 0 204.8-91.8 204.8-204.8v-83.2zM448 448c141.4 0 256 114.6 256 256s-114.6 256-256 256-256-114.6-256-256 114.6-256 256-256zM448 896c105.8 0 192-86.2 192-192s-86.2-192-192-192-192 86.2-192 192 86.2 192 192 192z" />
<glyph unicode="&#xe947;" glyph-name="user-shield" horiz-adv-x="1280" d="M1244.6 417.8l-230.4 90c-7 2.8-14.6 4.2-22.2 4.2s-15-1.4-22.2-4.2l-230.4-90c-21.4-8.4-35.4-28-35.4-49.8 0-223.2 137.4-377.6 265.8-427.8 7-2.8 14.6-4.2 22.2-4.2s15 1.4 22.2 4.2c102.6 40 265.8 178.8 265.8 427.8 0 21.8-14 41.4-35.4 49.8zM960 16c-96.4 53.6-189.2 175.2-192 344.2l192 75v-419.2zM993.2-0.2c-0.2 0-0.4 0.2-0.4 0.2h1c-0.4 0-0.6-0.2-0.6-0.2zM1024 15v420.2l192-75c-3-189.6-114.2-300.4-192-345.2zM96 0c-17.6 0-32 14.4-32 32v83.2c0 113 91.8 204.8 204.8 204.8 39.2 0 78.2-32 179.2-32 100.8 0 140 32 179.2 32 5.2 0 10-1.2 15-1.6-1.4 16.2-2.2 32.6-2.2 49.6 0 5 1.6 9.6 2.2 14.4-5 0.2-9.8 1.6-15 1.6-57.4 0-85-32-179.2-32s-121.6 32-179.2 32c-148.4 0-268.8-120.4-268.8-268.8v-83.2c0-53 43-96 96-96h704c13.6 0 26.6 3 38.4 8-20.6 16.4-40.4 35.2-59.4 56h-683zM448 448c141.4 0 256 114.6 256 256s-114.6 256-256 256-256-114.6-256-256 114.6-256 256-256zM448 896c105.8 0 192-86.2 192-192s-86.2-192-192-192-192 86.2-192 192 86.2 192 192 192z" />
</font>
</defs>
</svg>
