<?xml version="1.0" standalone="no"?>
<!DOCTYPE svg PUBLIC "-//W3C//DTD SVG 1.1//EN" "http://www.w3.org/Graphics/SVG/1.1/DTD/svg11.dtd" >
<svg xmlns="http://www.w3.org/2000/svg" xmlns:xlink="http://www.w3.org/1999/xlink" version="1.1">
<metadata>
This is a custom SVG webfont generated by Typotheque.
</metadata>
<defs>
<font id="typotheque_webfonts_service" horiz-adv-x="0" >
<font-face units-per-em="1000" ascent="710" descent="-290" />
<missing-glyph horiz-adv-x="254" />
<glyph unicode="&#xfe8b;&#xfef0;" horiz-adv-x="695" arabic-form="isolated" d="M583 452q14 0 35.5 3.5t34.5 7.5v-52q-23 -5 -67.5 -11.5t-95.5 -6.5v50q8 0 15 0.5t13 1.5q-5 6 -8.5 15t-3.5 20q0 14 6 28.5t16 26t24 19t30 7.5q14 0 26 -6.5t19 -15.5l-8 -48q-9 8 -18 12t-21 4q-20 0 -30 -10.5t-10 -16.5q0 -8 10 -18t33 -10zM623 359 q4 -21 8.5 -48t8 -55t6 -54t2.5 -46q0 -39 -13.5 -68t-32.5 -46q-9 -9 -22 -16t-29 -12q19 -22 19 -45q0 -19 -5 -49t-30 -62q-14 -17 -38 -36.5t-58 -35.5t-77.5 -26.5t-96.5 -10.5q-71 0 -117 20.5t-72.5 52t-36.5 69t-10 70.5q0 38 6 70.5t13 57.5q8 28 19 52h77 q-11 -25 -20 -52q-9 -25 -15 -52t-6 -55q0 -19 5.5 -43t23.5 -45.5t51.5 -36t89.5 -14.5q47 0 88.5 11t73 26t49.5 31t18 27t-9 22t-25.5 20t-39.5 14.5t-51 5.5h-1l18 94h51q70 0 98 11t28 25q0 32 -7 85.5t-19 128.5z" />
<glyph unicode="&#xfe8b;&#xfef2;" horiz-adv-x="695" arabic-form="isolated" d="M583 452q14 0 35.5 3.5t34.5 7.5v-52q-23 -5 -67.5 -11.5t-95.5 -6.5v50q8 0 15 0.5t13 1.5q-5 6 -8.5 15t-3.5 20q0 14 6 28.5t16 26t24 19t30 7.5q14 0 26 -6.5t19 -15.5l-8 -48q-9 8 -18 12t-21 4q-20 0 -30 -10.5t-10 -16.5q0 -8 10 -18t33 -10zM623 359 q4 -21 8.5 -48t8 -55t6 -54t2.5 -46q0 -39 -13.5 -68t-32.5 -46q-9 -9 -22 -16t-29 -12q19 -22 19 -45q0 -19 -5 -49t-30 -62q-14 -17 -38 -36.5t-58 -35.5t-77.5 -26.5t-96.5 -10.5q-71 0 -117 20.5t-72.5 52t-36.5 69t-10 70.5q0 38 6 70.5t13 57.5q8 28 19 52h77 q-11 -25 -20 -52q-9 -25 -15 -52t-6 -55q0 -19 5.5 -43t23.5 -45.5t51.5 -36t89.5 -14.5q47 0 88.5 11t73 26t49.5 31t18 27t-9 22t-25.5 20t-39.5 14.5t-51 5.5h-1l18 94h51q70 0 98 11t28 25q0 32 -7 85.5t-19 128.5zM347 -295q9 -8 19 -17q9 -8 18.5 -18t18.5 -22 q-9 -11 -19 -21l-18 -18q-10 -10 -19 -18q-8 7 -17 15l-15.5 15.5t-16.5 17.5q-8 -9 -17 -18t-16 -15q-8 -8 -16 -15q-10 8 -20 18q-9 8 -18 18t-17 21q8 12 17.5 22t17.5 18q10 9 20 17q8 -6 16 -14q8 -7 16.5 -15.5t16.5 -18.5q8 10 16.5 19t15.5 15q9 8 17 14z" />
<glyph unicode="&#xfe97;&#xfef0;" horiz-adv-x="697" arabic-form="isolated" d="M623 531q9 -8 19 -17q9 -8 18.5 -18t18.5 -22q-9 -11 -19 -21l-18 -18q-10 -10 -19 -18q-8 7 -17 15l-15.5 15.5t-16.5 17.5q-8 -9 -17 -18t-16 -15q-8 -8 -16 -15q-10 8 -20 18q-9 8 -18 18t-17 21q8 12 17.5 22t17.5 18q10 9 20 17q8 -6 16 -14q8 -7 16.5 -15.5 t16.5 -18.5q8 10 16.5 19t15.5 15q9 8 17 14zM623 359q4 -21 8.5 -48t8 -55t6 -54t2.5 -46q0 -39 -13.5 -68t-32.5 -46q-9 -9 -22 -16t-29 -12q19 -22 19 -45q0 -19 -5 -49t-30 -62q-14 -17 -38 -36.5t-58 -35.5t-77.5 -26.5t-96.5 -10.5q-71 0 -117 20.5t-72.5 52t-36.5 69 t-10 70.5q0 38 6 70.5t13 57.5q8 28 19 52h77q-11 -25 -20 -52q-9 -25 -15 -52t-6 -55q0 -19 5.5 -43t23.5 -45.5t51.5 -36t89.5 -14.5q47 0 88.5 11t73 26t49.5 31t18 27t-9 22t-25.5 20t-39.5 14.5t-51 5.5h-1l18 94h51q70 0 98 11t28 25q0 32 -7 85.5t-19 128.5z" />
<glyph unicode="&#xfe97;&#xfef2;" horiz-adv-x="697" arabic-form="isolated" d="M623 531q9 -8 19 -17q9 -8 18.5 -18t18.5 -22q-9 -11 -19 -21l-18 -18q-10 -10 -19 -18q-8 7 -17 15l-15.5 15.5t-16.5 17.5q-8 -9 -17 -18t-16 -15q-8 -8 -16 -15q-10 8 -20 18q-9 8 -18 18t-17 21q8 12 17.5 22t17.5 18q10 9 20 17q8 -6 16 -14q8 -7 16.5 -15.5 t16.5 -18.5q8 10 16.5 19t15.5 15q9 8 17 14zM623 359q4 -21 8.5 -48t8 -55t6 -54t2.5 -46q0 -39 -13.5 -68t-32.5 -46q-9 -9 -22 -16t-29 -12q19 -22 19 -45q0 -19 -5 -49t-30 -62q-14 -17 -38 -36.5t-58 -35.5t-77.5 -26.5t-96.5 -10.5q-71 0 -117 20.5t-72.5 52t-36.5 69 t-10 70.5q0 38 6 70.5t13 57.5q8 28 19 52h77q-11 -25 -20 -52q-9 -25 -15 -52t-6 -55q0 -19 5.5 -43t23.5 -45.5t51.5 -36t89.5 -14.5q47 0 88.5 11t73 26t49.5 31t18 27t-9 22t-25.5 20t-39.5 14.5t-51 5.5h-1l18 94h51q70 0 98 11t28 25q0 32 -7 85.5t-19 128.5z M347 -295q9 -8 19 -17q9 -8 18.5 -18t18.5 -22q-9 -11 -19 -21l-18 -18q-10 -10 -19 -18q-8 7 -17 15l-15.5 15.5t-16.5 17.5q-8 -9 -17 -18t-16 -15q-8 -8 -16 -15q-10 8 -20 18q-9 8 -18 18t-17 21q8 12 17.5 22t17.5 18q10 9 20 17q8 -6 16 -14q8 -7 16.5 -15.5 t16.5 -18.5q8 10 16.5 19t15.5 15q9 8 17 14z" />
<glyph unicode="&#xfe9b;&#xfef0;" horiz-adv-x="697" arabic-form="isolated" d="M574 504q-9 7 -19 16q-8 8 -17 17.5t-17 20.5q8 12 17 22t17 17q10 9 19 16q9 -7 19 -16l17.5 -17.5t17.5 -21.5q-8 -11 -17.5 -20.5l-17.5 -17.5q-10 -9 -19 -16zM627 515q10 -8 19 -17t18.5 -19t18.5 -22q-9 -11 -18.5 -21t-18.5 -17q-9 -9 -19 -17q-9 7 -18 15 q-8 7 -17 16t-17 20q-8 -11 -17.5 -20t-16.5 -16q-9 -8 -18 -15q-10 8 -20 17q-9 8 -18 17.5t-17 20.5q8 12 17.5 22.5t17.5 18.5q10 9 20 17q9 -7 18 -16q8 -7 17 -16.5t17 -20.5q8 11 17.5 20.5l16.5 16.5q9 9 18 16zM623 359q4 -21 8.5 -48t8 -55t6 -54t2.5 -46 q0 -39 -13.5 -68t-32.5 -46q-9 -9 -22 -16t-29 -12q19 -22 19 -45q0 -19 -5 -49t-30 -62q-14 -17 -38 -36.5t-58 -35.5t-77.5 -26.5t-96.5 -10.5q-71 0 -117 20.5t-72.5 52t-36.5 69t-10 70.5q0 38 6 70.5t13 57.5q8 28 19 52h77q-11 -25 -20 -52q-9 -25 -15 -52t-6 -55 q0 -19 5.5 -43t23.5 -45.5t51.5 -36t89.5 -14.5q47 0 88.5 11t73 26t49.5 31t18 27t-9 22t-25.5 20t-39.5 14.5t-51 5.5h-1l18 94h51q70 0 98 11t28 25q0 32 -7 85.5t-19 128.5z" />
<glyph unicode="&#xfe9b;&#xfef2;" horiz-adv-x="697" arabic-form="isolated" d="M574 504q-9 7 -19 16q-8 8 -17 17.5t-17 20.5q8 12 17 22t17 17q10 9 19 16q9 -7 19 -16l17.5 -17.5t17.5 -21.5q-8 -11 -17.5 -20.5l-17.5 -17.5q-10 -9 -19 -16zM627 515q10 -8 19 -17t18.5 -19t18.5 -22q-9 -11 -18.5 -21t-18.5 -17q-9 -9 -19 -17q-9 7 -18 15 q-8 7 -17 16t-17 20q-8 -11 -17.5 -20t-16.5 -16q-9 -8 -18 -15q-10 8 -20 17q-9 8 -18 17.5t-17 20.5q8 12 17.5 22.5t17.5 18.5q10 9 20 17q9 -7 18 -16q8 -7 17 -16.5t17 -20.5q8 11 17.5 20.5l16.5 16.5q9 9 18 16zM623 359q4 -21 8.5 -48t8 -55t6 -54t2.5 -46 q0 -39 -13.5 -68t-32.5 -46q-9 -9 -22 -16t-29 -12q19 -22 19 -45q0 -19 -5 -49t-30 -62q-14 -17 -38 -36.5t-58 -35.5t-77.5 -26.5t-96.5 -10.5q-71 0 -117 20.5t-72.5 52t-36.5 69t-10 70.5q0 38 6 70.5t13 57.5q8 28 19 52h77q-11 -25 -20 -52q-9 -25 -15 -52t-6 -55 q0 -19 5.5 -43t23.5 -45.5t51.5 -36t89.5 -14.5q47 0 88.5 11t73 26t49.5 31t18 27t-9 22t-25.5 20t-39.5 14.5t-51 5.5h-1l18 94h51q70 0 98 11t28 25q0 32 -7 85.5t-19 128.5zM347 -295q9 -8 19 -17q9 -8 18.5 -18t18.5 -22q-9 -11 -19 -21l-18 -18q-10 -10 -19 -18 q-8 7 -17 15l-15.5 15.5t-16.5 17.5q-8 -9 -17 -18t-16 -15q-8 -8 -16 -15q-10 8 -20 18q-9 8 -18 18t-17 21q8 12 17.5 22t17.5 18q10 9 20 17q8 -6 16 -14q8 -7 16.5 -15.5t16.5 -18.5q8 10 16.5 19t15.5 15q9 8 17 14z" />
<glyph unicode="&#xfed3;&#xfef2;" horiz-adv-x="739" arabic-form="isolated" d="M546 503q-10 8 -20 17q-9 9 -18.5 19t-18.5 22q9 12 19 23t18 19q10 10 20 18q10 -8 21 -18q9 -8 19 -19t19 -23q-9 -12 -19.5 -22.5l-18.5 -18.5q-11 -9 -21 -17zM550 462q39 0 67.5 -24.5t47 -60t27.5 -76.5t9 -74q0 -28 -3.5 -56.5t-12.5 -54.5t-25 -48t-42 -36 q-11 -7 -26.5 -12.5t-35.5 -9.5q15 -20 15 -41q0 -19 -5 -49t-30 -62q-14 -17 -38 -36.5t-58 -35.5t-77.5 -26.5t-96.5 -10.5q-71 0 -117 20.5t-72.5 52t-36.5 69t-10 70.5q0 38 6 70.5t13 57.5q8 28 19 52h77q-11 -25 -20 -52q-9 -25 -15 -52t-6 -55q0 -19 5.5 -43 t23.5 -45.5t51.5 -36t89.5 -14.5q47 0 88.5 11t73 26t49.5 31t18 27t-9 22t-25.5 20t-39.5 14.5t-51 5.5h-1l18 94h66q63 0 97 7t50 18q11 7 17 22t8 32q-17 -9 -43.5 -16.5t-60.5 -7.5q-61 0 -99.5 30t-38.5 96q0 28 11 60.5t31.5 60.5t50 47t66.5 19zM449 277 q0 -13 8 -21.5t20.5 -13.5t27.5 -7t28 -2q30 0 55 4.5t44 10.5q-4 20 -12 41t-20 38.5t-29 29t-38 11.5q-20 0 -35.5 -10.5t-26.5 -25t-16.5 -30t-5.5 -25.5zM346 -295q9 -8 19 -17q9 -8 18.5 -18t18.5 -22q-9 -11 -19 -21l-18 -18q-10 -10 -19 -18q-8 7 -17 15l-15.5 15.5 t-16.5 17.5q-8 -9 -17 -18t-16 -15q-8 -8 -16 -15q-10 8 -20 18q-9 8 -18 18t-17 21q8 12 17.5 22t17.5 18q10 9 20 17q8 -6 16 -14q8 -7 16.5 -15.5t16.5 -18.5q8 10 16.5 19t15.5 15q9 8 17 14z" />
<glyph unicode="&#xfedb;&#xfef0;" horiz-adv-x="819" arabic-form="isolated" d="M511 411q69 -31 117.5 -66t78.5 -68.5t44 -64.5t14 -55q0 -32 -12 -61t-39 -49q-21 -16 -57 -26.5t-99 -15.5q12 -17 12 -36t-5 -49t-30 -62q-14 -17 -38 -36.5t-58 -35.5t-77.5 -26.5t-96.5 -10.5q-71 0 -117 20.5t-72.5 52t-36.5 69t-10 70.5q0 38 6 70.5t13 57.5 q8 28 19 52h77q-11 -25 -20 -52q-9 -25 -15 -52t-6 -55q0 -19 5.5 -43t23.5 -45.5t51.5 -36t89.5 -14.5q47 0 88.5 11t73 26t49.5 31t18 27t-9 22t-25.5 20t-39.5 14.5t-51 5.5h-1l18 94h34q136 0 202 14.5t66 32.5q0 11 -11 33.5t-41 52t-83 64t-137 68.5v90l377 224l8 -94 z" />
<glyph unicode="&#xfedb;&#xfef2;" horiz-adv-x="819" arabic-form="isolated" d="M511 411q69 -31 117.5 -66t78.5 -68.5t44 -64.5t14 -55q0 -32 -12 -61t-39 -49q-21 -16 -57 -26.5t-99 -15.5q12 -17 12 -36t-5 -49t-30 -62q-14 -17 -38 -36.5t-58 -35.5t-77.5 -26.5t-96.5 -10.5q-71 0 -117 20.5t-72.5 52t-36.5 69t-10 70.5q0 38 6 70.5t13 57.5 q8 28 19 52h77q-11 -25 -20 -52q-9 -25 -15 -52t-6 -55q0 -19 5.5 -43t23.5 -45.5t51.5 -36t89.5 -14.5q47 0 88.5 11t73 26t49.5 31t18 27t-9 22t-25.5 20t-39.5 14.5t-51 5.5h-1l18 94h34q136 0 202 14.5t66 32.5q0 11 -11 33.5t-41 52t-83 64t-137 68.5v90l377 224l8 -94 zM347 -295q9 -8 19 -17q9 -8 18.5 -18t18.5 -22q-9 -11 -19 -21l-18 -18q-10 -10 -19 -18q-8 7 -17 15l-15.5 15.5t-16.5 17.5q-8 -9 -17 -18t-16 -15q-8 -8 -16 -15q-10 8 -20 18q-9 8 -18 18t-17 21q8 12 17.5 22t17.5 18q10 9 20 17q8 -6 16 -14q8 -7 16.5 -15.5 t16.5 -18.5q8 10 16.5 19t15.5 15q9 8 17 14z" />
<glyph unicode="&#xfedf;&#xfef0;" horiz-adv-x="706" arabic-form="isolated" d="M647 686v-492q0 -66 -18.5 -102t-44.5 -56q-16 -12 -34 -20q23 -23 23 -47q0 -20 -5 -49.5t-30 -61.5q-14 -17 -38.5 -36.5t-59 -35.5t-78.5 -26.5t-97 -10.5q-71 0 -117 20.5t-72.5 52t-36.5 69t-10 70.5q0 38 6 70.5t13 57.5q8 28 19 52h77q-11 -25 -20 -52 q-9 -25 -15 -52t-6 -55q0 -19 5.5 -43t23.5 -45.5t51.5 -36t89.5 -14.5q47 0 88.5 11t73 26t49.5 31t18 27t-10 22t-27.5 20t-41.5 14.5t-52 5.5l27 94h52q62 0 88.5 17t26.5 34v533z" />
<glyph unicode="&#xfedf;&#xfef2;" horiz-adv-x="706" arabic-form="isolated" d="M647 686v-492q0 -66 -18.5 -102t-44.5 -56q-16 -12 -34 -20q23 -23 23 -47q0 -20 -5 -49.5t-30 -61.5q-14 -17 -38.5 -36.5t-59 -35.5t-78.5 -26.5t-97 -10.5q-71 0 -117 20.5t-72.5 52t-36.5 69t-10 70.5q0 38 6 70.5t13 57.5q8 28 19 52h77q-11 -25 -20 -52 q-9 -25 -15 -52t-6 -55q0 -19 5.5 -43t23.5 -45.5t51.5 -36t89.5 -14.5q47 0 88.5 11t73 26t49.5 31t18 27t-10 22t-27.5 20t-41.5 14.5t-52 5.5l27 94h52q62 0 88.5 17t26.5 34v533zM347 -295q9 -8 19 -17q9 -8 18.5 -18t18.5 -22q-9 -11 -19 -21l-18 -18q-10 -10 -19 -18 q-8 7 -17 15l-15.5 15.5t-16.5 17.5q-8 -9 -17 -18t-16 -15q-8 -8 -16 -15q-10 8 -20 18q-9 8 -18 18t-17 21q8 12 17.5 22t17.5 18q10 9 20 17q8 -6 16 -14q8 -7 16.5 -15.5t16.5 -18.5q8 10 16.5 19t15.5 15q9 8 17 14z" />
<glyph unicode="&#xfee7;&#xfef0;" horiz-adv-x="695" arabic-form="isolated" d="M579 394q-10 8 -20 18q-10 8 -19.5 18.5t-18.5 22.5q9 12 19 23t19 19q10 10 20 18q10 -8 21 -18q9 -8 19.5 -19t19.5 -23q-9 -12 -19.5 -22.5t-19.5 -18.5q-11 -10 -21 -18zM623 359q4 -21 8.5 -48t8 -55t6 -54t2.5 -46q0 -39 -13.5 -68t-32.5 -46q-9 -9 -22 -16 t-29 -12q19 -22 19 -45q0 -19 -5 -49t-30 -62q-14 -17 -38 -36.5t-58 -35.5t-77.5 -26.5t-96.5 -10.5q-71 0 -117 20.5t-72.5 52t-36.5 69t-10 70.5q0 38 6 70.5t13 57.5q8 28 19 52h77q-11 -25 -20 -52q-9 -25 -15 -52t-6 -55q0 -19 5.5 -43t23.5 -45.5t51.5 -36 t89.5 -14.5q47 0 88.5 11t73 26t49.5 31t18 27t-9 22t-25.5 20t-39.5 14.5t-51 5.5h-1l18 94h51q70 0 98 11t28 25q0 32 -7 85.5t-19 128.5z" />
<glyph unicode="&#xfee7;&#xfef2;" horiz-adv-x="695" arabic-form="isolated" d="M579 394q-10 8 -20 18q-10 8 -19.5 18.5t-18.5 22.5q9 12 19 23t19 19q10 10 20 18q10 -8 21 -18q9 -8 19.5 -19t19.5 -23q-9 -12 -19.5 -22.5t-19.5 -18.5q-11 -10 -21 -18zM623 359q4 -21 8.5 -48t8 -55t6 -54t2.5 -46q0 -39 -13.5 -68t-32.5 -46q-9 -9 -22 -16 t-29 -12q19 -22 19 -45q0 -19 -5 -49t-30 -62q-14 -17 -38 -36.5t-58 -35.5t-77.5 -26.5t-96.5 -10.5q-71 0 -117 20.5t-72.5 52t-36.5 69t-10 70.5q0 38 6 70.5t13 57.5q8 28 19 52h77q-11 -25 -20 -52q-9 -25 -15 -52t-6 -55q0 -19 5.5 -43t23.5 -45.5t51.5 -36 t89.5 -14.5q47 0 88.5 11t73 26t49.5 31t18 27t-9 22t-25.5 20t-39.5 14.5t-51 5.5h-1l18 94h51q70 0 98 11t28 25q0 32 -7 85.5t-19 128.5zM347 -295q9 -8 19 -17q9 -8 18.5 -18t18.5 -22q-9 -11 -19 -21l-18 -18q-10 -10 -19 -18q-8 7 -17 15l-15.5 15.5t-16.5 17.5 q-8 -9 -17 -18t-16 -15q-8 -8 -16 -15q-10 8 -20 18q-9 8 -18 18t-17 21q8 12 17.5 22t17.5 18q10 9 20 17q8 -6 16 -14q8 -7 16.5 -15.5t16.5 -18.5q8 10 16.5 19t15.5 15q9 8 17 14z" />
<glyph unicode="&#xfe8c;&#xfeae;" horiz-adv-x="556" arabic-form="final" d="M499 385q-23 -5 -67.5 -11.5t-95.5 -6.5v50q8 0 15 0.5t13 1.5q-5 6 -8.5 15t-3.5 20q0 14 6 28.5t16 26t24 19t30 7.5q14 0 26 -6.5t19 -15.5l-8 -48q-9 8 -18 12t-21 4q-20 0 -30 -10.5t-10 -16.5q0 -8 10 -18t33 -10q14 0 35.5 3.5t34.5 7.5v-52zM572 91v-88l-16 -3 h-33q-33 0 -57 11t-39.5 30.5t-23.5 46t-11 57.5l-3 43q-9 -13 -22.5 -21.5t-29 -13.5t-32.5 -7t-32 -2q-25 0 -39 8l3 -17q3 -23 2 -52t-6 -60q-5 -28 -18 -65.5t-38 -71.5t-63.5 -57.5t-94.5 -23.5q-15 0 -27 2.5t-20 5.5q-10 4 -17 8l-4 88q1 0 18.5 -5.5t46.5 -5.5 q42 0 70.5 18.5t46 47t25.5 62.5t8 66q0 17 -15 65.5t-44 139.5l79 16l13 -35q6 -13 11 -21t12 -12.5t16.5 -6t24.5 -1.5q33 0 55 4t36 10t21.5 13t11.5 13q-1 19 -1 32v16l79 6l3 -132q1 -24 2 -43.5t6 -33t16 -21t31 -7.5h33z" />
<glyph unicode="&#xfe8c;&#xfee6;" horiz-adv-x="831" arabic-form="final" d="M775 367q-23 -5 -67.5 -11.5t-95.5 -6.5v50q8 0 15 0.5t13 1.5q-5 6 -8.5 15t-3.5 20q0 14 6 28.5t16 26t24 19t30 7.5q14 0 26 -6.5t19 -15.5l-8 -48q-9 8 -18 12t-21 4q-20 0 -30 -10.5t-10 -16.5q0 -8 10 -18t33 -10q14 0 35.5 3.5t34.5 7.5v-52zM262 243 q-10 8 -20 18q-10 8 -19.5 18.5t-18.5 22.5q9 12 19 23t19 19q10 10 20 18q10 -8 21 -18q9 -8 19.5 -19t19.5 -23q-9 -12 -19.5 -22.5t-19.5 -18.5q-11 -10 -21 -18zM846 91v-88l-16 -3h-32q-34 0 -57.5 11t-39.5 30.5t-24 46t-11 57.5q-1 5 -1 11t-1 13q-18 -26 -51.5 -35 t-63.5 -9q-16 0 -26.5 3.5t-18.5 8.5q5 -33 8 -63t3 -53q0 -32 -11 -64t-37 -61q-29 -32 -85 -55t-128 -23t-116 21.5t-68.5 53.5t-32.5 69.5t-8 69.5q0 38 6 70t13 57q8 28 19 51h77q-11 -25 -20 -51q-9 -24 -15 -51t-6 -55q0 -18 3.5 -42.5t19.5 -46t47.5 -37t86.5 -15.5 q41 0 74.5 9t57 21t36.5 24.5t13 20.5q0 10 -2 28t-5.5 40t-7.5 46.5t-9 48.5q-11 56 -24 120l83 13l3 -11q7 -26 17 -40t43 -14q31 0 52.5 4t35.5 9.5t22 12t12 12.5q-1 19 -1 32.5v16.5l79 8l3 -115q1 -24 2 -43.5t6 -33t16 -20.5t31 -7h33z" />
<glyph unicode="&#xfe8c;&#xfef0;" horiz-adv-x="711" arabic-form="final" d="M572 379q-23 -5 -67.5 -11.5t-95.5 -6.5v50q8 0 15 0.5t13 1.5q-5 6 -8.5 15t-3.5 20q0 14 6 28.5t16 26t24 19t30 7.5q14 0 26 -6.5t19 -15.5l-8 -48q-9 8 -18 12t-21 4q-20 0 -30 -10.5t-10 -16.5q0 -8 10 -18t33 -10q14 0 35.5 3.5t34.5 7.5v-52zM728 91v-88l-16 -3 q-27 0 -46.5 5t-36 19.5t-31 39t-32.5 63.5q-20 44 -43 71t-64 27q-22 0 -45.5 -7.5t-43 -18.5t-32 -24t-12.5 -24q0 -9 10.5 -17.5t27 -16t37 -14.5t39.5 -13q72 -23 106 -53t34 -72q0 -16 -5.5 -46t-31.5 -61q-13 -17 -38.5 -35.5t-61 -34.5t-80 -26t-96.5 -10 q-72 0 -118 20.5t-73 52t-37 68.5t-10 70q0 38 6 70.5t13 57.5q8 29 19 53h77q-11 -25 -20 -53q-9 -25 -15 -52t-6 -55q0 -18 5.5 -42t23 -45.5t51 -36.5t89.5 -15q46 0 89 10.5t76 25.5t53 30.5t20 26.5q0 15 -22.5 31.5t-73.5 33.5q-53 18 -84 31t-51 39 q-17 23 -17.5 47.5t4.5 47.5q6 29 26.5 55.5t49 47t62.5 33t66 12.5q34 0 58.5 -11t42.5 -29.5t31.5 -42t24.5 -48.5q14 -31 23 -49t18 -27.5t19 -12t25 -2.5z" />
<glyph unicode="&#xfe8c;&#xfef2;" horiz-adv-x="711" arabic-form="final" d="M572 379q-23 -5 -67.5 -11.5t-95.5 -6.5v50q8 0 15 0.5t13 1.5q-5 6 -8.5 15t-3.5 20q0 14 6 28.5t16 26t24 19t30 7.5q14 0 26 -6.5t19 -15.5l-8 -48q-9 8 -18 12t-21 4q-20 0 -30 -10.5t-10 -16.5q0 -8 10 -18t33 -10q14 0 35.5 3.5t34.5 7.5v-52zM728 91v-88l-16 -3 q-27 0 -46.5 5t-36 19.5t-31 39t-32.5 63.5q-20 44 -43 71t-64 27q-22 0 -45.5 -7.5t-43 -18.5t-32 -24t-12.5 -24q0 -9 10.5 -17.5t27 -16t37 -14.5t39.5 -13q72 -23 106 -53t34 -72q0 -16 -5.5 -46t-31.5 -61q-13 -17 -38.5 -35.5t-61 -34.5t-80 -26t-96.5 -10 q-72 0 -118 20.5t-73 52t-37 68.5t-10 70q0 38 6 70.5t13 57.5q8 29 19 53h77q-11 -25 -20 -53q-9 -25 -15 -52t-6 -55q0 -18 5.5 -42t23 -45.5t51 -36.5t89.5 -15q46 0 89 10.5t76 25.5t53 30.5t20 26.5q0 15 -22.5 31.5t-73.5 33.5q-53 18 -84 31t-51 39 q-17 23 -17.5 47.5t4.5 47.5q6 29 26.5 55.5t49 47t62.5 33t66 12.5q34 0 58.5 -11t42.5 -29.5t31.5 -42t24.5 -48.5q14 -31 23 -49t18 -27.5t19 -12t25 -2.5zM356 -291q9 -8 19 -17q9 -8 18.5 -18t18.5 -22q-9 -11 -19 -21l-18 -18q-10 -10 -19 -18q-8 7 -17 15l-15.5 15.5 t-16.5 17.5q-8 -9 -17 -18t-16 -15q-8 -8 -16 -15q-10 8 -20 18q-9 8 -18 18t-17 21q8 12 17.5 22t17.5 18q10 9 20 17q8 -6 16 -14q8 -7 16.5 -15.5t16.5 -18.5q8 10 16.5 19t15.5 15q9 8 17 14z" />
<glyph unicode="&#xfe92;&#xfeae;" horiz-adv-x="556" arabic-form="final" d="M572 91v-88l-16 -3h-33q-33 0 -57 11t-39.5 30.5t-23.5 46t-11 57.5l-3 43q-9 -13 -22.5 -21.5t-29 -13.5t-32.5 -7t-32 -2q-25 0 -39 8l3 -17q3 -23 2 -52t-6 -60q-5 -28 -18 -65.5t-38 -71.5t-63.5 -57.5t-94.5 -23.5q-15 0 -27 2.5t-20 5.5q-10 4 -17 8l-4 88 q1 0 18.5 -5.5t46.5 -5.5q42 0 70.5 18.5t46 47t25.5 62.5t8 66q0 17 -15 65.5t-44 139.5l79 16l13 -35q6 -13 11 -21t12 -12.5t16.5 -6t24.5 -1.5q33 0 55 4t36 10t21.5 13t11.5 13q-1 19 -1 32v16l79 6l3 -132q1 -24 2 -43.5t6 -33t16 -21t31 -7.5h33zM423 -20 q10 -8 21 -18q9 -8 19.5 -19t19.5 -23q-9 -12 -19.5 -22.5l-19.5 -19.5q-11 -9 -21 -17q-10 8 -20 17t-19.5 19.5t-18.5 22.5q9 12 19 23t19 19q10 10 20 18z" />
<glyph unicode="&#xfe92;&#xfee6;" horiz-adv-x="831" arabic-form="final" d="M262 243q-10 8 -20 18q-10 8 -19.5 18.5t-18.5 22.5q9 12 19 23t19 19q10 10 20 18q10 -8 21 -18q9 -8 19.5 -19t19.5 -23q-9 -12 -19.5 -22.5t-19.5 -18.5q-11 -10 -21 -18zM846 91v-88l-16 -3h-32q-34 0 -57.5 11t-39.5 30.5t-24 46t-11 57.5q-1 5 -1 11t-1 13 q-18 -26 -51.5 -35t-63.5 -9q-16 0 -26.5 3.5t-18.5 8.5q5 -33 8 -63t3 -53q0 -32 -11 -64t-37 -61q-29 -32 -85 -55t-128 -23t-116 21.5t-68.5 53.5t-32.5 69.5t-8 69.5q0 38 6 70t13 57q8 28 19 51h77q-11 -25 -20 -51q-9 -24 -15 -51t-6 -55q0 -18 3.5 -42.5t19.5 -46 t47.5 -37t86.5 -15.5q41 0 74.5 9t57 21t36.5 24.5t13 20.5q0 10 -2 28t-5.5 40t-7.5 46.5t-9 48.5q-11 56 -24 120l83 13l3 -11q7 -26 17 -40t43 -14q31 0 52.5 4t35.5 9.5t22 12t12 12.5q-1 19 -1 32.5v16.5l79 8l3 -115q1 -24 2 -43.5t6 -33t16 -20.5t31 -7h33zM683 -15 q10 -8 21 -18q9 -8 19.5 -19t19.5 -23q-9 -12 -19.5 -22.5l-19.5 -19.5q-11 -9 -21 -17q-10 8 -20 17t-19.5 19.5t-18.5 22.5q9 12 19 23t19 19q10 10 20 18z" />
<glyph unicode="&#xfe92;&#xfef0;" horiz-adv-x="711" arabic-form="final" d="M566 127q-20 44 -43 71t-64 27q-22 0 -45.5 -7.5t-43 -18.5t-32 -24t-12.5 -24q0 -9 10.5 -17.5t27 -16t37 -14.5t39.5 -13q72 -23 106 -53t34 -72q0 -16 -5.5 -46t-31.5 -61q-13 -17 -38.5 -35.5t-61 -34.5t-80 -26t-96.5 -10q-72 0 -118 20.5t-73 52t-37 68.5t-10 70 q0 38 6 70.5t13 57.5q8 29 19 53h77q-11 -25 -20 -53q-9 -25 -15 -52t-6 -55q0 -18 5.5 -42t23 -45.5t51 -36.5t89.5 -15q46 0 89 10.5t76 25.5t53 30.5t20 26.5q0 15 -22.5 31.5t-73.5 33.5q-53 18 -84 31t-51 39q-17 23 -17.5 47.5t4.5 47.5q6 29 26.5 55.5t49 47t62.5 33 t66 12.5q34 0 58.5 -11t42.5 -29.5t31.5 -42t24.5 -48.5q14 -31 23 -49t18 -27.5t19 -12t25 -2.5l16 -3v-88l-16 -3q-27 0 -46.5 5t-36 19.5t-31 39t-32.5 63.5zM592 -129q9 12 19 23t19 19q10 10 20 18q10 -8 21 -18q9 -8 19.5 -19t19.5 -23q-9 -12 -19.5 -22.5 l-19.5 -19.5q-11 -9 -21 -17q-10 8 -20 17t-19.5 19.5t-18.5 22.5z" />
<glyph unicode="&#xfe92;&#xfef2;" horiz-adv-x="711" arabic-form="final" d="M728 91v-88l-16 -3q-27 0 -46.5 5t-36 19.5t-31 39t-32.5 63.5q-20 44 -43 71t-64 27q-22 0 -45.5 -7.5t-43 -18.5t-32 -24t-12.5 -24q0 -9 10.5 -17.5t27 -16t37 -14.5t39.5 -13q72 -23 106 -53t34 -72q0 -16 -5.5 -46t-31.5 -61q-13 -17 -38.5 -35.5t-61 -34.5t-80 -26 t-96.5 -10q-72 0 -118 20.5t-73 52t-37 68.5t-10 70q0 38 6 70.5t13 57.5q8 29 19 53h77q-11 -25 -20 -53q-9 -25 -15 -52t-6 -55q0 -18 5.5 -42t23 -45.5t51 -36.5t89.5 -15q46 0 89 10.5t76 25.5t53 30.5t20 26.5q0 15 -22.5 31.5t-73.5 33.5q-53 18 -84 31t-51 39 q-17 23 -17.5 47.5t4.5 47.5q6 29 26.5 55.5t49 47t62.5 33t66 12.5q34 0 58.5 -11t42.5 -29.5t31.5 -42t24.5 -48.5q14 -31 23 -49t18 -27.5t19 -12t25 -2.5zM650 -69q10 -8 21 -18q9 -8 19.5 -19t19.5 -23q-9 -12 -19.5 -22.5l-19.5 -19.5q-11 -9 -21 -17q-10 8 -20 17 t-19.5 19.5t-18.5 22.5q9 12 19 23t19 19q10 10 20 18zM356 -291q9 -8 19 -17q9 -8 18.5 -18t18.5 -22q-9 -11 -19 -21l-18 -18q-10 -10 -19 -18q-8 7 -17 15l-15.5 15.5t-16.5 17.5q-8 -9 -17 -18t-16 -15q-8 -8 -16 -15q-10 8 -20 18q-9 8 -18 18t-17 21q8 12 17.5 22 t17.5 18q10 9 20 17q8 -6 16 -14q8 -7 16.5 -15.5t16.5 -18.5q8 10 16.5 19t15.5 15q9 8 17 14z" />
<glyph unicode="&#xfe98;&#xfeae;" horiz-adv-x="556" arabic-form="final" d="M375 381q-10 8 -20 18q-9 8 -18.5 18.5t-17.5 21.5q8 12 18 22.5t18 18.5q10 9 20 17l16 -14l16.5 -16.5t17.5 -18.5q8 10 16.5 19t15.5 16q9 7 17 14q10 -8 20 -17q9 -9 18.5 -19t18.5 -22q-9 -11 -19 -21.5t-18 -18.5q-10 -10 -20 -18q-8 7 -17 15l-15.5 15.5 t-16.5 18.5q-9 -10 -17.5 -18.5t-16.5 -15.5q-8 -8 -16 -15zM572 91v-88l-16 -3h-33q-33 0 -57 11t-39.5 30.5t-23.5 46t-11 57.5l-3 43q-9 -13 -22.5 -21.5t-29 -13.5t-32.5 -7t-32 -2q-25 0 -39 8l3 -17q3 -23 2 -52t-6 -60q-5 -28 -18 -65.5t-38 -71.5t-63.5 -57.5 t-94.5 -23.5q-15 0 -27 2.5t-20 5.5q-10 4 -17 8l-4 88q1 0 18.5 -5.5t46.5 -5.5q42 0 70.5 18.5t46 47t25.5 62.5t8 66q0 17 -15 65.5t-44 139.5l79 16l13 -35q6 -13 11 -21t12 -12.5t16.5 -6t24.5 -1.5q33 0 55 4t36 10t21.5 13t11.5 13q-1 19 -1 32v16l79 6l3 -132 q1 -24 2 -43.5t6 -33t16 -21t31 -7.5h33z" />
<glyph unicode="&#xfe98;&#xfee6;" horiz-adv-x="831" arabic-form="final" d="M649 367q-10 8 -20 18q-9 8 -18.5 18.5t-17.5 21.5q8 12 18 22.5t18 18.5q10 9 20 17l16 -14l16.5 -16.5t17.5 -18.5q8 10 16.5 19t15.5 16q9 7 17 14q10 -8 20 -17q9 -9 18.5 -19t18.5 -22q-9 -11 -19 -21.5t-18 -18.5q-10 -10 -20 -18q-8 7 -17 15l-15.5 15.5 t-16.5 18.5q-9 -10 -17.5 -18.5t-16.5 -15.5q-8 -8 -16 -15zM262 243q-10 8 -20 18q-10 8 -19.5 18.5t-18.5 22.5q9 12 19 23t19 19q10 10 20 18q10 -8 21 -18q9 -8 19.5 -19t19.5 -23q-9 -12 -19.5 -22.5t-19.5 -18.5q-11 -10 -21 -18zM846 91v-88l-16 -3h-32 q-34 0 -57.5 11t-39.5 30.5t-24 46t-11 57.5q-1 5 -1 11t-1 13q-18 -26 -51.5 -35t-63.5 -9q-16 0 -26.5 3.5t-18.5 8.5q5 -33 8 -63t3 -53q0 -32 -11 -64t-37 -61q-29 -32 -85 -55t-128 -23t-116 21.5t-68.5 53.5t-32.5 69.5t-8 69.5q0 38 6 70t13 57q8 28 19 51h77 q-11 -25 -20 -51q-9 -24 -15 -51t-6 -55q0 -18 3.5 -42.5t19.5 -46t47.5 -37t86.5 -15.5q41 0 74.5 9t57 21t36.5 24.5t13 20.5q0 10 -2 28t-5.5 40t-7.5 46.5t-9 48.5q-11 56 -24 120l83 13l3 -11q7 -26 17 -40t43 -14q31 0 52.5 4t35.5 9.5t22 12t12 12.5q-1 19 -1 32.5 v16.5l79 8l3 -115q1 -24 2 -43.5t6 -33t16 -20.5t31 -7h33z" />
<glyph unicode="&#xfe98;&#xfef0;" horiz-adv-x="711" arabic-form="final" d="M444 359q-10 8 -20 18q-9 8 -18 18t-17 21q8 12 17.5 22t17.5 18q10 9 20 17q8 -6 16 -14q8 -7 16.5 -15.5t16.5 -18.5q8 10 16.5 19t15.5 15q9 8 17 14q9 -8 19 -17q9 -8 18.5 -18t18.5 -22q-9 -11 -19 -21l-18 -18q-10 -10 -19 -18q-8 7 -17 15l-15.5 15.5t-16.5 17.5 q-8 -9 -17 -18t-16 -15q-8 -8 -16 -15zM728 91v-88l-16 -3q-27 0 -46.5 5t-36 19.5t-31 39t-32.5 63.5q-20 44 -43 71t-64 27q-22 0 -45.5 -7.5t-43 -18.5t-32 -24t-12.5 -24q0 -9 10.5 -17.5t27 -16t37 -14.5t39.5 -13q72 -23 106 -53t34 -72q0 -16 -5.5 -46t-31.5 -61 q-13 -17 -38.5 -35.5t-61 -34.5t-80 -26t-96.5 -10q-72 0 -118 20.5t-73 52t-37 68.5t-10 70q0 38 6 70.5t13 57.5q8 29 19 53h77q-11 -25 -20 -53q-9 -25 -15 -52t-6 -55q0 -18 5.5 -42t23 -45.5t51 -36.5t89.5 -15q46 0 89 10.5t76 25.5t53 30.5t20 26.5q0 15 -22.5 31.5 t-73.5 33.5q-53 18 -84 31t-51 39q-17 23 -17.5 47.5t4.5 47.5q6 29 26.5 55.5t49 47t62.5 33t66 12.5q34 0 58.5 -11t42.5 -29.5t31.5 -42t24.5 -48.5q14 -31 23 -49t18 -27.5t19 -12t25 -2.5z" />
<glyph unicode="&#xfe98;&#xfef2;" horiz-adv-x="711" arabic-form="final" d="M444 359q-10 8 -20 18q-9 8 -18 18t-17 21q8 12 17.5 22t17.5 18q10 9 20 17q8 -6 16 -14q8 -7 16.5 -15.5t16.5 -18.5q8 10 16.5 19t15.5 15q9 8 17 14q9 -8 19 -17q9 -8 18.5 -18t18.5 -22q-9 -11 -19 -21l-18 -18q-10 -10 -19 -18q-8 7 -17 15l-15.5 15.5t-16.5 17.5 q-8 -9 -17 -18t-16 -15q-8 -8 -16 -15zM728 91v-88l-16 -3q-27 0 -46.5 5t-36 19.5t-31 39t-32.5 63.5q-20 44 -43 71t-64 27q-22 0 -45.5 -7.5t-43 -18.5t-32 -24t-12.5 -24q0 -9 10.5 -17.5t27 -16t37 -14.5t39.5 -13q72 -23 106 -53t34 -72q0 -16 -5.5 -46t-31.5 -61 q-13 -17 -38.5 -35.5t-61 -34.5t-80 -26t-96.5 -10q-72 0 -118 20.5t-73 52t-37 68.5t-10 70q0 38 6 70.5t13 57.5q8 29 19 53h77q-11 -25 -20 -53q-9 -25 -15 -52t-6 -55q0 -18 5.5 -42t23 -45.5t51 -36.5t89.5 -15q46 0 89 10.5t76 25.5t53 30.5t20 26.5q0 15 -22.5 31.5 t-73.5 33.5q-53 18 -84 31t-51 39q-17 23 -17.5 47.5t4.5 47.5q6 29 26.5 55.5t49 47t62.5 33t66 12.5q34 0 58.5 -11t42.5 -29.5t31.5 -42t24.5 -48.5q14 -31 23 -49t18 -27.5t19 -12t25 -2.5zM356 -291q9 -8 19 -17q9 -8 18.5 -18t18.5 -22q-9 -11 -19 -21l-18 -18 q-10 -10 -19 -18q-8 7 -17 15l-15.5 15.5t-16.5 17.5q-8 -9 -17 -18t-16 -15q-8 -8 -16 -15q-10 8 -20 18q-9 8 -18 18t-17 21q8 12 17.5 22t17.5 18q10 9 20 17q8 -6 16 -14q8 -7 16.5 -15.5t16.5 -18.5q8 10 16.5 19t15.5 15q9 8 17 14z" />
<glyph unicode="&#xfe9c;&#xfeae;" horiz-adv-x="556" arabic-form="final" d="M424 477q-10 8 -19 17q-9 8 -18 17.5t-17 20.5q8 12 17.5 22t17.5 18q9 9 19 16q9 -7 19 -16q8 -9 17.5 -18.5t17.5 -21.5q-8 -11 -17.5 -21t-17.5 -17q-10 -9 -19 -17zM372 374q-10 8 -20 17q-9 8 -18.5 18t-17.5 21q8 12 18 22.5t18 18.5q10 9 20 17q9 -7 18 -16 q8 -7 17 -16.5t18 -20.5q8 11 17.5 20.5l16.5 16.5q9 9 18 16q10 -8 20 -17q9 -9 18.5 -19t18.5 -22q-9 -11 -19 -21.5t-18 -17.5q-10 -9 -20 -17q-9 7 -18 15l-17 17t-17 20q-9 -11 -18 -20.5t-17 -16.5q-9 -8 -18 -15zM572 91v-88l-16 -3h-33q-33 0 -57 11t-39.5 30.5 t-23.5 46t-11 57.5l-3 43q-9 -13 -22.5 -21.5t-29 -13.5t-32.5 -7t-32 -2q-25 0 -39 8l3 -17q3 -23 2 -52t-6 -60q-5 -28 -18 -65.5t-38 -71.5t-63.5 -57.5t-94.5 -23.5q-15 0 -27 2.5t-20 5.5q-10 4 -17 8l-4 88q1 0 18.5 -5.5t46.5 -5.5q42 0 70.5 18.5t46 47t25.5 62.5 t8 66q0 17 -15 65.5t-44 139.5l79 16l13 -35q6 -13 11 -21t12 -12.5t16.5 -6t24.5 -1.5q33 0 55 4t36 10t21.5 13t11.5 13q-1 19 -1 32v16l79 6l3 -132q1 -24 2 -43.5t6 -33t16 -21t31 -7.5h33z" />
<glyph unicode="&#xfe9c;&#xfee6;" horiz-adv-x="831" arabic-form="final" d="M699 455q-10 8 -19 17q-9 8 -18 17.5t-17 20.5q8 12 17.5 22t17.5 18q9 9 19 16q9 -7 19 -16q8 -9 17.5 -18.5t17.5 -21.5q-8 -11 -17.5 -21t-17.5 -17q-10 -9 -19 -17zM647 352q-10 8 -20 17q-9 8 -18.5 18t-17.5 21q8 12 18 22.5t18 18.5q10 9 20 17q9 -7 18 -16 q8 -7 17 -16.5t18 -20.5q8 11 17.5 20.5l16.5 16.5q9 9 18 16q10 -8 20 -17q9 -9 18.5 -19t18.5 -22q-9 -11 -19 -21.5t-18 -17.5q-10 -9 -20 -17q-9 7 -18 15l-17 17t-17 20q-9 -11 -18 -20.5t-17 -16.5q-9 -8 -18 -15zM262 243q-10 8 -20 18q-10 8 -19.5 18.5t-18.5 22.5 q9 12 19 23t19 19q10 10 20 18q10 -8 21 -18q9 -8 19.5 -19t19.5 -23q-9 -12 -19.5 -22.5t-19.5 -18.5q-11 -10 -21 -18zM846 91v-88l-16 -3h-32q-34 0 -57.5 11t-39.5 30.5t-24 46t-11 57.5q-1 5 -1 11t-1 13q-18 -26 -51.5 -35t-63.5 -9q-16 0 -26.5 3.5t-18.5 8.5 q5 -33 8 -63t3 -53q0 -32 -11 -64t-37 -61q-29 -32 -85 -55t-128 -23t-116 21.5t-68.5 53.5t-32.5 69.5t-8 69.5q0 38 6 70t13 57q8 28 19 51h77q-11 -25 -20 -51q-9 -24 -15 -51t-6 -55q0 -18 3.5 -42.5t19.5 -46t47.5 -37t86.5 -15.5q41 0 74.5 9t57 21t36.5 24.5t13 20.5 q0 10 -2 28t-5.5 40t-7.5 46.5t-9 48.5q-11 56 -24 120l83 13l3 -11q7 -26 17 -40t43 -14q31 0 52.5 4t35.5 9.5t22 12t12 12.5q-1 19 -1 32.5v16.5l79 8l3 -115q1 -24 2 -43.5t6 -33t16 -20.5t31 -7h33z" />
<glyph unicode="&#xfe9c;&#xfef0;" horiz-adv-x="711" arabic-form="final" d="M489 450q-9 7 -19 16q-8 8 -17 17.5t-17 20.5q8 12 17 22t17 17q10 9 19 16q9 -7 19 -16l17.5 -17.5t17.5 -21.5q-8 -11 -17.5 -20.5l-17.5 -17.5q-10 -9 -19 -16zM438 348q-10 8 -20 17q-9 8 -18 17.5t-17 20.5q8 12 17.5 22.5t17.5 18.5q10 9 20 17q9 -7 18 -16 q8 -7 17 -16.5t17 -20.5q8 11 17.5 20.5l16.5 16.5q9 9 18 16q10 -8 19 -17t18.5 -19t18.5 -22q-9 -11 -18.5 -21t-18.5 -17q-9 -9 -19 -17q-9 7 -18 15q-8 7 -17 16t-17 20q-8 -11 -17.5 -20t-16.5 -16q-9 -8 -18 -15zM728 91v-88l-16 -3q-27 0 -46.5 5t-36 19.5t-31 39 t-32.5 63.5q-20 44 -43 71t-64 27q-22 0 -45.5 -7.5t-43 -18.5t-32 -24t-12.5 -24q0 -9 10.5 -17.5t27 -16t37 -14.5t39.5 -13q72 -23 106 -53t34 -72q0 -16 -5.5 -46t-31.5 -61q-13 -17 -38.5 -35.5t-61 -34.5t-80 -26t-96.5 -10q-72 0 -118 20.5t-73 52t-37 68.5t-10 70 q0 38 6 70.5t13 57.5q8 29 19 53h77q-11 -25 -20 -53q-9 -25 -15 -52t-6 -55q0 -18 5.5 -42t23 -45.5t51 -36.5t89.5 -15q46 0 89 10.5t76 25.5t53 30.5t20 26.5q0 15 -22.5 31.5t-73.5 33.5q-53 18 -84 31t-51 39q-17 23 -17.5 47.5t4.5 47.5q6 29 26.5 55.5t49 47t62.5 33 t66 12.5q34 0 58.5 -11t42.5 -29.5t31.5 -42t24.5 -48.5q14 -31 23 -49t18 -27.5t19 -12t25 -2.5z" />
<glyph unicode="&#xfe9c;&#xfef2;" horiz-adv-x="711" arabic-form="final" d="M489 450q-9 7 -19 16q-8 8 -17 17.5t-17 20.5q8 12 17 22t17 17q10 9 19 16q9 -7 19 -16l17.5 -17.5t17.5 -21.5q-8 -11 -17.5 -20.5l-17.5 -17.5q-10 -9 -19 -16zM438 348q-10 8 -20 17q-9 8 -18 17.5t-17 20.5q8 12 17.5 22.5t17.5 18.5q10 9 20 17q9 -7 18 -16 q8 -7 17 -16.5t17 -20.5q8 11 17.5 20.5l16.5 16.5q9 9 18 16q10 -8 19 -17t18.5 -19t18.5 -22q-9 -11 -18.5 -21t-18.5 -17q-9 -9 -19 -17q-9 7 -18 15q-8 7 -17 16t-17 20q-8 -11 -17.5 -20t-16.5 -16q-9 -8 -18 -15zM728 91v-88l-16 -3q-27 0 -46.5 5t-36 19.5t-31 39 t-32.5 63.5q-20 44 -43 71t-64 27q-22 0 -45.5 -7.5t-43 -18.5t-32 -24t-12.5 -24q0 -9 10.5 -17.5t27 -16t37 -14.5t39.5 -13q72 -23 106 -53t34 -72q0 -16 -5.5 -46t-31.5 -61q-13 -17 -38.5 -35.5t-61 -34.5t-80 -26t-96.5 -10q-72 0 -118 20.5t-73 52t-37 68.5t-10 70 q0 38 6 70.5t13 57.5q8 29 19 53h77q-11 -25 -20 -53q-9 -25 -15 -52t-6 -55q0 -18 5.5 -42t23 -45.5t51 -36.5t89.5 -15q46 0 89 10.5t76 25.5t53 30.5t20 26.5q0 15 -22.5 31.5t-73.5 33.5q-53 18 -84 31t-51 39q-17 23 -17.5 47.5t4.5 47.5q6 29 26.5 55.5t49 47t62.5 33 t66 12.5q34 0 58.5 -11t42.5 -29.5t31.5 -42t24.5 -48.5q14 -31 23 -49t18 -27.5t19 -12t25 -2.5zM356 -291q9 -8 19 -17q9 -8 18.5 -18t18.5 -22q-9 -11 -19 -21l-18 -18q-10 -10 -19 -18q-8 7 -17 15l-15.5 15.5t-16.5 17.5q-8 -9 -17 -18t-16 -15q-8 -8 -16 -15 q-10 8 -20 18q-9 8 -18 18t-17 21q8 12 17.5 22t17.5 18q10 9 20 17q8 -6 16 -14q8 -7 16.5 -15.5t16.5 -18.5q8 10 16.5 19t15.5 15q9 8 17 14z" />
<glyph unicode="&#xfedc;&#xfef0;" horiz-adv-x="867" arabic-form="final" d="M883 91v-88l-16 -3q-40 0 -69.5 6t-52.5 18.5t-42 31.5t-37 44q-8 -18 -20 -35.5t-32 -28.5q-13 -8 -29 -13t-33 -10q18 -20 18 -44q0 -19 -5 -49t-30 -62q-14 -17 -38 -36.5t-58 -35.5t-77.5 -26.5t-96.5 -10.5q-71 0 -117 20.5t-72.5 52t-36.5 69t-10 70.5q0 38 6 70.5 t13 57.5q8 28 19 52h77q-11 -25 -20 -52q-9 -25 -15 -52t-6 -55q0 -19 5.5 -43t23.5 -45.5t51.5 -36t89.5 -14.5q47 0 88.5 11t73 26t49.5 31t18 27t-9 22t-25.5 20t-39.5 14.5t-51 5.5h-1l18 94h16q44 0 80 4t62.5 10t41 14t14.5 15h1q0 6 -10 27t-36 62q-14 22 -31 45.5 t-33 44t-27 35.5t-13 19t-0.5 19.5t5.5 32.5t9.5 31.5t10.5 16.5l327 207l9 -93l-284 -175q18 -23 43.5 -57t52.5 -73q33 -46 58 -81t50 -58t54.5 -34.5t72.5 -11.5z" />
<glyph unicode="&#xfedc;&#xfef2;" horiz-adv-x="867" arabic-form="final" d="M883 91v-88l-16 -3q-40 0 -69.5 6t-52.5 18.5t-42 31.5t-37 44q-8 -18 -20 -35.5t-32 -28.5q-13 -8 -29 -13t-33 -10q18 -20 18 -44q0 -19 -5 -49t-30 -62q-14 -17 -38 -36.5t-58 -35.5t-77.5 -26.5t-96.5 -10.5q-71 0 -117 20.5t-72.5 52t-36.5 69t-10 70.5q0 38 6 70.5 t13 57.5q8 28 19 52h77q-11 -25 -20 -52q-9 -25 -15 -52t-6 -55q0 -19 5.5 -43t23.5 -45.5t51.5 -36t89.5 -14.5q47 0 88.5 11t73 26t49.5 31t18 27t-9 22t-25.5 20t-39.5 14.5t-51 5.5h-1l18 94h16q44 0 80 4t62.5 10t41 14t14.5 15h1q0 6 -10 27t-36 62q-14 22 -31 45.5 t-33 44t-27 35.5t-13 19t-0.5 19.5t5.5 32.5t9.5 31.5t10.5 16.5l327 207l9 -93l-284 -175q18 -23 43.5 -57t52.5 -73q33 -46 58 -81t50 -58t54.5 -34.5t72.5 -11.5zM347 -295q9 -8 19 -17q9 -8 18.5 -18t18.5 -22q-9 -11 -19 -21l-18 -18q-10 -10 -19 -18q-8 7 -17 15 l-15.5 15.5t-16.5 17.5q-8 -9 -17 -18t-16 -15q-8 -8 -16 -15q-10 8 -20 18q-9 8 -18 18t-17 21q8 12 17.5 22t17.5 18q10 9 20 17q8 -6 16 -14q8 -7 16.5 -15.5t16.5 -18.5q8 10 16.5 19t15.5 15q9 8 17 14z" />
<glyph unicode="&#xfee0;&#xfef0;" horiz-adv-x="753" arabic-form="final" d="M770 91v-88l-16 -3q-54 0 -85.5 19t-49.5 56q-8 -13 -16.5 -22t-18.5 -17q-16 -12 -34 -20q23 -23 23 -47q0 -20 -5 -49.5t-30 -61.5q-14 -17 -38.5 -36.5t-59 -35.5t-78.5 -26.5t-97 -10.5q-71 0 -117 20.5t-72.5 52t-36.5 69t-10 70.5q0 38 6 70.5t13 57.5q8 28 19 52 h77q-11 -25 -20 -52q-9 -25 -15 -52t-6 -55q0 -19 5.5 -43t23.5 -45.5t51.5 -36t89.5 -14.5q47 0 88.5 11t73 26t49.5 31t18 27t-10 22t-27.5 20t-41.5 14.5t-52 5.5l27 94h52q62 0 88.5 17t26.5 34v533l82 8v-460q0 -29 2 -53t12.5 -41.5t32 -27.5t60.5 -10z" />
<glyph unicode="&#xfee0;&#xfef2;" horiz-adv-x="753" arabic-form="final" d="M770 91v-88l-16 -3q-54 0 -85.5 19t-49.5 56q-8 -13 -16.5 -22t-18.5 -17q-16 -12 -34 -20q23 -23 23 -47q0 -20 -5 -49.5t-30 -61.5q-14 -17 -38.5 -36.5t-59 -35.5t-78.5 -26.5t-97 -10.5q-71 0 -117 20.5t-72.5 52t-36.5 69t-10 70.5q0 38 6 70.5t13 57.5q8 28 19 52 h77q-11 -25 -20 -52q-9 -25 -15 -52t-6 -55q0 -19 5.5 -43t23.5 -45.5t51.5 -36t89.5 -14.5q47 0 88.5 11t73 26t49.5 31t18 27t-10 22t-27.5 20t-41.5 14.5t-52 5.5l27 94h52q62 0 88.5 17t26.5 34v533l82 8v-460q0 -29 2 -53t12.5 -41.5t32 -27.5t60.5 -10zM347 -295 q9 -8 19 -17q9 -8 18.5 -18t18.5 -22q-9 -11 -19 -21l-18 -18q-10 -10 -19 -18q-8 7 -17 15l-15.5 15.5t-16.5 17.5q-8 -9 -17 -18t-16 -15q-8 -8 -16 -15q-10 8 -20 18q-9 8 -18 18t-17 21q8 12 17.5 22t17.5 18q10 9 20 17q8 -6 16 -14q8 -7 16.5 -15.5t16.5 -18.5 q8 10 16.5 19t15.5 15q9 8 17 14z" />
<glyph unicode="&#xfee8;&#xfeae;" horiz-adv-x="556" arabic-form="final" d="M426 375q-10 8 -20 18q-10 8 -19.5 18.5t-18.5 22.5q9 12 19 23t19 19q10 10 20 18q10 -8 21 -18q9 -8 19.5 -19t19.5 -23q-9 -12 -19.5 -22.5t-19.5 -18.5q-11 -10 -21 -18zM572 91v-88l-16 -3h-33q-33 0 -57 11t-39.5 30.5t-23.5 46t-11 57.5l-3 43q-9 -13 -22.5 -21.5 t-29 -13.5t-32.5 -7t-32 -2q-25 0 -39 8l3 -17q3 -23 2 -52t-6 -60q-5 -28 -18 -65.5t-38 -71.5t-63.5 -57.5t-94.5 -23.5q-15 0 -27 2.5t-20 5.5q-10 4 -17 8l-4 88q1 0 18.5 -5.5t46.5 -5.5q42 0 70.5 18.5t46 47t25.5 62.5t8 66q0 17 -15 65.5t-44 139.5l79 16l13 -35 q6 -13 11 -21t12 -12.5t16.5 -6t24.5 -1.5q33 0 55 4t36 10t21.5 13t11.5 13q-1 19 -1 32v16l79 6l3 -132q1 -24 2 -43.5t6 -33t16 -21t31 -7.5h33z" />
<glyph unicode="&#xfee8;&#xfee6;" horiz-adv-x="831" arabic-form="final" d="M703 359q-10 8 -20 18q-10 8 -19.5 18.5t-18.5 22.5q9 12 19 23t19 19q10 10 20 18q10 -8 21 -18q9 -8 19.5 -19t19.5 -23q-9 -12 -19.5 -22.5t-19.5 -18.5q-11 -10 -21 -18zM262 243q-10 8 -20 18q-10 8 -19.5 18.5t-18.5 22.5q9 12 19 23t19 19q10 10 20 18 q10 -8 21 -18q9 -8 19.5 -19t19.5 -23q-9 -12 -19.5 -22.5t-19.5 -18.5q-11 -10 -21 -18zM846 91v-88l-16 -3h-32q-34 0 -57.5 11t-39.5 30.5t-24 46t-11 57.5q-1 5 -1 11t-1 13q-18 -26 -51.5 -35t-63.5 -9q-16 0 -26.5 3.5t-18.5 8.5q5 -33 8 -63t3 -53q0 -32 -11 -64 t-37 -61q-29 -32 -85 -55t-128 -23t-116 21.5t-68.5 53.5t-32.5 69.5t-8 69.5q0 38 6 70t13 57q8 28 19 51h77q-11 -25 -20 -51q-9 -24 -15 -51t-6 -55q0 -18 3.5 -42.5t19.5 -46t47.5 -37t86.5 -15.5q41 0 74.5 9t57 21t36.5 24.5t13 20.5q0 10 -2 28t-5.5 40t-7.5 46.5 t-9 48.5q-11 56 -24 120l83 13l3 -11q7 -26 17 -40t43 -14q31 0 52.5 4t35.5 9.5t22 12t12 12.5q-1 19 -1 32.5v16.5l79 8l3 -115q1 -24 2 -43.5t6 -33t16 -20.5t31 -7h33z" />
<glyph unicode="&#xfee8;&#xfef0;" horiz-adv-x="711" arabic-form="final" d="M428 414q9 12 19 23t19 19q10 10 20 18q10 -8 21 -18q9 -8 19.5 -19t19.5 -23q-9 -12 -19.5 -22.5t-19.5 -18.5q-11 -10 -21 -18q-10 8 -20 18q-10 8 -19.5 18.5t-18.5 22.5zM566 127q-20 44 -43 71t-64 27q-22 0 -45.5 -7.5t-43 -18.5t-32 -24t-12.5 -24 q0 -9 10.5 -17.5t27 -16t37 -14.5t39.5 -13q72 -23 106 -53t34 -72q0 -16 -5.5 -46t-31.5 -61q-13 -17 -38.5 -35.5t-61 -34.5t-80 -26t-96.5 -10q-72 0 -118 20.5t-73 52t-37 68.5t-10 70q0 38 6 70.5t13 57.5q8 29 19 53h77q-11 -25 -20 -53q-9 -25 -15 -52t-6 -55 q0 -18 5.5 -42t23 -45.5t51 -36.5t89.5 -15q46 0 89 10.5t76 25.5t53 30.5t20 26.5q0 15 -22.5 31.5t-73.5 33.5q-53 18 -84 31t-51 39q-17 23 -17.5 47.5t4.5 47.5q6 29 26.5 55.5t49 47t62.5 33t66 12.5q34 0 58.5 -11t42.5 -29.5t31.5 -42t24.5 -48.5q14 -31 23 -49 t18 -27.5t19 -12t25 -2.5l16 -3v-88l-16 -3q-27 0 -46.5 5t-36 19.5t-31 39t-32.5 63.5z" />
<glyph unicode="&#xfee8;&#xfef2;" horiz-adv-x="711" arabic-form="final" d="M486 355q-10 8 -20 18q-10 8 -19.5 18.5t-18.5 22.5q9 12 19 23t19 19q10 10 20 18q10 -8 21 -18q9 -8 19.5 -19t19.5 -23q-9 -12 -19.5 -22.5t-19.5 -18.5q-11 -10 -21 -18zM728 91v-88l-16 -3q-27 0 -46.5 5t-36 19.5t-31 39t-32.5 63.5q-20 44 -43 71t-64 27 q-22 0 -45.5 -7.5t-43 -18.5t-32 -24t-12.5 -24q0 -9 10.5 -17.5t27 -16t37 -14.5t39.5 -13q72 -23 106 -53t34 -72q0 -16 -5.5 -46t-31.5 -61q-13 -17 -38.5 -35.5t-61 -34.5t-80 -26t-96.5 -10q-72 0 -118 20.5t-73 52t-37 68.5t-10 70q0 38 6 70.5t13 57.5q8 29 19 53h77 q-11 -25 -20 -53q-9 -25 -15 -52t-6 -55q0 -18 5.5 -42t23 -45.5t51 -36.5t89.5 -15q46 0 89 10.5t76 25.5t53 30.5t20 26.5q0 15 -22.5 31.5t-73.5 33.5q-53 18 -84 31t-51 39q-17 23 -17.5 47.5t4.5 47.5q6 29 26.5 55.5t49 47t62.5 33t66 12.5q34 0 58.5 -11t42.5 -29.5 t31.5 -42t24.5 -48.5q14 -31 23 -49t18 -27.5t19 -12t25 -2.5zM356 -291q9 -8 19 -17q9 -8 18.5 -18t18.5 -22q-9 -11 -19 -21l-18 -18q-10 -10 -19 -18q-8 7 -17 15l-15.5 15.5t-16.5 17.5q-8 -9 -17 -18t-16 -15q-8 -8 -16 -15q-10 8 -20 18q-9 8 -18 18t-17 21 q8 12 17.5 22t17.5 18q10 9 20 17q8 -6 16 -14q8 -7 16.5 -15.5t16.5 -18.5q8 10 16.5 19t15.5 15q9 8 17 14z" />
<glyph unicode="&#xfef4;&#xfeae;" horiz-adv-x="556" arabic-form="final" d="M572 91v-88l-16 -3h-33q-33 0 -57 11t-39.5 30.5t-23.5 46t-11 57.5l-3 43q-9 -13 -22.5 -21.5t-29 -13.5t-32.5 -7t-32 -2q-25 0 -39 8l3 -17q3 -23 2 -52t-6 -60q-5 -28 -18 -65.5t-38 -71.5t-63.5 -57.5t-94.5 -23.5q-15 0 -27 2.5t-20 5.5q-10 4 -17 8l-4 88 q1 0 18.5 -5.5t46.5 -5.5q42 0 70.5 18.5t46 47t25.5 62.5t8 66q0 17 -15 65.5t-44 139.5l79 16l13 -35q6 -13 11 -21t12 -12.5t16.5 -6t24.5 -1.5q33 0 55 4t36 10t21.5 13t11.5 13q-1 19 -1 32v16l79 6l3 -132q1 -24 2 -43.5t6 -33t16 -21t31 -7.5h33zM439 -37 q9 -8 18 -17q9 -8 18 -17.5t17 -20.5q-8 -11 -17.5 -20.5l-17.5 -17.5q-9 -9 -18 -17l-16 14q-7 7 -15 15.5t-16 17.5q-8 -9 -16.5 -17.5l-15.5 -15.5q-8 -7 -15 -14q-9 8 -19 17q-8 8 -17 17.5t-17 20.5q8 11 17 21t17 17q10 9 19 17q7 -6 15 -14q8 -7 16 -15t16 -18 q8 10 16 18.5t15 14.5q8 8 16 14z" />
<glyph unicode="&#xfef4;&#xfee6;" horiz-adv-x="831" arabic-form="final" d="M262 243q-10 8 -20 18q-10 8 -19.5 18.5t-18.5 22.5q9 12 19 23t19 19q10 10 20 18q10 -8 21 -18q9 -8 19.5 -19t19.5 -23q-9 -12 -19.5 -22.5t-19.5 -18.5q-11 -10 -21 -18zM846 91v-88l-16 -3h-32q-34 0 -57.5 11t-39.5 30.5t-24 46t-11 57.5q-1 5 -1 11t-1 13 q-18 -26 -51.5 -35t-63.5 -9q-16 0 -26.5 3.5t-18.5 8.5q5 -33 8 -63t3 -53q0 -32 -11 -64t-37 -61q-29 -32 -85 -55t-128 -23t-116 21.5t-68.5 53.5t-32.5 69.5t-8 69.5q0 38 6 70t13 57q8 28 19 51h77q-11 -25 -20 -51q-9 -24 -15 -51t-6 -55q0 -18 3.5 -42.5t19.5 -46 t47.5 -37t86.5 -15.5q41 0 74.5 9t57 21t36.5 24.5t13 20.5q0 10 -2 28t-5.5 40t-7.5 46.5t-9 48.5q-11 56 -24 120l83 13l3 -11q7 -26 17 -40t43 -14q31 0 52.5 4t35.5 9.5t22 12t12 12.5q-1 19 -1 32.5v16.5l79 8l3 -115q1 -24 2 -43.5t6 -33t16 -20.5t31 -7h33zM713 -37 q9 -8 19 -17l17.5 -17.5t17.5 -20.5q-8 -11 -17.5 -21t-17.5 -17q-10 -9 -19 -17q-8 6 -16 14l-15 15t-16 18q-8 -10 -16 -18.5t-15 -14.5q-8 -8 -16 -14q-9 8 -19 17q-8 8 -17 17.5t-17 20.5q8 11 17 21t17 17q10 9 19 17q8 -6 16 -14l15 -15t16 -18q8 10 16 18.5t15 14.5 q8 8 16 14z" />
<glyph unicode="&#xfef4;&#xfef0;" horiz-adv-x="711" arabic-form="final" d="M728 91v-88l-16 -3q-27 0 -46.5 5t-36 19.5t-31 39t-32.5 63.5q-20 44 -43 71t-64 27q-22 0 -45.5 -7.5t-43 -18.5t-32 -24t-12.5 -24q0 -9 10.5 -17.5t27 -16t37 -14.5t39.5 -13q72 -23 106 -53t34 -72q0 -16 -5.5 -46t-31.5 -61q-13 -17 -38.5 -35.5t-61 -34.5t-80 -26 t-96.5 -10q-72 0 -118 20.5t-73 52t-37 68.5t-10 70q0 38 6 70.5t13 57.5q8 29 19 53h77q-11 -25 -20 -53q-9 -25 -15 -52t-6 -55q0 -18 5.5 -42t23 -45.5t51 -36.5t89.5 -15q46 0 89 10.5t76 25.5t53 30.5t20 26.5q0 15 -22.5 31.5t-73.5 33.5q-53 18 -84 31t-51 39 q-17 23 -17.5 47.5t4.5 47.5q6 29 26.5 55.5t49 47t62.5 33t66 12.5q34 0 58.5 -11t42.5 -29.5t31.5 -42t24.5 -48.5q14 -31 23 -49t18 -27.5t19 -12t25 -2.5zM617 -218q9 -8 18 -17q9 -8 18 -17.5t17 -20.5q-8 -11 -17.5 -20.5l-17.5 -17.5q-9 -9 -18 -17l-16 14 q-7 7 -15 15.5t-16 17.5q-8 -9 -16.5 -17.5l-15.5 -15.5q-8 -7 -15 -14q-9 8 -19 17q-8 8 -17 17.5t-17 20.5q8 11 17 21t17 17q10 9 19 17q7 -6 15 -14q8 -7 16 -15t16 -18q8 10 16 18.5t15 14.5q8 8 16 14z" />
<glyph unicode="&#xfef4;&#xfef2;" horiz-adv-x="711" arabic-form="final" d="M728 91v-88l-16 -3q-27 0 -46.5 5t-36 19.5t-31 39t-32.5 63.5q-20 44 -43 71t-64 27q-22 0 -45.5 -7.5t-43 -18.5t-32 -24t-12.5 -24q0 -9 10.5 -17.5t27 -16t37 -14.5t39.5 -13q72 -23 106 -53t34 -72q0 -16 -5.5 -46t-31.5 -61q-13 -17 -38.5 -35.5t-61 -34.5t-80 -26 t-96.5 -10q-72 0 -118 20.5t-73 52t-37 68.5t-10 70q0 38 6 70.5t13 57.5q8 29 19 53h77q-11 -25 -20 -53q-9 -25 -15 -52t-6 -55q0 -18 5.5 -42t23 -45.5t51 -36.5t89.5 -15q46 0 89 10.5t76 25.5t53 30.5t20 26.5q0 15 -22.5 31.5t-73.5 33.5q-53 18 -84 31t-51 39 q-17 23 -17.5 47.5t4.5 47.5q6 29 26.5 55.5t49 47t62.5 33t66 12.5q34 0 58.5 -11t42.5 -29.5t31.5 -42t24.5 -48.5q14 -31 23 -49t18 -27.5t19 -12t25 -2.5zM617 -218q9 -8 18 -17q9 -8 18 -17.5t17 -20.5q-8 -11 -17.5 -20.5l-17.5 -17.5q-9 -9 -18 -17l-16 14 q-7 7 -15 15.5t-16 17.5q-8 -9 -16.5 -17.5l-15.5 -15.5q-8 -7 -15 -14q-9 8 -19 17q-8 8 -17 17.5t-17 20.5q8 11 17 21t17 17q10 9 19 17q7 -6 15 -14q8 -7 16 -15t16 -18q8 10 16 18.5t15 14.5q8 8 16 14zM356 -291q9 -8 19 -17q9 -8 18.5 -18t18.5 -22q-9 -11 -19 -21 l-18 -18q-10 -10 -19 -18q-8 7 -17 15l-15.5 15.5t-16.5 17.5q-8 -9 -17 -18t-16 -15q-8 -8 -16 -15q-10 8 -20 18q-9 8 -18 18t-17 21q8 12 17.5 22t17.5 18q10 9 20 17q8 -6 16 -14q8 -7 16.5 -15.5t16.5 -18.5q8 10 16.5 19t15.5 15q9 8 17 14z" />
<glyph unicode="&#xfedf;&#xfee4;" horiz-adv-x="281" arabic-form="initial" d="M170 173q0 -22 17.5 -46t38.5 -44q25 -24 56 -47l-49 -88q-38 19 -63.5 30t-47 15.5t-43.5 5.5t-55 1h-28l-12 3v88l12 3h17q66 0 102 -7q-12 20 -19.5 45t-7.5 57v489l82 8v-513z" />
<glyph unicode="&#xfeb3;&#xfef0;" horiz-adv-x="1124" arabic-form="isolated" d="M1064 326q5 -57 9 -106q2 -29 3.5 -47.5t2.5 -35t2 -30.5t1 -21q0 -15 -7.5 -32.5t-19.5 -32.5t-26 -25.5t-26 -10.5q-13 0 -35.5 4t-48.5 12.5t-53 21.5t-50 30q-10 -19 -34 -36t-74 -17q-23 0 -42 6t-36 19.5t-32.5 37t-31.5 57.5q-10 22 -19 41t-19.5 33.5t-25 22.5 t-34.5 8q-22 0 -47 -7.5t-46 -18.5t-35 -24t-14 -24q0 -9 10.5 -17.5t27 -16t37 -14.5t39.5 -13q72 -23 106 -53t34 -72q0 -16 -5.5 -46t-31.5 -61q-13 -17 -38.5 -35.5t-61 -34.5t-80 -26t-96.5 -10q-72 0 -118 20.5t-73 52t-37 68.5t-10 70q0 38 6 70.5t13 57.5 q8 29 19 53h77q-11 -25 -20 -53q-9 -25 -15 -52t-6 -55q0 -18 5.5 -42t23 -45.5t51 -36.5t89.5 -15q46 0 89 10.5t76 25.5t53 30.5t20 26.5q0 15 -22.5 31.5t-73.5 33.5q-53 18 -84 31t-51 39q-17 23 -17.5 47.5t4.5 47.5q6 29 28 55.5t52.5 47t65.5 33t67 12.5 q36 0 59.5 -12t39 -31.5t26.5 -44t23 -50.5q9 -19 16.5 -34.5t17 -27t21.5 -17.5t30 -6q31 0 43 7.5t17 19.5q2 8 5.5 30.5t7 47t6 44t2.5 21.5h76q-4 -31 -7 -63t-8 -64q15 -9 34 -18t39 -17t40 -13.5t37 -8.5l-19 237z" />
<glyph unicode="&#xfeb3;&#xfef2;" horiz-adv-x="1125" arabic-form="isolated" d="M1064 326q5 -57 9 -106q2 -29 3.5 -47.5t2.5 -35t2 -30.5t1 -21q0 -15 -7.5 -32.5t-19.5 -32.5t-26 -25.5t-26 -10.5q-13 0 -35.5 4t-48.5 12.5t-53 21.5t-50 30q-10 -19 -34 -36t-74 -17q-23 0 -42 6t-36 19.5t-32.5 37t-31.5 57.5q-10 22 -19 41t-19.5 33.5t-25 22.5 t-34.5 8q-22 0 -47 -7.5t-46 -18.5t-35 -24t-14 -24q0 -9 10.5 -17.5t27 -16t37 -14.5t39.5 -13q72 -23 106 -53t34 -72q0 -16 -5.5 -46t-31.5 -61q-13 -17 -38.5 -35.5t-61 -34.5t-80 -26t-96.5 -10q-72 0 -118 20.5t-73 52t-37 68.5t-10 70q0 38 6 70.5t13 57.5 q8 29 19 53h77q-11 -25 -20 -53q-9 -25 -15 -52t-6 -55q0 -18 5.5 -42t23 -45.5t51 -36.5t89.5 -15q46 0 89 10.5t76 25.5t53 30.5t20 26.5q0 15 -22.5 31.5t-73.5 33.5q-53 18 -84 31t-51 39q-17 23 -17.5 47.5t4.5 47.5q6 29 28 55.5t52.5 47t65.5 33t67 12.5 q36 0 59.5 -12t39 -31.5t26.5 -44t23 -50.5q9 -19 16.5 -34.5t17 -27t21.5 -17.5t30 -6q31 0 43 7.5t17 19.5q2 8 5.5 30.5t7 47t6 44t2.5 21.5h76q-4 -31 -7 -63t-8 -64q15 -9 34 -18t39 -17t40 -13.5t37 -8.5l-19 237zM356 -291q9 -8 19 -17q9 -8 18.5 -18t18.5 -22 q-9 -11 -19 -21l-18 -18q-10 -10 -19 -18q-8 7 -17 15l-15.5 15.5t-16.5 17.5q-8 -9 -17 -18t-16 -15q-8 -8 -16 -15q-10 8 -20 18q-9 8 -18 18t-17 21q8 12 17.5 22t17.5 18q10 9 20 17q8 -6 16 -14q8 -7 16.5 -15.5t16.5 -18.5q8 10 16.5 19t15.5 15q9 8 17 14z" />
<glyph unicode="&#xfeb7;&#xfef0;" horiz-adv-x="1124" arabic-form="isolated" d="M825 415q-9 7 -19 16q-8 8 -17 17.5t-17 20.5q8 12 17 22t17 17q10 9 19 16q9 -7 19 -16l17.5 -17.5t17.5 -21.5q-8 -11 -17.5 -20.5l-17.5 -17.5q-10 -9 -19 -16zM774 313q-10 8 -20 17q-9 8 -18 17.5t-17 20.5q8 12 17.5 22.5t17.5 18.5q10 9 20 17q9 -7 18 -16 q8 -7 17 -16.5t17 -20.5q8 11 17.5 20.5l16.5 16.5q9 9 18 16q10 -8 19 -17t18.5 -19t18.5 -22q-9 -11 -18.5 -21t-18.5 -17q-9 -9 -19 -17q-9 7 -18 15q-8 7 -17 16t-17 20q-8 -11 -17.5 -20t-16.5 -16q-9 -8 -18 -15zM1064 326q5 -57 9 -106q2 -29 3.5 -47.5t2.5 -35 t2 -30.5t1 -21q0 -15 -7.5 -32.5t-19.5 -32.5t-26 -25.5t-26 -10.5q-13 0 -35.5 4t-48.5 12.5t-53 21.5t-50 30q-10 -19 -34 -36t-74 -17q-23 0 -42 6t-36 19.5t-32.5 37t-31.5 57.5q-10 22 -19 41t-19.5 33.5t-25 22.5t-34.5 8q-22 0 -47 -7.5t-46 -18.5t-35 -24t-14 -24 q0 -9 10.5 -17.5t27 -16t37 -14.5t39.5 -13q72 -23 106 -53t34 -72q0 -16 -5.5 -46t-31.5 -61q-13 -17 -38.5 -35.5t-61 -34.5t-80 -26t-96.5 -10q-72 0 -118 20.5t-73 52t-37 68.5t-10 70q0 38 6 70.5t13 57.5q8 29 19 53h77q-11 -25 -20 -53q-9 -25 -15 -52t-6 -55 q0 -18 5.5 -42t23 -45.5t51 -36.5t89.5 -15q46 0 89 10.5t76 25.5t53 30.5t20 26.5q0 15 -22.5 31.5t-73.5 33.5q-53 18 -84 31t-51 39q-17 23 -17.5 47.5t4.5 47.5q6 29 28 55.5t52.5 47t65.5 33t67 12.5q36 0 59.5 -12t39 -31.5t26.5 -44t23 -50.5q9 -19 16.5 -34.5 t17 -27t21.5 -17.5t30 -6q31 0 43 7.5t17 19.5q2 8 5.5 30.5t7 47t6 44t2.5 21.5h76q-4 -31 -7 -63t-8 -64q15 -9 34 -18t39 -17t40 -13.5t37 -8.5l-19 237z" />
<glyph unicode="&#xfeb7;&#xfef2;" horiz-adv-x="1125" arabic-form="isolated" d="M825 415q-9 7 -19 16q-8 8 -17 17.5t-17 20.5q8 12 17 22t17 17q10 9 19 16q9 -7 19 -16l17.5 -17.5t17.5 -21.5q-8 -11 -17.5 -20.5l-17.5 -17.5q-10 -9 -19 -16zM774 313q-10 8 -20 17q-9 8 -18 17.5t-17 20.5q8 12 17.5 22.5t17.5 18.5q10 9 20 17q9 -7 18 -16 q8 -7 17 -16.5t17 -20.5q8 11 17.5 20.5l16.5 16.5q9 9 18 16q10 -8 19 -17t18.5 -19t18.5 -22q-9 -11 -18.5 -21t-18.5 -17q-9 -9 -19 -17q-9 7 -18 15q-8 7 -17 16t-17 20q-8 -11 -17.5 -20t-16.5 -16q-9 -8 -18 -15zM1064 326q5 -57 9 -106q2 -29 3.5 -47.5t2.5 -35 t2 -30.5t1 -21q0 -15 -7.5 -32.5t-19.5 -32.5t-26 -25.5t-26 -10.5q-13 0 -35.5 4t-48.5 12.5t-53 21.5t-50 30q-10 -19 -34 -36t-74 -17q-23 0 -42 6t-36 19.5t-32.5 37t-31.5 57.5q-10 22 -19 41t-19.5 33.5t-25 22.5t-34.5 8q-22 0 -47 -7.5t-46 -18.5t-35 -24t-14 -24 q0 -9 10.5 -17.5t27 -16t37 -14.5t39.5 -13q72 -23 106 -53t34 -72q0 -16 -5.5 -46t-31.5 -61q-13 -17 -38.5 -35.5t-61 -34.5t-80 -26t-96.5 -10q-72 0 -118 20.5t-73 52t-37 68.5t-10 70q0 38 6 70.5t13 57.5q8 29 19 53h77q-11 -25 -20 -53q-9 -25 -15 -52t-6 -55 q0 -18 5.5 -42t23 -45.5t51 -36.5t89.5 -15q46 0 89 10.5t76 25.5t53 30.5t20 26.5q0 15 -22.5 31.5t-73.5 33.5q-53 18 -84 31t-51 39q-17 23 -17.5 47.5t4.5 47.5q6 29 28 55.5t52.5 47t65.5 33t67 12.5q36 0 59.5 -12t39 -31.5t26.5 -44t23 -50.5q9 -19 16.5 -34.5 t17 -27t21.5 -17.5t30 -6q31 0 43 7.5t17 19.5q2 8 5.5 30.5t7 47t6 44t2.5 21.5h76q-4 -31 -7 -63t-8 -64q15 -9 34 -18t39 -17t40 -13.5t37 -8.5l-19 237zM356 -291q9 -8 19 -17q9 -8 18.5 -18t18.5 -22q-9 -11 -19 -21l-18 -18q-10 -10 -19 -18q-8 7 -17 15l-15.5 15.5 t-16.5 17.5q-8 -9 -17 -18t-16 -15q-8 -8 -16 -15q-10 8 -20 18q-9 8 -18 18t-17 21q8 12 17.5 22t17.5 18q10 9 20 17q8 -6 16 -14q8 -7 16.5 -15.5t16.5 -18.5q8 10 16.5 19t15.5 15q9 8 17 14z" />
<glyph unicode="&#xfebb;&#xfef0;" horiz-adv-x="1191" arabic-form="isolated" d="M956 380q42 0 77 -20.5t61 -51.5t40.5 -68t14.5 -70q0 -52 -30 -85.5t-78 -52t-108.5 -25.5t-121.5 -7h-11q-47 0 -83 5.5t-64 19t-49 36.5t-38 59q-10 22 -19 41t-19.5 33.5t-25 22.5t-34.5 8q-22 0 -47 -7.5t-46 -18.5t-35 -24t-14 -24q0 -9 10.5 -17.5t27 -16 t37 -14.5t39.5 -13q72 -23 107.5 -53t35.5 -72q0 -16 -5.5 -46t-31.5 -61q-14 -17 -40 -35.5t-62 -34.5t-80.5 -26t-96.5 -10q-72 0 -118 20.5t-73 52t-37 68.5t-10 70q0 38 6 70.5t13 57.5q8 29 19 53h77q-11 -25 -20 -53q-9 -25 -15 -52t-6 -55q0 -18 5.5 -42t23 -45.5 t51 -36.5t89.5 -15q46 0 89 10.5t76 25.5t53 30.5t20 26.5q0 15 -22.5 31.5t-73.5 33.5q-54 18 -85.5 31t-51.5 39q-17 23 -18 47.5t4 47.5q6 29 28.5 55.5t53.5 47t66.5 33t67.5 12.5q36 0 59 -12t39 -31.5t27 -44.5t23 -50q6 -12 11 -23t13 -20q24 37 56.5 80t71.5 79.5 t84 61t93 24.5zM817 93q46 0 93 4.5t85 12.5t62 21t24 29q0 12 -10 33t-28.5 41.5t-44.5 36t-58 15.5q-36 0 -70.5 -18t-65.5 -45t-57.5 -59t-45.5 -60q18 -5 43.5 -8t60.5 -3h12z" />
<glyph unicode="&#xfebb;&#xfef2;" horiz-adv-x="1182" arabic-form="isolated" d="M947 380q42 0 77 -20.5t61 -51.5t40.5 -68t14.5 -70q0 -52 -30 -85.5t-78 -52t-108.5 -25.5t-121.5 -7h-11q-47 0 -83 5.5t-64 19t-49 36.5t-38 59q-10 22 -19 41t-19.5 33.5t-25 22.5t-34.5 8q-22 0 -47 -7.5t-46 -18.5t-35 -24t-14 -24q0 -9 10.5 -17.5t27 -16 t37 -14.5t39.5 -13q72 -23 107.5 -53t35.5 -72q0 -16 -5.5 -46t-31.5 -61q-14 -17 -40 -35.5t-62 -34.5t-80.5 -26t-96.5 -10q-72 0 -118 20.5t-73 52t-37 68.5t-10 70q0 38 6 70.5t13 57.5q8 29 19 53h77q-11 -25 -20 -53q-9 -25 -15 -52t-6 -55q0 -18 5.5 -42t23 -45.5 t51 -36.5t89.5 -15q46 0 89 10.5t76 25.5t53 30.5t20 26.5q0 15 -22.5 31.5t-73.5 33.5q-54 18 -85.5 31t-51.5 39q-17 23 -18 47.5t4 47.5q6 29 28.5 55.5t53.5 47t66.5 33t67.5 12.5q36 0 59 -12t39 -31.5t27 -44.5t23 -50q6 -12 11 -23t13 -20q24 37 56.5 80t71.5 79.5 t84 61t93 24.5zM808 93q46 0 93 4.5t85 12.5t62 21t24 29q0 12 -10 33t-28.5 41.5t-44.5 36t-58 15.5q-36 0 -70.5 -18t-65.5 -45t-57.5 -59t-45.5 -60q18 -5 43.5 -8t60.5 -3h12zM347 -291q9 -8 19 -17q9 -8 18.5 -18t18.5 -22q-9 -11 -19 -21l-18 -18q-10 -10 -19 -18 q-8 7 -17 15l-15.5 15.5t-16.5 17.5q-8 -9 -17 -18t-16 -15q-8 -8 -16 -15q-10 8 -20 18q-9 8 -18 18t-17 21q8 12 17.5 22t17.5 18q10 9 20 17q8 -6 16 -14q8 -7 16.5 -15.5t16.5 -18.5q8 10 16.5 19t15.5 15q9 8 17 14z" />
<glyph unicode="&#xfebf;&#xfef0;" horiz-adv-x="1191" arabic-form="isolated" d="M938 427q-10 8 -20 18q-10 8 -19.5 18.5t-18.5 22.5q9 12 19 23t19 19q10 10 20 18q10 -8 21 -18q9 -8 19.5 -19t19.5 -23q-9 -12 -19.5 -22.5t-19.5 -18.5q-11 -10 -21 -18zM956 380q42 0 77 -20.5t61 -51.5t40.5 -68t14.5 -70q0 -52 -30 -85.5t-78 -52t-108.5 -25.5 t-121.5 -7h-11q-47 0 -83 5.5t-64 19t-49 36.5t-38 59q-10 22 -19 41t-19.5 33.5t-25 22.5t-34.5 8q-22 0 -47 -7.5t-46 -18.5t-35 -24t-14 -24q0 -9 10.5 -17.5t27 -16t37 -14.5t39.5 -13q72 -23 107.5 -53t35.5 -72q0 -16 -5.5 -46t-31.5 -61q-14 -17 -40 -35.5t-62 -34.5 t-80.5 -26t-96.5 -10q-72 0 -118 20.5t-73 52t-37 68.5t-10 70q0 38 6 70.5t13 57.5q8 29 19 53h77q-11 -25 -20 -53q-9 -25 -15 -52t-6 -55q0 -18 5.5 -42t23 -45.5t51 -36.5t89.5 -15q46 0 89 10.5t76 25.5t53 30.5t20 26.5q0 15 -22.5 31.5t-73.5 33.5q-54 18 -85.5 31 t-51.5 39q-17 23 -18 47.5t4 47.5q6 29 28.5 55.5t53.5 47t66.5 33t67.5 12.5q36 0 59 -12t39 -31.5t27 -44.5t23 -50q6 -12 11 -23t13 -20q24 37 56.5 80t71.5 79.5t84 61t93 24.5zM817 93q46 0 93 4.5t85 12.5t62 21t24 29q0 12 -10 33t-28.5 41.5t-44.5 36t-58 15.5 q-36 0 -70.5 -18t-65.5 -45t-57.5 -59t-45.5 -60q18 -5 43.5 -8t60.5 -3h12z" />
<glyph unicode="&#xfebf;&#xfef2;" horiz-adv-x="1191" arabic-form="isolated" d="M938 427q-10 8 -20 18q-10 8 -19.5 18.5t-18.5 22.5q9 12 19 23t19 19q10 10 20 18q10 -8 21 -18q9 -8 19.5 -19t19.5 -23q-9 -12 -19.5 -22.5t-19.5 -18.5q-11 -10 -21 -18zM956 380q42 0 77 -20.5t61 -51.5t40.5 -68t14.5 -70q0 -52 -30 -85.5t-78 -52t-108.5 -25.5 t-121.5 -7h-11q-47 0 -83 5.5t-64 19t-49 36.5t-38 59q-10 22 -19 41t-19.5 33.5t-25 22.5t-34.5 8q-22 0 -47 -7.5t-46 -18.5t-35 -24t-14 -24q0 -9 10.5 -17.5t27 -16t37 -14.5t39.5 -13q72 -23 107.5 -53t35.5 -72q0 -16 -5.5 -46t-31.5 -61q-14 -17 -40 -35.5t-62 -34.5 t-80.5 -26t-96.5 -10q-72 0 -118 20.5t-73 52t-37 68.5t-10 70q0 38 6 70.5t13 57.5q8 29 19 53h77q-11 -25 -20 -53q-9 -25 -15 -52t-6 -55q0 -18 5.5 -42t23 -45.5t51 -36.5t89.5 -15q46 0 89 10.5t76 25.5t53 30.5t20 26.5q0 15 -22.5 31.5t-73.5 33.5q-54 18 -85.5 31 t-51.5 39q-17 23 -18 47.5t4 47.5q6 29 28.5 55.5t53.5 47t66.5 33t67.5 12.5q36 0 59 -12t39 -31.5t27 -44.5t23 -50q6 -12 11 -23t13 -20q24 37 56.5 80t71.5 79.5t84 61t93 24.5zM817 93q46 0 93 4.5t85 12.5t62 21t24 29q0 12 -10 33t-28.5 41.5t-44.5 36t-58 15.5 q-36 0 -70.5 -18t-65.5 -45t-57.5 -59t-45.5 -60q18 -5 43.5 -8t60.5 -3h12zM356 -291q9 -8 19 -17q9 -8 18.5 -18t18.5 -22q-9 -11 -19 -21l-18 -18q-10 -10 -19 -18q-8 7 -17 15l-15.5 15.5t-16.5 17.5q-8 -9 -17 -18t-16 -15q-8 -8 -16 -15q-10 8 -20 18q-9 8 -18 18 t-17 21q8 12 17.5 22t17.5 18q10 9 20 17q8 -6 16 -14q8 -7 16.5 -15.5t16.5 -18.5q8 10 16.5 19t15.5 15q9 8 17 14z" />
<glyph unicode="&#xfeb7;&#xfeae;" horiz-adv-x="965" arabic-form="isolated" d="M665 415q-9 7 -19 16q-8 8 -17 17.5t-17 20.5q8 12 17 22t17 17q10 9 19 16q9 -7 19 -16l17.5 -17.5t17.5 -21.5q-8 -11 -17.5 -20.5l-17.5 -17.5q-10 -9 -19 -16zM614 313q-10 8 -20 17q-9 8 -18 17.5t-17 20.5q8 12 17.5 22.5t17.5 18.5q10 9 20 17q9 -7 18 -16 q8 -7 17 -16.5t17 -20.5q8 11 17.5 20.5l16.5 16.5q9 9 18 16q10 -8 19 -17t18.5 -19t18.5 -22q-9 -11 -18.5 -21t-18.5 -17q-9 -9 -19 -17q-9 7 -18 15q-8 7 -17 16t-17 20q-8 -11 -17.5 -20t-16.5 -16q-9 -8 -18 -15zM904 326q5 -57 9 -106q2 -29 3.5 -47.5t2.5 -35 t2 -30.5t1 -21q0 -15 -7.5 -32.5t-19.5 -32.5t-26 -25.5t-26 -10.5q-13 0 -35.5 4t-48.5 12.5t-53 21.5t-50 31q-11 -19 -37 -36.5t-80 -17.5q-68 0 -103 34t-40 91q-2 11 -2.5 25t-2.5 30q-9 -14 -22.5 -23t-29.5 -14.5t-33 -7.5t-32 -2q-21 0 -37 7q0 -1 0.5 -2t0.5 -3 q3 -23 2 -52t-7 -60q-5 -28 -18 -65.5t-37.5 -71.5t-63 -57.5t-94.5 -23.5q-15 0 -27 2.5t-20 5.5q-10 4 -17 8l-5 88q2 0 19.5 -5.5t46.5 -5.5q42 0 70.5 18.5t46 47t25.5 62.5t8 66q0 17 -15.5 61.5t-42.5 126.5l80 16q1 -3 3 -8q2 -4 4 -9t4 -12q11 -22 23 -31t41 -9 q32 0 53.5 4t35.5 10t22 12.5t12 12.5q-1 10 -1 17v9l78 6l5 -123q2 -48 18 -64.5t55 -16.5q34 0 49 7t20 19q3 8 6.5 30.5t6.5 47t5.5 44t2.5 21.5h77q-4 -31 -7 -62.5t-8 -63.5q14 -9 33 -18.5t39 -17.5t40.5 -13.5t37.5 -8.5l-19 237z" />
<glyph unicode="&#xfeb3;&#xfeae;" horiz-adv-x="965" arabic-form="isolated" d="M904 326q5 -57 9 -106q2 -29 3.5 -47.5t2.5 -35t2 -30.5t1 -21q0 -15 -7.5 -32.5t-19.5 -32.5t-26 -25.5t-26 -10.5q-13 0 -35.5 4t-48.5 12.5t-53 21.5t-50 31q-11 -19 -37 -36.5t-80 -17.5q-68 0 -103 34t-40 91q-2 11 -2.5 25t-2.5 30q-9 -14 -22.5 -23t-29.5 -14.5 t-33 -7.5t-32 -2q-21 0 -37 7q0 -1 0.5 -2t0.5 -3q3 -23 2 -52t-7 -60q-5 -28 -18 -65.5t-37.5 -71.5t-63 -57.5t-94.5 -23.5q-15 0 -27 2.5t-20 5.5q-10 4 -17 8l-5 88q2 0 19.5 -5.5t46.5 -5.5q42 0 70.5 18.5t46 47t25.5 62.5t8 66q0 17 -15.5 61.5t-42.5 126.5l80 16 q1 -3 3 -8q2 -4 4 -9t4 -12q11 -22 23 -31t41 -9q32 0 53.5 4t35.5 10t22 12.5t12 12.5q-1 10 -1 17v9l78 6l5 -123q2 -48 18 -64.5t55 -16.5q34 0 49 7t20 19q3 8 6.5 30.5t6.5 47t5.5 44t2.5 21.5h77q-4 -31 -7 -62.5t-8 -63.5q14 -9 33 -18.5t39 -17.5t40.5 -13.5 t37.5 -8.5l-19 237z" />
<glyph unicode="&#xfebb;&#xfeae;" horiz-adv-x="1057" arabic-form="isolated" d="M821 380q42 0 77 -20.5t61 -51.5t40.5 -68t14.5 -70q0 -52 -30 -85.5t-78 -52t-108.5 -25.5t-121.5 -7h-12q-55 0 -103 7t-84 24t-58 46.5t-25 74.5q-1 7 -1 14t-1 15q-9 -14 -22.5 -23t-29.5 -14.5t-33.5 -8t-32.5 -2.5q-21 0 -37 7q0 -1 0.5 -2t0.5 -3q3 -23 2 -52 t-7 -60q-5 -28 -18 -65.5t-37.5 -71.5t-63 -57.5t-94.5 -23.5q-15 0 -27 2.5t-20 5.5q-10 4 -17 8l-5 88q2 0 19.5 -5.5t46.5 -5.5q42 0 70.5 18.5t46 47t25.5 62.5t8 66q0 17 -15.5 61.5t-42.5 126.5l80 16q1 -3 3 -8q2 -4 4 -9t4 -12q11 -22 23 -31t41 -9q32 0 54 4t36 10 t21.5 12.5t11.5 12.5q-1 10 -1 16.5v9.5l78 6l5 -113q1 -47 36 -68q23 37 56 82.5t73.5 85.5t88 67.5t98.5 27.5zM682 93q46 0 92.5 4.5t84.5 12.5t62 21t24 29q0 12 -10 33t-28 41.5t-44 36t-58 15.5q-37 0 -72 -18.5t-66.5 -46.5t-58 -61t-45.5 -61q42 -6 106 -6h13z" />
<glyph unicode="&#xfebf;&#xfeae;" horiz-adv-x="1057" arabic-form="isolated" d="M804 427q-10 8 -20 18q-10 8 -19.5 18.5t-18.5 22.5q9 12 19 23t19 19q10 10 20 18q10 -8 21 -18q9 -8 19.5 -19t19.5 -23q-9 -12 -19.5 -22.5t-19.5 -18.5q-11 -10 -21 -18zM821 380q42 0 77 -20.5t61 -51.5t40.5 -68t14.5 -70q0 -52 -30 -85.5t-78 -52t-108.5 -25.5 t-121.5 -7h-12q-55 0 -103 7t-84 24t-58 46.5t-25 74.5q-1 7 -1 14t-1 15q-9 -14 -22.5 -23t-29.5 -14.5t-33.5 -8t-32.5 -2.5q-21 0 -37 7q0 -1 0.5 -2t0.5 -3q3 -23 2 -52t-7 -60q-5 -28 -18 -65.5t-37.5 -71.5t-63 -57.5t-94.5 -23.5q-15 0 -27 2.5t-20 5.5q-10 4 -17 8 l-5 88q2 0 19.5 -5.5t46.5 -5.5q42 0 70.5 18.5t46 47t25.5 62.5t8 66q0 17 -15.5 61.5t-42.5 126.5l80 16q1 -3 3 -8q2 -4 4 -9t4 -12q11 -22 23 -31t41 -9q32 0 54 4t36 10t21.5 12.5t11.5 12.5q-1 10 -1 16.5v9.5l78 6l5 -113q1 -47 36 -68q23 37 56 82.5t73.5 85.5 t88 67.5t98.5 27.5zM682 93q46 0 92.5 4.5t84.5 12.5t62 21t24 29q0 12 -10 33t-28 41.5t-44 36t-58 15.5q-37 0 -72 -18.5t-66.5 -46.5t-58 -61t-45.5 -61q42 -6 106 -6h13z" />
<glyph unicode="&#xfeb4;&#xfef0;" horiz-adv-x="1186" arabic-form="final" d="M1202 91v-88l-16 -3q-98 0 -141 44q-17 -19 -44.5 -31.5t-80.5 -12.5q-40 0 -67 11t-44 31q-12 -17 -35 -29.5t-66 -12.5q-23 0 -42 6t-36 19.5t-32.5 37t-31.5 57.5q-10 22 -19 41t-19.5 33.5t-25 22.5t-34.5 8q-22 0 -47 -7.5t-46 -18.5t-35 -24t-14 -24 q0 -9 10.5 -17.5t27 -16t37 -14.5t39.5 -13q72 -23 106 -53t34 -72q0 -16 -5.5 -46t-31.5 -61q-13 -17 -38.5 -35.5t-61 -34.5t-80 -26t-96.5 -10q-72 0 -118 20.5t-73 52t-37 68.5t-10 70q0 38 6 70.5t13 57.5q8 29 19 53h75q-11 -25 -20 -53q-9 -25 -15 -52t-6 -55 q0 -18 6 -42t24 -45.5t51.5 -36.5t89.5 -15q46 0 89 10.5t76 25.5t53 30.5t20 26.5q0 15 -22.5 31.5t-73.5 33.5q-53 18 -84 31t-51 39q-17 23 -17.5 47.5t4.5 47.5q6 29 28 55.5t52.5 47t65.5 33t67 12.5q36 0 59.5 -12t39 -31.5t26.5 -44t23 -50.5q9 -19 16.5 -34.5 t17 -27t21.5 -17.5t30 -6q31 0 43 7.5t17 19.5q2 8 5.5 30.5t7 47t6 44t2.5 21.5h76q-4 -37 -8.5 -75t-9.5 -76q11 -10 30.5 -14.5t43.5 -4.5t45 3.5t35 11.5q-2 5 -3 10.5t-2 11.5q-2 14 -4 40t-3 52q-2 30 -4 64l78 9q2 -27 4 -50t3.5 -43t2.5 -32q2 -18 6.5 -32.5t16 -24 t32 -14.5t54.5 -5z" />
<glyph unicode="&#xfeb4;&#xfef2;" horiz-adv-x="1186" arabic-form="final" d="M1202 91v-88l-16 -3q-98 0 -141 44q-17 -19 -44.5 -31.5t-80.5 -12.5q-40 0 -67 11t-44 31q-12 -17 -35 -29.5t-66 -12.5q-23 0 -42 6t-36 19.5t-32.5 37t-31.5 57.5q-10 22 -19 41t-19.5 33.5t-25 22.5t-34.5 8q-22 0 -47 -7.5t-46 -18.5t-35 -24t-14 -24 q0 -9 10.5 -17.5t27 -16t37 -14.5t39.5 -13q72 -23 106 -53t34 -72q0 -16 -5.5 -46t-31.5 -61q-13 -17 -38.5 -35.5t-61 -34.5t-80 -26t-96.5 -10q-72 0 -118 20.5t-73 52t-37 68.5t-10 70q0 38 6 70.5t13 57.5q8 29 19 53h75q-11 -25 -20 -53q-9 -25 -15 -52t-6 -55 q0 -18 6 -42t24 -45.5t51.5 -36.5t89.5 -15q46 0 89 10.5t76 25.5t53 30.5t20 26.5q0 15 -22.5 31.5t-73.5 33.5q-53 18 -84 31t-51 39q-17 23 -17.5 47.5t4.5 47.5q6 29 28 55.5t52.5 47t65.5 33t67 12.5q36 0 59.5 -12t39 -31.5t26.5 -44t23 -50.5q9 -19 16.5 -34.5 t17 -27t21.5 -17.5t30 -6q31 0 43 7.5t17 19.5q2 8 5.5 30.5t7 47t6 44t2.5 21.5h76q-4 -37 -8.5 -75t-9.5 -76q11 -10 30.5 -14.5t43.5 -4.5t45 3.5t35 11.5q-2 5 -3 10.5t-2 11.5q-2 14 -4 40t-3 52q-2 30 -4 64l78 9q2 -27 4 -50t3.5 -43t2.5 -32q2 -18 6.5 -32.5t16 -24 t32 -14.5t54.5 -5zM356 -291q9 -8 19 -17q9 -8 18.5 -18t18.5 -22q-9 -11 -19 -21l-18 -18q-10 -10 -19 -18q-8 7 -17 15l-15.5 15.5t-16.5 17.5q-8 -9 -17 -18t-16 -15q-8 -8 -16 -15q-10 8 -20 18q-9 8 -18 18t-17 21q8 12 17.5 22t17.5 18q10 9 20 17q8 -6 16 -14 q8 -7 16.5 -15.5t16.5 -18.5q8 10 16.5 19t15.5 15q9 8 17 14z" />
<glyph unicode="&#xfeb8;&#xfef0;" horiz-adv-x="1186" arabic-form="final" d="M825 415q-9 7 -19 16q-8 8 -17 17.5t-17 20.5q8 12 17 22t17 17q10 9 19 16q9 -7 19 -16l17.5 -17.5t17.5 -21.5q-8 -11 -17.5 -20.5l-17.5 -17.5q-10 -9 -19 -16zM774 313q-10 8 -20 17q-9 8 -18 17.5t-17 20.5q8 12 17.5 22.5t17.5 18.5q10 9 20 17q9 -7 18 -16 q8 -7 17 -16.5t17 -20.5q8 11 17.5 20.5l16.5 16.5q9 9 18 16q10 -8 19 -17t18.5 -19t18.5 -22q-9 -11 -18.5 -21t-18.5 -17q-9 -9 -19 -17q-9 7 -18 15q-8 7 -17 16t-17 20q-8 -11 -17.5 -20t-16.5 -16q-9 -8 -18 -15zM1202 91v-88l-16 -3q-98 0 -141 44 q-17 -19 -44.5 -31.5t-80.5 -12.5q-40 0 -67 11t-44 31q-12 -17 -35 -29.5t-66 -12.5q-23 0 -42 6t-36 19.5t-32.5 37t-31.5 57.5q-10 22 -19 41t-19.5 33.5t-25 22.5t-34.5 8q-22 0 -47 -7.5t-46 -18.5t-35 -24t-14 -24q0 -9 10.5 -17.5t27 -16t37 -14.5t39.5 -13 q72 -23 106 -53t34 -72q0 -16 -5.5 -46t-31.5 -61q-13 -17 -38.5 -35.5t-61 -34.5t-80 -26t-96.5 -10q-72 0 -118 20.5t-73 52t-37 68.5t-10 70q0 38 6 70.5t13 57.5q8 29 19 53h75q-11 -25 -20 -53q-9 -25 -15 -52t-6 -55q0 -18 6 -42t24 -45.5t51.5 -36.5t89.5 -15 q46 0 89 10.5t76 25.5t53 30.5t20 26.5q0 15 -22.5 31.5t-73.5 33.5q-53 18 -84 31t-51 39q-17 23 -17.5 47.5t4.5 47.5q6 29 28 55.5t52.5 47t65.5 33t67 12.5q36 0 59.5 -12t39 -31.5t26.5 -44t23 -50.5q9 -19 16.5 -34.5t17 -27t21.5 -17.5t30 -6q31 0 43 7.5t17 19.5 q2 8 5.5 30.5t7 47t6 44t2.5 21.5h76q-4 -37 -8.5 -75t-9.5 -76q11 -10 30.5 -14.5t43.5 -4.5t45 3.5t35 11.5q-2 5 -3 10.5t-2 11.5q-2 14 -4 40t-3 52q-2 30 -4 64l78 9q2 -27 4 -50t3.5 -43t2.5 -32q2 -18 6.5 -32.5t16 -24t32 -14.5t54.5 -5z" />
<glyph unicode="&#xfeb8;&#xfef2;" horiz-adv-x="1186" arabic-form="final" d="M825 415q-9 7 -19 16q-8 8 -17 17.5t-17 20.5q8 12 17 22t17 17q10 9 19 16q9 -7 19 -16l17.5 -17.5t17.5 -21.5q-8 -11 -17.5 -20.5l-17.5 -17.5q-10 -9 -19 -16zM774 313q-10 8 -20 17q-9 8 -18 17.5t-17 20.5q8 12 17.5 22.5t17.5 18.5q10 9 20 17q9 -7 18 -16 q8 -7 17 -16.5t17 -20.5q8 11 17.5 20.5l16.5 16.5q9 9 18 16q10 -8 19 -17t18.5 -19t18.5 -22q-9 -11 -18.5 -21t-18.5 -17q-9 -9 -19 -17q-9 7 -18 15q-8 7 -17 16t-17 20q-8 -11 -17.5 -20t-16.5 -16q-9 -8 -18 -15zM1202 91v-88l-16 -3q-98 0 -141 44 q-17 -19 -44.5 -31.5t-80.5 -12.5q-40 0 -67 11t-44 31q-12 -17 -35 -29.5t-66 -12.5q-23 0 -42 6t-36 19.5t-32.5 37t-31.5 57.5q-10 22 -19 41t-19.5 33.5t-25 22.5t-34.5 8q-22 0 -47 -7.5t-46 -18.5t-35 -24t-14 -24q0 -9 10.5 -17.5t27 -16t37 -14.5t39.5 -13 q72 -23 106 -53t34 -72q0 -16 -5.5 -46t-31.5 -61q-13 -17 -38.5 -35.5t-61 -34.5t-80 -26t-96.5 -10q-72 0 -118 20.5t-73 52t-37 68.5t-10 70q0 38 6 70.5t13 57.5q8 29 19 53h75q-11 -25 -20 -53q-9 -25 -15 -52t-6 -55q0 -18 6 -42t24 -45.5t51.5 -36.5t89.5 -15 q46 0 89 10.5t76 25.5t53 30.5t20 26.5q0 15 -22.5 31.5t-73.5 33.5q-53 18 -84 31t-51 39q-17 23 -17.5 47.5t4.5 47.5q6 29 28 55.5t52.5 47t65.5 33t67 12.5q36 0 59.5 -12t39 -31.5t26.5 -44t23 -50.5q9 -19 16.5 -34.5t17 -27t21.5 -17.5t30 -6q31 0 43 7.5t17 19.5 q2 8 5.5 30.5t7 47t6 44t2.5 21.5h76q-4 -37 -8.5 -75t-9.5 -76q11 -10 30.5 -14.5t43.5 -4.5t45 3.5t35 11.5q-2 5 -3 10.5t-2 11.5q-2 14 -4 40t-3 52q-2 30 -4 64l78 9q2 -27 4 -50t3.5 -43t2.5 -32q2 -18 6.5 -32.5t16 -24t32 -14.5t54.5 -5zM356 -291q9 -8 19 -17 q9 -8 18.5 -18t18.5 -22q-9 -11 -19 -21l-18 -18q-10 -10 -19 -18q-8 7 -17 15l-15.5 15.5t-16.5 17.5q-8 -9 -17 -18t-16 -15q-8 -8 -16 -15q-10 8 -20 18q-9 8 -18 18t-17 21q8 12 17.5 22t17.5 18q10 9 20 17q8 -6 16 -14q8 -7 16.5 -15.5t16.5 -18.5q8 10 16.5 19 t15.5 15q9 8 17 14z" />
<glyph unicode="&#xfebc;&#xfef0;" horiz-adv-x="1238" arabic-form="final" d="M1254 91v-88l-16 -3q-42 0 -84 10t-74 41q-50 -30 -121.5 -40.5t-146.5 -10.5h-11q-47 0 -83 5.5t-64 19t-49 36.5t-38 59q-10 22 -19 41t-19.5 33.5t-25 22.5t-34.5 8q-22 0 -47 -7.5t-46 -18.5t-35 -24t-14 -24q0 -9 10.5 -17.5t27 -16t37 -14.5t39.5 -13 q72 -23 107.5 -53t35.5 -72q0 -16 -5.5 -46t-31.5 -61q-14 -17 -40 -35.5t-62 -34.5t-80.5 -26t-96.5 -10q-72 0 -118 20.5t-73 52t-37 68.5t-10 70q0 38 6 70.5t13 57.5q8 29 19 53h77q-11 -25 -20 -53q-9 -25 -15 -52t-6 -55q0 -18 5.5 -42t23 -45.5t51 -36.5t89.5 -15 q46 0 89 10.5t76 25.5t53 30.5t20 26.5q0 15 -22.5 31.5t-73.5 33.5q-54 18 -85.5 31t-51.5 39q-17 23 -18 47.5t4 47.5q6 29 28.5 55.5t53.5 47t66.5 33t67.5 12.5q36 0 59 -12t39 -31.5t27 -44.5t23 -50q6 -12 11 -23t13 -20q24 37 56.5 80t71.5 79.5t84 61t93 24.5 q42 0 77 -20.5t61 -51.5t40.5 -68t14.5 -70q0 -31 -12 -57q17 -8 41 -13.5t59 -5.5zM818 93q46 0 93 4.5t85 12.5t62 21t24 29q0 12 -10 33t-28.5 41.5t-44.5 36t-58 15.5q-36 0 -70.5 -18t-65.5 -45t-57.5 -59t-45.5 -60q18 -5 43.5 -8t60.5 -3h12z" />
<glyph unicode="&#xfebc;&#xfef2;" horiz-adv-x="1229" arabic-form="final" d="M1245 91v-88l-16 -3q-42 0 -84 10t-74 41q-50 -30 -121.5 -40.5t-146.5 -10.5h-11q-47 0 -83 5.5t-64 19t-49 36.5t-38 59q-10 22 -19 41t-19.5 33.5t-25 22.5t-34.5 8q-22 0 -47 -7.5t-46 -18.5t-35 -24t-14 -24q0 -9 10.5 -17.5t27 -16t37 -14.5t39.5 -13 q72 -23 107.5 -53t35.5 -72q0 -16 -5.5 -46t-31.5 -61q-14 -17 -40 -35.5t-62 -34.5t-80.5 -26t-96.5 -10q-72 0 -118 20.5t-73 52t-37 68.5t-10 70q0 38 6 70.5t13 57.5q8 29 19 53h77q-11 -25 -20 -53q-9 -25 -15 -52t-6 -55q0 -18 5.5 -42t23 -45.5t51 -36.5t89.5 -15 q46 0 89 10.5t76 25.5t53 30.5t20 26.5q0 15 -22.5 31.5t-73.5 33.5q-54 18 -85.5 31t-51.5 39q-17 23 -18 47.5t4 47.5q6 29 28.5 55.5t53.5 47t66.5 33t67.5 12.5q36 0 59 -12t39 -31.5t27 -44.5t23 -50q6 -12 11 -23t13 -20q24 37 56.5 80t71.5 79.5t84 61t93 24.5 q42 0 77 -20.5t61 -51.5t40.5 -68t14.5 -70q0 -31 -12 -57q17 -8 41 -13.5t59 -5.5zM809 93q46 0 93 4.5t85 12.5t62 21t24 29q0 12 -10 33t-28.5 41.5t-44.5 36t-58 15.5q-36 0 -70.5 -18t-65.5 -45t-57.5 -59t-45.5 -60q18 -5 43.5 -8t60.5 -3h12zM347 -291q9 -8 19 -17 q9 -8 18.5 -18t18.5 -22q-9 -11 -19 -21l-18 -18q-10 -10 -19 -18q-8 7 -17 15l-15.5 15.5t-16.5 17.5q-8 -9 -17 -18t-16 -15q-8 -8 -16 -15q-10 8 -20 18q-9 8 -18 18t-17 21q8 12 17.5 22t17.5 18q10 9 20 17q8 -6 16 -14q8 -7 16.5 -15.5t16.5 -18.5q8 10 16.5 19 t15.5 15q9 8 17 14z" />
<glyph unicode="&#xfec0;&#xfef0;" horiz-adv-x="1238" arabic-form="final" d="M938 427q-10 8 -20 18q-10 8 -19.5 18.5t-18.5 22.5q9 12 19 23t19 19q10 10 20 18q10 -8 21 -18q9 -8 19.5 -19t19.5 -23q-9 -12 -19.5 -22.5t-19.5 -18.5q-11 -10 -21 -18zM1254 91v-88l-16 -3q-42 0 -84 10t-74 41q-50 -30 -121.5 -40.5t-146.5 -10.5h-11 q-47 0 -83 5.5t-64 19t-49 36.5t-38 59q-10 22 -19 41t-19.5 33.5t-25 22.5t-34.5 8q-22 0 -47 -7.5t-46 -18.5t-35 -24t-14 -24q0 -9 10.5 -17.5t27 -16t37 -14.5t39.5 -13q72 -23 107.5 -53t35.5 -72q0 -16 -5.5 -46t-31.5 -61q-14 -17 -40 -35.5t-62 -34.5t-80.5 -26 t-96.5 -10q-72 0 -118 20.5t-73 52t-37 68.5t-10 70q0 38 6 70.5t13 57.5q8 29 19 53h77q-11 -25 -20 -53q-9 -25 -15 -52t-6 -55q0 -18 5.5 -42t23 -45.5t51 -36.5t89.5 -15q46 0 89 10.5t76 25.5t53 30.5t20 26.5q0 15 -22.5 31.5t-73.5 33.5q-54 18 -85.5 31t-51.5 39 q-17 23 -18 47.5t4 47.5q6 29 28.5 55.5t53.5 47t66.5 33t67.5 12.5q36 0 59 -12t39 -31.5t27 -44.5t23 -50q6 -12 11 -23t13 -20q24 37 56.5 80t71.5 79.5t84 61t93 24.5q42 0 77 -20.5t61 -51.5t40.5 -68t14.5 -70q0 -31 -12 -57q17 -8 41 -13.5t59 -5.5zM818 93 q46 0 93 4.5t85 12.5t62 21t24 29q0 12 -10 33t-28.5 41.5t-44.5 36t-58 15.5q-36 0 -70.5 -18t-65.5 -45t-57.5 -59t-45.5 -60q18 -5 43.5 -8t60.5 -3h12z" />
<glyph unicode="&#xfec0;&#xfef2;" horiz-adv-x="1238" arabic-form="final" d="M938 427q-10 8 -20 18q-10 8 -19.5 18.5t-18.5 22.5q9 12 19 23t19 19q10 10 20 18q10 -8 21 -18q9 -8 19.5 -19t19.5 -23q-9 -12 -19.5 -22.5t-19.5 -18.5q-11 -10 -21 -18zM1254 91v-88l-16 -3q-42 0 -84 10t-74 41q-50 -30 -121.5 -40.5t-146.5 -10.5h-11 q-47 0 -83 5.5t-64 19t-49 36.5t-38 59q-10 22 -19 41t-19.5 33.5t-25 22.5t-34.5 8q-22 0 -47 -7.5t-46 -18.5t-35 -24t-14 -24q0 -9 10.5 -17.5t27 -16t37 -14.5t39.5 -13q72 -23 107.5 -53t35.5 -72q0 -16 -5.5 -46t-31.5 -61q-14 -17 -40 -35.5t-62 -34.5t-80.5 -26 t-96.5 -10q-72 0 -118 20.5t-73 52t-37 68.5t-10 70q0 38 6 70.5t13 57.5q8 29 19 53h77q-11 -25 -20 -53q-9 -25 -15 -52t-6 -55q0 -18 5.5 -42t23 -45.5t51 -36.5t89.5 -15q46 0 89 10.5t76 25.5t53 30.5t20 26.5q0 15 -22.5 31.5t-73.5 33.5q-54 18 -85.5 31t-51.5 39 q-17 23 -18 47.5t4 47.5q6 29 28.5 55.5t53.5 47t66.5 33t67.5 12.5q36 0 59 -12t39 -31.5t27 -44.5t23 -50q6 -12 11 -23t13 -20q24 37 56.5 80t71.5 79.5t84 61t93 24.5q42 0 77 -20.5t61 -51.5t40.5 -68t14.5 -70q0 -31 -12 -57q17 -8 41 -13.5t59 -5.5zM818 93 q46 0 93 4.5t85 12.5t62 21t24 29q0 12 -10 33t-28.5 41.5t-44.5 36t-58 15.5q-36 0 -70.5 -18t-65.5 -45t-57.5 -59t-45.5 -60q18 -5 43.5 -8t60.5 -3h12zM356 -291q9 -8 19 -17q9 -8 18.5 -18t18.5 -22q-9 -11 -19 -21l-18 -18q-10 -10 -19 -18q-8 7 -17 15l-15.5 15.5 t-16.5 17.5q-8 -9 -17 -18t-16 -15q-8 -8 -16 -15q-10 8 -20 18q-9 8 -18 18t-17 21q8 12 17.5 22t17.5 18q10 9 20 17q8 -6 16 -14q8 -7 16.5 -15.5t16.5 -18.5q8 10 16.5 19t15.5 15q9 8 17 14z" />
<glyph unicode="&#xfeb8;&#xfeae;" horiz-adv-x="1026" arabic-form="final" d="M665 415q-9 7 -19 16q-8 8 -17 17.5t-17 20.5q8 12 17 22t17 17q10 9 19 16q9 -7 19 -16l17.5 -17.5t17.5 -21.5q-8 -11 -17.5 -20.5l-17.5 -17.5q-10 -9 -19 -16zM614 313q-10 8 -20 17q-9 8 -18 17.5t-17 20.5q8 12 17.5 22.5t17.5 18.5q10 9 20 17q9 -7 18 -16 q8 -7 17 -16.5t17 -20.5q8 11 17.5 20.5l16.5 16.5q9 9 18 16q10 -8 19 -17t18.5 -19t18.5 -22q-9 -11 -18.5 -21t-18.5 -17q-9 -9 -19 -17q-9 7 -18 15q-8 7 -17 16t-17 20q-8 -11 -17.5 -20t-16.5 -16q-9 -8 -18 -15zM1041 91v-88l-16 -3q-49 0 -83.5 10.5t-57.5 33.5 q-16 -20 -43.5 -32t-80.5 -12q-41 0 -67.5 11t-43.5 32q-13 -17 -37.5 -30t-71.5 -13q-70 0 -104.5 34t-39.5 91q-2 11 -2.5 25t-2.5 30q-9 -14 -22.5 -23t-29.5 -14.5t-33 -7.5t-32 -2q-21 0 -37 7q0 -1 0.5 -2t0.5 -3q3 -23 2 -52t-7 -60q-5 -28 -18 -65.5t-37.5 -71.5 t-63 -57.5t-94.5 -23.5q-15 0 -27 2.5t-20 5.5q-10 4 -17 8l-5 88q2 0 19.5 -5.5t46.5 -5.5q42 0 70.5 18.5t46 47t25.5 62.5t8 66q0 17 -15.5 61.5t-42.5 126.5l80 16q1 -3 3 -8q2 -4 4 -9t4 -12q11 -22 23 -31t41 -9q32 0 53.5 4t35.5 10t22 12.5t12 12.5q-1 10 -1 17v9 l78 6l5 -123q2 -48 18 -64.5t55 -16.5q34 0 49 7t20 19q3 8 6.5 30.5t6.5 47t5.5 44t2.5 21.5h77q-4 -37 -8.5 -74.5t-10.5 -75.5q23 -20 75 -20q24 0 45 3.5t35 11.5q-4 9 -6 22q-2 14 -4 40t-3 52q-2 30 -4 64l78 9q2 -27 4 -50t3.5 -43t2.5 -32q2 -18 6.5 -32.5t16 -24 t32 -14.5t54.5 -5z" />
<glyph unicode="&#xfeb4;&#xfeae;" horiz-adv-x="1026" arabic-form="final" d="M1041 91v-88l-16 -3q-49 0 -83.5 10.5t-57.5 33.5q-16 -20 -43.5 -32t-80.5 -12q-41 0 -67.5 11t-43.5 32q-13 -17 -37.5 -30t-71.5 -13q-70 0 -104.5 34t-39.5 91q-2 11 -2.5 25t-2.5 30q-9 -14 -22.5 -23t-29.5 -14.5t-33 -7.5t-32 -2q-21 0 -37 7q0 -1 0.5 -2t0.5 -3 q3 -23 2 -52t-7 -60q-5 -28 -18 -65.5t-37.5 -71.5t-63 -57.5t-94.5 -23.5q-15 0 -27 2.5t-20 5.5q-10 4 -17 8l-5 88q2 0 19.5 -5.5t46.5 -5.5q42 0 70.5 18.5t46 47t25.5 62.5t8 66q0 17 -15.5 61.5t-42.5 126.5l80 16q1 -3 3 -8q2 -4 4 -9t4 -12q11 -22 23 -31t41 -9 q32 0 53.5 4t35.5 10t22 12.5t12 12.5q-1 10 -1 17v9l78 6l5 -123q2 -48 18 -64.5t55 -16.5q34 0 49 7t20 19q3 8 6.5 30.5t6.5 47t5.5 44t2.5 21.5h77q-4 -37 -8.5 -74.5t-10.5 -75.5q23 -20 75 -20q24 0 45 3.5t35 11.5q-4 9 -6 22q-2 14 -4 40t-3 52q-2 30 -4 64l78 9 q2 -27 4 -50t3.5 -43t2.5 -32q2 -18 6.5 -32.5t16 -24t32 -14.5t54.5 -5z" />
<glyph unicode="&#xfebc;&#xfeae;" horiz-adv-x="1100" arabic-form="final" d="M1116 91v-88l-16 -3q-41 0 -83 10t-74 40q-50 -29 -121.5 -39.5t-145.5 -10.5h-12q-55 0 -103 7t-84 24t-58 46.5t-25 74.5q-1 7 -1 14t-1 15q-9 -14 -22.5 -23t-29.5 -14.5t-33.5 -8t-32.5 -2.5q-21 0 -37 7q0 -1 0.5 -2t0.5 -3q3 -23 2 -52t-7 -60q-5 -28 -18 -65.5 t-37.5 -71.5t-63 -57.5t-94.5 -23.5q-15 0 -27 2.5t-20 5.5q-10 4 -17 8l-5 88q2 0 19.5 -5.5t46.5 -5.5q42 0 70.5 18.5t46 47t25.5 62.5t8 66q0 17 -15.5 61.5t-42.5 126.5l80 16q1 -3 3 -8q2 -4 4 -9t4 -12q11 -22 23 -31t41 -9q32 0 54 4t36 10t21.5 12.5t11.5 12.5 q-1 10 -1 16.5v9.5l78 6l5 -113q1 -47 36 -68q23 37 56 82.5t73.5 85.5t88 67.5t98.5 27.5q42 0 77 -20.5t61 -51.5t40.5 -68t14.5 -70q0 -32 -12 -58q17 -8 40.5 -13t57.5 -5zM682 93q46 0 92.5 4.5t84.5 12.5t62 21t24 29q0 12 -10 33t-28 41.5t-44 36t-58 15.5 q-37 0 -72 -18.5t-66.5 -46.5t-58 -61t-45.5 -61q42 -6 106 -6h13z" />
<glyph unicode="&#xfec0;&#xfeae;" horiz-adv-x="1100" arabic-form="final" d="M804 427q-10 8 -20 18q-10 8 -19.5 18.5t-18.5 22.5q9 12 19 23t19 19q10 10 20 18q10 -8 21 -18q9 -8 19.5 -19t19.5 -23q-9 -12 -19.5 -22.5t-19.5 -18.5q-11 -10 -21 -18zM1116 91v-88l-16 -3q-41 0 -83 10t-74 40q-50 -29 -121.5 -39.5t-145.5 -10.5h-12 q-55 0 -103 7t-84 24t-58 46.5t-25 74.5q-1 7 -1 14t-1 15q-9 -14 -22.5 -23t-29.5 -14.5t-33.5 -8t-32.5 -2.5q-21 0 -37 7q0 -1 0.5 -2t0.5 -3q3 -23 2 -52t-7 -60q-5 -28 -18 -65.5t-37.5 -71.5t-63 -57.5t-94.5 -23.5q-15 0 -27 2.5t-20 5.5q-10 4 -17 8l-5 88 q2 0 19.5 -5.5t46.5 -5.5q42 0 70.5 18.5t46 47t25.5 62.5t8 66q0 17 -15.5 61.5t-42.5 126.5l80 16q1 -3 3 -8q2 -4 4 -9t4 -12q11 -22 23 -31t41 -9q32 0 54 4t36 10t21.5 12.5t11.5 12.5q-1 10 -1 16.5v9.5l78 6l5 -113q1 -47 36 -68q23 37 56 82.5t73.5 85.5t88 67.5 t98.5 27.5q42 0 77 -20.5t61 -51.5t40.5 -68t14.5 -70q0 -32 -12 -58q17 -8 40.5 -13t57.5 -5zM682 93q46 0 92.5 4.5t84.5 12.5t62 21t24 29q0 12 -10 33t-28 41.5t-44 36t-58 15.5q-37 0 -72 -18.5t-66.5 -46.5t-58 -61t-45.5 -61q42 -6 106 -6h13z" />
<glyph unicode="&#xfedf;&#xfe82;" horiz-adv-x="510" arabic-form="isolated" d="M453 502q0 -85 -19 -139.5t-51 -93.5q27 -35 45 -72t18 -69q0 -73 -50.5 -101t-145.5 -28h-41.5t-52 1t-50.5 2t-39 4l14 90q17 12 43.5 32t56 43t58 47t49.5 43q-48 48 -118 104.5t-158 116.5l32 87q87 -64 162.5 -126.5t132.5 -123.5q7 12 13 26t10 33.5t6 46t2 63.5 v193l83 5v-184zM188 591q-35 0 -58 7t-47 7q-11 0 -21 -2t-18 -4q-10 -3 -18 -6v58q5 3 20 9t36 6q24 0 46 -6t60 -6q25 0 46.5 3t44.5 11v-60q-13 -5 -28 -8q-13 -4 -29 -6.5t-34 -2.5zM263 92q51 0 84.5 8.5t33.5 22.5q0 13 -10 36t-39 56q-35 -31 -80 -64.5t-83 -58.5h94 z" />
<glyph unicode="&#xfee0;&#xfe82;" horiz-adv-x="548" arabic-form="final" d="M563 91v-88l-16 -3q-32 0 -60 4t-50.5 17t-39 37.5t-26.5 64.5q-6 -11 -14 -21.5t-18 -18.5q-13 -10 -38.5 -26t-63.5 -31t-87.5 -26.5t-110.5 -14.5l-14 89q59 4 108 14.5t90 25.5q0 19 -1 37.5t-6 35.5q-6 29 -16 60t-31 68.5t-56.5 83.5t-92.5 104l52 68 q102 -99 153.5 -192.5t60.5 -169.5q2 -17 3 -33.5t1 -29.5q23 13 41 26.5t30 27.5q-1 11 -1 22v23v436l82 5v-494q0 -29 5 -48t17 -30t32 -15.5t51 -4.5zM205 586q-35 0 -58 7t-47 7q-11 0 -21 -2t-18 -4q-10 -3 -18 -6v58q5 3 20 9t36 6q24 0 46 -6t60 -6q25 0 46.5 3 t44.5 11v-60q-13 -5 -28 -8q-13 -4 -29 -6.5t-34 -2.5z" />
<glyph unicode="&#xfedf;&#xfe84;" horiz-adv-x="507" arabic-form="isolated" d="M225 598q-23 -5 -67.5 -11.5t-95.5 -6.5v50q8 0 15 0.5t13 1.5q-5 6 -8.5 15t-3.5 20q0 14 6 28.5t16 26t24 19t30 7.5q14 0 26 -6.5t19 -15.5l-8 -48q-9 8 -18 12t-21 4q-20 0 -30 -10.5t-10 -16.5q0 -8 10 -18t33 -10q14 0 35.5 3.5t34.5 7.5v-52zM450 502 q0 -85 -19 -139.5t-51 -93.5q27 -35 45 -72t18 -69q0 -73 -50.5 -101t-145.5 -28h-41.5t-52 1t-50.5 2t-39 4l14 90q17 12 43.5 32t56 43t58 47t49.5 43q-48 48 -118 104.5t-158 116.5l32 87q87 -64 162.5 -126.5t132.5 -123.5q7 12 13 26t10 33.5t6 46t2 63.5v193l83 5 v-184zM260 92q51 0 84.5 8.5t33.5 22.5q0 13 -10 36t-39 56q-35 -31 -80 -64.5t-83 -58.5h94z" />
<glyph unicode="&#xfee0;&#xfe84;" horiz-adv-x="546" arabic-form="final" d="M182 615q-23 -5 -67.5 -11.5t-95.5 -6.5v50q8 0 15 0.5t13 1.5q-5 6 -8.5 15t-3.5 20q0 14 6 28.5t16 26t24 19t30 7.5q14 0 26 -6.5t19 -15.5l-8 -48q-9 8 -18 12t-21 4q-20 0 -30 -10.5t-10 -16.5q0 -8 10 -18t33 -10q14 0 35.5 3.5t34.5 7.5v-52zM562 91v-88l-16 -3 q-32 0 -60 4t-50.5 17t-39 37.5t-26.5 64.5q-6 -11 -14 -21.5t-18 -18.5q-13 -10 -38.5 -26t-63.5 -31t-87.5 -26.5t-110.5 -14.5l-14 89q59 4 108 14.5t90 25.5q0 19 -1 37.5t-6 35.5q-6 29 -16 60t-31 68.5t-56.5 83.5t-92.5 104l52 68q102 -99 153.5 -192.5t60.5 -169.5 q2 -17 3 -33.5t1 -29.5q23 13 41 26.5t30 27.5q-1 11 -1 22v23v436l82 5v-494q0 -29 5 -48t17 -30t32 -15.5t51 -4.5z" />
<glyph unicode="&#xfedf;&#xfe88;" horiz-adv-x="507" arabic-form="isolated" d="M450 502q0 -85 -19 -139.5t-51 -93.5q27 -35 45 -72t18 -69q0 -73 -50.5 -101t-145.5 -28h-41.5t-52 1t-50.5 2t-39 4l14 90q17 12 43.5 32t56 43t58 47t49.5 43q-48 48 -118 104.5t-158 116.5l32 87q87 -64 162.5 -126.5t132.5 -123.5q7 12 13 26t10 33.5t6 46t2 63.5 v193l83 5v-184zM260 92q51 0 84.5 8.5t33.5 22.5q0 13 -10 36t-39 56q-35 -31 -80 -64.5t-83 -58.5h94zM119 -117q0 -8 10 -18t33 -10q14 0 35.5 3.5t34.5 7.5v-52q-23 -5 -67.5 -11.5t-95.5 -6.5v50q8 0 15 0.5t13 1.5q-5 6 -8.5 15t-3.5 20q0 14 6 28.5t16 26t24 19 t30 7.5q14 0 26 -6.5t19 -15.5l-8 -48q-9 8 -18 12t-21 4q-20 0 -30 -10.5t-10 -16.5z" />
<glyph unicode="&#xfee0;&#xfe88;" horiz-adv-x="546" arabic-form="final" d="M562 91v-88l-16 -3q-32 0 -60 4t-50.5 17t-39 37.5t-26.5 64.5q-6 -11 -14 -21.5t-18 -18.5q-13 -10 -38.5 -26t-63.5 -31t-87.5 -26.5t-110.5 -14.5l-14 89q59 4 108 14.5t90 25.5q0 19 -1 37.5t-6 35.5q-6 29 -16 60t-31 68.5t-56.5 83.5t-92.5 104l52 68 q102 -99 153.5 -192.5t60.5 -169.5q2 -17 3 -33.5t1 -29.5q23 13 41 26.5t30 27.5q-1 11 -1 22v23v436l82 5v-494q0 -29 5 -48t17 -30t32 -15.5t51 -4.5zM195 -105q0 -8 10 -18t33 -10q14 0 35.5 3.5t34.5 7.5v-52q-23 -5 -67.5 -11.5t-95.5 -6.5v50q8 0 15 0.5t13 1.5 q-5 6 -8.5 15t-3.5 20q0 14 6 28.5t16 26t24 19t30 7.5q14 0 26 -6.5t19 -15.5l-8 -48q-9 8 -18 12t-21 4q-20 0 -30 -10.5t-10 -16.5z" />
<glyph unicode="&#xfedf;&#xfe8e;" horiz-adv-x="507" arabic-form="isolated" d="M450 502q0 -85 -19 -139.5t-51 -93.5q27 -35 45 -72t18 -69q0 -73 -50.5 -101t-145.5 -28h-41.5t-52 1t-50.5 2t-39 4l14 90q17 12 43.5 32t56 43t58 47t49.5 43q-48 48 -118 104.5t-158 116.5l32 87q87 -64 162.5 -126.5t132.5 -123.5q7 12 13 26t10 33.5t6 46t2 63.5 v193l83 5v-184zM260 92q51 0 84.5 8.5t33.5 22.5q0 13 -10 36t-39 56q-35 -31 -80 -64.5t-83 -58.5h94z" />
<glyph unicode="&#xfee0;&#xfe8e;" horiz-adv-x="546" arabic-form="final" d="M562 91v-88l-16 -3q-32 0 -60 4t-50.5 17t-39 37.5t-26.5 64.5q-6 -11 -14 -21.5t-18 -18.5q-13 -10 -38.5 -26t-63.5 -31t-87.5 -26.5t-110.5 -14.5l-14 89q59 4 108 14.5t90 25.5q0 19 -1 37.5t-6 35.5q-6 29 -16 60t-31 68.5t-56.5 83.5t-92.5 104l52 68 q102 -99 153.5 -192.5t60.5 -169.5q2 -17 3 -33.5t1 -29.5q23 13 41 26.5t30 27.5q-1 11 -1 22v23v436l82 5v-494q0 -29 5 -48t17 -30t32 -15.5t51 -4.5z" />
<glyph unicode="&#xfe8b;&#xfe8a;" horiz-adv-x="704" d="M592 452q14 0 35.5 3.5t34.5 7.5v-52q-23 -5 -67.5 -11.5t-95.5 -6.5v50q8 0 15 0.5t13 1.5q-5 6 -8.5 15t-3.5 20q0 14 6 28.5t16 26t24 19t30 7.5q14 0 26 -6.5t19 -15.5l-8 -48q-9 8 -18 12t-21 4q-20 0 -30 -10.5t-10 -16.5q0 -8 10 -18t33 -10zM631 359 q4 -21 8.5 -48t8 -55t6 -54t2.5 -46q0 -39 -13.5 -68t-32.5 -46q-9 -9 -22 -16t-29 -12q19 -22 19 -45q0 -19 -5 -49t-30 -62q-14 -17 -38 -36.5t-58 -35.5t-77.5 -26.5t-96.5 -10.5q-71 0 -117 20.5t-72.5 52t-36.5 69t-10 70.5q0 38 6 70.5t13 57.5q8 28 19 52h77 q-11 -25 -20 -52q-9 -25 -15 -52t-6 -55q0 -19 5.5 -43t23.5 -45.5t51.5 -36t89.5 -14.5q47 0 88.5 11t73 26t49.5 31t18 27t-9 22t-25.5 20t-39.5 14.5t-51 5.5h-1l18 94h51q70 0 98 11t28 25q0 32 -7 85.5t-19 128.5zM188 195q-23 -5 -67.5 -11.5t-95.5 -6.5v50 q8 0 15 0.5t13 1.5q-5 6 -8.5 15t-3.5 20q0 14 6 28.5t16 26t24 19t30 7.5q14 0 26 -6.5t19 -15.5l-8 -48q-9 8 -18 12t-21 4q-20 0 -30 -10.5t-10 -16.5q0 -8 10 -18t33 -10q14 0 35.5 3.5t34.5 7.5v-52z" />
<glyph unicode="&#xfe8c;&#xfe8a;" horiz-adv-x="720" d="M581 364q-23 -5 -67.5 -11.5t-95.5 -6.5v50q8 0 15 0.5t13 1.5q-5 6 -8.5 15t-3.5 20q0 14 6 28.5t16 26t24 19t30 7.5q14 0 26 -6.5t19 -15.5l-8 -48q-9 8 -18 12t-21 4q-20 0 -30 -10.5t-10 -16.5q0 -8 10 -18t33 -10q14 0 35.5 3.5t34.5 7.5v-52zM188 199 q-23 -5 -67.5 -11.5t-95.5 -6.5v50q8 0 15 0.5t13 1.5q-5 6 -8.5 15t-3.5 20q0 14 6 28.5t16 26t24 19t30 7.5q14 0 26 -6.5t19 -15.5l-8 -48q-9 8 -18 12t-21 4q-20 0 -30 -10.5t-10 -16.5q0 -8 10 -18t33 -10q14 0 35.5 3.5t34.5 7.5v-52zM737 91v-88l-16 -3 q-27 0 -46.5 5t-36 19.5t-31 39t-32.5 63.5q-20 44 -43 71t-64 27q-22 0 -45.5 -7.5t-43 -18.5t-32 -24t-12.5 -24q0 -9 10.5 -17.5t27 -16t37 -14.5t39.5 -13q72 -23 106 -53t34 -72q0 -16 -5.5 -46t-31.5 -61q-13 -17 -38.5 -35.5t-61 -34.5t-80 -26t-96.5 -10 q-72 0 -118 20.5t-73 52t-37 68.5t-10 70q0 38 6 70.5t13 57.5q8 29 19 53h77q-11 -25 -20 -53q-9 -25 -15 -52t-6 -55q0 -18 5.5 -42t23 -45.5t51 -36.5t89.5 -15q46 0 89 10.5t76 25.5t53 30.5t20 26.5q0 15 -22.5 31.5t-73.5 33.5q-53 18 -84 31t-51 39 q-17 23 -17.5 47.5t4.5 47.5q6 29 26.5 55.5t49 47t62.5 33t66 12.5q34 0 58.5 -11t42.5 -29.5t31.5 -42t24.5 -48.5q14 -31 23 -49t18 -27.5t19 -12t25 -2.5z" />
<glyph unicode="&#xfe92;&#xfe8a;" horiz-adv-x="720" d="M188 199q-23 -5 -67.5 -11.5t-95.5 -6.5v50q8 0 15 0.5t13 1.5q-5 6 -8.5 15t-3.5 20q0 14 6 28.5t16 26t24 19t30 7.5q14 0 26 -6.5t19 -15.5l-8 -48q-9 8 -18 12t-21 4q-20 0 -30 -10.5t-10 -16.5q0 -8 10 -18t33 -10q14 0 35.5 3.5t34.5 7.5v-52zM737 91v-88l-16 -3 q-27 0 -46.5 5t-36 19.5t-31 39t-32.5 63.5q-20 44 -43 71t-64 27q-22 0 -45.5 -7.5t-43 -18.5t-32 -24t-12.5 -24q0 -9 10.5 -17.5t27 -16t37 -14.5t39.5 -13q72 -23 106 -53t34 -72q0 -16 -5.5 -46t-31.5 -61q-13 -17 -38.5 -35.5t-61 -34.5t-80 -26t-96.5 -10 q-72 0 -118 20.5t-73 52t-37 68.5t-10 70q0 38 6 70.5t13 57.5q8 29 19 53h77q-11 -25 -20 -53q-9 -25 -15 -52t-6 -55q0 -18 5.5 -42t23 -45.5t51 -36.5t89.5 -15q46 0 89 10.5t76 25.5t53 30.5t20 26.5q0 15 -22.5 31.5t-73.5 33.5q-53 18 -84 31t-51 39 q-17 23 -17.5 47.5t4.5 47.5q6 29 26.5 55.5t49 47t62.5 33t66 12.5q34 0 58.5 -11t42.5 -29.5t31.5 -42t24.5 -48.5q14 -31 23 -49t18 -27.5t19 -12t25 -2.5zM658 -69q10 -8 21 -18q9 -8 19.5 -19t19.5 -23q-9 -12 -19.5 -22.5l-19.5 -19.5q-11 -9 -21 -17q-10 8 -20 17 t-19.5 19.5t-18.5 22.5q9 12 19 23t19 19q10 10 20 18z" />
<glyph unicode="&#xfe97;&#xfe8a;" horiz-adv-x="706" d="M632 531q9 -8 19 -17q9 -8 18.5 -18t18.5 -22q-9 -11 -19 -21l-18 -18q-10 -10 -19 -18q-8 7 -17 15l-15.5 15.5t-16.5 17.5q-8 -9 -17 -18t-16 -15q-8 -8 -16 -15q-10 8 -20 18q-9 8 -18 18t-17 21q8 12 17.5 22t17.5 18q10 9 20 17q8 -6 16 -14q8 -7 16.5 -15.5 t16.5 -18.5q8 10 16.5 19t15.5 15q9 8 17 14zM631 359q4 -21 8.5 -48t8 -55t6 -54t2.5 -46q0 -39 -13.5 -68t-32.5 -46q-9 -9 -22 -16t-29 -12q19 -22 19 -45q0 -19 -5 -49t-30 -62q-14 -17 -38 -36.5t-58 -35.5t-77.5 -26.5t-96.5 -10.5q-71 0 -117 20.5t-72.5 52t-36.5 69 t-10 70.5q0 38 6 70.5t13 57.5q8 28 19 52h77q-11 -25 -20 -52q-9 -25 -15 -52t-6 -55q0 -19 5.5 -43t23.5 -45.5t51.5 -36t89.5 -14.5q47 0 88.5 11t73 26t49.5 31t18 27t-9 22t-25.5 20t-39.5 14.5t-51 5.5h-1l18 94h51q70 0 98 11t28 25q0 32 -7 85.5t-19 128.5zM188 195 q-23 -5 -67.5 -11.5t-95.5 -6.5v50q8 0 15 0.5t13 1.5q-5 6 -8.5 15t-3.5 20q0 14 6 28.5t16 26t24 19t30 7.5q14 0 26 -6.5t19 -15.5l-8 -48q-9 8 -18 12t-21 4q-20 0 -30 -10.5t-10 -16.5q0 -8 10 -18t33 -10q14 0 35.5 3.5t34.5 7.5v-52z" />
<glyph unicode="&#xfe98;&#xfe8a;" horiz-adv-x="720" d="M452 359q-10 8 -20 18q-9 8 -18 18t-17 21q8 12 17.5 22t17.5 18q10 9 20 17q8 -6 16 -14q8 -7 16.5 -15.5t16.5 -18.5q8 10 16.5 19t15.5 15q9 8 17 14q9 -8 19 -17q9 -8 18.5 -18t18.5 -22q-9 -11 -19 -21l-18 -18q-10 -10 -19 -18q-8 7 -17 15l-15.5 15.5t-16.5 17.5 q-8 -9 -17 -18t-16 -15q-8 -8 -16 -15zM188 199q-23 -5 -67.5 -11.5t-95.5 -6.5v50q8 0 15 0.5t13 1.5q-5 6 -8.5 15t-3.5 20q0 14 6 28.5t16 26t24 19t30 7.5q14 0 26 -6.5t19 -15.5l-8 -48q-9 8 -18 12t-21 4q-20 0 -30 -10.5t-10 -16.5q0 -8 10 -18t33 -10q14 0 35.5 3.5 t34.5 7.5v-52zM737 91v-88l-16 -3q-27 0 -46.5 5t-36 19.5t-31 39t-32.5 63.5q-20 44 -43 71t-64 27q-22 0 -45.5 -7.5t-43 -18.5t-32 -24t-12.5 -24q0 -9 10.5 -17.5t27 -16t37 -14.5t39.5 -13q72 -23 106 -53t34 -72q0 -16 -5.5 -46t-31.5 -61q-13 -17 -38.5 -35.5 t-61 -34.5t-80 -26t-96.5 -10q-72 0 -118 20.5t-73 52t-37 68.5t-10 70q0 38 6 70.5t13 57.5q8 29 19 53h77q-11 -25 -20 -53q-9 -25 -15 -52t-6 -55q0 -18 5.5 -42t23 -45.5t51 -36.5t89.5 -15q46 0 89 10.5t76 25.5t53 30.5t20 26.5q0 15 -22.5 31.5t-73.5 33.5 q-53 18 -84 31t-51 39q-17 23 -17.5 47.5t4.5 47.5q6 29 26.5 55.5t49 47t62.5 33t66 12.5q34 0 58.5 -11t42.5 -29.5t31.5 -42t24.5 -48.5q14 -31 23 -49t18 -27.5t19 -12t25 -2.5z" />
<glyph unicode="&#xfe9b;&#xfe8a;" horiz-adv-x="706" d="M583 504q-9 7 -19 16q-8 8 -17 17.5t-17 20.5q8 12 17 22t17 17q10 9 19 16q9 -7 19 -16l17.5 -17.5t17.5 -21.5q-8 -11 -17.5 -20.5l-17.5 -17.5q-10 -9 -19 -16zM636 515q10 -8 19 -17t18.5 -19t18.5 -22q-9 -11 -18.5 -21t-18.5 -17q-9 -9 -19 -17q-9 7 -18 15 q-8 7 -17 16t-17 20q-8 -11 -17.5 -20t-16.5 -16q-9 -8 -18 -15q-10 8 -20 17q-9 8 -18 17.5t-17 20.5q8 12 17.5 22.5t17.5 18.5q10 9 20 17q9 -7 18 -16q8 -7 17 -16.5t17 -20.5q8 11 17.5 20.5l16.5 16.5q9 9 18 16zM631 359q4 -21 8.5 -48t8 -55t6 -54t2.5 -46 q0 -39 -13.5 -68t-32.5 -46q-9 -9 -22 -16t-29 -12q19 -22 19 -45q0 -19 -5 -49t-30 -62q-14 -17 -38 -36.5t-58 -35.5t-77.5 -26.5t-96.5 -10.5q-71 0 -117 20.5t-72.5 52t-36.5 69t-10 70.5q0 38 6 70.5t13 57.5q8 28 19 52h77q-11 -25 -20 -52q-9 -25 -15 -52t-6 -55 q0 -19 5.5 -43t23.5 -45.5t51.5 -36t89.5 -14.5q47 0 88.5 11t73 26t49.5 31t18 27t-9 22t-25.5 20t-39.5 14.5t-51 5.5h-1l18 94h51q70 0 98 11t28 25q0 32 -7 85.5t-19 128.5zM188 195q-23 -5 -67.5 -11.5t-95.5 -6.5v50q8 0 15 0.5t13 1.5q-5 6 -8.5 15t-3.5 20 q0 14 6 28.5t16 26t24 19t30 7.5q14 0 26 -6.5t19 -15.5l-8 -48q-9 8 -18 12t-21 4q-20 0 -30 -10.5t-10 -16.5q0 -8 10 -18t33 -10q14 0 35.5 3.5t34.5 7.5v-52z" />
<glyph unicode="&#xfe9c;&#xfe8a;" horiz-adv-x="720" d="M498 450q-9 7 -19 16q-8 8 -17 17.5t-17 20.5q8 12 17 22t17 17q10 9 19 16q9 -7 19 -16l17.5 -17.5t17.5 -21.5q-8 -11 -17.5 -20.5l-17.5 -17.5q-10 -9 -19 -16zM447 348q-10 8 -20 17q-9 8 -18 17.5t-17 20.5q8 12 17.5 22.5t17.5 18.5q10 9 20 17q9 -7 18 -16 q8 -7 17 -16.5t17 -20.5q8 11 17.5 20.5l16.5 16.5q9 9 18 16q10 -8 19 -17t18.5 -19t18.5 -22q-9 -11 -18.5 -21t-18.5 -17q-9 -9 -19 -17q-9 7 -18 15q-8 7 -17 16t-17 20q-8 -11 -17.5 -20t-16.5 -16q-9 -8 -18 -15zM188 199q-23 -5 -67.5 -11.5t-95.5 -6.5v50 q8 0 15 0.5t13 1.5q-5 6 -8.5 15t-3.5 20q0 14 6 28.5t16 26t24 19t30 7.5q14 0 26 -6.5t19 -15.5l-8 -48q-9 8 -18 12t-21 4q-20 0 -30 -10.5t-10 -16.5q0 -8 10 -18t33 -10q14 0 35.5 3.5t34.5 7.5v-52zM737 91v-88l-16 -3q-27 0 -46.5 5t-36 19.5t-31 39t-32.5 63.5 q-20 44 -43 71t-64 27q-22 0 -45.5 -7.5t-43 -18.5t-32 -24t-12.5 -24q0 -9 10.5 -17.5t27 -16t37 -14.5t39.5 -13q72 -23 106 -53t34 -72q0 -16 -5.5 -46t-31.5 -61q-13 -17 -38.5 -35.5t-61 -34.5t-80 -26t-96.5 -10q-72 0 -118 20.5t-73 52t-37 68.5t-10 70q0 38 6 70.5 t13 57.5q8 29 19 53h77q-11 -25 -20 -53q-9 -25 -15 -52t-6 -55q0 -18 5.5 -42t23 -45.5t51 -36.5t89.5 -15q46 0 89 10.5t76 25.5t53 30.5t20 26.5q0 15 -22.5 31.5t-73.5 33.5q-53 18 -84 31t-51 39q-17 23 -17.5 47.5t4.5 47.5q6 29 26.5 55.5t49 47t62.5 33t66 12.5 q34 0 58.5 -11t42.5 -29.5t31.5 -42t24.5 -48.5q14 -31 23 -49t18 -27.5t19 -12t25 -2.5z" />
<glyph unicode="&#xfeb3;&#xfe8a;" horiz-adv-x="1133" d="M188 199q-23 -5 -67.5 -11.5t-95.5 -6.5v50q8 0 15 0.5t13 1.5q-5 6 -8.5 15t-3.5 20q0 14 6 28.5t16 26t24 19t30 7.5q14 0 26 -6.5t19 -15.5l-8 -48q-9 8 -18 12t-21 4q-20 0 -30 -10.5t-10 -16.5q0 -8 10 -18t33 -10q14 0 35.5 3.5t34.5 7.5v-52zM1073 326 q5 -57 9 -106q2 -29 3.5 -47.5t2.5 -35t2 -30.5t1 -21q0 -15 -7.5 -32.5t-19.5 -32.5t-26 -25.5t-26 -10.5q-13 0 -35.5 4t-48.5 12.5t-53 21.5t-50 30q-10 -19 -34 -36t-74 -17q-23 0 -42 6t-36 19.5t-32.5 37t-31.5 57.5q-10 22 -19 41t-19.5 33.5t-25 22.5t-34.5 8 q-22 0 -47 -7.5t-46 -18.5t-35 -24t-14 -24q0 -9 10.5 -17.5t27 -16t37 -14.5t39.5 -13q72 -23 106 -53t34 -72q0 -16 -5.5 -46t-31.5 -61q-13 -17 -38.5 -35.5t-61 -34.5t-80 -26t-96.5 -10q-72 0 -118 20.5t-73 52t-37 68.5t-10 70q0 38 6 70.5t13 57.5q8 29 19 53h77 q-11 -25 -20 -53q-9 -25 -15 -52t-6 -55q0 -18 5.5 -42t23 -45.5t51 -36.5t89.5 -15q46 0 89 10.5t76 25.5t53 30.5t20 26.5q0 15 -22.5 31.5t-73.5 33.5q-53 18 -84 31t-51 39q-17 23 -17.5 47.5t4.5 47.5q6 29 28 55.5t52.5 47t65.5 33t67 12.5q36 0 59.5 -12t39 -31.5 t26.5 -44t23 -50.5q9 -19 16.5 -34.5t17 -27t21.5 -17.5t30 -6q31 0 43 7.5t17 19.5q2 8 5.5 30.5t7 47t6 44t2.5 21.5h76q-4 -31 -7 -63t-8 -64q15 -9 34 -18t39 -17t40 -13.5t37 -8.5l-19 237z" />
<glyph unicode="&#xfeb4;&#xfe8a;" horiz-adv-x="1194" d="M188 199q-23 -5 -67.5 -11.5t-95.5 -6.5v50q8 0 15 0.5t13 1.5q-5 6 -8.5 15t-3.5 20q0 14 6 28.5t16 26t24 19t30 7.5q14 0 26 -6.5t19 -15.5l-8 -48q-9 8 -18 12t-21 4q-20 0 -30 -10.5t-10 -16.5q0 -8 10 -18t33 -10q14 0 35.5 3.5t34.5 7.5v-52zM1211 91v-88l-16 -3 q-98 0 -141 44q-17 -19 -44.5 -31.5t-80.5 -12.5q-40 0 -67 11t-44 31q-12 -17 -35 -29.5t-66 -12.5q-23 0 -42 6t-36 19.5t-32.5 37t-31.5 57.5q-10 22 -19 41t-19.5 33.5t-25 22.5t-34.5 8q-22 0 -47 -7.5t-46 -18.5t-35 -24t-14 -24q0 -9 10.5 -17.5t27 -16t37 -14.5 t39.5 -13q72 -23 106 -53t34 -72q0 -16 -5.5 -46t-31.5 -61q-13 -17 -38.5 -35.5t-61 -34.5t-80 -26t-96.5 -10q-72 0 -118 20.5t-73 52t-37 68.5t-10 70q0 38 6 70.5t13 57.5q8 29 19 53h75q-11 -25 -20 -53q-9 -25 -15 -52t-6 -55q0 -18 6 -42t24 -45.5t51.5 -36.5 t89.5 -15q46 0 89 10.5t76 25.5t53 30.5t20 26.5q0 15 -22.5 31.5t-73.5 33.5q-53 18 -84 31t-51 39q-17 23 -17.5 47.5t4.5 47.5q6 29 28 55.5t52.5 47t65.5 33t67 12.5q36 0 59.5 -12t39 -31.5t26.5 -44t23 -50.5q9 -19 16.5 -34.5t17 -27t21.5 -17.5t30 -6q31 0 43 7.5 t17 19.5q2 8 5.5 30.5t7 47t6 44t2.5 21.5h76q-4 -37 -8.5 -75t-9.5 -76q11 -10 30.5 -14.5t43.5 -4.5t45 3.5t35 11.5q-2 5 -3 10.5t-2 11.5q-2 14 -4 40t-3 52q-2 30 -4 64l78 9q2 -27 4 -50t3.5 -43t2.5 -32q2 -18 6.5 -32.5t16 -24t32 -14.5t54.5 -5z" />
<glyph unicode="&#xfeb3;&#xfee6;" horiz-adv-x="1239" d="M262 243q-10 8 -20 18q-10 8 -19.5 18.5t-18.5 22.5q9 12 19 23t19 19q10 10 20 18q10 -8 21 -18q9 -8 19.5 -19t19.5 -23q-9 -12 -19.5 -22.5t-19.5 -18.5q-11 -10 -21 -18zM1178 326q5 -57 9 -106q2 -29 3.5 -47.5t2.5 -35t2 -30.5t1 -21q0 -15 -7.5 -32.5t-19.5 -32.5 t-26 -25.5t-26 -10.5q-13 0 -35.5 4t-48.5 12.5t-53 21.5t-50 31q-11 -19 -37 -36.5t-80 -17.5q-68 0 -103 34t-40 91q-2 10 -2.5 22.5t-1.5 26.5q-17 -28 -52 -39t-67 -11q-27 0 -43 11q5 -33 8 -62t3 -52q0 -32 -11 -64t-37 -61q-29 -32 -85 -55t-128 -23t-116 21.5 t-68.5 53.5t-32.5 69.5t-8 69.5q0 38 6 70t13 57q8 28 19 51h77q-11 -25 -20 -51q-9 -24 -15 -51t-6 -55q0 -18 3.5 -42.5t19.5 -46t47.5 -37t86.5 -15.5q41 0 74.5 9t57 21t36.5 24.5t13 20.5q0 10 -2 28t-5.5 40t-7.5 46.5t-9 48.5q-11 56 -24 120l83 13q2 -8 3.5 -16.5 t3.5 -16.5q6 -16 17 -24t37 -8q33 0 55.5 4.5t36.5 10.5t21 13t11 13q-1 13 -1 21.5v11.5l78 6l5 -123q2 -48 18 -64.5t55 -16.5q34 0 49 7t20 19q3 8 6.5 30.5t6.5 47t5.5 44t2.5 21.5h77q-4 -31 -7 -62.5t-8 -63.5q14 -9 33 -18.5t39 -17.5t40.5 -13.5t37.5 -8.5l-19 237z " />
<glyph unicode="&#xfeb4;&#xfee6;" horiz-adv-x="1300" d="M262 243q-10 8 -20 18q-10 8 -19.5 18.5t-18.5 22.5q9 12 19 23t19 19q10 10 20 18q10 -8 21 -18q9 -8 19.5 -19t19.5 -23q-9 -12 -19.5 -22.5t-19.5 -18.5q-11 -10 -21 -18zM1315 91v-88l-16 -3q-49 0 -83.5 10.5t-57.5 33.5q-16 -20 -43.5 -32t-80.5 -12 q-41 0 -67.5 11t-43.5 32q-13 -17 -37.5 -30t-71.5 -13q-70 0 -104.5 34t-39.5 91q-2 10 -2.5 22.5t-1.5 26.5q-17 -28 -52 -39t-67 -11q-27 0 -43 11q5 -33 8 -62t3 -52q0 -32 -11 -64t-37 -61q-29 -32 -85 -55t-128 -23t-116 21.5t-68.5 53.5t-32.5 69.5t-8 69.5 q0 38 6 70t13 57q8 28 19 51h77q-11 -25 -20 -51q-9 -24 -15 -51t-6 -55q0 -18 3.5 -42.5t19.5 -46t47.5 -37t86.5 -15.5q41 0 74.5 9t57 21t36.5 24.5t13 20.5q0 10 -2 28t-5.5 40t-7.5 46.5t-9 48.5q-11 56 -24 120l83 13q2 -8 3.5 -16.5t3.5 -16.5q6 -16 17 -24t37 -8 q33 0 55.5 4.5t36.5 10.5t21 13t11 13q-1 13 -1 21.5v11.5l78 6l5 -123q2 -48 18 -64.5t55 -16.5q34 0 49 7t20 19q3 8 6.5 30.5t6.5 47t5.5 44t2.5 21.5h77q-4 -37 -8.5 -74.5t-10.5 -75.5q23 -20 75 -20q24 0 45 3.5t35 11.5q-4 9 -6 22q-2 14 -4 40t-3 52q-2 30 -4 64 l78 9q2 -27 4 -50t3.5 -43t2.5 -32q2 -18 6.5 -32.5t16 -24t32 -14.5t54.5 -5z" />
<glyph unicode="&#xfeb7;&#xfe8a;" horiz-adv-x="1133" d="M834 415q-9 7 -19 16q-8 8 -17 17.5t-17 20.5q8 12 17 22t17 17q10 9 19 16q9 -7 19 -16l17.5 -17.5t17.5 -21.5q-8 -11 -17.5 -20.5l-17.5 -17.5q-10 -9 -19 -16zM783 313q-10 8 -20 17q-9 8 -18 17.5t-17 20.5q8 12 17.5 22.5t17.5 18.5q10 9 20 17q9 -7 18 -16 q8 -7 17 -16.5t17 -20.5q8 11 17.5 20.5l16.5 16.5q9 9 18 16q10 -8 19 -17t18.5 -19t18.5 -22q-9 -11 -18.5 -21t-18.5 -17q-9 -9 -19 -17q-9 7 -18 15q-8 7 -17 16t-17 20q-8 -11 -17.5 -20t-16.5 -16q-9 -8 -18 -15zM188 199q-23 -5 -67.5 -11.5t-95.5 -6.5v50 q8 0 15 0.5t13 1.5q-5 6 -8.5 15t-3.5 20q0 14 6 28.5t16 26t24 19t30 7.5q14 0 26 -6.5t19 -15.5l-8 -48q-9 8 -18 12t-21 4q-20 0 -30 -10.5t-10 -16.5q0 -8 10 -18t33 -10q14 0 35.5 3.5t34.5 7.5v-52zM1073 326q5 -57 9 -106q2 -29 3.5 -47.5t2.5 -35t2 -30.5t1 -21 q0 -15 -7.5 -32.5t-19.5 -32.5t-26 -25.5t-26 -10.5q-13 0 -35.5 4t-48.5 12.5t-53 21.5t-50 30q-10 -19 -34 -36t-74 -17q-23 0 -42 6t-36 19.5t-32.5 37t-31.5 57.5q-10 22 -19 41t-19.5 33.5t-25 22.5t-34.5 8q-22 0 -47 -7.5t-46 -18.5t-35 -24t-14 -24q0 -9 10.5 -17.5 t27 -16t37 -14.5t39.5 -13q72 -23 106 -53t34 -72q0 -16 -5.5 -46t-31.5 -61q-13 -17 -38.5 -35.5t-61 -34.5t-80 -26t-96.5 -10q-72 0 -118 20.5t-73 52t-37 68.5t-10 70q0 38 6 70.5t13 57.5q8 29 19 53h77q-11 -25 -20 -53q-9 -25 -15 -52t-6 -55q0 -18 5.5 -42t23 -45.5 t51 -36.5t89.5 -15q46 0 89 10.5t76 25.5t53 30.5t20 26.5q0 15 -22.5 31.5t-73.5 33.5q-53 18 -84 31t-51 39q-17 23 -17.5 47.5t4.5 47.5q6 29 28 55.5t52.5 47t65.5 33t67 12.5q36 0 59.5 -12t39 -31.5t26.5 -44t23 -50.5q9 -19 16.5 -34.5t17 -27t21.5 -17.5t30 -6 q31 0 43 7.5t17 19.5q2 8 5.5 30.5t7 47t6 44t2.5 21.5h76q-4 -31 -7 -63t-8 -64q15 -9 34 -18t39 -17t40 -13.5t37 -8.5l-19 237z" />
<glyph unicode="&#xfeb8;&#xfe8a;" horiz-adv-x="1194" d="M834 415q-9 7 -19 16q-8 8 -17 17.5t-17 20.5q8 12 17 22t17 17q10 9 19 16q9 -7 19 -16l17.5 -17.5t17.5 -21.5q-8 -11 -17.5 -20.5l-17.5 -17.5q-10 -9 -19 -16zM783 313q-10 8 -20 17q-9 8 -18 17.5t-17 20.5q8 12 17.5 22.5t17.5 18.5q10 9 20 17q9 -7 18 -16 q8 -7 17 -16.5t17 -20.5q8 11 17.5 20.5l16.5 16.5q9 9 18 16q10 -8 19 -17t18.5 -19t18.5 -22q-9 -11 -18.5 -21t-18.5 -17q-9 -9 -19 -17q-9 7 -18 15q-8 7 -17 16t-17 20q-8 -11 -17.5 -20t-16.5 -16q-9 -8 -18 -15zM188 199q-23 -5 -67.5 -11.5t-95.5 -6.5v50 q8 0 15 0.5t13 1.5q-5 6 -8.5 15t-3.5 20q0 14 6 28.5t16 26t24 19t30 7.5q14 0 26 -6.5t19 -15.5l-8 -48q-9 8 -18 12t-21 4q-20 0 -30 -10.5t-10 -16.5q0 -8 10 -18t33 -10q14 0 35.5 3.5t34.5 7.5v-52zM1211 91v-88l-16 -3q-98 0 -141 44q-17 -19 -44.5 -31.5 t-80.5 -12.5q-40 0 -67 11t-44 31q-12 -17 -35 -29.5t-66 -12.5q-23 0 -42 6t-36 19.5t-32.5 37t-31.5 57.5q-10 22 -19 41t-19.5 33.5t-25 22.5t-34.5 8q-22 0 -47 -7.5t-46 -18.5t-35 -24t-14 -24q0 -9 10.5 -17.5t27 -16t37 -14.5t39.5 -13q72 -23 106 -53t34 -72 q0 -16 -5.5 -46t-31.5 -61q-13 -17 -38.5 -35.5t-61 -34.5t-80 -26t-96.5 -10q-72 0 -118 20.5t-73 52t-37 68.5t-10 70q0 38 6 70.5t13 57.5q8 29 19 53h75q-11 -25 -20 -53q-9 -25 -15 -52t-6 -55q0 -18 6 -42t24 -45.5t51.5 -36.5t89.5 -15q46 0 89 10.5t76 25.5t53 30.5 t20 26.5q0 15 -22.5 31.5t-73.5 33.5q-53 18 -84 31t-51 39q-17 23 -17.5 47.5t4.5 47.5q6 29 28 55.5t52.5 47t65.5 33t67 12.5q36 0 59.5 -12t39 -31.5t26.5 -44t23 -50.5q9 -19 16.5 -34.5t17 -27t21.5 -17.5t30 -6q31 0 43 7.5t17 19.5q2 8 5.5 30.5t7 47t6 44t2.5 21.5 h76q-4 -37 -8.5 -75t-9.5 -76q11 -10 30.5 -14.5t43.5 -4.5t45 3.5t35 11.5q-2 5 -3 10.5t-2 11.5q-2 14 -4 40t-3 52q-2 30 -4 64l78 9q2 -27 4 -50t3.5 -43t2.5 -32q2 -18 6.5 -32.5t16 -24t32 -14.5t54.5 -5z" />
<glyph unicode="&#xfeb7;&#xfee6;" horiz-adv-x="1239" d="M939 415q-9 7 -19 16q-8 8 -17 17.5t-17 20.5q8 12 17 22t17 17q10 9 19 16q9 -7 19 -16l17.5 -17.5t17.5 -21.5q-8 -11 -17.5 -20.5l-17.5 -17.5q-10 -9 -19 -16zM888 313q-10 8 -20 17q-9 8 -18 17.5t-17 20.5q8 12 17.5 22.5t17.5 18.5q10 9 20 17q9 -7 18 -16 q8 -7 17 -16.5t17 -20.5q8 11 17.5 20.5l16.5 16.5q9 9 18 16q10 -8 19 -17t18.5 -19t18.5 -22q-9 -11 -18.5 -21t-18.5 -17q-9 -9 -19 -17q-9 7 -18 15q-8 7 -17 16t-17 20q-8 -11 -17.5 -20t-16.5 -16q-9 -8 -18 -15zM262 243q-10 8 -20 18q-10 8 -19.5 18.5t-18.5 22.5 q9 12 19 23t19 19q10 10 20 18q10 -8 21 -18q9 -8 19.5 -19t19.5 -23q-9 -12 -19.5 -22.5t-19.5 -18.5q-11 -10 -21 -18zM1178 326q5 -57 9 -106q2 -29 3.5 -47.5t2.5 -35t2 -30.5t1 -21q0 -15 -7.5 -32.5t-19.5 -32.5t-26 -25.5t-26 -10.5q-13 0 -35.5 4t-48.5 12.5 t-53 21.5t-50 31q-11 -19 -37 -36.5t-80 -17.5q-68 0 -103 34t-40 91q-2 10 -2.5 22.5t-1.5 26.5q-17 -28 -52 -39t-67 -11q-27 0 -43 11q5 -33 8 -62t3 -52q0 -32 -11 -64t-37 -61q-29 -32 -85 -55t-128 -23t-116 21.5t-68.5 53.5t-32.5 69.5t-8 69.5q0 38 6 70t13 57 q8 28 19 51h77q-11 -25 -20 -51q-9 -24 -15 -51t-6 -55q0 -18 3.5 -42.5t19.5 -46t47.5 -37t86.5 -15.5q41 0 74.5 9t57 21t36.5 24.5t13 20.5q0 10 -2 28t-5.5 40t-7.5 46.5t-9 48.5q-11 56 -24 120l83 13q2 -8 3.5 -16.5t3.5 -16.5q6 -16 17 -24t37 -8q33 0 55.5 4.5 t36.5 10.5t21 13t11 13q-1 13 -1 21.5v11.5l78 6l5 -123q2 -48 18 -64.5t55 -16.5q34 0 49 7t20 19q3 8 6.5 30.5t6.5 47t5.5 44t2.5 21.5h77q-4 -31 -7 -62.5t-8 -63.5q14 -9 33 -18.5t39 -17.5t40.5 -13.5t37.5 -8.5l-19 237z" />
<glyph unicode="&#xfeb8;&#xfee6;" horiz-adv-x="1300" d="M939 415q-9 7 -19 16q-8 8 -17 17.5t-17 20.5q8 12 17 22t17 17q10 9 19 16q9 -7 19 -16l17.5 -17.5t17.5 -21.5q-8 -11 -17.5 -20.5l-17.5 -17.5q-10 -9 -19 -16zM888 313q-10 8 -20 17q-9 8 -18 17.5t-17 20.5q8 12 17.5 22.5t17.5 18.5q10 9 20 17q9 -7 18 -16 q8 -7 17 -16.5t17 -20.5q8 11 17.5 20.5l16.5 16.5q9 9 18 16q10 -8 19 -17t18.5 -19t18.5 -22q-9 -11 -18.5 -21t-18.5 -17q-9 -9 -19 -17q-9 7 -18 15q-8 7 -17 16t-17 20q-8 -11 -17.5 -20t-16.5 -16q-9 -8 -18 -15zM262 243q-10 8 -20 18q-10 8 -19.5 18.5t-18.5 22.5 q9 12 19 23t19 19q10 10 20 18q10 -8 21 -18q9 -8 19.5 -19t19.5 -23q-9 -12 -19.5 -22.5t-19.5 -18.5q-11 -10 -21 -18zM1315 91v-88l-16 -3q-49 0 -83.5 10.5t-57.5 33.5q-16 -20 -43.5 -32t-80.5 -12q-41 0 -67.5 11t-43.5 32q-13 -17 -37.5 -30t-71.5 -13 q-70 0 -104.5 34t-39.5 91q-2 10 -2.5 22.5t-1.5 26.5q-17 -28 -52 -39t-67 -11q-27 0 -43 11q5 -33 8 -62t3 -52q0 -32 -11 -64t-37 -61q-29 -32 -85 -55t-128 -23t-116 21.5t-68.5 53.5t-32.5 69.5t-8 69.5q0 38 6 70t13 57q8 28 19 51h77q-11 -25 -20 -51q-9 -24 -15 -51 t-6 -55q0 -18 3.5 -42.5t19.5 -46t47.5 -37t86.5 -15.5q41 0 74.5 9t57 21t36.5 24.5t13 20.5q0 10 -2 28t-5.5 40t-7.5 46.5t-9 48.5q-11 56 -24 120l83 13q2 -8 3.5 -16.5t3.5 -16.5q6 -16 17 -24t37 -8q33 0 55.5 4.5t36.5 10.5t21 13t11 13q-1 13 -1 21.5v11.5l78 6 l5 -123q2 -48 18 -64.5t55 -16.5q34 0 49 7t20 19q3 8 6.5 30.5t6.5 47t5.5 44t2.5 21.5h77q-4 -37 -8.5 -74.5t-10.5 -75.5q23 -20 75 -20q24 0 45 3.5t35 11.5q-4 9 -6 22q-2 14 -4 40t-3 52q-2 30 -4 64l78 9q2 -27 4 -50t3.5 -43t2.5 -32q2 -18 6.5 -32.5t16 -24 t32 -14.5t54.5 -5z" />
<glyph unicode="&#xfebb;&#xfe8a;" horiz-adv-x="1187" d="M956 380q42 0 77 -20.5t61 -51.5t40.5 -68t14.5 -70q0 -52 -30 -85.5t-78 -52t-108.5 -25.5t-121.5 -7h-11q-47 0 -83 5.5t-64 19t-49 36.5t-38 59q-10 22 -19 41t-19.5 33.5t-25 22.5t-34.5 8q-22 0 -47 -7.5t-46 -18.5t-35 -24t-14 -24q0 -9 10.5 -17.5t27 -16 t37 -14.5t39.5 -13q72 -23 107.5 -53t35.5 -72q0 -16 -5.5 -46t-31.5 -61q-14 -17 -40 -35.5t-62 -34.5t-80.5 -26t-96.5 -10q-72 0 -118 20.5t-73 52t-37 68.5t-10 70q0 38 6 70.5t13 57.5q8 29 19 53h77q-11 -25 -20 -53q-9 -25 -15 -52t-6 -55q0 -18 5.5 -42t23 -45.5 t51 -36.5t89.5 -15q46 0 89 10.5t76 25.5t53 30.5t20 26.5q0 15 -22.5 31.5t-73.5 33.5q-54 18 -85.5 31t-51.5 39q-17 23 -18 47.5t4 47.5q6 29 28.5 55.5t53.5 47t66.5 33t67.5 12.5q36 0 59 -12t39 -31.5t27 -44.5t23 -50q6 -12 11 -23t13 -20q24 37 56.5 80t71.5 79.5 t84 61t93 24.5zM188 199q-23 -5 -67.5 -11.5t-95.5 -6.5v50q8 0 15 0.5t13 1.5q-5 6 -8.5 15t-3.5 20q0 14 6 28.5t16 26t24 19t30 7.5q14 0 26 -6.5t19 -15.5l-8 -48q-9 8 -18 12t-21 4q-20 0 -30 -10.5t-10 -16.5q0 -8 10 -18t33 -10q14 0 35.5 3.5t34.5 7.5v-52zM817 93 q46 0 93 4.5t85 12.5t62 21t24 29q0 12 -10 33t-28.5 41.5t-44.5 36t-58 15.5q-36 0 -70.5 -18t-65.5 -45t-57.5 -59t-45.5 -60q18 -5 43.5 -8t60.5 -3h12z" />
<glyph unicode="&#xfebc;&#xfe8a;" horiz-adv-x="1238" d="M1254 91v-88l-16 -3q-42 0 -84 10t-74 41q-50 -30 -121.5 -40.5t-146.5 -10.5h-11q-47 0 -83 5.5t-64 19t-49 36.5t-38 59q-10 22 -19 41t-19.5 33.5t-25 22.5t-34.5 8q-22 0 -47 -7.5t-46 -18.5t-35 -24t-14 -24q0 -9 10.5 -17.5t27 -16t37 -14.5t39.5 -13 q72 -23 107.5 -53t35.5 -72q0 -16 -5.5 -46t-31.5 -61q-14 -17 -40 -35.5t-62 -34.5t-80.5 -26t-96.5 -10q-72 0 -118 20.5t-73 52t-37 68.5t-10 70q0 38 6 70.5t13 57.5q8 29 19 53h77q-11 -25 -20 -53q-9 -25 -15 -52t-6 -55q0 -18 5.5 -42t23 -45.5t51 -36.5t89.5 -15 q46 0 89 10.5t76 25.5t53 30.5t20 26.5q0 15 -22.5 31.5t-73.5 33.5q-54 18 -85.5 31t-51.5 39q-17 23 -18 47.5t4 47.5q6 29 28.5 55.5t53.5 47t66.5 33t67.5 12.5q36 0 59 -12t39 -31.5t27 -44.5t23 -50q6 -12 11 -23t13 -20q24 37 56.5 80t71.5 79.5t84 61t93 24.5 q42 0 77 -20.5t61 -51.5t40.5 -68t14.5 -70q0 -31 -12 -57q17 -8 41 -13.5t59 -5.5zM188 199q-23 -5 -67.5 -11.5t-95.5 -6.5v50q8 0 15 0.5t13 1.5q-5 6 -8.5 15t-3.5 20q0 14 6 28.5t16 26t24 19t30 7.5q14 0 26 -6.5t19 -15.5l-8 -48q-9 8 -18 12t-21 4q-20 0 -30 -10.5 t-10 -16.5q0 -8 10 -18t33 -10q14 0 35.5 3.5t34.5 7.5v-52zM818 93q46 0 93 4.5t85 12.5t62 21t24 29q0 12 -10 33t-28.5 41.5t-44.5 36t-58 15.5q-36 0 -70.5 -18t-65.5 -45t-57.5 -59t-45.5 -60q18 -5 43.5 -8t60.5 -3h12z" />
<glyph unicode="&#xfebb;&#xfee6;" horiz-adv-x="1327" d="M1095 380q42 0 77 -20.5t61 -51.5t40.5 -68t14.5 -70q0 -52 -30 -85.5t-78 -52t-108.5 -25.5t-121.5 -7h-12q-55 0 -103 7t-84 24t-58 46.5t-25 74.5q-1 5 -1 11t-1 12q-8 -15 -22 -24.5t-30 -15.5t-33.5 -8.5t-33.5 -2.5q-27 0 -43 11q5 -33 8 -62t3 -52q0 -32 -11 -64 t-37 -61q-29 -32 -85 -55t-128 -23t-116 21.5t-68.5 53.5t-32.5 69.5t-8 69.5q0 38 6 70t13 57q8 28 19 51h77q-11 -25 -20 -51q-9 -24 -15 -51t-6 -55q0 -18 3.5 -42.5t19.5 -46t47.5 -37t86.5 -15.5q41 0 74.5 9t57 21t36.5 24.5t13 20.5q0 10 -2 28t-5.5 40t-7.5 46.5 t-9 48.5q-11 56 -24 120l83 13q2 -8 3.5 -16.5t3.5 -16.5q6 -16 17 -24t37 -8q34 0 56 4.5t36 11t21.5 13.5t10.5 13q-1 12 -1 20.5v11.5l78 6l5 -113q1 -47 36 -68q23 37 56 82.5t73.5 85.5t88 67.5t98.5 27.5zM262 243q-10 8 -20 18q-10 8 -19.5 18.5t-18.5 22.5 q9 12 19 23t19 19q10 10 20 18q10 -8 21 -18q9 -8 19.5 -19t19.5 -23q-9 -12 -19.5 -22.5t-19.5 -18.5q-11 -10 -21 -18zM956 93q46 0 92.5 4.5t84.5 12.5t62 21t24 29q0 12 -10 33t-28 41.5t-44 36t-58 15.5q-37 0 -72 -18.5t-66.5 -46.5t-58 -61t-45.5 -61q42 -6 106 -6 h13z" />
<glyph unicode="&#xfebc;&#xfee6;" horiz-adv-x="1374" d="M1390 91v-88l-16 -3q-41 0 -83 10t-74 40q-50 -29 -121.5 -39.5t-145.5 -10.5h-12q-55 0 -103 7t-84 24t-58 46.5t-25 74.5q-1 5 -1 11t-1 12q-8 -15 -22 -24.5t-30 -15.5t-33.5 -8.5t-33.5 -2.5q-27 0 -43 11q5 -33 8 -62t3 -52q0 -32 -11 -64t-37 -61q-29 -32 -85 -55 t-128 -23t-116 21.5t-68.5 53.5t-32.5 69.5t-8 69.5q0 38 6 70t13 57q8 28 19 51h77q-11 -25 -20 -51q-9 -24 -15 -51t-6 -55q0 -18 3.5 -42.5t19.5 -46t47.5 -37t86.5 -15.5q41 0 74.5 9t57 21t36.5 24.5t13 20.5q0 10 -2 28t-5.5 40t-7.5 46.5t-9 48.5q-11 56 -24 120 l83 13q2 -8 3.5 -16.5t3.5 -16.5q6 -16 17 -24t37 -8q34 0 56 4.5t36 11t21.5 13.5t10.5 13q-1 12 -1 20.5v11.5l78 6l5 -113q1 -47 36 -68q23 37 56 82.5t73.5 85.5t88 67.5t98.5 27.5q42 0 77 -20.5t61 -51.5t40.5 -68t14.5 -70q0 -32 -12 -58q17 -8 40.5 -13t57.5 -5z M262 243q-10 8 -20 18q-10 8 -19.5 18.5t-18.5 22.5q9 12 19 23t19 19q10 10 20 18q10 -8 21 -18q9 -8 19.5 -19t19.5 -23q-9 -12 -19.5 -22.5t-19.5 -18.5q-11 -10 -21 -18zM956 93q46 0 92.5 4.5t84.5 12.5t62 21t24 29q0 12 -10 33t-28 41.5t-44 36t-58 15.5 q-37 0 -72 -18.5t-66.5 -46.5t-58 -61t-45.5 -61q42 -6 106 -6h13z" />
<glyph unicode="&#xfebf;&#xfe8a;" horiz-adv-x="1187" d="M938 427q-10 8 -20 18q-10 8 -19.5 18.5t-18.5 22.5q9 12 19 23t19 19q10 10 20 18q10 -8 21 -18q9 -8 19.5 -19t19.5 -23q-9 -12 -19.5 -22.5t-19.5 -18.5q-11 -10 -21 -18zM956 380q42 0 77 -20.5t61 -51.5t40.5 -68t14.5 -70q0 -52 -30 -85.5t-78 -52t-108.5 -25.5 t-121.5 -7h-11q-47 0 -83 5.5t-64 19t-49 36.5t-38 59q-10 22 -19 41t-19.5 33.5t-25 22.5t-34.5 8q-22 0 -47 -7.5t-46 -18.5t-35 -24t-14 -24q0 -9 10.5 -17.5t27 -16t37 -14.5t39.5 -13q72 -23 107.5 -53t35.5 -72q0 -16 -5.5 -46t-31.5 -61q-14 -17 -40 -35.5t-62 -34.5 t-80.5 -26t-96.5 -10q-72 0 -118 20.5t-73 52t-37 68.5t-10 70q0 38 6 70.5t13 57.5q8 29 19 53h77q-11 -25 -20 -53q-9 -25 -15 -52t-6 -55q0 -18 5.5 -42t23 -45.5t51 -36.5t89.5 -15q46 0 89 10.5t76 25.5t53 30.5t20 26.5q0 15 -22.5 31.5t-73.5 33.5q-54 18 -85.5 31 t-51.5 39q-17 23 -18 47.5t4 47.5q6 29 28.5 55.5t53.5 47t66.5 33t67.5 12.5q36 0 59 -12t39 -31.5t27 -44.5t23 -50q6 -12 11 -23t13 -20q24 37 56.5 80t71.5 79.5t84 61t93 24.5zM188 199q-23 -5 -67.5 -11.5t-95.5 -6.5v50q8 0 15 0.5t13 1.5q-5 6 -8.5 15t-3.5 20 q0 14 6 28.5t16 26t24 19t30 7.5q14 0 26 -6.5t19 -15.5l-8 -48q-9 8 -18 12t-21 4q-20 0 -30 -10.5t-10 -16.5q0 -8 10 -18t33 -10q14 0 35.5 3.5t34.5 7.5v-52zM817 93q46 0 93 4.5t85 12.5t62 21t24 29q0 12 -10 33t-28.5 41.5t-44.5 36t-58 15.5q-36 0 -70.5 -18 t-65.5 -45t-57.5 -59t-45.5 -60q18 -5 43.5 -8t60.5 -3h12z" />
<glyph unicode="&#xfec0;&#xfe8a;" horiz-adv-x="1238" d="M938 427q-10 8 -20 18q-10 8 -19.5 18.5t-18.5 22.5q9 12 19 23t19 19q10 10 20 18q10 -8 21 -18q9 -8 19.5 -19t19.5 -23q-9 -12 -19.5 -22.5t-19.5 -18.5q-11 -10 -21 -18zM1254 91v-88l-16 -3q-42 0 -84 10t-74 41q-50 -30 -121.5 -40.5t-146.5 -10.5h-11 q-47 0 -83 5.5t-64 19t-49 36.5t-38 59q-10 22 -19 41t-19.5 33.5t-25 22.5t-34.5 8q-22 0 -47 -7.5t-46 -18.5t-35 -24t-14 -24q0 -9 10.5 -17.5t27 -16t37 -14.5t39.5 -13q72 -23 107.5 -53t35.5 -72q0 -16 -5.5 -46t-31.5 -61q-14 -17 -40 -35.5t-62 -34.5t-80.5 -26 t-96.5 -10q-72 0 -118 20.5t-73 52t-37 68.5t-10 70q0 38 6 70.5t13 57.5q8 29 19 53h77q-11 -25 -20 -53q-9 -25 -15 -52t-6 -55q0 -18 5.5 -42t23 -45.5t51 -36.5t89.5 -15q46 0 89 10.5t76 25.5t53 30.5t20 26.5q0 15 -22.5 31.5t-73.5 33.5q-54 18 -85.5 31t-51.5 39 q-17 23 -18 47.5t4 47.5q6 29 28.5 55.5t53.5 47t66.5 33t67.5 12.5q36 0 59 -12t39 -31.5t27 -44.5t23 -50q6 -12 11 -23t13 -20q24 37 56.5 80t71.5 79.5t84 61t93 24.5q42 0 77 -20.5t61 -51.5t40.5 -68t14.5 -70q0 -31 -12 -57q17 -8 41 -13.5t59 -5.5zM188 199 q-23 -5 -67.5 -11.5t-95.5 -6.5v50q8 0 15 0.5t13 1.5q-5 6 -8.5 15t-3.5 20q0 14 6 28.5t16 26t24 19t30 7.5q14 0 26 -6.5t19 -15.5l-8 -48q-9 8 -18 12t-21 4q-20 0 -30 -10.5t-10 -16.5q0 -8 10 -18t33 -10q14 0 35.5 3.5t34.5 7.5v-52zM818 93q46 0 93 4.5t85 12.5 t62 21t24 29q0 12 -10 33t-28.5 41.5t-44.5 36t-58 15.5q-36 0 -70.5 -18t-65.5 -45t-57.5 -59t-45.5 -60q18 -5 43.5 -8t60.5 -3h12z" />
<glyph unicode="&#xfebf;&#xfee6;" horiz-adv-x="1327" d="M1077 427q-10 8 -20 18q-10 8 -19.5 18.5t-18.5 22.5q9 12 19 23t19 19q10 10 20 18q10 -8 21 -18q9 -8 19.5 -19t19.5 -23q-9 -12 -19.5 -22.5t-19.5 -18.5q-11 -10 -21 -18zM1095 380q42 0 77 -20.5t61 -51.5t40.5 -68t14.5 -70q0 -52 -30 -85.5t-78 -52t-108.5 -25.5 t-121.5 -7h-12q-55 0 -103 7t-84 24t-58 46.5t-25 74.5q-1 5 -1 11t-1 12q-8 -15 -22 -24.5t-30 -15.5t-33.5 -8.5t-33.5 -2.5q-27 0 -43 11q5 -33 8 -62t3 -52q0 -32 -11 -64t-37 -61q-29 -32 -85 -55t-128 -23t-116 21.5t-68.5 53.5t-32.5 69.5t-8 69.5q0 38 6 70t13 57 q8 28 19 51h77q-11 -25 -20 -51q-9 -24 -15 -51t-6 -55q0 -18 3.5 -42.5t19.5 -46t47.5 -37t86.5 -15.5q41 0 74.5 9t57 21t36.5 24.5t13 20.5q0 10 -2 28t-5.5 40t-7.5 46.5t-9 48.5q-11 56 -24 120l83 13q2 -8 3.5 -16.5t3.5 -16.5q6 -16 17 -24t37 -8q34 0 56 4.5t36 11 t21.5 13.5t10.5 13q-1 12 -1 20.5v11.5l78 6l5 -113q1 -47 36 -68q23 37 56 82.5t73.5 85.5t88 67.5t98.5 27.5zM262 243q-10 8 -20 18q-10 8 -19.5 18.5t-18.5 22.5q9 12 19 23t19 19q10 10 20 18q10 -8 21 -18q9 -8 19.5 -19t19.5 -23q-9 -12 -19.5 -22.5t-19.5 -18.5 q-11 -10 -21 -18zM956 93q46 0 92.5 4.5t84.5 12.5t62 21t24 29q0 12 -10 33t-28 41.5t-44 36t-58 15.5q-37 0 -72 -18.5t-66.5 -46.5t-58 -61t-45.5 -61q42 -6 106 -6h13z" />
<glyph unicode="&#xfec0;&#xfee6;" horiz-adv-x="1374" d="M1077 427q-10 8 -20 18q-10 8 -19.5 18.5t-18.5 22.5q9 12 19 23t19 19q10 10 20 18q10 -8 21 -18q9 -8 19.5 -19t19.5 -23q-9 -12 -19.5 -22.5t-19.5 -18.5q-11 -10 -21 -18zM1390 91v-88l-16 -3q-41 0 -83 10t-74 40q-50 -29 -121.5 -39.5t-145.5 -10.5h-12 q-55 0 -103 7t-84 24t-58 46.5t-25 74.5q-1 5 -1 11t-1 12q-8 -15 -22 -24.5t-30 -15.5t-33.5 -8.5t-33.5 -2.5q-27 0 -43 11q5 -33 8 -62t3 -52q0 -32 -11 -64t-37 -61q-29 -32 -85 -55t-128 -23t-116 21.5t-68.5 53.5t-32.5 69.5t-8 69.5q0 38 6 70t13 57q8 28 19 51h77 q-11 -25 -20 -51q-9 -24 -15 -51t-6 -55q0 -18 3.5 -42.5t19.5 -46t47.5 -37t86.5 -15.5q41 0 74.5 9t57 21t36.5 24.5t13 20.5q0 10 -2 28t-5.5 40t-7.5 46.5t-9 48.5q-11 56 -24 120l83 13q2 -8 3.5 -16.5t3.5 -16.5q6 -16 17 -24t37 -8q34 0 56 4.5t36 11t21.5 13.5 t10.5 13q-1 12 -1 20.5v11.5l78 6l5 -113q1 -47 36 -68q23 37 56 82.5t73.5 85.5t88 67.5t98.5 27.5q42 0 77 -20.5t61 -51.5t40.5 -68t14.5 -70q0 -32 -12 -58q17 -8 40.5 -13t57.5 -5zM262 243q-10 8 -20 18q-10 8 -19.5 18.5t-18.5 22.5q9 12 19 23t19 19q10 10 20 18 q10 -8 21 -18q9 -8 19.5 -19t19.5 -23q-9 -12 -19.5 -22.5t-19.5 -18.5q-11 -10 -21 -18zM956 93q46 0 92.5 4.5t84.5 12.5t62 21t24 29q0 12 -10 33t-28 41.5t-44 36t-58 15.5q-37 0 -72 -18.5t-66.5 -46.5t-58 -61t-45.5 -61q42 -6 106 -6h13z" />
<glyph unicode="&#xfedb;&#xfe8a;" horiz-adv-x="828" d="M520 411q69 -31 117.5 -66t78.5 -68.5t44 -64.5t14 -55q0 -32 -12 -61t-39 -49q-21 -16 -57 -26.5t-99 -15.5q12 -17 12 -36t-5 -49t-30 -62q-14 -17 -38 -36.5t-58 -35.5t-77.5 -26.5t-96.5 -10.5q-71 0 -117 20.5t-72.5 52t-36.5 69t-10 70.5q0 38 6 70.5t13 57.5 q8 28 19 52h77q-11 -25 -20 -52q-9 -25 -15 -52t-6 -55q0 -19 5.5 -43t23.5 -45.5t51.5 -36t89.5 -14.5q47 0 88.5 11t73 26t49.5 31t18 27t-9 22t-25.5 20t-39.5 14.5t-51 5.5h-1l18 94h34q136 0 202 14.5t66 32.5q0 11 -11 33.5t-41 52t-83 64t-137 68.5v90l377 224l8 -94 zM188 195q-23 -5 -67.5 -11.5t-95.5 -6.5v50q8 0 15 0.5t13 1.5q-5 6 -8.5 15t-3.5 20q0 14 6 28.5t16 26t24 19t30 7.5q14 0 26 -6.5t19 -15.5l-8 -48q-9 8 -18 12t-21 4q-20 0 -30 -10.5t-10 -16.5q0 -8 10 -18t33 -10q14 0 35.5 3.5t34.5 7.5v-52z" />
<glyph unicode="&#xfedc;&#xfe8a;" horiz-adv-x="876" d="M892 91v-88l-16 -3q-40 0 -69.5 6t-52.5 18.5t-42 31.5t-37 44q-8 -18 -20 -35.5t-32 -28.5q-13 -8 -29 -13t-33 -10q18 -20 18 -44q0 -19 -5 -49t-30 -62q-14 -17 -38 -36.5t-58 -35.5t-77.5 -26.5t-96.5 -10.5q-71 0 -117 20.5t-72.5 52t-36.5 69t-10 70.5q0 38 6 70.5 t13 57.5q8 28 19 52h77q-11 -25 -20 -52q-9 -25 -15 -52t-6 -55q0 -19 5.5 -43t23.5 -45.5t51.5 -36t89.5 -14.5q47 0 88.5 11t73 26t49.5 31t18 27t-9 22t-25.5 20t-39.5 14.5t-51 5.5h-1l18 94h16q44 0 80 4t62.5 10t41 14t14.5 15h1q0 6 -10 27t-36 62q-14 22 -31 45.5 t-33 44t-27 35.5t-13 19t-0.5 19.5t5.5 32.5t9.5 31.5t10.5 16.5l327 207l9 -93l-284 -175q18 -23 43.5 -57t52.5 -73q33 -46 58 -81t50 -58t54.5 -34.5t72.5 -11.5zM188 195q-23 -5 -67.5 -11.5t-95.5 -6.5v50q8 0 15 0.5t13 1.5q-5 6 -8.5 15t-3.5 20q0 14 6 28.5t16 26 t24 19t30 7.5q14 0 26 -6.5t19 -15.5l-8 -48q-9 8 -18 12t-21 4q-20 0 -30 -10.5t-10 -16.5q0 -8 10 -18t33 -10q14 0 35.5 3.5t34.5 7.5v-52z" />
<glyph unicode="&#xfedf;&#xfe8a;" horiz-adv-x="714" d="M656 686v-492q0 -66 -18.5 -102t-44.5 -56q-16 -12 -34 -20q23 -23 23 -47q0 -20 -5 -49.5t-30 -61.5q-14 -17 -38.5 -36.5t-59 -35.5t-78.5 -26.5t-97 -10.5q-71 0 -117 20.5t-72.5 52t-36.5 69t-10 70.5q0 38 6 70.5t13 57.5q8 28 19 52h77q-11 -25 -20 -52 q-9 -25 -15 -52t-6 -55q0 -19 5.5 -43t23.5 -45.5t51.5 -36t89.5 -14.5q47 0 88.5 11t73 26t49.5 31t18 27t-10 22t-27.5 20t-41.5 14.5t-52 5.5l27 94h52q62 0 88.5 17t26.5 34v533zM188 195q-23 -5 -67.5 -11.5t-95.5 -6.5v50q8 0 15 0.5t13 1.5q-5 6 -8.5 15t-3.5 20 q0 14 6 28.5t16 26t24 19t30 7.5q14 0 26 -6.5t19 -15.5l-8 -48q-9 8 -18 12t-21 4q-20 0 -30 -10.5t-10 -16.5q0 -8 10 -18t33 -10q14 0 35.5 3.5t34.5 7.5v-52z" />
<glyph unicode="&#xfee0;&#xfe8a;" horiz-adv-x="762" d="M779 91v-88l-16 -3q-54 0 -85.5 19t-49.5 56q-8 -13 -16.5 -22t-18.5 -17q-16 -12 -34 -20q23 -23 23 -47q0 -20 -5 -49.5t-30 -61.5q-14 -17 -38.5 -36.5t-59 -35.5t-78.5 -26.5t-97 -10.5q-71 0 -117 20.5t-72.5 52t-36.5 69t-10 70.5q0 38 6 70.5t13 57.5q8 28 19 52 h77q-11 -25 -20 -52q-9 -25 -15 -52t-6 -55q0 -19 5.5 -43t23.5 -45.5t51.5 -36t89.5 -14.5q47 0 88.5 11t73 26t49.5 31t18 27t-10 22t-27.5 20t-41.5 14.5t-52 5.5l27 94h52q62 0 88.5 17t26.5 34v533l82 8v-460q0 -29 2 -53t12.5 -41.5t32 -27.5t60.5 -10zM188 195 q-23 -5 -67.5 -11.5t-95.5 -6.5v50q8 0 15 0.5t13 1.5q-5 6 -8.5 15t-3.5 20q0 14 6 28.5t16 26t24 19t30 7.5q14 0 26 -6.5t19 -15.5l-8 -48q-9 8 -18 12t-21 4q-20 0 -30 -10.5t-10 -16.5q0 -8 10 -18t33 -10q14 0 35.5 3.5t34.5 7.5v-52z" />
<glyph unicode="&#xfee7;&#xfe8a;" horiz-adv-x="704" d="M588 394q-10 8 -20 18q-10 8 -19.5 18.5t-18.5 22.5q9 12 19 23t19 19q10 10 20 18q10 -8 21 -18q9 -8 19.5 -19t19.5 -23q-9 -12 -19.5 -22.5t-19.5 -18.5q-11 -10 -21 -18zM631 359q4 -21 8.5 -48t8 -55t6 -54t2.5 -46q0 -39 -13.5 -68t-32.5 -46q-9 -9 -22 -16 t-29 -12q19 -22 19 -45q0 -19 -5 -49t-30 -62q-14 -17 -38 -36.5t-58 -35.5t-77.5 -26.5t-96.5 -10.5q-71 0 -117 20.5t-72.5 52t-36.5 69t-10 70.5q0 38 6 70.5t13 57.5q8 28 19 52h77q-11 -25 -20 -52q-9 -25 -15 -52t-6 -55q0 -19 5.5 -43t23.5 -45.5t51.5 -36 t89.5 -14.5q47 0 88.5 11t73 26t49.5 31t18 27t-9 22t-25.5 20t-39.5 14.5t-51 5.5h-1l18 94h51q70 0 98 11t28 25q0 32 -7 85.5t-19 128.5zM188 195q-23 -5 -67.5 -11.5t-95.5 -6.5v50q8 0 15 0.5t13 1.5q-5 6 -8.5 15t-3.5 20q0 14 6 28.5t16 26t24 19t30 7.5 q14 0 26 -6.5t19 -15.5l-8 -48q-9 8 -18 12t-21 4q-20 0 -30 -10.5t-10 -16.5q0 -8 10 -18t33 -10q14 0 35.5 3.5t34.5 7.5v-52z" />
<glyph unicode="&#xfee8;&#xfe8a;" horiz-adv-x="720" d="M486 355q-10 8 -20 18q-10 8 -19.5 18.5t-18.5 22.5q9 12 19 23t19 19q10 10 20 18q10 -8 21 -18q9 -8 19.5 -19t19.5 -23q-9 -12 -19.5 -22.5t-19.5 -18.5q-11 -10 -21 -18zM188 199q-23 -5 -67.5 -11.5t-95.5 -6.5v50q8 0 15 0.5t13 1.5q-5 6 -8.5 15t-3.5 20 q0 14 6 28.5t16 26t24 19t30 7.5q14 0 26 -6.5t19 -15.5l-8 -48q-9 8 -18 12t-21 4q-20 0 -30 -10.5t-10 -16.5q0 -8 10 -18t33 -10q14 0 35.5 3.5t34.5 7.5v-52zM737 91v-88l-16 -3q-27 0 -46.5 5t-36 19.5t-31 39t-32.5 63.5q-20 44 -43 71t-64 27q-22 0 -45.5 -7.5 t-43 -18.5t-32 -24t-12.5 -24q0 -9 10.5 -17.5t27 -16t37 -14.5t39.5 -13q72 -23 106 -53t34 -72q0 -16 -5.5 -46t-31.5 -61q-13 -17 -38.5 -35.5t-61 -34.5t-80 -26t-96.5 -10q-72 0 -118 20.5t-73 52t-37 68.5t-10 70q0 38 6 70.5t13 57.5q8 29 19 53h77q-11 -25 -20 -53 q-9 -25 -15 -52t-6 -55q0 -18 5.5 -42t23 -45.5t51 -36.5t89.5 -15q46 0 89 10.5t76 25.5t53 30.5t20 26.5q0 15 -22.5 31.5t-73.5 33.5q-53 18 -84 31t-51 39q-17 23 -17.5 47.5t4.5 47.5q6 29 26.5 55.5t49 47t62.5 33t66 12.5q34 0 58.5 -11t42.5 -29.5t31.5 -42 t24.5 -48.5q14 -31 23 -49t18 -27.5t19 -12t25 -2.5z" />
<glyph unicode="&#xfef4;&#xfe8a;" horiz-adv-x="720" d="M188 199q-23 -5 -67.5 -11.5t-95.5 -6.5v50q8 0 15 0.5t13 1.5q-5 6 -8.5 15t-3.5 20q0 14 6 28.5t16 26t24 19t30 7.5q14 0 26 -6.5t19 -15.5l-8 -48q-9 8 -18 12t-21 4q-20 0 -30 -10.5t-10 -16.5q0 -8 10 -18t33 -10q14 0 35.5 3.5t34.5 7.5v-52zM737 91v-88l-16 -3 q-27 0 -46.5 5t-36 19.5t-31 39t-32.5 63.5q-20 44 -43 71t-64 27q-22 0 -45.5 -7.5t-43 -18.5t-32 -24t-12.5 -24q0 -9 10.5 -17.5t27 -16t37 -14.5t39.5 -13q72 -23 106 -53t34 -72q0 -16 -5.5 -46t-31.5 -61q-13 -17 -38.5 -35.5t-61 -34.5t-80 -26t-96.5 -10 q-72 0 -118 20.5t-73 52t-37 68.5t-10 70q0 38 6 70.5t13 57.5q8 29 19 53h77q-11 -25 -20 -53q-9 -25 -15 -52t-6 -55q0 -18 5.5 -42t23 -45.5t51 -36.5t89.5 -15q46 0 89 10.5t76 25.5t53 30.5t20 26.5q0 15 -22.5 31.5t-73.5 33.5q-53 18 -84 31t-51 39 q-17 23 -17.5 47.5t4.5 47.5q6 29 26.5 55.5t49 47t62.5 33t66 12.5q34 0 58.5 -11t42.5 -29.5t31.5 -42t24.5 -48.5q14 -31 23 -49t18 -27.5t19 -12t25 -2.5zM625 -218q9 -8 18 -17q9 -8 18 -17.5t17 -20.5q-8 -11 -17.5 -20.5l-17.5 -17.5q-9 -9 -18 -17l-16 14 q-7 7 -15 15.5t-16 17.5q-8 -9 -16.5 -17.5l-15.5 -15.5q-8 -7 -15 -14q-9 8 -19 17q-8 8 -17 17.5t-17 20.5q8 11 17 21t17 17q10 9 19 17q7 -6 15 -14q8 -7 16 -15t16 -18q8 10 16 18.5t15 14.5q8 8 16 14z" />
<glyph unicode="&#x649;" horiz-adv-x="230" d="M158 359q4 -21 8.5 -48t8 -55t6 -54t2.5 -46q0 -39 -13 -68t-33 -46q-45 -42 -137 -42l-16 3v88l16 3q57 0 81.5 11t24.5 25q0 32 -6.5 85.5t-19.5 128.5z" />
<glyph unicode="&#x6aa;" horiz-adv-x="691" d="M388 300q74 0 123 -14t78.5 -38t42 -55.5t12.5 -65.5q0 -31 -12.5 -56.5t-32.5 -40.5q-11 -8 -28 -14t-42.5 -9.5t-61.5 -5t-87 -1.5h-380l-16 3v88l16 3h412q167 0 167 20q0 14 -7 32t-29 34t-63 26.5t-110 10.5h-109q-56 0 -93.5 1.5t-62 4.5t-38 7t-20.5 10 q-1 6 0.5 19.5t5 29t8.5 30t12 23.5q20 25 65 59t97.5 68.5t103 64t79.5 44.5l11 -95q-39 -19 -82 -42t-83.5 -46.5t-76 -46.5t-59.5 -43q19 -2 52 -3.5t80 -1.5h128z" />
<glyph unicode="&#x6aa;" horiz-adv-x="751" d="M767 91v-88l-16 -3q-50 0 -80 8.5t-55 38.5q-4 -5 -8 -9t-9 -8q-11 -8 -28 -14t-42.5 -9.5t-61.5 -5t-87 -1.5h-380l-16 3v88l16 3h412q167 0 167 20q0 14 -7 32t-29 34t-63 26.5t-110 10.5h-109q-56 0 -93.5 1.5t-62 4.5t-38 7t-20.5 10q-1 6 0.5 19.5t5 29t8.5 30 t12 23.5q20 25 65 59t97.5 68.5t103 64t79.5 44.5l11 -95q-39 -19 -82 -42t-83.5 -46.5t-76 -46.5t-59.5 -43q19 -2 52 -3.5t80 -1.5h128q74 0 123 -14t78.5 -38t42 -55.5t12.5 -65.5v-10q17 -14 39.5 -18.5t67.5 -4.5z" />
<glyph unicode="&#x6aa;" horiz-adv-x="924" d="M940 91v-88l-16 -3q-48 0 -78.5 8t-54.5 36q-7 -9 -15 -14q-11 -8 -27.5 -14t-42 -9.5t-61.5 -5t-87 -1.5h-285q-65 0 -108 1.5t-71.5 4.5t-45.5 7.5t-29 9.5l1 92q11 -3 28 -7t45.5 -7t71.5 -5.5t106 -2.5h318q167 0 167 20q0 14 -7 32t-28.5 34t-63 27t-110.5 11h-108 q-56 0 -94 1.5t-62.5 4.5t-38 7t-20.5 10q-1 6 0.5 19.5t5 29.5t8.5 31t12 24q20 25 65 59t97.5 68t103 63.5t79.5 44.5l11 -95q-39 -19 -81.5 -42t-83 -46.5t-76 -46.5t-59.5 -43q19 -2 52 -3.5t80 -1.5l127 1q74 0 123 -14.5t79 -38.5t42.5 -55.5t12.5 -65.5q0 -10 -1 -14 q17 -11 39 -15.5t64 -4.5z" />
<glyph unicode="&#x671;" horiz-adv-x="248" arabic-form="isolated" d="M174 801q16 0 29.5 -7t23.5 -19t15.5 -26.5t5.5 -29.5q0 -41 -30.5 -60.5t-75.5 -19.5q-32 0 -54.5 8t-41.5 8q-10 0 -18.5 -1.5t-15.5 -2.5q-7 -2 -13 -5v50q7 5 20.5 10t30.5 5q9 0 13 -1q9 15 21 31t26 29.5t30 22t34 8.5zM150 693q26 0 44 6t18 13t-11.5 21.5 t-34.5 14.5q-40 0 -77 -45q13 -4 27 -7t34 -3zM84 603l82 6v-609h-82v603z" />
<glyph unicode="&#x671;" horiz-adv-x="253" arabic-form="final" d="M235 718q0 -41 -30.5 -60.5t-75.5 -19.5q-32 0 -54.5 8t-41.5 8q-10 0 -18.5 -1.5t-15.5 -2.5q-7 -2 -13 -5v50q7 5 20.5 10t30.5 5q9 0 13 -1q9 15 21 31t26 29.5t30 22t34 8.5q16 0 29.5 -7t23.5 -19t15.5 -26.5t5.5 -29.5zM153 747q-40 0 -77 -45q13 -4 27 -7t34 -3 q26 0 44 6t18 13t-11.5 21.5t-34.5 14.5zM269 91v-88l-16 -3q-42 0 -76.5 7.5t-59 33t-38.5 74t-14 130.5v358l82 6v-417q0 -29 5 -48t17 -30t32.5 -15.5t51.5 -4.5z" />
<glyph unicode="&#x67e;" horiz-adv-x="791" arabic-form="final" d="M808 91v-88l-16 -3q-22 0 -45 1.5t-45 7t-41.5 15.5t-34.5 27q-2 -1 -2.5 -2t-2.5 -2q-39 -32 -120.5 -44.5t-189.5 -12.5q-96 0 -152.5 19t-85 47.5t-36.5 63t-8 65.5q0 32 6 60.5t14 49.5q9 24 20 45h78q-13 -21 -22 -44q-10 -22 -16.5 -45.5t-6.5 -47.5 q0 -29 11 -51.5t37.5 -37.5t71 -22.5t110.5 -7.5q115 0 183 13.5t75 36.5q2 8 5 32t5.5 50.5t5 48t2.5 24.5h79l-18 -169q20 -14 54 -20t69 -6zM413 -47q10 -8 19 -17q9 -8 18.5 -17.5t17.5 -20.5q-8 -12 -17.5 -22t-18.5 -18q-9 -9 -19 -17q-8 7 -17 15t-17.5 17t-17.5 20 q-8 -11 -17 -20.5t-17 -16.5q-9 -8 -17 -15q-10 8 -19 17q-9 8 -18.5 18t-18.5 22q9 11 18.5 21t18.5 17q9 9 19 17q8 -7 17 -15q8 -7 17 -16t17 -20q9 11 18 20t17 16q9 8 17 15zM362 -149q9 -7 19 -16q8 -8 17 -17.5t17 -20.5q-8 -11 -17 -21t-17 -18q-10 -9 -19 -16 q-9 7 -18 16q-9 8 -18 18t-17 21q8 11 17.5 20.5l17.5 17.5q9 9 18 16z" />
<glyph unicode="&#x67e;" horiz-adv-x="249" arabic-form="initial" d="M137 42q-45 -42 -137 -42l-16 3v88l16 3q57 0 81.5 11t24.5 25q0 32 -6.5 85.5t-19.5 128.5l78 15q4 -21 8.5 -48t8 -55t6 -54t2.5 -46q0 -39 -13 -68t-33 -46zM147 -32q10 -8 19 -17q9 -8 18.5 -17.5t17.5 -20.5q-8 -12 -17.5 -22t-18.5 -18q-9 -9 -19 -17q-8 7 -17 15 t-17.5 17t-17.5 20q-8 -11 -17 -20.5t-17 -16.5q-9 -8 -17 -15q-10 8 -19 17q-9 8 -18.5 18t-18.5 22q9 11 18.5 21t18.5 17q9 9 19 17q8 -7 17 -15q8 -7 17 -16t17 -20q9 11 18 20t17 16q9 8 17 15zM96 -134q9 -7 19 -16q8 -8 17 -17.5t17 -20.5q-8 -11 -17 -21t-17 -18 q-10 -9 -19 -16q-9 7 -18 16q-9 8 -18 18t-17 21q8 11 17.5 20.5l17.5 17.5q9 9 18 16z" />
<glyph unicode="&#x67e;" horiz-adv-x="312" arabic-form="medial" d="M329 91v-88l-16 -3q-22 0 -45.5 1.5t-45.5 7t-41.5 16t-34.5 27.5q-6 -7 -15 -15q-18 -15 -48.5 -26t-81.5 -11l-16 3v88l16 3q32 0 53 4t33 10t17.5 13t6.5 13q2 8 5 32t6 50.5t5.5 48t2.5 24.5h78l-18 -169q20 -14 54 -20t69 -6zM201 -31q10 -8 19 -17q9 -8 18.5 -17.5 t17.5 -20.5q-8 -12 -17.5 -22t-18.5 -18q-9 -9 -19 -17q-8 7 -17 15t-17.5 17t-17.5 20q-8 -11 -17 -20.5t-17 -16.5q-9 -8 -17 -15q-10 8 -19 17q-9 8 -18.5 18t-18.5 22q9 11 18.5 21t18.5 17q9 9 19 17q8 -7 17 -15q8 -7 17 -16t17 -20q9 11 18 20t17 16q9 8 17 15z M150 -133q9 -7 19 -16q8 -8 17 -17.5t17 -20.5q-8 -11 -17 -21t-17 -18q-10 -9 -19 -16q-9 7 -18 16q-9 8 -18 18t-17 21q8 11 17.5 20.5l17.5 17.5q9 9 18 16z" />
<glyph unicode="&#x679;" horiz-adv-x="723" arabic-form="isolated" d="M468 359q0 -42 -32 -58.5t-92 -16.5q-38 0 -65.5 5t-41.5 10v54l17.5 -5t25.5 -5l12 18v155l41 4v-73q0 -13 -3 -25t-7 -21q16 17 34 28.5t38 11.5q16 0 29.5 -7.5t23 -19t15 -26t5.5 -29.5zM388 389q-42 0 -80 -50q10 -1 20.5 -1.5t22.5 -0.5q13 0 27.5 1t26.5 3t20 5 t8 6t-3 9.5t-8.5 12.5t-14 10.5t-19.5 4.5zM651 359q5 -21 9 -49t8 -57t6 -56t2 -47q0 -38 -13.5 -63t-34.5 -42q-19 -16 -51 -26.5t-73.5 -17t-90 -9t-102.5 -2.5q-96 0 -152.5 19t-85 47.5t-36.5 63t-8 65.5q0 32 6 60.5t14 49.5q9 24 20 45h78q-13 -21 -22 -44 q-10 -22 -16.5 -45.5t-6.5 -47.5q0 -29 11 -51.5t37.5 -37.5t71 -22.5t110.5 -7.5q57 0 106 3.5t84.5 10t56 15t20.5 18.5q0 32 -7 84.5t-20 127.5z" />
<glyph unicode="&#x679;" horiz-adv-x="791" arabic-form="final" d="M476 359q0 -42 -32 -58.5t-92 -16.5q-38 0 -65.5 5t-41.5 10v54l17.5 -5t25.5 -5l12 18v155l41 4v-73q0 -13 -3 -25t-7 -21q16 17 34 28.5t38 11.5q16 0 29.5 -7.5t23 -19t15 -26t5.5 -29.5zM396 389q-42 0 -80 -50q10 -1 20.5 -1.5t22.5 -0.5q13 0 27.5 1t26.5 3t20 5 t8 6t-3 9.5t-8.5 12.5t-14 10.5t-19.5 4.5zM808 91v-88l-16 -3q-22 0 -45 1.5t-45 7t-41.5 15.5t-34.5 27q-2 -1 -2.5 -2t-2.5 -2q-39 -32 -120.5 -44.5t-189.5 -12.5q-96 0 -152.5 19t-85 47.5t-36.5 63t-8 65.5q0 32 6 60.5t14 49.5q9 24 20 45h78q-13 -21 -22 -44 q-10 -22 -16.5 -45.5t-6.5 -47.5q0 -29 11 -51.5t37.5 -37.5t71 -22.5t110.5 -7.5q115 0 183 13.5t75 36.5q2 8 5 32t5.5 50.5t5 48t2.5 24.5h79l-18 -169q20 -14 54 -20t69 -6z" />
<glyph unicode="&#x679;" horiz-adv-x="250" arabic-form="initial" d="M148 563q16 0 29.5 -7.5t23 -19t15 -26t5.5 -29.5q0 -42 -32 -58.5t-92 -16.5q-38 0 -65.5 5t-41.5 10v54l17.5 -5t25.5 -5l12 18v155l41 4v-73q0 -13 -3 -25t-7 -21q16 17 34 28.5t38 11.5zM104 459q13 0 27.5 1t26.5 3t20 5t8 6t-3 9.5t-8.5 12.5t-14 10.5t-19.5 4.5 q-42 0 -80 -50q10 -1 20.5 -1.5t22.5 -0.5zM158 359q4 -21 8.5 -48t8 -55t6 -54t2.5 -46q0 -39 -13 -68t-33 -46q-45 -42 -137 -42l-16 3v88l16 3q57 0 81.5 11t24.5 25q0 32 -6.5 85.5t-19.5 128.5z" />
<glyph unicode="&#x679;" horiz-adv-x="312" arabic-form="medial" d="M264 410q0 -42 -32 -58.5t-92 -16.5q-38 0 -65.5 5t-41.5 10v54l17.5 -5t25.5 -5l12 18v155l41 4v-73q0 -13 -3 -25t-7 -21q16 17 34 28.5t38 11.5q16 0 29.5 -7.5t23 -19t15 -26t5.5 -29.5zM184 440q-42 0 -80 -50q10 -1 20.5 -1.5t22.5 -0.5q13 0 27.5 1t26.5 3t20 5 t8 6t-3 9.5t-8.5 12.5t-14 10.5t-19.5 4.5zM329 91v-88l-16 -3q-22 0 -45.5 1.5t-45.5 7t-41.5 16t-34.5 27.5q-6 -7 -15 -15q-18 -15 -48.5 -26t-81.5 -11l-16 3v88l16 3q32 0 53 4t33 10t17.5 13t6.5 13q2 8 5 32t6 50.5t5.5 48t2.5 24.5h78l-18 -169q20 -14 54 -20t69 -6 z" />
<glyph unicode="&#x6a4;" horiz-adv-x="748" arabic-form="isolated" d="M540 592q-9 7 -19 16q-8 8 -17 17.5t-17 20.5q8 12 17 22t17 17q10 9 19 16q9 -7 19 -16l17.5 -17.5t17.5 -21.5q-8 -11 -17.5 -20.5l-17.5 -17.5q-10 -9 -19 -16zM489 490q-10 8 -20 17q-9 8 -18 17.5t-17 20.5q8 12 17.5 22.5t17.5 18.5q10 9 20 17q9 -7 18 -16 q8 -7 17 -16.5t17 -20.5q8 11 17.5 20.5l16.5 16.5q9 9 18 16q10 -8 19 -17t18.5 -19t18.5 -22q-9 -11 -18.5 -21t-18.5 -17q-9 -9 -19 -17q-9 7 -18 15q-8 7 -17 16t-17 20q-8 -11 -17.5 -20t-16.5 -16q-9 -8 -18 -15zM554 461q39 0 68 -24.5t47.5 -60t27.5 -76.5t9 -74 q0 -25 -3 -53.5t-12 -54.5t-25 -48.5t-42 -37.5q-42 -23 -123.5 -33t-187.5 -10q-96 0 -152.5 18.5t-85.5 47t-37.5 63t-8.5 67.5q0 32 6 60t14 49q9 25 20 46h78q-13 -21 -22 -45q-10 -21 -16.5 -44.5t-6.5 -48.5q0 -30 11.5 -52.5t38.5 -37.5t72 -22.5t111 -7.5 q101 0 175.5 8t103.5 28q10 7 16.5 22t8.5 32q-16 -8 -42.5 -16t-61.5 -8q-62 0 -100.5 30t-38.5 96q0 27 11 60t31.5 61t49.5 47t66 19zM455 276q0 -13 8 -21.5t20.5 -13.5t27.5 -7t28 -2q29 0 54.5 4.5t43.5 10.5q-3 21 -11.5 42.5t-21 38.5t-29 28t-37.5 11 q-19 0 -34 -9.5t-26 -23.5t-17 -29.5t-6 -28.5z" />
<glyph unicode="&#x6a4;" horiz-adv-x="795" arabic-form="final" d="M583 537q-9 7 -19 16q-8 8 -17 17.5t-17 20.5q8 12 17 22t17 17q10 9 19 16q9 -7 19 -16l17.5 -17.5t17.5 -21.5q-8 -11 -17.5 -20.5l-17.5 -17.5q-10 -9 -19 -16zM532 435q-10 8 -20 17q-9 8 -18 17.5t-17 20.5q8 12 17.5 22.5t17.5 18.5q10 9 20 17q9 -7 18 -16 q8 -7 17 -16.5t17 -20.5q8 11 17.5 20.5l16.5 16.5q9 9 18 16q10 -8 19 -17t18.5 -19t18.5 -22q-9 -11 -18.5 -21t-18.5 -17q-9 -9 -19 -17q-9 7 -18 15q-8 7 -17 16t-17 20q-8 -11 -17.5 -20t-16.5 -16q-9 -8 -18 -15zM811 91v-88l-16 -3q-57 0 -108.5 8t-102.5 30 q-39 -17 -107.5 -33t-165.5 -16q-96 0 -152.5 19t-85 47.5t-36.5 63.5t-8 66q0 32 6 60t14 49q9 25 20 46h78q-13 -21 -22 -45q-10 -21 -16.5 -44.5t-6.5 -48.5q0 -29 11 -51.5t37.5 -37.5t71 -23t110.5 -8q41 0 83 4.5t73 11.5q-26 23 -43 53t-17 72q0 32 13 65t35.5 60.5 t52.5 45t65 17.5t61.5 -19t44.5 -48.5t27 -64t9 -64.5q0 -32 -15 -60.5t-42 -52.5q33 -6 63 -7t53 -1zM578 317q-18 0 -34.5 -9t-29 -23t-20 -29.5t-7.5 -29.5q0 -13 8.5 -27t23 -26.5t33.5 -24t39 -19.5q35 16 54.5 39t19.5 41q0 14 -6.5 33t-17.5 35.5t-27 28t-36 11.5z " />
<glyph unicode="&#x6a4;" horiz-adv-x="385" arabic-form="initial" d="M178 593q-9 7 -19 16q-8 8 -17 17.5t-17 20.5q8 12 17 22t17 17q10 9 19 16q9 -7 19 -16l17.5 -17.5t17.5 -21.5q-8 -11 -17.5 -20.5l-17.5 -17.5q-10 -9 -19 -16zM127 491q-10 8 -20 17q-9 8 -18 17.5t-17 20.5q8 12 17.5 22.5t17.5 18.5q10 9 20 17q9 -7 18 -16 q8 -7 17 -16.5t17 -20.5q8 11 17.5 20.5l16.5 16.5q9 9 18 16q10 -8 19 -17t18.5 -19t18.5 -22q-9 -11 -18.5 -21t-18.5 -17q-9 -9 -19 -17q-9 7 -18 15q-8 7 -17 16t-17 20q-8 -11 -17.5 -20t-16.5 -16q-9 -8 -18 -15zM190 462q39 0 68 -24.5t47.5 -60t27.5 -76.5t9 -74 q0 -28 -3 -56.5t-12 -54.5t-25 -48t-42 -36q-25 -14 -66 -23t-116 -9h-79l-16 3v88l16 3h103q63 0 97 7t51 18q10 7 16.5 22.5t8.5 31.5q-16 -8 -42 -16t-62 -8q-62 0 -100.5 30t-38.5 96q0 28 11 60.5t31.5 60.5t49.5 47t66 19zM91 277q0 -13 8 -21.5t20.5 -13.5t27.5 -7 t28 -2q29 0 54.5 4.5t43.5 10.5q-3 21 -11.5 42.5t-21 38.5t-29 28t-37.5 11q-19 0 -34 -9.5t-26 -23.5t-17 -29.5t-6 -28.5z" />
<glyph unicode="&#x6a4;" horiz-adv-x="414" arabic-form="medial" d="M200 539q-9 7 -19 16q-8 8 -17 17.5t-17 20.5q8 12 17 22t17 17q10 9 19 16q9 -7 19 -16l17.5 -17.5t17.5 -21.5q-8 -11 -17.5 -20.5l-17.5 -17.5q-10 -9 -19 -16zM149 437q-10 8 -20 17q-9 8 -18 17.5t-17 20.5q8 12 17.5 22.5t17.5 18.5q10 9 20 17q9 -7 18 -16 q8 -7 17 -16.5t17 -20.5q8 11 17.5 20.5l16.5 16.5q9 9 18 16q10 -8 19 -17t18.5 -19t18.5 -22q-9 -11 -18.5 -21t-18.5 -17q-9 -9 -19 -17q-9 7 -18 15q-8 7 -17 16t-17 20q-8 -11 -17.5 -20t-16.5 -16q-9 -8 -18 -15zM430 91v-88l-16 -3q-58 0 -112.5 8.5t-106.5 33.5 q-34 -17 -81.5 -29.5t-113.5 -12.5l-16 3v88l16 3q23 0 49.5 1.5t54.5 4.5q-26 23 -41.5 52.5t-15.5 70.5q0 32 13 65t35.5 60.5t52.5 45t65 17.5t61.5 -19t44.5 -48.5t27 -64t9 -64.5q0 -33 -15 -61t-42 -52q33 -6 63 -7t53 -1zM197 317q-18 0 -34.5 -9t-29 -23t-20 -29.5 t-7.5 -29.5q0 -13 9 -27t23 -27t33 -24t38 -20q35 16 55 39.5t20 41.5q0 14 -6.5 33t-17.5 35.5t-27 28t-36 11.5z" />
<glyph unicode="&#x686;" horiz-adv-x="592" arabic-form="isolated" d="M495 224q-79 -23 -151 -54.5t-127 -70.5t-88 -86t-33 -101q0 -11 8 -30.5t30.5 -38.5t62 -33t103.5 -14q47 0 90.5 7t78.5 15q40 10 75 23l-4 -91q-9 -5 -31.5 -13t-55 -15.5t-74.5 -13.5t-90 -6q-53 0 -100 13.5t-82.5 40t-56.5 66t-21 92.5q0 67 25.5 119t68 92 t98.5 69.5t117 53.5q-30 7 -57.5 15.5t-53 16t-50 12.5t-49.5 5q-17 0 -33 -3.5t-28 -6.5q-15 -5 -27 -11v82q14 8 30 14q14 5 31 9t37 4q30 0 66 -11t78.5 -23.5t92 -23.5t106.5 -11h80l-11 -92h-55zM443 37q-8 -11 -17 -20.5t-17 -17.5q-10 -9 -19 -16q-8 7 -17 14 l-16.5 16.5t-16.5 19.5q-8 -11 -16.5 -20t-15.5 -16q-9 -7 -17 -14q-9 7 -19 16l-17.5 17.5t-17.5 20.5q8 11 17.5 20.5t17.5 16.5q10 9 19 16q8 -7 17 -14q7 -8 15.5 -16.5t16.5 -18.5q8 10 17 19l16 16q9 7 17 14q9 -7 19 -16q8 -7 17 -16.5t17 -20.5zM341 -7q9 -7 18 -16 q8 -8 16.5 -17t16.5 -19q-8 -11 -16.5 -20.5t-16.5 -16.5q-9 -9 -18 -16q-9 7 -18 16q-8 7 -16.5 16.5t-16.5 20.5q8 10 17 19.5t16 16.5q9 9 18 16z" />
<glyph unicode="&#x686;" horiz-adv-x="641" arabic-form="final" d="M657 3l-16 -3h-2q-57 0 -93.5 16.5t-57.5 45.5t-27.5 67.5t-2.5 82.5q-73 -23 -138.5 -54t-115 -68.5t-78.5 -82t-29 -95.5q0 -11 8 -30.5t30.5 -38.5t62 -33t103.5 -14q47 0 90.5 7t78.5 15q40 10 75 23l-4 -91q-9 -5 -31.5 -13t-55 -15.5t-74.5 -13.5t-90 -6 q-53 0 -100 13.5t-82.5 40t-56.5 66t-21 92.5q0 67 25.5 119t68 92t98.5 69.5t117 53.5q-30 7 -57.5 15.5t-53 16t-50 12.5t-49.5 5q-17 0 -33 -3.5t-28 -6.5q-15 -5 -27 -11v82q14 8 30 14q14 5 31 9t37 4q30 0 66 -11t78.5 -23.5t92 -23.5t106.5 -11h89l-9 -92h-53 q-2 -30 2 -54t18.5 -41t41 -26t69.5 -9l17 -3v-88zM427 21q-8 -11 -16.5 -20t-16.5 -17q-9 -8 -18 -15l-16 14l-15.5 15.5t-16.5 18.5q-7 -10 -15 -18.5t-15 -15.5l-16 -14q-9 7 -18 15q-8 8 -16.5 17t-16.5 20q8 10 17 19l16 16q9 8 18 15q8 -6 16 -14q7 -6 15 -14.5 t15 -17.5q8 9 16.5 17.5t15.5 14.5q8 8 16 14q9 -7 18 -15q8 -7 16.5 -16t16.5 -19zM330 -21q8 -7 17 -15q8 -7 16 -15.5t15 -18.5q-7 -11 -15.5 -20t-15.5 -16q-9 -8 -17 -15q-8 7 -17 15q-8 7 -16 16t-16 20q8 10 16.5 18.5l15.5 15.5q9 8 17 15z" />
<glyph unicode="&#x686;" horiz-adv-x="615" arabic-form="initial" d="M588 253l-9 -87h-23h-43q-21 -3 -46.5 -12t-53 -21.5t-55 -26.5t-51.5 -28q-69 -40 -139 -59t-151 -19h-17l-16 3v88l16 3h15q81 0 147 13.5t121 39.5q14 7 38 17.5t50 21.5q-24 8 -50 21q-45 22 -85.5 39t-76.5 17q-20 0 -38.5 -4t-33.5 -9q-16 -6 -31 -13v80 q13 10 30 18q16 7 36 12t46 5q45 0 87.5 -19.5t87.5 -39.5q51 -25 98 -32.5t106 -7.5h41zM503 88q10 -8 19 -17q9 -8 18.5 -17.5t17.5 -20.5q-8 -12 -17.5 -22t-18.5 -18q-9 -9 -19 -17q-8 7 -17 15t-17.5 17t-17.5 20q-8 -11 -17 -20.5t-17 -16.5q-9 -8 -17 -15 q-10 8 -19 17q-9 8 -18.5 18t-18.5 22q9 11 18.5 21t18.5 17q9 9 19 17q8 -7 17 -15q8 -7 17 -16t17 -20q9 11 18 20t17 16q9 8 17 15zM452 -14q9 -7 19 -16q8 -8 17 -17.5t17 -20.5q-8 -11 -17 -21t-17 -18q-10 -9 -19 -16q-9 7 -18 16q-9 8 -18 18t-17 21q8 11 17.5 20.5 l17.5 17.5q9 9 18 16z" />
<glyph unicode="&#x686;" horiz-adv-x="659" arabic-form="medial" d="M676 91v-88l-16 -3h-8q-45 0 -75.5 12.5t-50 34.5t-29.5 50.5t-14 61.5q-40 -12 -87.5 -35t-88.5 -46q-69 -40 -139 -59t-151 -19h-17l-16 3v88l16 3h15q81 0 147 13.5t121 39.5q14 7 38 17.5t50 21.5q-24 8 -50 21q-45 22 -85.5 39t-76.5 17q-20 0 -38.5 -4t-33.5 -9 q-16 -6 -31 -13v80q13 10 30 18q16 7 36 12t46 5q45 0 87.5 -19.5t87.5 -39.5q51 -25 98 -32.5t106 -7.5h41l-9 -86h-23h-20q3 -13 9.5 -26t19.5 -23.5t34 -17t54 -6.5h7zM448 62q10 -8 19 -17q9 -8 18.5 -17.5t17.5 -20.5q-8 -12 -17.5 -22t-18.5 -18q-9 -9 -19 -17 q-8 7 -17 15t-17.5 17t-17.5 20q-8 -11 -17 -20.5t-17 -16.5q-9 -8 -17 -15q-10 8 -19 17q-9 8 -18.5 18t-18.5 22q9 11 18.5 21t18.5 17q9 9 19 17q8 -7 17 -15q8 -7 17 -16t17 -20q9 11 18 20t17 16q9 8 17 15zM397 -40q9 -7 19 -16q8 -8 17 -17.5t17 -20.5 q-8 -11 -17 -21t-17 -18q-10 -9 -19 -16q-9 7 -18 16q-9 8 -18 18t-17 21q8 11 17.5 20.5l17.5 17.5q9 9 18 16z" />
<glyph unicode="&#x688;" horiz-adv-x="398" arabic-form="isolated" d="M309 521q0 -42 -32 -58.5t-92 -16.5q-38 0 -65.5 5t-41.5 10v54l17.5 -5t25.5 -5l12 18v155l41 4v-73q0 -13 -3 -25t-7 -21q16 17 34 28.5t38 11.5q16 0 29.5 -7.5t23 -19t15 -26t5.5 -29.5zM229 551q-42 0 -80 -50q10 -1 20.5 -1.5t22.5 -0.5q13 0 27.5 1t26.5 3t20 5 t8 6t-3 9.5t-8.5 12.5t-14 10.5t-19.5 4.5zM244 415q17 -21 39 -55.5t41 -74t32 -81t13 -76.5q0 -34 -14.5 -61t-40.5 -43q-23 -14 -60.5 -21.5t-82.5 -7.5q-47 0 -83.5 7t-56.5 18l-3 91q21 -7 56.5 -14.5t89.5 -7.5q50 0 85.5 8.5t35.5 18.5q0 18 -10.5 48t-29 67.5 t-43 79.5t-52.5 84z" />
<glyph unicode="&#x688;" horiz-adv-x="477" arabic-form="final" d="M340 524q0 -42 -32 -58.5t-92 -16.5q-38 0 -65.5 5t-41.5 10v54l17.5 -5t25.5 -5l12 18v155l41 4v-73q0 -13 -3 -25t-7 -21q16 17 34 28.5t38 11.5q16 0 29.5 -7.5t23 -19t15 -26t5.5 -29.5zM260 554q-42 0 -80 -50q10 -1 20.5 -1.5t22.5 -0.5q13 0 27.5 1t26.5 3t20 5 t8 6t-3 9.5t-8.5 12.5t-14 10.5t-19.5 4.5zM493 91v-88l-16 -3q-50 0 -85 15t-58 51q-13 -27 -36 -41q-20 -14 -55.5 -22t-81.5 -8q-47 0 -82.5 7t-55.5 18l-4 91q21 -7 57 -14.5t89 -7.5q50 0 84 8t47 13q-12 30 -29 79t-33 97q-18 56 -38 117l82 12l58 -179 q15 -45 27 -72.5t27 -43t35.5 -21t51.5 -5.5z" />
<glyph unicode="&#x698;" horiz-adv-x="289" arabic-form="isolated" d="M136 464q-9 7 -19 16q-8 8 -17 17.5t-17 20.5q8 12 17 22t17 17q10 9 19 16q9 -7 19 -16l17.5 -17.5t17.5 -21.5q-8 -11 -17.5 -20.5l-17.5 -17.5q-10 -9 -19 -16zM85 362q-10 8 -20 17q-9 8 -18 17.5t-17 20.5q8 12 17.5 22.5t17.5 18.5q10 9 20 17q9 -7 18 -16 q8 -7 17 -16.5t17 -20.5q8 11 17.5 20.5l16.5 16.5q9 9 18 16q10 -8 19 -17t18.5 -19t18.5 -22q-9 -11 -18.5 -21t-18.5 -17q-9 -9 -19 -17q-9 7 -18 15q-8 7 -17 16t-17 20q-8 -11 -17.5 -20t-16.5 -16q-9 -8 -18 -15zM189 313q11 -29 21 -58q9 -27 17 -56t13 -56 q4 -23 3 -55t-7 -65q-5 -28 -18 -65.5t-38 -71.5t-63.5 -57.5t-94.5 -23.5q-15 0 -27 2.5t-20 5.5q-10 4 -17 8l-5 88q2 0 19.5 -5.5t46.5 -5.5q42 0 70.5 18.5t46 47t25.5 62.5t8 66q0 17 -15 65.5t-44 139.5z" />
<glyph unicode="&#x698;" horiz-adv-x="353" arabic-form="final" d="M159 435q-9 7 -19 16q-8 8 -17 17.5t-17 20.5q8 12 17 22t17 17q10 9 19 16q9 -7 19 -16l17.5 -17.5t17.5 -21.5q-8 -11 -17.5 -20.5l-17.5 -17.5q-10 -9 -19 -16zM108 333q-10 8 -20 17q-9 8 -18 17.5t-17 20.5q8 12 17.5 22.5t17.5 18.5q10 9 20 17q9 -7 18 -16 q8 -7 17 -16.5t17 -20.5q8 11 17.5 20.5l16.5 16.5q9 9 18 16q10 -8 19 -17t18.5 -19t18.5 -22q-9 -11 -18.5 -21t-18.5 -17q-9 -9 -19 -17q-9 7 -18 15q-8 7 -17 16t-17 20q-8 -11 -17.5 -20t-16.5 -16q-9 -8 -18 -15zM369 91v-88l-16 -3q-42 0 -69 11.5t-45 32.5l-3 -21 q-5 -28 -18 -65.5t-38 -71.5t-63.5 -57.5t-94.5 -23.5q-15 0 -27 2.5t-20 5.5q-10 4 -17 8l-5 88q2 0 19.5 -5.5t46.5 -5.5q42 0 70.5 18.5t46 47t25.5 62.5t8 66q0 7 -3 23.5t-8 39.5t-11.5 52.5t-12.5 61.5l76 12q4 -17 8 -35q3 -17 7 -35.5t8 -37.5q6 -16 14.5 -30.5 t22 -25t34 -17t49.5 -6.5z" />
<glyph unicode="&#x691;" horiz-adv-x="289" arabic-form="isolated" d="M246 436q0 -42 -32 -58.5t-92 -16.5q-38 0 -65.5 5t-41.5 10v54l17.5 -5t25.5 -5l12 18v155l41 4v-73q0 -13 -3 -25t-7 -21q16 17 34 28.5t38 11.5q16 0 29.5 -7.5t23 -19t15 -26t5.5 -29.5zM166 466q-42 0 -80 -50q10 -1 20.5 -1.5t22.5 -0.5q13 0 27.5 1t26.5 3t20 5 t8 6t-3 9.5t-8.5 12.5t-14 10.5t-19.5 4.5zM189 313q11 -29 21 -58q9 -27 17 -56t13 -56q4 -23 3 -55t-7 -65q-5 -28 -18 -65.5t-38 -71.5t-63.5 -57.5t-94.5 -23.5q-15 0 -27 2.5t-20 5.5q-10 4 -17 8l-5 88q2 0 19.5 -5.5t46.5 -5.5q42 0 70.5 18.5t46 47t25.5 62.5t8 66 q0 17 -15 65.5t-44 139.5z" />
<glyph unicode="&#x691;" horiz-adv-x="353" arabic-form="final" d="M276 405q0 -42 -32 -58.5t-92 -16.5q-38 0 -65.5 5t-41.5 10v54l17.5 -5t25.5 -5l12 18v155l41 4v-73q0 -13 -3 -25t-7 -21q16 17 34 28.5t38 11.5q16 0 29.5 -7.5t23 -19t15 -26t5.5 -29.5zM196 435q-42 0 -80 -50q10 -1 20.5 -1.5t22.5 -0.5q13 0 27.5 1t26.5 3t20 5 t8 6t-3 9.5t-8.5 12.5t-14 10.5t-19.5 4.5zM369 91v-88l-16 -3q-42 0 -69 11.5t-45 32.5l-3 -21q-5 -28 -18 -65.5t-38 -71.5t-63.5 -57.5t-94.5 -23.5q-15 0 -27 2.5t-20 5.5q-10 4 -17 8l-5 88q2 0 19.5 -5.5t46.5 -5.5q42 0 70.5 18.5t46 47t25.5 62.5t8 66q0 7 -3 23.5 t-8 39.5t-11.5 52.5t-12.5 61.5l76 12q4 -17 8 -35q3 -17 7 -35.5t8 -37.5q6 -16 14.5 -30.5t22 -25t34 -17t49.5 -6.5z" />
<glyph unicode="&#x6af;" horiz-adv-x="816" arabic-form="final" d="M410 511l-5 58l343 207l5 -57zM832 91v-88l-16 -3q-40 0 -70.5 6t-53.5 19t-42 32t-37 45q-6 -17 -16 -33t-24 -27q-15 -12 -35.5 -21.5t-51.5 -16t-75 -10t-104 -3.5q-94 0 -149 15.5t-83.5 41t-37 58t-8.5 66.5q0 28 4 52.5t10 42.5q5 21 13 38h75q-8 -18 -15 -37 q-6 -18 -10.5 -37.5t-4.5 -39.5q0 -56 51 -81t172 -25t175.5 16.5t57.5 37.5q-1 7 -10.5 27.5t-34.5 58.5q-14 22 -31.5 46t-34 45.5t-28 36.5t-13.5 19t-0.5 19t5.5 32t9 32t10 18l331 202l8 -93l-286 -171q19 -23 45.5 -58t54.5 -75q33 -47 57.5 -81.5t49 -57.5t54.5 -34 t73 -11z" />
<glyph unicode="&#x6af;" horiz-adv-x="397" arabic-form="initial" d="M-3 497l-5 58l373 218l5 -56zM89 410q69 -31 117 -67t78 -71t43.5 -67.5t13.5 -56.5q0 -32 -12 -61t-40 -49q-13 -10 -30.5 -17.5t-42 -12t-58 -7t-79.5 -2.5h-79l-16 3v88l16 3h79q56 0 93 2.5t59 7.5t31.5 12.5t9.5 16.5q0 11 -11 35t-40.5 55t-82 66.5t-136.5 69.5v90 l377 221l8 -93z" />
<glyph unicode="&#x6af;" horiz-adv-x="460" arabic-form="medial" d="M54 510l-5 58l343 207l5 -57zM476 91v-88l-16 -3q-40 0 -70 6t-53 18.5t-41.5 31.5t-36.5 44q-8 -17 -20 -34.5t-32 -29.5q-32 -20 -70 -28t-85 -8h-52l-16 3v88l16 3h53q72 0 110 14t38 29q0 5 -9.5 25.5t-35.5 62.5q-14 22 -31.5 46t-34 45.5t-28 36.5t-13.5 19 t-0.5 19t5.5 32.5t9.5 32t9.5 17.5l331 202l8 -93l-286 -171q19 -23 45.5 -58t54.5 -75q33 -47 57.5 -81.5t49 -57.5t54.5 -34t73 -11z" />
<glyph unicode="&#x6c1;" horiz-adv-x="371" arabic-form="isolated" d="M203 398q27 -20 52.5 -47.5t45 -59.5t31 -67t11.5 -71q0 -32 -10 -60.5t-30.5 -50.5t-52 -34.5t-74.5 -12.5q-38 0 -65.5 11.5t-45.5 32t-26.5 47.5t-8.5 57q0 62 33.5 126.5t89.5 114.5zM177 89q44 0 70 15t26 38q0 34 -25.5 78.5t-70.5 80.5q-21 -17 -37 -37.5 t-27.5 -41.5t-17.5 -40t-6 -32q0 -16 7.5 -28t20 -19t28.5 -10.5t32 -3.5z" />
<glyph unicode="&#x6c1;" horiz-adv-x="426" arabic-form="final" d="M275 60q-25 21 -42.5 34.5t-38.5 13.5q-19 0 -43.5 -10.5t-48.5 -25.5t-45 -30.5t-32 -24.5l-7 74q21 20 45 39t48.5 33.5t48.5 23t45 8.5q33 0 55 -16t49 -38q32 -26 57 -36.5t60 -10.5l16 -3v-88l-16 -3q-50 0 -84.5 16.5t-66.5 43.5z" />
<glyph unicode="&#x6c1;" horiz-adv-x="230" arabic-form="initial" d="M158 359q4 -21 8.5 -48t8 -55t6 -54t2.5 -46q0 -39 -13 -68t-33 -46q-45 -42 -137 -42l-16 3v88l16 3q57 0 81.5 11t24.5 25q0 32 -6.5 85.5t-19.5 128.5zM129 -218q-38 5 -61 24.5t-23 47.5q0 19 6.5 43.5t35.5 62.5h54q-11 -19 -22.5 -42t-11.5 -32q0 -8 17 -16.5 t40 -17.5z" />
<glyph unicode="&#x6c1;" horiz-adv-x="392" arabic-form="medial" d="M408 91v-88l-16 -3h-28q-21 0 -34 -5t-20 -12.5t-9.5 -17.5t-2.5 -19q0 -15 5 -32.5t12 -35t15 -33t13 -25.5l-89 -92q-27 23 -55.5 54t-51.5 67t-38 75t-15 79v11t1 13q-3 -3 -5 -4q-15 -13 -36.5 -18t-53.5 -5l-16 3v88l16 3q81 0 115 21q5 11 12.5 26t21.5 33h70 q-17 -24 -30 -52q-12 -25 -21 -53t-9 -59q0 -27 9.5 -52.5t24 -48t31 -40.5t30.5 -30l2 1q-5 14 -13 46t-8 67q0 24 6.5 49t21 45.5t38 33.5t57.5 13h34zM67 -199q0 -8 17 -16.5t40 -17.5l-35 -69q-38 4 -61 23.5t-23 47.5q0 19 6.5 43.5t35.5 62.5h54q-11 -19 -22.5 -42 t-11.5 -32z" />
<glyph unicode="&#x6be;" horiz-adv-x="513" arabic-form="final" d="M529 91v-88l-16 -3h-94q17 -16 28 -37.5t11 -48.5q0 -24 -9 -45.5t-27 -38t-45 -26.5t-63 -10q-34 0 -67.5 12.5t-62 38t-49 64t-29.5 91.5q-20 0 -36 2.5t-28 4.5q-13 3 -23 6v89q9 -2 22 -4q11 -1 26 -2.5t35 -1.5q5 66 21 116.5t39 84.5t50.5 51t55.5 17 q30 0 53.5 -18.5t40 -45.5t25.5 -57.5t9 -54.5q0 -32 -17 -62t-47 -53l1 -1q13 7 33.5 15t55.5 8h91zM256 269q-34 0 -61 -45.5t-34 -129.5q47 0 78 8.5t50.5 21t27.5 26.5t8 26t-5.5 28t-15.5 30.5t-22 24.5t-26 10zM321 -114q30 0 48.5 9t18.5 20q0 22 -13.5 41t-37 33 t-54 23t-64.5 10q-11 -2 -24.5 -5.5t-30.5 -5.5q14 -52 53.5 -88.5t103.5 -36.5z" />
<glyph unicode="&#x6be;" horiz-adv-x="491" arabic-form="initial" d="M134 429q107 -52 169.5 -102t95 -95.5t41.5 -85.5t9 -73q0 -14 -6.5 -30t-17 -29.5t-25 -22t-29.5 -8.5t-37.5 4.5t-47.5 12t-51 18t-50 22.5q-38 -18 -85 -29t-100 -11l-16 3v88l16 3q29 0 53.5 1t44.5 3q-27 23 -39 48t-12 60t19.5 71.5t49.5 60.5l-20 9zM182 293 q-17 0 -31.5 -9.5t-25.5 -23t-17.5 -27.5t-6.5 -24q0 -9 9.5 -20t24 -22t32.5 -21t35 -19q20 13 36.5 32t16.5 35q0 12 -5 29t-15 32.5t-23 26.5t-30 11zM267 98q33 -12 65.5 -20t57.5 -10q-5 39 -21 74t-51 70v-2q0 -26 -12.5 -56.5t-38.5 -55.5z" />
<glyph unicode="&#x6be;" horiz-adv-x="446" arabic-form="medial" d="M462 91v-88l-16 -3h-77q17 -16 28 -37.5t11 -48.5q0 -24 -9 -45.5t-27 -38t-45 -26.5t-63 -10q-34 0 -68 12.5t-62.5 38.5t-49.5 65.5t-29 93.5q-14 -2 -28.5 -3t-26.5 -1l-16 3v88l16 3h53q5 66 21 116.5t39 84.5t50.5 51t55.5 17q30 0 53.5 -18.5t40 -45.5t25.5 -57.5 t9 -54.5q0 -32 -17 -62t-47 -53l1 -1q13 7 33.5 15t55.5 8h73zM206 269q-33 0 -60 -45.5t-34 -129.5q46 0 77.5 8.5t50.5 21t27.5 26.5t8.5 26t-5.5 28t-15.5 30.5t-22.5 24.5t-26.5 10zM271 -114q30 0 48.5 9t18.5 20q0 22 -13.5 41t-36.5 33t-53.5 23t-64.5 10 q-12 -2 -25.5 -5.5t-30.5 -5.5q14 -52 53.5 -88.5t103.5 -36.5z" />
<glyph unicode="&#x6d2;" horiz-adv-x="579" arabic-form="final" d="M528 -253q-24 1 -47 1.5t-52.5 1t-68 0.5h-92.5q-86 0 -135 11t-74 31t-31.5 46.5t-7.5 58.5q0 28 13.5 62t47 64t90 50.5t142.5 20.5h266l16 -3v-88l-16 -3h-286q-58 0 -98.5 -11t-65.5 -26.5t-36.5 -32.5t-11.5 -29q0 -19 17.5 -30.5t47.5 -17.5t71 -7.5t88 -1.5 q94 0 146 -1t78 -3z" />
<glyph unicode="&#x6d3;" horiz-adv-x="579" arabic-form="final" d="M240 130q-23 -5 -67.5 -11.5t-95.5 -6.5v50q8 0 15 0.5t13 1.5q-5 6 -8.5 15t-3.5 20q0 14 6 28.5t16 26t24 19t30 7.5q14 0 26 -6.5t19 -15.5l-8 -48q-9 8 -18 12t-21 4q-20 0 -30 -10.5t-10 -16.5q0 -8 10 -18t33 -10q14 0 35.5 3.5t34.5 7.5v-52zM595 91v-88l-16 -3 h-286q-58 0 -98.5 -11t-65.5 -26.5t-36.5 -32.5t-11.5 -29q0 -19 17.5 -30.5t47.5 -17.5t71 -7.5t88 -1.5q94 0 146 -1t78 -3l-1 -93q-24 1 -47 1.5t-52.5 1t-68 0.5h-92.5q-86 0 -135 11t-74 31t-31.5 46.5t-7.5 58.5q0 28 13.5 62t47 64t90 50.5t142.5 20.5h266z" />
<glyph unicode="&#x649;" horiz-adv-x="312" arabic-form="medial" d="M329 91v-88l-16 -3q-22 0 -45.5 1.5t-45.5 7t-41.5 16t-34.5 27.5q-6 -7 -15 -15q-18 -15 -48.5 -26t-81.5 -11l-16 3v88l16 3q32 0 53 4t33 10t17.5 13t6.5 13q2 8 5 32t6 50.5t5.5 48t2.5 24.5h78l-18 -169q20 -14 54 -20t69 -6z" />
<glyph unicode="&#x6cc;" horiz-adv-x="593" arabic-form="final" d="M609 91v-88l-16 -3h-32q9 -15 9 -31q0 -19 -5 -49t-30 -62q-14 -17 -38 -36.5t-58 -35.5t-77.5 -26.5t-96.5 -10.5q-71 0 -117 20.5t-72.5 52t-36.5 69t-10 70.5q0 38 6 70.5t13 57.5q8 28 19 52h77q-11 -25 -20 -52q-9 -25 -15 -52t-6 -55q0 -19 5.5 -43t23.5 -45.5 t51.5 -36t89.5 -14.5q47 0 88.5 11t73 26t49.5 31t18 27t-9 22t-25.5 20t-39.5 14.5t-51 5.5h-1l18 94h199z" />
<glyph unicode="&#x6cc;" horiz-adv-x="243" arabic-form="initial" d="M137 42q-45 -42 -137 -42l-16 3v88l16 3q57 0 81.5 11t24.5 25q0 32 -6.5 85.5t-19.5 128.5l78 15q4 -21 8.5 -48t8 -55t6 -54t2.5 -46q0 -39 -13 -68t-33 -46zM136 -48q9 -8 18 -17q9 -8 18 -17.5t17 -20.5q-8 -11 -17.5 -20.5l-17.5 -17.5q-9 -9 -18 -17l-16 14 q-7 7 -15 15.5t-16 17.5q-8 -9 -16.5 -17.5l-15.5 -15.5q-8 -7 -15 -14q-9 8 -19 17q-8 8 -17 17.5t-17 20.5q8 11 17 21t17 17q10 9 19 17q7 -6 15 -14q8 -7 16 -15t16 -18q8 10 16 18.5t15 14.5q8 8 16 14z" />
<glyph unicode="&#x6cc;" horiz-adv-x="312" arabic-form="medial" d="M329 91v-88l-16 -3q-22 0 -45.5 1.5t-45.5 7t-41.5 16t-34.5 27.5q-6 -7 -15 -15q-18 -15 -48.5 -26t-81.5 -11l-16 3v88l16 3q32 0 53 4t33 10t17.5 13t6.5 13q2 8 5 32t6 50.5t5.5 48t2.5 24.5h78l-18 -169q20 -14 54 -20t69 -6zM190 -50q9 -8 18 -17q9 -8 18 -17.5 t17 -20.5q-8 -11 -17.5 -20.5l-17.5 -17.5q-9 -9 -18 -17l-16 14q-7 7 -15 15.5t-16 17.5q-8 -9 -16.5 -17.5l-15.5 -15.5q-8 -7 -15 -14q-9 8 -19 17q-8 8 -17 17.5t-17 20.5q8 11 17 21t17 17q10 9 19 17q7 -6 15 -14q8 -7 16 -15t16 -18q8 10 16 18.5t15 14.5q8 8 16 14z " />
<glyph unicode="&#xfc5d;" arabic-form="isolated" d="M52 706l-3 45l177 20l3 -46zM229 704l3 -46l-177 -19l-3 45zM236 637q3 -25 4.5 -38.5t1.5 -21.5q0 -20 -15 -36.5t-32 -16.5q-24 0 -48 15q-5 -11 -15 -18t-29 -7q-29 0 -41 16.5t-12 45.5q0 10 1 17t3 11q2 6 4 9h36q-2 -4 -3 -8q-2 -4 -3 -9t-1 -11q0 -13 6 -18t13 -5 q16 0 18 9l7 50l37 1l-3 -38q7 -4 16.5 -7.5t21.5 -5.5l-7 61z" />
<glyph unicode="&#xfc5e;" arabic-form="isolated" d="M65 726q-5 -1 -10.5 -2t-10.5 -2q-7 -1 -13 -2v49q12 7 22.5 9t17.5 2q32 0 32 -44q0 -16 7 -28.5t31 -12.5q11 0 23 3q-17 7 -26.5 16.5t-9.5 29.5q0 11 4.5 22.5t12.5 21t18.5 16t23.5 6.5q27 0 38 -20.5t11 -44.5q0 -23 -9 -41.5t-23 -31t-32.5 -19.5t-36.5 -7 q-37 0 -53.5 22.5t-16.5 46.5v11zM158 745q0 -6 9 -10.5t32 -10.5q3 6 3 14q0 10 -5.5 18t-16.5 8q-12 0 -17 -7t-5 -12zM236 637q3 -25 4.5 -38.5t1.5 -21.5q0 -20 -15 -36.5t-32 -16.5q-24 0 -48 15q-5 -11 -15 -18t-29 -7q-29 0 -41 16.5t-12 45.5q0 10 1 17t3 11 q2 6 4 9h36q-2 -4 -3 -8q-2 -4 -3 -9t-1 -11q0 -13 6 -18t13 -5q16 0 18 9l7 50l37 1l-3 -38q7 -4 16.5 -7.5t21.5 -5.5l-7 61z" />
<glyph unicode="&#xfc5f;" arabic-form="isolated" d="M103 514q-29 0 -41 16.5t-12 45.5q0 10 1 17t3 11q2 6 4 9h36q-2 -4 -3 -8q-2 -4 -3 -9t-1 -11q0 -13 6 -18t13 -5q16 0 18 9l7 50l37 1l-3 -38q7 -4 16.5 -7.5t21.5 -5.5l-7 61l40 5q3 -25 4.5 -38.5t1.5 -21.5q0 -20 -15 -36.5t-32 -16.5q-24 0 -48 15q-5 -11 -15 -18 t-29 -7zM63 437l-3 45l177 20l3 -46zM243 389l-177 -19l-3 45l177 20z" />
<glyph unicode="&#xfc60;" arabic-form="isolated" d="M55 639l-3 45l177 20l3 -46zM236 637q3 -25 4.5 -38.5t1.5 -21.5q0 -20 -15 -36.5t-32 -16.5q-24 0 -48 15q-5 -11 -15 -18t-29 -7q-29 0 -41 16.5t-12 45.5q0 10 1 17t3 11q2 6 4 9h36q-2 -4 -3 -8q-2 -4 -3 -9t-1 -11q0 -13 6 -18t13 -5q16 0 18 9l7 50l37 1l-3 -38 q7 -4 16.5 -7.5t21.5 -5.5l-7 61z" />
<glyph unicode="&#xfc61;" arabic-form="isolated" d="M58 684q51 2 81 9q-14 6 -22 15.5t-8 27.5q0 11 4.5 22.5t12.5 21t18.5 16t23.5 6.5q27 0 38 -21t11 -44q0 -48 -38 -72t-117 -27zM161 756q-12 0 -17 -7t-5 -12q0 -6 9 -10.5t31 -11.5q4 7 4 15q0 10 -6 18t-16 8zM236 637q3 -25 4.5 -38.5t1.5 -21.5q0 -20 -15 -36.5 t-32 -16.5q-24 0 -48 15q-5 -11 -15 -18t-29 -7q-29 0 -41 16.5t-12 45.5q0 10 1 17t3 11q2 6 4 9h36q-2 -4 -3 -8q-2 -4 -3 -9t-1 -11q0 -13 6 -18t13 -5q16 0 18 9l7 50l37 1l-3 -38q7 -4 16.5 -7.5t21.5 -5.5l-7 61z" />
<glyph unicode="&#xfc62;" arabic-form="isolated" d="M103 514q-29 0 -41 16.5t-12 45.5q0 10 1 17t3 11q2 6 4 9h36q-2 -4 -3 -8q-2 -4 -3 -9t-1 -11q0 -13 6 -18t13 -5q16 0 18 9l7 50l37 1l-3 -38q7 -4 16.5 -7.5t21.5 -5.5l-7 61l40 5q3 -25 4.5 -38.5t1.5 -21.5q0 -20 -15 -36.5t-32 -16.5q-24 0 -48 15q-5 -11 -15 -18 t-29 -7zM237 502l3 -46l-177 -19l-3 45z" />
<glyph unicode="&#xfc63;" arabic-form="isolated" d="M167 644h-36v101l38 1zM236 637q3 -25 4.5 -38.5t1.5 -21.5q0 -20 -15 -36.5t-32 -16.5q-24 0 -48 15q-5 -11 -15 -18t-29 -7q-29 0 -41 16.5t-12 45.5q0 10 1 17t3 11q2 6 4 9h36q-2 -4 -3 -8q-2 -4 -3 -9t-1 -11q0 -13 6 -18t13 -5q16 0 18 9l7 50l37 1l-3 -38 q7 -4 16.5 -7.5t21.5 -5.5l-7 61z" />
<glyph unicode="&#xfdf2;" horiz-adv-x="1131" arabic-form="isolated" d="M564 867h-41v114l43 1zM498 722q-29 0 -41 16.5t-12 45.5q0 10 1 17t3 11q2 6 4 9h36q-2 -4 -3 -8q-2 -4 -3 -9t-1 -11q0 -13 6 -18t13 -5q16 0 18 9l7 50l37 1l-3 -38q7 -4 16.5 -7.5t21.5 -5.5l-7 61l40 5q3 -25 4.5 -38.5t1.5 -21.5q0 -20 -15 -36.5t-32 -16.5 q-24 0 -48 15q-5 -11 -15 -18t-29 -7zM763 681l82 5v-493q0 -65 -17.5 -102t-43.5 -58q-18 -14 -45 -23.5t-71 -9.5q-48 0 -76 19t-43 54q-7 -12 -15 -21t-16 -16q-17 -14 -43 -25t-72 -11q-69 0 -102.5 24t-47.5 66q-14 -7 -40.5 -15t-65.5 -8q-35 0 -64.5 11t-49.5 37 q-17 23 -21 59t13 64q14 26 37.5 48.5t52 42t59.5 36.5t60 31v67l81 6v-267q0 -24 1 -44t9 -34.5t26 -22t52 -7.5q30 0 49 4.5t29 12t13.5 16.5t3.5 18v536l83 5v-476v-11t-1 -11q1 -21 4.5 -38.5t12.5 -29.5t25.5 -19t43.5 -7q30 0 48.5 4.5t29.5 12t15 16.5t4 18v536z M1073 686v-686h-82v681zM155 158q29 0 49.5 5t34.5 10q-1 8 -1 15t-1 15q-2 16 -2 45t-1 63q-38 -17 -68.5 -35t-52 -34.5t-33 -30t-11.5 -21.5q0 -11 24.5 -21.5t61.5 -10.5z" />
<glyph unicode="&#xfdfc;" horiz-adv-x="993" arabic-form="isolated" d="M765 0q-39 0 -70.5 9t-54 35.5t-35 75t-12.5 127.5v157q-12 -9 -23.5 -19t-23.5 -20q-14 -12 -28 -23.5t-28 -22.5v-294q0 -38 -12 -69t-38 -60q-32 -35 -84.5 -57t-112.5 -22q-67 0 -109.5 21.5t-66.5 53.5t-32.5 69.5t-8.5 69.5q0 38 6 70t13 57q8 28 19 51h75 q-11 -25 -20 -51q-9 -25 -15 -52t-6 -54q0 -18 4 -42.5t19.5 -46.5t45.5 -37t82 -15q36 0 65.5 8.5t50.5 21t32.5 26t11.5 23.5v270q-41 -27 -78.5 -43t-72.5 -16q-31 0 -51 7t-31 17v89q12 -8 34.5 -13t54.5 -5q33 0 67.5 14t76.5 41v330l81 5v-276l28 22q20 15 38.5 30.5 t36.5 29.5v189l81 5v-134q32 21 61.5 33.5t58.5 12.5q17 0 30 -3.5t23 -6.5q11 -5 20 -11v-90q-16 6 -37 11.5t-47 5.5q-25 0 -52.5 -11t-56.5 -29v-273q0 -29 5 -47.5t17 -29.5t32.5 -15.5t50.5 -4.5q54 0 78 11t24 25q0 32 -6.5 85t-19.5 127l78 15q5 -21 9 -47.5t8 -54 t6 -53.5t2 -46q0 -39 -13 -68t-33 -46q-44 -42 -133 -42h-14zM882 -44q9 -8 19 -17q9 -8 18.5 -18t18.5 -22q-9 -11 -19 -21l-18 -18q-10 -10 -19 -18q-8 7 -17 15l-15.5 15.5t-16.5 17.5q-8 -9 -17 -18t-16 -15q-8 -8 -16 -15q-10 8 -20 18q-9 8 -18 18t-17 21 q8 12 17.5 22t17.5 18q10 9 20 17q8 -6 16 -14q8 -7 16.5 -15.5t16.5 -18.5q8 10 16.5 19t15.5 15q9 8 17 14z" />
<glyph unicode="&#x622;" horiz-adv-x="245" arabic-form="final" d="M-25 700q5 3 20 9t36 6q24 0 46 -6t60 -6q25 0 46.5 3t44.5 11v-60q-13 -5 -28 -8q-13 -4 -29 -6.5t-34 -2.5q-35 0 -58 7t-47 7q-11 0 -21 -2t-18 -4q-10 -3 -18 -6v58zM139 192q0 -29 5 -48t17 -30t32.5 -15.5t51.5 -4.5l16 -3v-88l-16 -3q-42 0 -76.5 7.5t-59 33 t-38.5 74t-14 130.5v358l82 6v-417z" />
<glyph unicode="&#x623;" horiz-adv-x="252" arabic-form="final" d="M186 644q-23 -5 -67.5 -11.5t-95.5 -6.5v50q8 0 15 0.5t13 1.5q-5 6 -8.5 15t-3.5 20q0 14 6 28.5t16 26t24 19t30 7.5q14 0 26 -6.5t19 -15.5l-8 -48q-9 8 -18 12t-21 4q-20 0 -30 -10.5t-10 -16.5q0 -8 10 -18t33 -10q14 0 35.5 3.5t34.5 7.5v-52zM268 91v-88l-16 -3 q-42 0 -76.5 7.5t-59 33t-38.5 74t-14 130.5v358l82 6v-417q0 -29 5 -48t17 -30t32.5 -15.5t51.5 -4.5z" />
<glyph unicode="&#x624;" horiz-adv-x="404" arabic-form="final" d="M272 394q-23 -5 -67.5 -11.5t-95.5 -6.5v50q8 0 15 0.5t13 1.5q-5 6 -8.5 15t-3.5 20q0 14 6 28.5t16 26t24 19t30 7.5q14 0 26 -6.5t19 -15.5l-8 -48q-9 8 -18 12t-21 4q-20 0 -30 -10.5t-10 -16.5q0 -8 10 -18t33 -10q14 0 35.5 3.5t34.5 7.5v-52zM420 90v-87l-16 -3 h-58q-8 -39 -24 -74t-41.5 -62t-60.5 -43t-81 -16q-25 0 -45 3.5t-34 7.5q-16 5 -28 11l-3 86q5 -2 33 -10t77 -8q59 0 94 31.5t48 73.5h-108q-64 0 -103 31.5t-39 100.5q0 31 11.5 66.5t33 65.5t52 49.5t67.5 19.5q39 0 68 -22.5t49.5 -57.5t31 -77t11.5 -82h49zM90 136 q0 -13 8 -21.5t20 -13.5t27 -7t29 -2h113q-3 26 -11.5 52t-22 47t-32 34.5t-41.5 13.5q-21 0 -37.5 -10.5t-28 -26t-18 -33.5t-6.5 -33z" />
<glyph unicode="&#x625;" horiz-adv-x="245" arabic-form="final" d="M259 91v-88l-16 -3h-16q-39 0 -70.5 9t-54 35.5t-35 75t-12.5 127.5v434l82 5v-495q0 -29 5 -47.5t17 -29.5t32.5 -15.5t51.5 -4.5zM94 -102q0 -8 10 -18t33 -10q14 0 35.5 3.5t34.5 7.5v-52q-23 -5 -67.5 -11.5t-95.5 -6.5v50q8 0 15 0.5t13 1.5q-5 6 -8.5 15t-3.5 20 q0 14 6 28.5t16 26t24 19t30 7.5q14 0 26 -6.5t19 -15.5l-8 -48q-9 8 -18 12t-21 4q-20 0 -30 -10.5t-10 -16.5z" />
<glyph unicode="&#x626;" horiz-adv-x="593" arabic-form="final" d="M180 196q-23 -5 -67.5 -11.5t-95.5 -6.5v50q8 0 15 0.5t13 1.5q-5 6 -8.5 15t-3.5 20q0 14 6 28.5t16 26t24 19t30 7.5q14 0 26 -6.5t19 -15.5l-8 -48q-9 8 -18 12t-21 4q-20 0 -30 -10.5t-10 -16.5q0 -8 10 -18t33 -10q14 0 35.5 3.5t34.5 7.5v-52zM609 91v-88l-16 -3 h-32q9 -15 9 -31q0 -19 -5 -49t-30 -62q-14 -17 -38 -36.5t-58 -35.5t-77.5 -26.5t-96.5 -10.5q-71 0 -117 20.5t-72.5 52t-36.5 69t-10 70.5q0 38 6 70.5t13 57.5q8 28 19 52h77q-11 -25 -20 -52q-9 -25 -15 -52t-6 -55q0 -19 5.5 -43t23.5 -45.5t51.5 -36t89.5 -14.5 q47 0 88.5 11t73 26t49.5 31t18 27t-9 22t-25.5 20t-39.5 14.5t-51 5.5h-1l18 94h199z" />
<glyph unicode="&#x626;" horiz-adv-x="230" arabic-form="initial" d="M121 444q14 0 35.5 3.5t34.5 7.5v-52q-23 -5 -67.5 -11.5t-95.5 -6.5v50q8 0 15 0.5t13 1.5q-5 6 -8.5 15t-3.5 20q0 14 6 28.5t16 26t24 19t30 7.5q14 0 26 -6.5t19 -15.5l-8 -48q-9 8 -18 12t-21 4q-20 0 -30 -10.5t-10 -16.5q0 -8 10 -18t33 -10zM158 359 q4 -21 8.5 -48t8 -55t6 -54t2.5 -46q0 -39 -13 -68t-33 -46q-45 -42 -137 -42l-16 3v88l16 3q57 0 81.5 11t24.5 25q0 32 -6.5 85.5t-19.5 128.5z" />
<glyph unicode="&#x626;" horiz-adv-x="312" arabic-form="medial" d="M243 346q-23 -5 -67.5 -11.5t-95.5 -6.5v50q8 0 15 0.5t13 1.5q-5 6 -8.5 15t-3.5 20q0 14 6 28.5t16 26t24 19t30 7.5q14 0 26 -6.5t19 -15.5l-8 -48q-9 8 -18 12t-21 4q-20 0 -30 -10.5t-10 -16.5q0 -8 10 -18t33 -10q14 0 35.5 3.5t34.5 7.5v-52zM329 91v-88l-16 -3 q-22 0 -45.5 1.5t-45.5 7t-41.5 16t-34.5 27.5q-6 -7 -15 -15q-18 -15 -48.5 -26t-81.5 -11l-16 3v88l16 3q32 0 53 4t33 10t17.5 13t6.5 13q2 8 5 32t6 50.5t5.5 48t2.5 24.5h78l-18 -169q20 -14 54 -20t69 -6z" />
<glyph unicode="&#x627;" horiz-adv-x="244" arabic-form="final" d="M138 191q0 -29 5 -47.5t17 -29.5t32.5 -15.5t51.5 -4.5l16 -3v-88l-16 -3h-16q-39 0 -70.5 9t-54 35.5t-35 75t-12.5 127.5v434l82 5v-495z" />
<glyph unicode="&#x628;" horiz-adv-x="792" arabic-form="final" d="M808 91v-88l-16 -3q-22 0 -45 1.5t-45 7t-41.5 15.5t-34.5 27q-2 -1 -2.5 -2t-2.5 -2q-39 -32 -120.5 -44.5t-189.5 -12.5q-96 0 -152.5 19t-85 47.5t-36.5 63t-8 65.5q0 32 6 60.5t14 49.5q9 24 20 45h78q-13 -21 -22 -44q-10 -22 -16.5 -45.5t-6.5 -47.5 q0 -29 11 -51.5t37.5 -37.5t71 -22.5t110.5 -7.5q115 0 183 13.5t75 36.5q2 8 5 32t5.5 50.5t5 48t2.5 24.5h79l-18 -169q20 -14 54 -20t69 -6zM343 -62q10 -8 21 -18q9 -8 19.5 -19t19.5 -23q-9 -12 -19.5 -22.5l-19.5 -19.5q-11 -9 -21 -17q-10 8 -20 17t-19.5 19.5 t-18.5 22.5q9 12 19 23t19 19q10 10 20 18z" />
<glyph unicode="&#x628;" horiz-adv-x="230" arabic-form="initial" d="M158 359q4 -21 8.5 -48t8 -55t6 -54t2.5 -46q0 -39 -13 -68t-33 -46q-45 -42 -137 -42l-16 3v88l16 3q57 0 81.5 11t24.5 25q0 32 -6.5 85.5t-19.5 128.5zM32 -98q9 12 19 23t19 19q10 10 20 18q10 -8 21 -18q9 -8 19.5 -19t19.5 -23q-9 -12 -19.5 -22.5l-19.5 -19.5 q-11 -9 -21 -17q-10 8 -20 17t-19.5 19.5t-18.5 22.5z" />
<glyph unicode="&#x628;" horiz-adv-x="312" arabic-form="medial" d="M329 91v-88l-16 -3q-22 0 -45.5 1.5t-45.5 7t-41.5 16t-34.5 27.5q-6 -7 -15 -15q-18 -15 -48.5 -26t-81.5 -11l-16 3v88l16 3q32 0 53 4t33 10t17.5 13t6.5 13q2 8 5 32t6 50.5t5.5 48t2.5 24.5h78l-18 -169q20 -14 54 -20t69 -6zM146 -28q10 -8 21 -18q9 -8 19.5 -19 t19.5 -23q-9 -12 -19.5 -22.5l-19.5 -19.5q-11 -9 -21 -17q-10 8 -20 17t-19.5 19.5t-18.5 22.5q9 12 19 23t19 19q10 10 20 18z" />
<glyph unicode="&#x629;" horiz-adv-x="437" arabic-form="final" d="M175 492q-10 8 -20 18q-9 8 -18 18t-17 21q8 12 17.5 22t17.5 18q10 9 20 17q8 -6 16 -14q8 -7 16.5 -15.5t16.5 -18.5q8 10 16.5 19t15.5 15q9 8 17 14q9 -8 19 -17q9 -8 18.5 -18t18.5 -22q-9 -11 -19 -21l-18 -18q-10 -10 -19 -18q-8 7 -17 15l-15.5 15.5t-16.5 17.5 q-8 -9 -17 -18t-16 -15q-8 -8 -16 -15zM456 91v-88l-16 -3q-71 0 -109 25t-55 67q-12 -6 -39.5 -15.5t-71.5 -9.5q-35 0 -64.5 11t-49.5 37q-17 23 -21 59t13 64q14 26 37.5 48.5t52 42t59.5 36.5t60 31v57l81 6v-257q0 -24 4 -44t15.5 -34.5t32.5 -22t55 -7.5zM173 158 q29 0 49.5 5t34.5 10q-1 8 -1 15t-1 15q-2 16 -2 45.5t-1 62.5q-38 -17 -68.5 -35t-52 -34.5t-33 -30t-11.5 -21.5q0 -11 24.5 -21.5t61.5 -10.5z" />
<glyph unicode="&#x62a;" horiz-adv-x="791" arabic-form="final" d="M321 320q-10 8 -20 18q-9 8 -18 18t-17 21q8 12 17.5 22t17.5 18q10 9 20 17q8 -6 16 -14q8 -7 16.5 -15.5t16.5 -18.5q8 10 16.5 19t15.5 15q9 8 17 14q9 -8 19 -17q9 -8 18.5 -18t18.5 -22q-9 -11 -19 -21l-18 -18q-10 -10 -19 -18q-8 7 -17 15l-15.5 15.5t-16.5 17.5 q-8 -9 -17 -18t-16 -15q-8 -8 -16 -15zM808 91v-88l-16 -3q-22 0 -45 1.5t-45 7t-41.5 15.5t-34.5 27q-2 -1 -2.5 -2t-2.5 -2q-39 -32 -120.5 -44.5t-189.5 -12.5q-96 0 -152.5 19t-85 47.5t-36.5 63t-8 65.5q0 32 6 60.5t14 49.5q9 24 20 45h78q-13 -21 -22 -44 q-10 -22 -16.5 -45.5t-6.5 -47.5q0 -29 11 -51.5t37.5 -37.5t71 -22.5t110.5 -7.5q115 0 183 13.5t75 36.5q2 8 5 32t5.5 50.5t5 48t2.5 24.5h79l-18 -169q20 -14 54 -20t69 -6z" />
<glyph unicode="&#x62a;" horiz-adv-x="231" arabic-form="initial" d="M159 531q9 -8 19 -17q9 -8 18.5 -18t18.5 -22q-9 -11 -19 -21l-18 -18q-10 -10 -19 -18q-8 7 -17 15l-15.5 15.5t-16.5 17.5q-8 -9 -17 -18t-16 -15q-8 -8 -16 -15q-10 8 -20 18q-9 8 -18 18t-17 21q8 12 17.5 22t17.5 18q10 9 20 17q8 -6 16 -14q8 -7 16.5 -15.5 t16.5 -18.5q8 10 16.5 19t15.5 15q9 8 17 14zM158 359q4 -21 8.5 -48t8 -55t6 -54t2.5 -46q0 -39 -13 -68t-33 -46q-45 -42 -137 -42l-16 3v88l16 3q57 0 81.5 11t24.5 25q0 32 -6.5 85.5t-19.5 128.5z" />
<glyph unicode="&#x62a;" horiz-adv-x="312" arabic-form="medial" d="M116 349q-10 8 -20 18q-9 8 -18 18t-17 21q8 12 17.5 22t17.5 18q10 9 20 17q8 -6 16 -14q8 -7 16.5 -15.5t16.5 -18.5q8 10 16.5 19t15.5 15q9 8 17 14q9 -8 19 -17q9 -8 18.5 -18t18.5 -22q-9 -11 -19 -21l-18 -18q-10 -10 -19 -18q-8 7 -17 15l-15.5 15.5t-16.5 17.5 q-8 -9 -17 -18t-16 -15q-8 -8 -16 -15zM329 91v-88l-16 -3q-22 0 -45.5 1.5t-45.5 7t-41.5 16t-34.5 27.5q-6 -7 -15 -15q-18 -15 -48.5 -26t-81.5 -11l-16 3v88l16 3q32 0 53 4t33 10t17.5 13t6.5 13q2 8 5 32t6 50.5t5.5 48t2.5 24.5h78l-18 -169q20 -14 54 -20t69 -6z " />
<glyph unicode="&#x62b;" horiz-adv-x="791" arabic-form="final" d="M363 399q-9 7 -19 16q-8 8 -17 17.5t-17 20.5q8 12 17 22t17 17q10 9 19 16q9 -7 19 -16l17.5 -17.5t17.5 -21.5q-8 -11 -17.5 -20.5l-17.5 -17.5q-10 -9 -19 -16zM312 297q-10 8 -20 17q-9 8 -18 17.5t-17 20.5q8 12 17.5 22.5t17.5 18.5q10 9 20 17q9 -7 18 -16 q8 -7 17 -16.5t17 -20.5q8 11 17.5 20.5l16.5 16.5q9 9 18 16q10 -8 19 -17t18.5 -19t18.5 -22q-9 -11 -18.5 -21t-18.5 -17q-9 -9 -19 -17q-9 7 -18 15q-8 7 -17 16t-17 20q-8 -11 -17.5 -20t-16.5 -16q-9 -8 -18 -15zM808 91v-88l-16 -3q-22 0 -45 1.5t-45 7t-41.5 15.5 t-34.5 27q-2 -1 -2.5 -2t-2.5 -2q-39 -32 -120.5 -44.5t-189.5 -12.5q-96 0 -152.5 19t-85 47.5t-36.5 63t-8 65.5q0 32 6 60.5t14 49.5q9 24 20 45h78q-13 -21 -22 -44q-10 -22 -16.5 -45.5t-6.5 -47.5q0 -29 11 -51.5t37.5 -37.5t71 -22.5t110.5 -7.5q115 0 183 13.5 t75 36.5q2 8 5 32t5.5 50.5t5 48t2.5 24.5h79l-18 -169q20 -14 54 -20t69 -6z" />
<glyph unicode="&#x62b;" horiz-adv-x="231" arabic-form="initial" d="M108 507q-9 7 -19 16q-8 8 -17 17.5t-17 20.5q8 12 17 22t17 17q10 9 19 16q9 -7 19 -16l17.5 -17.5t17.5 -21.5q-8 -11 -17.5 -20.5l-17.5 -17.5q-10 -9 -19 -16zM161 518q10 -8 19 -17t18.5 -19t18.5 -22q-9 -11 -18.5 -21t-18.5 -17q-9 -9 -19 -17q-9 7 -18 15 q-8 7 -17 16t-17 20q-8 -11 -17.5 -20t-16.5 -16q-9 -8 -18 -15q-10 8 -20 17q-9 8 -18 17.5t-17 20.5q8 12 17.5 22.5t17.5 18.5q10 9 20 17q9 -7 18 -16q8 -7 17 -16.5t17 -20.5q8 11 17.5 20.5l16.5 16.5q9 9 18 16zM158 359q4 -21 8.5 -48t8 -55t6 -54t2.5 -46 q0 -39 -13 -68t-33 -46q-45 -42 -137 -42l-16 3v88l16 3q57 0 81.5 11t24.5 25q0 32 -6.5 85.5t-19.5 128.5z" />
<glyph unicode="&#x62b;" horiz-adv-x="312" arabic-form="medial" d="M156 444q-9 7 -19 16q-8 8 -17 17.5t-17 20.5q8 12 17 22t17 17q10 9 19 16q9 -7 19 -16l17.5 -17.5t17.5 -21.5q-8 -11 -17.5 -20.5l-17.5 -17.5q-10 -9 -19 -16zM105 342q-10 8 -20 17q-9 8 -18 17.5t-17 20.5q8 12 17.5 22.5t17.5 18.5q10 9 20 17q9 -7 18 -16 q8 -7 17 -16.5t17 -20.5q8 11 17.5 20.5l16.5 16.5q9 9 18 16q10 -8 19 -17t18.5 -19t18.5 -22q-9 -11 -18.5 -21t-18.5 -17q-9 -9 -19 -17q-9 7 -18 15q-8 7 -17 16t-17 20q-8 -11 -17.5 -20t-16.5 -16q-9 -8 -18 -15zM329 91v-88l-16 -3q-22 0 -45.5 1.5t-45.5 7t-41.5 16 t-34.5 27.5q-6 -7 -15 -15q-18 -15 -48.5 -26t-81.5 -11l-16 3v88l16 3q32 0 53 4t33 10t17.5 13t6.5 13q2 8 5 32t6 50.5t5.5 48t2.5 24.5h78l-18 -169q20 -14 54 -20t69 -6z" />
<glyph unicode="&#x62c;" horiz-adv-x="640" arabic-form="final" d="M656 3l-16 -3h-2q-57 0 -93.5 16.5t-57.5 45.5t-27.5 67.5t-2.5 82.5q-73 -23 -138.5 -54t-115 -68.5t-78.5 -82t-29 -95.5q0 -11 8 -30.5t30.5 -38.5t62 -33t103.5 -14q47 0 90.5 7t78.5 15q40 10 75 23l-4 -91q-9 -5 -31.5 -13t-55 -15.5t-74.5 -13.5t-90 -6 q-53 0 -100 13.5t-82.5 40t-56.5 66t-21 92.5q0 67 25.5 119t68 92t98.5 69.5t117 53.5q-30 7 -57.5 15.5t-53 16t-50 12.5t-49.5 5q-17 0 -33 -3.5t-28 -6.5q-15 -5 -27 -11v82q14 8 30 14q14 5 31 9t37 4q30 0 66 -11t78.5 -23.5t92 -23.5t106.5 -11h89l-9 -92h-53 q-2 -30 2 -54t18.5 -41t41 -26t69.5 -9l17 -3v-88zM262 -12q9 12 19 22.5t18 19.5q10 9 20 17q10 -8 21 -17q9 -9 19 -19.5t19 -22.5q-9 -12 -19.5 -22.5l-18.5 -18.5q-11 -9 -21 -17q-10 8 -20 17q-9 8 -18.5 18.5t-18.5 22.5z" />
<glyph unicode="&#x62c;" horiz-adv-x="616" arabic-form="initial" d="M588 253l-9 -87h-23h-43q-21 -3 -46.5 -12t-53 -21.5t-55 -26.5t-51.5 -28q-69 -40 -139 -59t-151 -19h-17l-16 3v88l16 3h15q81 0 147 13.5t121 39.5q14 7 38 17.5t50 21.5q-24 8 -50 21q-45 22 -85.5 39t-76.5 17q-20 0 -38.5 -4t-33.5 -9q-16 -6 -31 -13v80 q13 10 30 18q16 7 36 12t46 5q45 0 87.5 -19.5t87.5 -39.5q51 -25 98 -32.5t106 -7.5h41zM421 62q10 -8 21 -18q9 -8 19.5 -19t19.5 -23q-9 -12 -19.5 -22.5l-19.5 -19.5q-11 -9 -21 -17q-10 8 -20 17t-19.5 19.5t-18.5 22.5q9 12 19 23t19 19q10 10 20 18z" />
<glyph unicode="&#x62c;" horiz-adv-x="659" arabic-form="medial" d="M676 91v-88l-16 -3h-8q-45 0 -75.5 12.5t-50 34.5t-29.5 50.5t-14 61.5q-40 -12 -87.5 -35t-88.5 -46q-69 -40 -139 -59t-151 -19h-17l-16 3v88l16 3h15q81 0 147 13.5t121 39.5q14 7 38 17.5t50 21.5q-24 8 -50 21q-45 22 -85.5 39t-76.5 17q-20 0 -38.5 -4t-33.5 -9 q-16 -6 -31 -13v80q13 10 30 18q16 7 36 12t46 5q45 0 87.5 -19.5t87.5 -39.5q51 -25 98 -32.5t106 -7.5h41l-9 -86h-23h-20q3 -13 9.5 -26t19.5 -23.5t34 -17t54 -6.5h7zM394 35q10 -8 21 -18q9 -8 19.5 -19t19.5 -23q-9 -12 -19.5 -22.5l-19.5 -19.5q-11 -9 -21 -17 q-10 8 -20 17t-19.5 19.5t-18.5 22.5q9 12 19 23t19 19q10 10 20 18z" />
<glyph unicode="&#x62d;" horiz-adv-x="640" arabic-form="final" d="M656 91v-88l-16 -3h-2q-57 0 -93.5 16.5t-57.5 45.5t-27.5 67.5t-2.5 82.5q-73 -23 -138.5 -54t-115 -68.5t-78.5 -82t-29 -95.5q0 -11 8 -30.5t30.5 -38.5t62 -33t103.5 -14q47 0 90.5 7t78.5 15q40 10 75 23l-4 -91q-9 -5 -31.5 -13t-55 -15.5t-74.5 -13.5t-90 -6 q-53 0 -100 13.5t-82.5 40t-56.5 66t-21 92.5q0 67 25.5 119t68 92t98.5 69.5t117 53.5q-30 7 -57.5 15.5t-53 16t-50 12.5t-49.5 5q-17 0 -33 -3.5t-28 -6.5q-15 -5 -27 -11v82q14 8 30 14q14 5 31 9t37 4q30 0 66 -11t78.5 -23.5t92 -23.5t106.5 -11h89l-9 -92h-53 q-2 -30 2 -54t18.5 -41t41 -26t69.5 -9h1z" />
<glyph unicode="&#x62d;" horiz-adv-x="616" arabic-form="initial" d="M588 253l-9 -87h-23h-43q-21 -3 -46.5 -12t-53 -21.5t-55 -26.5t-51.5 -28q-69 -40 -139 -59t-151 -19h-17l-16 3v88l16 3h15q81 0 147 13.5t121 39.5q14 7 38 17.5t50 21.5q-24 8 -50 21q-45 22 -85.5 39t-76.5 17q-20 0 -38.5 -4t-33.5 -9q-16 -6 -31 -13v80 q13 10 30 18q16 7 36 12t46 5q45 0 87.5 -19.5t87.5 -39.5q51 -25 98 -32.5t106 -7.5h41z" />
<glyph unicode="&#x62d;" horiz-adv-x="659" arabic-form="medial" d="M676 91v-88l-16 -3h-8q-45 0 -75.5 12.5t-50 34.5t-29.5 50.5t-14 61.5q-40 -12 -87.5 -35t-88.5 -46q-69 -40 -139 -59t-151 -19h-17l-16 3v88l16 3h15q81 0 147 13.5t121 39.5q14 7 38 17.5t50 21.5q-24 8 -50 21q-45 22 -85.5 39t-76.5 17q-20 0 -38.5 -4t-33.5 -9 q-16 -6 -31 -13v80q13 10 30 18q16 7 36 12t46 5q45 0 87.5 -19.5t87.5 -39.5q51 -25 98 -32.5t106 -7.5h41l-9 -86h-23h-20q3 -13 9.5 -26t19.5 -23.5t34 -17t54 -6.5h7z" />
<glyph unicode="&#x62e;" horiz-adv-x="640" arabic-form="final" d="M315 414q-10 8 -20 18q-10 8 -19.5 18.5t-18.5 22.5q9 12 19 23t19 19q10 10 20 18q10 -8 21 -18q9 -8 19.5 -19t19.5 -23q-9 -12 -19.5 -22.5t-19.5 -18.5q-11 -10 -21 -18zM656 91v-88l-16 -3h-2q-57 0 -93.5 16.5t-57.5 45.5t-27.5 67.5t-2.5 82.5q-73 -23 -138.5 -54 t-115 -68.5t-78.5 -82t-29 -95.5q0 -11 8 -30.5t30.5 -38.5t62 -33t103.5 -14q47 0 90.5 7t78.5 15q40 10 75 23l-4 -91q-9 -5 -31.5 -13t-55 -15.5t-74.5 -13.5t-90 -6q-53 0 -100 13.5t-82.5 40t-56.5 66t-21 92.5q0 67 25.5 119t68 92t98.5 69.5t117 53.5 q-30 7 -57.5 15.5t-53 16t-50 12.5t-49.5 5q-17 0 -33 -3.5t-28 -6.5q-15 -5 -27 -11v82q14 8 30 14q14 5 31 9t37 4q30 0 66 -11t78.5 -23.5t92 -23.5t106.5 -11h89l-9 -92h-53q-2 -30 2 -54t18.5 -41t41 -26t69.5 -9h1z" />
<glyph unicode="&#x62e;" horiz-adv-x="616" arabic-form="initial" d="M301 384q-10 8 -20 18q-10 8 -19.5 18.5t-18.5 22.5q9 12 19 23t19 19q10 10 20 18q10 -8 21 -18q9 -8 19.5 -19t19.5 -23q-9 -12 -19.5 -22.5t-19.5 -18.5q-11 -10 -21 -18zM588 253l-9 -87h-23h-43q-21 -3 -46.5 -12t-53 -21.5t-55 -26.5t-51.5 -28q-69 -40 -139 -59 t-151 -19h-17l-16 3v88l16 3h15q81 0 147 13.5t121 39.5q14 7 38 17.5t50 21.5q-24 8 -50 21q-45 22 -85.5 39t-76.5 17q-20 0 -38.5 -4t-33.5 -9q-16 -6 -31 -13v80q13 10 30 18q16 7 36 12t46 5q45 0 87.5 -19.5t87.5 -39.5q51 -25 98 -32.5t106 -7.5h41z" />
<glyph unicode="&#x62e;" horiz-adv-x="659" arabic-form="medial" d="M301 384q-10 8 -20 18q-10 8 -19.5 18.5t-18.5 22.5q9 12 19 23t19 19q10 10 20 18q10 -8 21 -18q9 -8 19.5 -19t19.5 -23q-9 -12 -19.5 -22.5t-19.5 -18.5q-11 -10 -21 -18zM676 91v-88l-16 -3h-8q-45 0 -75.5 12.5t-50 34.5t-29.5 50.5t-14 61.5q-40 -12 -87.5 -35 t-88.5 -46q-69 -40 -139 -59t-151 -19h-17l-16 3v88l16 3h15q81 0 147 13.5t121 39.5q14 7 38 17.5t50 21.5q-24 8 -50 21q-45 22 -85.5 39t-76.5 17q-20 0 -38.5 -4t-33.5 -9q-16 -6 -31 -13v80q13 10 30 18q16 7 36 12t46 5q45 0 87.5 -19.5t87.5 -39.5q51 -25 98 -32.5 t106 -7.5h41l-9 -86h-23h-20q3 -13 9.5 -26t19.5 -23.5t34 -17t54 -6.5h7z" />
<glyph unicode="&#x62f;" horiz-adv-x="477" arabic-form="final" d="M493 91v-88l-16 -3q-50 0 -85 15t-58 51q-13 -27 -36 -41q-20 -14 -55.5 -22t-81.5 -8q-47 0 -82.5 7t-55.5 18l-4 91q21 -7 57 -14.5t89 -7.5q50 0 84 8t47 13q-12 30 -29 79t-33 97q-18 56 -38 117l82 12l58 -179q15 -45 27 -72.5t27 -43t35.5 -21t51.5 -5.5z" />
<glyph unicode="&#x630;" horiz-adv-x="477" arabic-form="final" d="M233 458q-10 8 -20 18q-10 8 -19.5 18.5t-18.5 22.5q9 12 19 23t19 19q10 10 20 18q10 -8 21 -18q9 -8 19.5 -19t19.5 -23q-9 -12 -19.5 -22.5t-19.5 -18.5q-11 -10 -21 -18zM493 91v-88l-16 -3q-50 0 -85 15t-58 51q-13 -27 -36 -41q-20 -14 -55.5 -22t-81.5 -8 q-47 0 -82.5 7t-55.5 18l-4 91q21 -7 57 -14.5t89 -7.5q50 0 84 8t47 13q-12 30 -29 79t-33 97q-18 56 -38 117l82 12l58 -179q15 -45 27 -72.5t27 -43t35.5 -21t51.5 -5.5z" />
<glyph unicode="&#x631;" horiz-adv-x="351" arabic-form="final" d="M367 91v-88l-16 -3q-42 0 -69 11.5t-45 32.5l-3 -21q-5 -28 -18 -65.5t-38 -71.5t-63.5 -57.5t-94.5 -23.5q-15 0 -27 2.5t-20 5.5q-10 4 -17 8l-5 88q2 0 19.5 -5.5t46.5 -5.5q42 0 70.5 18.5t46 47t25.5 62.5t8 66q0 7 -3 23.5t-8 39.5t-11.5 52.5t-12.5 61.5l76 12 q4 -17 8 -35q3 -17 7 -35.5t8 -37.5q6 -16 14.5 -30.5t22 -25t34 -17t49.5 -6.5z" />
<glyph unicode="&#x632;" horiz-adv-x="351" arabic-form="final" d="M163 332q-10 8 -20 18q-10 8 -19.5 18.5t-18.5 22.5q9 12 19 23t19 19q10 10 20 18q10 -8 21 -18q9 -8 19.5 -19t19.5 -23q-9 -12 -19.5 -22.5t-19.5 -18.5q-11 -10 -21 -18zM367 91v-88l-16 -3q-42 0 -69 11.5t-45 32.5l-3 -21q-5 -28 -18 -65.5t-38 -71.5t-63.5 -57.5 t-94.5 -23.5q-15 0 -27 2.5t-20 5.5q-10 4 -17 8l-5 88q2 0 19.5 -5.5t46.5 -5.5q42 0 70.5 18.5t46 47t25.5 62.5t8 66q0 7 -3 23.5t-8 39.5t-11.5 52.5t-12.5 61.5l76 12q4 -17 8 -35q3 -17 7 -35.5t8 -37.5q6 -16 14.5 -30.5t22 -25t34 -17t49.5 -6.5z" />
<glyph unicode="&#x633;" horiz-adv-x="1047" arabic-form="final" d="M1063 91v-88l-16 -3q-97 0 -141 44q-16 -19 -43.5 -31.5t-80.5 -12.5q-40 0 -67 11t-44 31q-13 -17 -37 -29.5t-69 -12.5q-30 0 -50 7v-8q-1 -29 -11 -57t-36 -57q-29 -32 -85.5 -56t-128.5 -24t-116 21.5t-68.5 53.5t-32.5 69.5t-8 69.5q0 38 6 70.5t13 56.5q8 28 19 51 h77q-11 -25 -20 -51q-9 -24 -15 -51t-6 -55q0 -18 3.5 -42.5t19.5 -46t47.5 -37t86.5 -15.5q41 0 74.5 9t57 22t36.5 26.5t13 22.5q0 19 -5 60t-12 83.5t-12.5 78t-7.5 42.5l80 13q6 -32 13 -73.5t12 -82.5q18 -7 57 -7q34 0 48.5 7.5t18.5 19.5q3 9 6.5 31.5t7 46.5t6 43.5 t2.5 22.5h76q-5 -38 -9 -76.5t-10 -78.5q13 -9 32.5 -12.5t42.5 -3.5q48 0 80 13q-2 6 -3.5 12t-2.5 12q-2 14 -4 40t-3 52q-2 30 -4 64l78 9q2 -27 4 -50t3.5 -43t2.5 -32q2 -18 6.5 -32.5t16 -24t32 -14.5t54.5 -5z" />
<glyph unicode="&#x633;" horiz-adv-x="677" arabic-form="initial" d="M616 326q5 -57 9 -106q2 -29 3.5 -47.5t2.5 -35t2 -30.5t1 -21q0 -15 -7.5 -32.5t-19.5 -32.5t-26 -25.5t-26 -10.5q-13 0 -35.5 4t-48.5 12.5t-53 21.5t-50 30q-11 -19 -35.5 -36t-77.5 -17q-38 0 -65 10t-44 36q-23 -32 -59 -39t-87 -7l-16 3v88l16 3q57 0 79.5 5 t27.5 18q2 6 5 23t6 36q4 22 8 48h75q-4 -31 -8 -59.5t-9 -56.5q17 -15 72 -15q34 0 48.5 7.5t18.5 19.5q3 8 6.5 30.5t7 47t6 44t2.5 21.5h76q-4 -31 -7 -63t-8 -64q15 -9 34 -18t39 -17t40 -13.5t37 -8.5l-19 237z" />
<glyph unicode="&#x633;" horiz-adv-x="738" arabic-form="medial" d="M753 91v-88l-16 -3q-49 0 -83.5 10.5t-57.5 33.5q-16 -20 -43.5 -32t-80.5 -12q-40 0 -67 11t-44 31q-13 -17 -37 -29.5t-69 -12.5q-38 0 -65 10t-44 36q-23 -32 -59 -39t-87 -7l-16 3v88l16 3q57 0 79.5 5t27.5 18q2 6 5 23t6 36q4 22 8 48h75q-4 -31 -8 -59.5t-9 -56.5 q17 -15 72 -15q34 0 48.5 7.5t18.5 19.5q3 8 6.5 30.5t7 47t6 44t2.5 21.5h76q-4 -37 -8.5 -75t-9.5 -76q11 -10 30.5 -14.5t43.5 -4.5t45 3.5t35 11.5q-4 9 -6 22q-2 14 -4 40t-3 52q-2 30 -4 64l78 9q2 -27 4 -50t3.5 -43t2.5 -32q2 -18 6.5 -32.5t16 -24t32 -14.5 t54.5 -5z" />
<glyph unicode="&#x634;" horiz-adv-x="1047" arabic-form="final" d="M687 415q-9 7 -19 16q-8 8 -17 17.5t-17 20.5q8 12 17 22t17 17q10 9 19 16q9 -7 19 -16l17.5 -17.5t17.5 -21.5q-8 -11 -17.5 -20.5l-17.5 -17.5q-10 -9 -19 -16zM636 313q-10 8 -20 17q-9 8 -18 17.5t-17 20.5q8 12 17.5 22.5t17.5 18.5q10 9 20 17q9 -7 18 -16 q8 -7 17 -16.5t17 -20.5q8 11 17.5 20.5l16.5 16.5q9 9 18 16q10 -8 19 -17t18.5 -19t18.5 -22q-9 -11 -18.5 -21t-18.5 -17q-9 -9 -19 -17q-9 7 -18 15q-8 7 -17 16t-17 20q-8 -11 -17.5 -20t-16.5 -16q-9 -8 -18 -15zM1063 91v-88l-16 -3q-97 0 -141 44 q-16 -19 -43.5 -31.5t-80.5 -12.5q-40 0 -67 11t-44 31q-13 -17 -37 -29.5t-69 -12.5q-30 0 -50 7v-8q-1 -29 -11 -57t-36 -57q-29 -32 -85.5 -56t-128.5 -24t-116 21.5t-68.5 53.5t-32.5 69.5t-8 69.5q0 38 6 70.5t13 56.5q8 28 19 51h77q-11 -25 -20 -51q-9 -24 -15 -51 t-6 -55q0 -18 3.5 -42.5t19.5 -46t47.5 -37t86.5 -15.5q41 0 74.5 9t57 22t36.5 26.5t13 22.5q0 19 -5 60t-12 83.5t-12.5 78t-7.5 42.5l80 13q6 -32 13 -73.5t12 -82.5q18 -7 57 -7q34 0 48.5 7.5t18.5 19.5q3 9 6.5 31.5t7 46.5t6 43.5t2.5 22.5h76q-5 -38 -9 -76.5 t-10 -78.5q13 -9 32.5 -12.5t42.5 -3.5q48 0 80 13q-2 6 -3.5 12t-2.5 12q-2 14 -4 40t-3 52q-2 30 -4 64l78 9q2 -27 4 -50t3.5 -43t2.5 -32q2 -18 6.5 -32.5t16 -24t32 -14.5t54.5 -5z" />
<glyph unicode="&#x634;" horiz-adv-x="677" arabic-form="initial" d="M376 414q-9 7 -19 16q-8 8 -17 17.5t-17 20.5q8 12 17 22t17 17q10 9 19 16q9 -7 19 -16l17.5 -17.5t17.5 -21.5q-8 -11 -17.5 -20.5l-17.5 -17.5q-10 -9 -19 -16zM325 312q-10 8 -20 17q-9 8 -18 17.5t-17 20.5q8 12 17.5 22.5t17.5 18.5q10 9 20 17q9 -7 18 -16 q8 -7 17 -16.5t17 -20.5q8 11 17.5 20.5l16.5 16.5q9 9 18 16q10 -8 19 -17t18.5 -19t18.5 -22q-9 -11 -18.5 -21t-18.5 -17q-9 -9 -19 -17q-9 7 -18 15q-8 7 -17 16t-17 20q-8 -11 -17.5 -20t-16.5 -16q-9 -8 -18 -15zM616 326q5 -57 9 -106q2 -29 3.5 -47.5t2.5 -35 t2 -30.5t1 -21q0 -15 -7.5 -32.5t-19.5 -32.5t-26 -25.5t-26 -10.5q-13 0 -35.5 4t-48.5 12.5t-53 21.5t-50 30q-11 -19 -35.5 -36t-77.5 -17q-38 0 -65 10t-44 36q-23 -32 -59 -39t-87 -7l-16 3v88l16 3q57 0 79.5 5t27.5 18q2 6 5 23t6 36q4 22 8 48h75q-4 -31 -8 -59.5 t-9 -56.5q17 -15 72 -15q34 0 48.5 7.5t18.5 19.5q3 8 6.5 30.5t7 47t6 44t2.5 21.5h76q-4 -31 -7 -63t-8 -64q15 -9 34 -18t39 -17t40 -13.5t37 -8.5l-19 237z" />
<glyph unicode="&#x634;" horiz-adv-x="738" arabic-form="medial" d="M376 414q-9 7 -19 16q-8 8 -17 17.5t-17 20.5q8 12 17 22t17 17q10 9 19 16q9 -7 19 -16l17.5 -17.5t17.5 -21.5q-8 -11 -17.5 -20.5l-17.5 -17.5q-10 -9 -19 -16zM325 312q-10 8 -20 17q-9 8 -18 17.5t-17 20.5q8 12 17.5 22.5t17.5 18.5q10 9 20 17q9 -7 18 -16 q8 -7 17 -16.5t17 -20.5q8 11 17.5 20.5l16.5 16.5q9 9 18 16q10 -8 19 -17t18.5 -19t18.5 -22q-9 -11 -18.5 -21t-18.5 -17q-9 -9 -19 -17q-9 7 -18 15q-8 7 -17 16t-17 20q-8 -11 -17.5 -20t-16.5 -16q-9 -8 -18 -15zM753 91v-88l-16 -3q-49 0 -83.5 10.5t-57.5 33.5 q-16 -20 -43.5 -32t-80.5 -12q-40 0 -67 11t-44 31q-13 -17 -37 -29.5t-69 -12.5q-38 0 -65 10t-44 36q-23 -32 -59 -39t-87 -7l-16 3v88l16 3q57 0 79.5 5t27.5 18q2 6 5 23t6 36q4 22 8 48h75q-4 -31 -8 -59.5t-9 -56.5q17 -15 72 -15q34 0 48.5 7.5t18.5 19.5 q3 8 6.5 30.5t7 47t6 44t2.5 21.5h76q-4 -37 -8.5 -75t-9.5 -76q11 -10 30.5 -14.5t43.5 -4.5t45 3.5t35 11.5q-4 9 -6 22q-2 14 -4 40t-3 52q-2 30 -4 64l78 9q2 -27 4 -50t3.5 -43t2.5 -32q2 -18 6.5 -32.5t16 -24t32 -14.5t54.5 -5z" />
<glyph unicode="&#x635;" horiz-adv-x="1140" arabic-form="final" d="M1156 91v-88l-16 -3q-42 0 -83.5 10t-73.5 41q-50 -30 -121.5 -40.5t-145.5 -10.5h-12q-60 0 -107.5 7.5t-82.5 19.5q1 -8 1 -15v-13q-1 -29 -11 -57t-36 -57q-29 -32 -85.5 -56t-128.5 -24t-116 21.5t-68.5 53.5t-32.5 69.5t-8 69.5q0 38 6 70.5t13 56.5q8 28 19 51h77 q-11 -25 -20 -51q-9 -24 -15 -51t-6 -55q0 -18 3.5 -42.5t19.5 -46t47.5 -37t86.5 -15.5q41 0 74.5 9t57 22t36.5 26.5t13 22.5q0 19 -5 60t-12 83.5t-12.5 78t-7.5 42.5l80 13q5 -26 10.5 -59t10.5 -67q15 -9 38 -15q23 36 56 82t74 86.5t88.5 68.5t99.5 28 q41 0 76.5 -20.5t61.5 -51.5t40.5 -68t14.5 -70q0 -32 -12 -58q17 -8 40.5 -13t57.5 -5zM721 93q46 0 93 4.5t85 12.5t62 21t24 29q0 12 -10 33t-28 41.5t-44 36t-58 15.5q-36 0 -71 -18.5t-66.5 -46t-58 -60t-46.5 -60.5q26 -4 53 -6t53 -2h12z" />
<glyph unicode="&#x635;" horiz-adv-x="766" arabic-form="initial" d="M530 380q41 0 76.5 -20.5t61.5 -51.5t40.5 -68t14.5 -70q0 -52 -30 -85.5t-78 -52t-108.5 -25.5t-121.5 -7h-12q-94 0 -158 17.5t-89 39.5q-11 -20 -25.5 -31.5t-31 -17t-34 -7t-35.5 -1.5l-16 3v88l16 3q73 0 80 23q2 6 5.5 23t6.5 36q4 22 8 48h75l-12 -86 q17 -14 49 -23q23 36 56 82t74 86.5t88.5 68.5t99.5 28zM390 93q46 0 93 4.5t85 12.5t62 21t24 29q0 12 -10 33t-28 41.5t-44 36t-58 15.5q-36 0 -71 -18.5t-66.5 -46t-58 -60t-46.5 -60.5q26 -4 53 -6t53 -2h12z" />
<glyph unicode="&#x635;" horiz-adv-x="819" arabic-form="medial" d="M835 91v-88l-16 -3q-42 0 -85.5 11t-75.5 43q-25 -16 -56.5 -26.5t-67 -16.5t-73.5 -8.5t-76 -2.5h-12q-94 0 -158 17.5t-89 39.5q-11 -20 -25.5 -31.5t-31 -17t-34 -7t-35.5 -1.5l-16 3v88l16 3q73 0 80 23q2 6 5.5 23t6.5 36q4 22 8 48h75l-12 -86q17 -14 49 -23 q23 36 56 82t74 86.5t88.5 68.5t99.5 28q41 0 76.5 -20.5t61.5 -51.5t40.5 -68t14.5 -70q0 -28 -10 -53q17 -10 42.5 -16.5t63.5 -6.5zM390 93q46 0 93 4.5t85 12.5t62 21t24 29q0 12 -10 33t-28 41.5t-44 36t-58 15.5q-36 0 -71 -18.5t-66.5 -46t-58 -60t-46.5 -60.5 q26 -4 53 -6t53 -2h12z" />
<glyph unicode="&#x636;" horiz-adv-x="1140" arabic-form="final" d="M850 427q-10 8 -20 18q-10 8 -19.5 18.5t-18.5 22.5q9 12 19 23t19 19q10 10 20 18q10 -8 21 -18q9 -8 19.5 -19t19.5 -23q-9 -12 -19.5 -22.5t-19.5 -18.5q-11 -10 -21 -18zM1156 91v-88l-16 -3q-42 0 -83.5 10t-73.5 41q-50 -30 -121.5 -40.5t-145.5 -10.5h-12 q-60 0 -107.5 7.5t-82.5 19.5q1 -8 1 -15v-13q-1 -29 -11 -57t-36 -57q-29 -32 -85.5 -56t-128.5 -24t-116 21.5t-68.5 53.5t-32.5 69.5t-8 69.5q0 38 6 70.5t13 56.5q8 28 19 51h77q-11 -25 -20 -51q-9 -24 -15 -51t-6 -55q0 -18 3.5 -42.5t19.5 -46t47.5 -37t86.5 -15.5 q41 0 74.5 9t57 22t36.5 26.5t13 22.5q0 19 -5 60t-12 83.5t-12.5 78t-7.5 42.5l80 13q5 -26 10.5 -59t10.5 -67q15 -9 38 -15q23 36 56 82t74 86.5t88.5 68.5t99.5 28q41 0 76.5 -20.5t61.5 -51.5t40.5 -68t14.5 -70q0 -32 -12 -58q17 -8 40.5 -13t57.5 -5zM721 93 q46 0 93 4.5t85 12.5t62 21t24 29q0 12 -10 33t-28 41.5t-44 36t-58 15.5q-36 0 -71 -18.5t-66.5 -46t-58 -60t-46.5 -60.5q26 -4 53 -6t53 -2h12z" />
<glyph unicode="&#x636;" horiz-adv-x="761" arabic-form="initial" d="M538 427q-10 8 -20 18q-10 8 -19.5 18.5t-18.5 22.5q9 12 19 23t19 19q10 10 20 18q10 -8 21 -18q9 -8 19.5 -19t19.5 -23q-9 -12 -19.5 -22.5t-19.5 -18.5q-11 -10 -21 -18zM530 380q41 0 76.5 -20.5t61.5 -51.5t40.5 -68t14.5 -70q0 -52 -30 -85.5t-78 -52 t-108.5 -25.5t-121.5 -7h-12q-94 0 -158 17.5t-89 39.5q-11 -20 -25.5 -31.5t-31 -17t-34 -7t-35.5 -1.5l-16 3v88l16 3q73 0 80 23q2 6 5.5 23t6.5 36q4 22 8 48h75l-12 -86q17 -14 49 -23q23 36 56 82t74 86.5t88.5 68.5t99.5 28zM390 93q46 0 93 4.5t85 12.5t62 21t24 29 q0 12 -10 33t-28 41.5t-44 36t-58 15.5q-36 0 -71 -18.5t-66.5 -46t-58 -60t-46.5 -60.5q26 -4 53 -6t53 -2h12z" />
<glyph unicode="&#x636;" horiz-adv-x="819" arabic-form="medial" d="M538 427q-10 8 -20 18q-10 8 -19.5 18.5t-18.5 22.5q9 12 19 23t19 19q10 10 20 18q10 -8 21 -18q9 -8 19.5 -19t19.5 -23q-9 -12 -19.5 -22.5t-19.5 -18.5q-11 -10 -21 -18zM835 91v-88l-16 -3q-42 0 -85.5 11t-75.5 43q-25 -16 -56.5 -26.5t-67 -16.5t-73.5 -8.5 t-76 -2.5h-12q-94 0 -158 17.5t-89 39.5q-11 -20 -25.5 -31.5t-31 -17t-34 -7t-35.5 -1.5l-16 3v88l16 3q73 0 80 23q2 6 5.5 23t6.5 36q4 22 8 48h75l-12 -86q17 -14 49 -23q23 36 56 82t74 86.5t88.5 68.5t99.5 28q41 0 76.5 -20.5t61.5 -51.5t40.5 -68t14.5 -70 q0 -28 -10 -53q17 -10 42.5 -16.5t63.5 -6.5zM390 93q46 0 93 4.5t85 12.5t62 21t24 29q0 12 -10 33t-28 41.5t-44 36t-58 15.5q-36 0 -71 -18.5t-66.5 -46t-58 -60t-46.5 -60.5q26 -4 53 -6t53 -2h12z" />
<glyph unicode="&#x637;" horiz-adv-x="723" arabic-form="final" d="M739 91v-88l-16 -3q-42 0 -83.5 10t-73.5 41q-50 -30 -121.5 -40.5t-145.5 -10.5h-15q-57 0 -99 4t-73 11t-52 15t-35 15l-1 92q14 -7 37 -15t60 -16q12 20 26.5 42t31.5 45v488l82 5v-327q0 -25 -6.5 -48.5t-15.5 -43.5q45 47 96.5 80t108.5 33q41 0 76.5 -20.5 t61.5 -51.5t40.5 -68t14.5 -70q0 -32 -12 -58q17 -8 40.5 -13t57.5 -5zM304 93q46 0 93 4.5t85 12.5t62 21t24 29q0 12 -10 33t-28.5 41.5t-44.5 36t-58 15.5q-37 0 -72.5 -19t-67 -47t-58 -61t-45.5 -61q23 -2 48.5 -3.5t56.5 -1.5h15z" />
<glyph unicode="&#x637;" horiz-adv-x="568" arabic-form="initial" d="M337 380q42 0 77.5 -20.5t61.5 -51.5t40.5 -68t14.5 -70q0 -52 -30 -85.5t-78.5 -52t-109 -25.5t-121.5 -7h-192l-16 4v87l16 3h7q14 23 30 48t36 51v488l82 5v-327q0 -25 -6.5 -49t-15.5 -44q45 48 96 81t108 33zM198 93q46 0 93 4.5t85 12.5t62 21t24 29q0 12 -10 33 t-28.5 41.5t-44.5 36t-58 15.5q-37 0 -73.5 -19.5t-68.5 -49t-59 -63t-46 -61.5h124z" />
<glyph unicode="&#x637;" horiz-adv-x="617" arabic-form="medial" d="M633 91v-88l-16 -3q-42 0 -83.5 10t-73.5 41q-50 -30 -121.5 -40.5t-146.5 -10.5h-192l-16 4v87l16 3h7q14 23 30 48t36 51v488l82 5v-327q0 -25 -6.5 -49t-15.5 -44q45 48 96 81t108 33q42 0 77.5 -20.5t61.5 -51.5t40.5 -68t14.5 -70q0 -32 -12 -58q17 -8 40.5 -13 t57.5 -5zM198 93q46 0 93 4.5t85 12.5t62 21t24 29q0 12 -10 33t-28.5 41.5t-44.5 36t-58 15.5q-37 0 -73.5 -19.5t-68.5 -49t-59 -63t-46 -61.5h124z" />
<glyph unicode="&#x638;" horiz-adv-x="723" arabic-form="final" d="M739 91v-88l-16 -3q-42 0 -83.5 10t-73.5 41q-50 -30 -121.5 -40.5t-145.5 -10.5h-15q-57 0 -99 4t-73 11t-52 15t-35 15l-1 92q14 -7 37 -15t60 -16q12 20 26.5 42t31.5 45v488l82 5v-327q0 -25 -6.5 -48.5t-15.5 -43.5q45 47 96.5 80t108.5 33q41 0 76.5 -20.5 t61.5 -51.5t40.5 -68t14.5 -70q0 -32 -12 -58q17 -8 40.5 -13t57.5 -5zM432 435q-10 8 -20 18q-10 8 -19.5 18.5t-18.5 22.5q9 12 19 23t19 19q10 10 20 18q10 -8 21 -18q9 -8 19.5 -19t19.5 -23q-9 -12 -19.5 -22.5t-19.5 -18.5q-11 -10 -21 -18zM304 93q46 0 93 4.5 t85 12.5t62 21t24 29q0 12 -10 33t-28.5 41.5t-44.5 36t-58 15.5q-37 0 -72.5 -19t-67 -47t-58 -61t-45.5 -61q23 -2 48.5 -3.5t56.5 -1.5h15z" />
<glyph unicode="&#x638;" horiz-adv-x="568" arabic-form="initial" d="M337 380q42 0 77.5 -20.5t61.5 -51.5t40.5 -68t14.5 -70q0 -52 -30 -85.5t-78.5 -52t-109 -25.5t-121.5 -7h-192l-16 4v87l16 3h7q14 23 30 48t36 51v488l82 5v-327q0 -25 -6.5 -49t-15.5 -44q45 48 96 81t108 33zM323 435q-10 8 -20 18q-10 8 -19.5 18.5t-18.5 22.5 q9 12 19 23t19 19q10 10 20 18q10 -8 21 -18q9 -8 19.5 -19t19.5 -23q-9 -12 -19.5 -22.5t-19.5 -18.5q-11 -10 -21 -18zM198 93q46 0 93 4.5t85 12.5t62 21t24 29q0 12 -10 33t-28.5 41.5t-44.5 36t-58 15.5q-37 0 -73.5 -19.5t-68.5 -49t-59 -63t-46 -61.5h124z" />
<glyph unicode="&#x638;" horiz-adv-x="617" arabic-form="medial" d="M633 91v-88l-16 -3q-42 0 -83.5 10t-73.5 41q-50 -30 -121.5 -40.5t-146.5 -10.5h-192l-16 4v87l16 3h7q14 23 30 48t36 51v488l82 5v-327q0 -25 -6.5 -49t-15.5 -44q45 48 96 81t108 33q42 0 77.5 -20.5t61.5 -51.5t40.5 -68t14.5 -70q0 -32 -12 -58q17 -8 40.5 -13 t57.5 -5zM323 435q-10 8 -20 18q-10 8 -19.5 18.5t-18.5 22.5q9 12 19 23t19 19q10 10 20 18q10 -8 21 -18q9 -8 19.5 -19t19.5 -23q-9 -12 -19.5 -22.5t-19.5 -18.5q-11 -10 -21 -18zM198 93q46 0 93 4.5t85 12.5t62 21t24 29q0 12 -10 33t-28.5 41.5t-44.5 36t-58 15.5 q-37 0 -73.5 -19.5t-68.5 -49t-59 -63t-46 -61.5h124z" />
<glyph unicode="&#x639;" horiz-adv-x="548" arabic-form="final" d="M564 91v-88l-16 -3h-64q-72 0 -123.5 20.5t-93.5 52.5q-76 -35 -123.5 -75.5t-47.5 -89.5q0 -9 8 -28t29.5 -37.5t60.5 -32.5t102 -14q46 0 87.5 6t73.5 13q36 8 68 19l-4 -91q-1 -1 -20 -7.5t-50.5 -14t-73.5 -13.5t-91 -6q-52 0 -98.5 12t-82 37t-56 64.5t-20.5 93.5 q0 46 18.5 82.5t45 64t56.5 46t53 30.5l-18 18q-31 32 -59 58t-66 57v82q12 6 37 12.5t57.5 12t68 9.5t66.5 4q66 0 120 -12t79 -28q0 -17 -1 -42t-5 -36q-9 -22 -42 -63t-96 -83q27 -12 60.5 -19.5t78.5 -7.5h66zM142 284q38 -27 84 -72q13 -12 25 -24t25 -23 q49 25 86.5 55.5t57.5 61.5q-30 8 -67 12.5t-75 4.5q-41 0 -75 -4t-61 -11z" />
<glyph unicode="&#x639;" horiz-adv-x="450" arabic-form="initial" d="M421 70q-69 -35 -174.5 -52.5t-228.5 -17.5h-18l-16 3v88l16 3h22q21 0 41.5 1t37.5 3q-23 25 -34 55t-12 59q0 34 12.5 66.5t36 58t56.5 41.5t74 16q40 0 67 -14.5t39 -27.5l-12 -79q-15 9 -40.5 18t-57.5 9q-25 0 -45.5 -8.5t-35 -21.5t-22.5 -29t-8 -32q0 -7 7 -22 t22 -30t39 -26.5t58 -11.5q23 0 47.5 4.5t47 11t42 13.5t31.5 12z" />
<glyph unicode="&#x639;" horiz-adv-x="527" arabic-form="medial" d="M543 91v-88l-16 -3h-62q-41 0 -72.5 3t-56 9t-44.5 16t-39 24q-50 -24 -107.5 -38t-124.5 -14h-22l-15 3v88l15 3h36q95 0 156 16q-31 32 -68 70.5t-74 67.5v80q12 6 37 12.5t57.5 12.5t68 10t66.5 4q65 0 119 -12t79 -29q0 -17 -0.5 -41.5t-5.5 -35.5 q-8 -21 -40.5 -63.5t-91.5 -84.5q21 -5 50 -6t72 -1h67zM411 264q-30 8 -67.5 13t-76.5 5q-40 0 -74 -4t-61 -11q23 -21 48.5 -45.5t48.5 -47.5q11 -11 20 -19.5t18 -15.5q47 24 85.5 58.5t58.5 66.5z" />
<glyph unicode="&#x63a;" horiz-adv-x="548" arabic-form="final" d="M277 424q-10 8 -20 18q-10 8 -19.5 18.5t-18.5 22.5q9 12 19 23t19 19q10 10 20 18q10 -8 21 -18q9 -8 19.5 -19t19.5 -23q-9 -12 -19.5 -22.5t-19.5 -18.5q-11 -10 -21 -18zM564 91v-88l-16 -3h-64q-72 0 -123.5 20.5t-93.5 52.5q-76 -35 -123.5 -75.5t-47.5 -89.5 q0 -9 8 -28t29.5 -37.5t60.5 -32.5t102 -14q46 0 87.5 6t73.5 13q36 8 68 19l-4 -91q-1 -1 -20 -7.5t-50.5 -14t-73.5 -13.5t-91 -6q-52 0 -98.5 12t-82 37t-56 64.5t-20.5 93.5q0 46 18.5 82.5t45 64t56.5 46t53 30.5l-18 18q-31 32 -59 58t-66 57v82q12 6 37 12.5t57.5 12 t68 9.5t66.5 4q66 0 120 -12t79 -28q0 -17 -1 -42t-5 -36q-9 -22 -42 -63t-96 -83q27 -12 60.5 -19.5t78.5 -7.5h66zM142 284q38 -27 84 -72q13 -12 25 -24t25 -23q49 25 86.5 55.5t57.5 61.5q-30 8 -67 12.5t-75 4.5q-41 0 -75 -4t-61 -11z" />
<glyph unicode="&#x63a;" horiz-adv-x="450" arabic-form="initial" d="M219 435q-10 8 -20 18q-10 8 -19.5 18.5t-18.5 22.5q9 12 19 23t19 19q10 10 20 18q10 -8 21 -18q9 -8 19.5 -19t19.5 -23q-9 -12 -19.5 -22.5t-19.5 -18.5q-11 -10 -21 -18zM421 70q-69 -35 -174.5 -52.5t-228.5 -17.5h-18l-16 3v88l16 3h22q21 0 41.5 1t37.5 3 q-23 25 -34 55t-12 59q0 34 12.5 66.5t36 58t56.5 41.5t74 16q40 0 67 -14.5t39 -27.5l-12 -79q-15 9 -40.5 18t-57.5 9q-25 0 -45.5 -8.5t-35 -21.5t-22.5 -29t-8 -32q0 -7 7 -22t22 -30t39 -26.5t58 -11.5q23 0 47.5 4.5t47 11t42 13.5t31.5 12z" />
<glyph unicode="&#x63a;" horiz-adv-x="527" arabic-form="medial" d="M269 407q-10 8 -20 18q-10 8 -19.5 18.5t-18.5 22.5q9 12 19 23t19 19q10 10 20 18q10 -8 21 -18q9 -8 19.5 -19t19.5 -23q-9 -12 -19.5 -22.5t-19.5 -18.5q-11 -10 -21 -18zM543 91v-88l-16 -3h-62q-41 0 -72.5 3t-56 9t-44.5 16t-39 24q-50 -24 -107.5 -38t-124.5 -14 h-22l-15 3v88l15 3h36q95 0 156 16q-31 32 -68 70.5t-74 67.5v80q12 6 37 12.5t57.5 12.5t68 10t66.5 4q65 0 119 -12t79 -29q0 -17 -0.5 -41.5t-5.5 -35.5q-8 -21 -40.5 -63.5t-91.5 -84.5q21 -5 50 -6t72 -1h67zM411 264q-30 8 -67.5 13t-76.5 5q-40 0 -74 -4t-61 -11 q23 -21 48.5 -45.5t48.5 -47.5q11 -11 20 -19.5t18 -15.5q47 24 85.5 58.5t58.5 66.5z" />
<glyph unicode="&#x641;" horiz-adv-x="795" arabic-form="final" d="M590 452q-10 8 -20 17q-9 9 -18.5 19t-18.5 22q9 12 19 23t18 19q10 10 20 18q10 -8 21 -18q9 -8 19 -19t19 -23q-9 -12 -19.5 -22.5l-18.5 -18.5q-11 -9 -21 -17zM811 91v-88l-16 -3q-57 0 -108.5 8t-102.5 30q-39 -17 -107.5 -33t-165.5 -16q-96 0 -152.5 19t-85 47.5 t-36.5 63.5t-8 66q0 32 6 60t14 49q9 25 20 46h78q-13 -21 -22 -45q-10 -21 -16.5 -44.5t-6.5 -48.5q0 -29 11 -51.5t37.5 -37.5t71 -23t110.5 -8q41 0 83 4.5t73 11.5q-26 23 -43 53t-17 72q0 32 13 65t35.5 60.5t52.5 45t65 17.5t61.5 -19t44.5 -48.5t27 -64t9 -64.5 q0 -32 -15 -60.5t-42 -52.5q33 -6 63 -7t53 -1zM578 317q-18 0 -34.5 -9t-29 -23t-20 -29.5t-7.5 -29.5q0 -13 8.5 -27t23 -26.5t33.5 -24t39 -19.5q35 16 54.5 39t19.5 41q0 14 -6.5 33t-17.5 35.5t-27 28t-36 11.5z" />
<glyph unicode="&#x641;" horiz-adv-x="385" arabic-form="initial" d="M188 504q-10 8 -20 17q-9 9 -18.5 19t-18.5 22q9 12 19 23t18 19q10 10 20 18q10 -8 21 -18q9 -8 19 -19t19 -23q-9 -12 -19.5 -22.5l-18.5 -18.5q-11 -9 -21 -17zM190 462q39 0 68 -24.5t47.5 -60t27.5 -76.5t9 -74q0 -28 -3 -56.5t-12 -54.5t-25 -48t-42 -36 q-25 -14 -66 -23t-116 -9h-79l-16 3v88l16 3h103q63 0 97 7t51 18q10 7 16.5 22.5t8.5 31.5q-16 -8 -42 -16t-62 -8q-62 0 -100.5 30t-38.5 96q0 28 11 60.5t31.5 60.5t49.5 47t66 19zM91 277q0 -13 8 -21.5t20.5 -13.5t27.5 -7t28 -2q29 0 54.5 4.5t43.5 10.5 q-3 21 -11.5 42.5t-21 38.5t-29 28t-37.5 11q-19 0 -34 -9.5t-26 -23.5t-17 -29.5t-6 -28.5z" />
<glyph unicode="&#x641;" horiz-adv-x="414" arabic-form="medial" d="M207 448q-10 8 -20 18q-10 8 -19.5 18.5t-18.5 22.5q9 12 19 23t19 19q10 10 20 18q10 -8 21 -18q9 -8 19.5 -19t19.5 -23q-9 -12 -19.5 -22.5t-19.5 -18.5q-11 -10 -21 -18zM430 91v-88l-16 -3q-58 0 -112.5 8.5t-106.5 33.5q-34 -17 -81.5 -29.5t-113.5 -12.5l-16 3v88 l16 3q23 0 49.5 1.5t54.5 4.5q-26 23 -41.5 52.5t-15.5 70.5q0 32 13 65t35.5 60.5t52.5 45t65 17.5t61.5 -19t44.5 -48.5t27 -64t9 -64.5q0 -33 -15 -61t-42 -52q33 -6 63 -7t53 -1zM197 317q-18 0 -34.5 -9t-29 -23t-20 -29.5t-7.5 -29.5q0 -13 9 -27t23 -27t33 -24 t38 -20q35 16 55 39.5t20 41.5q0 14 -6.5 33t-17.5 35.5t-27 28t-36 11.5z" />
<glyph unicode="&#x642;" horiz-adv-x="629" arabic-form="final" d="M357 377q-10 8 -20 18q-9 8 -18 18t-17 21q8 12 17.5 22t17.5 18q10 9 20 17q8 -6 16 -14q8 -7 16.5 -15.5t16.5 -18.5q8 10 16.5 19t15.5 15q9 8 17 14q9 -8 19 -17q9 -8 18.5 -18t18.5 -22q-9 -11 -19 -21l-18 -18q-10 -10 -19 -18q-8 7 -17 15l-15.5 15.5t-16.5 17.5 q-8 -9 -17 -18t-16 -15q-8 -8 -16 -15zM645 90v-87l-16 -3h-56q-7 -44 -21.5 -75.5t-35.5 -55.5q-15 -16 -39.5 -32t-56.5 -28.5t-70 -20t-80 -7.5q-72 0 -118.5 23.5t-74 58t-38 74.5t-10.5 73q0 38 6 71t13 58q8 28 19 52h78q-12 -25 -21 -52q-9 -25 -15 -52.5t-6 -55.5 q0 -19 6 -46t24.5 -51t53 -41t90.5 -17q44 0 82 9t66.5 22t46.5 27t22 23q5 11 8 21.5t5 21.5h-108q-66 0 -105 31.5t-39 100.5q0 31 11.5 66.5t33 65.5t51.5 49.5t67 19.5q39 0 68 -22.5t49.5 -57.5t31.5 -77t12 -82h50zM313 136q0 -13 8 -21.5t21 -13.5t28 -7t30 -2h111 q-3 26 -12 52t-22.5 47t-32 34.5t-41.5 13.5q-20 0 -36.5 -10.5t-28.5 -26t-18.5 -33.5t-6.5 -33z" />
<glyph unicode="&#x642;" horiz-adv-x="385" arabic-form="initial" d="M137 503q-10 8 -20 18q-9 8 -18 18t-17 21q8 12 17.5 22t17.5 18q10 9 20 17q8 -6 16 -14q8 -7 16.5 -15.5t16.5 -18.5q8 10 16.5 19t15.5 15q9 8 17 14q9 -8 19 -17q9 -8 18.5 -18t18.5 -22q-9 -11 -19 -21l-18 -18q-10 -10 -19 -18q-8 7 -17 15l-15.5 15.5t-16.5 17.5 q-8 -9 -17 -18t-16 -15q-8 -8 -16 -15zM190 462q39 0 68 -24.5t47.5 -60t27.5 -76.5t9 -74q0 -28 -3 -56.5t-12 -54.5t-25 -48t-42 -36q-25 -14 -66 -23t-116 -9h-79l-16 3v88l16 3h103q63 0 97 7t51 18q10 7 16.5 22.5t8.5 31.5q-16 -8 -42 -16t-62 -8q-62 0 -100.5 30 t-38.5 96q0 28 11 60.5t31.5 60.5t49.5 47t66 19zM91 277q0 -13 8 -21.5t20.5 -13.5t27.5 -7t28 -2q29 0 54.5 4.5t43.5 10.5q-3 21 -11.5 42.5t-21 38.5t-29 28t-37.5 11q-19 0 -34 -9.5t-26 -23.5t-17 -29.5t-6 -28.5z" />
<glyph unicode="&#x642;" horiz-adv-x="414" arabic-form="medial" d="M157 449q-10 8 -20 18q-9 8 -18 18t-17 21q8 12 17.5 22t17.5 18q10 9 20 17q8 -6 16 -14q8 -7 16.5 -15.5t16.5 -18.5q8 10 16.5 19t15.5 15q9 8 17 14q9 -8 19 -17q9 -8 18.5 -18t18.5 -22q-9 -11 -19 -21l-18 -18q-10 -10 -19 -18q-8 7 -17 15l-15.5 15.5t-16.5 17.5 q-8 -9 -17 -18t-16 -15q-8 -8 -16 -15zM430 91v-88l-16 -3q-58 0 -112.5 8.5t-106.5 33.5q-34 -17 -81.5 -29.5t-113.5 -12.5l-16 3v88l16 3q23 0 49.5 1.5t54.5 4.5q-26 23 -41.5 52.5t-15.5 70.5q0 32 13 65t35.5 60.5t52.5 45t65 17.5t61.5 -19t44.5 -48.5t27 -64 t9 -64.5q0 -33 -15 -61t-42 -52q33 -6 63 -7t53 -1zM197 317q-18 0 -34.5 -9t-29 -23t-20 -29.5t-7.5 -29.5q0 -13 9 -27t23 -27t33 -24t38 -20q35 16 55 39.5t20 41.5q0 14 -6.5 33t-17.5 35.5t-27 28t-36 11.5z" />
<glyph unicode="&#x643;" horiz-adv-x="748" arabic-form="final" d="M764 91v-88l-16 -3q-48 0 -85.5 10t-62.5 45q-7 -9 -16 -15q-33 -22 -103.5 -36t-174.5 -14q-94 0 -149.5 20t-83.5 50.5t-36 66t-8 66.5t6 58.5t14 48.5q9 24 20 45h76q-12 -21 -21 -43q-9 -21 -15.5 -44t-6.5 -47q0 -29 10.5 -52.5t36 -40t69 -25.5t108.5 -9 q85 0 147 12t99 28q-12 50 -12 126v430l82 6v-500q0 -29 5 -47t17 -28t32.5 -13.5t51.5 -3.5zM260 313q72 1 100.5 2.5t28.5 6.5q0 4 -12.5 8.5t-31.5 8.5q-34 7 -47.5 21t-13.5 35q0 17 11.5 33t29 29.5t39.5 25.5t43 22l9 -57q-23 -10 -40 -19t-29 -16t-12 -11 q0 -3 16.5 -7t32.5 -8q25 -6 41 -18t16 -39q0 -17 -8.5 -33.5t-22.5 -25.5q-18 -11 -56 -13.5t-83 -2.5z" />
<glyph unicode="&#x643;" horiz-adv-x="397" arabic-form="initial" d="M89 411q69 -31 117 -67t78 -71t43.5 -67.5t13.5 -56.5q0 -32 -12 -61t-40 -49q-13 -10 -30.5 -17.5t-42 -12t-58 -7t-79.5 -2.5h-79l-16 3v88l16 3h79q56 0 93 2.5t59 7.5t31.5 12.5t9.5 16.5q0 11 -11 35t-40.5 55t-82 66.5t-136.5 69.5v90l377 221l8 -93z" />
<glyph unicode="&#x643;" horiz-adv-x="460" arabic-form="medial" d="M476 91v-88l-16 -3q-40 0 -70 6t-53 18.5t-41.5 31.5t-36.5 44q-8 -17 -20 -34.5t-32 -29.5q-32 -20 -70 -28t-85 -8h-52l-16 3v88l16 3h53q72 0 110 14t38 29q0 5 -9.5 25.5t-35.5 62.5q-14 22 -31.5 46t-34 45.5t-28 36.5t-13.5 19t-0.5 19t5.5 32.5t9.5 32t9.5 17.5 l331 202l8 -93l-286 -171q19 -23 45.5 -58t54.5 -75q33 -47 57.5 -81.5t49 -57.5t54.5 -34t73 -11z" />
<glyph unicode="&#x644;" horiz-adv-x="595" arabic-form="final" d="M611 91v-88l-16 -3q-72 1 -100 31v-2q0 -77 -52 -132q-32 -35 -84.5 -57t-112.5 -22q-67 0 -109.5 21t-66.5 53t-32.5 69.5t-8.5 69.5q0 38 6 70.5t13 56.5q8 29 19 52h77q-11 -25 -20 -52q-9 -24 -15 -51t-6 -55q0 -18 4 -42t19 -46t44.5 -37t81.5 -15q36 0 65.5 8.5 t50.5 21t32.5 26t11.5 23.5v690l83 5v-469q0 -28 2.5 -51t13 -39t30.5 -24.5t54 -8.5z" />
<glyph unicode="&#x644;" horiz-adv-x="254" arabic-form="initial" d="M-16 3v88l16 3q61 0 87.5 9t26.5 27v551l83 5v-492q0 -66 -18.5 -103t-44.5 -57q-17 -14 -48.5 -24t-85.5 -10z" />
<glyph unicode="&#x644;" horiz-adv-x="303" arabic-form="medial" d="M320 91v-88l-16 -3q-54 0 -85.5 19t-49.5 55q-14 -24 -35 -40q-17 -14 -48.5 -24t-85.5 -10l-16 3v88l16 3q61 0 87.5 9t26.5 27v551l83 5v-469q0 -27 3 -49.5t13.5 -39t32 -25.5t58.5 -9z" />
<glyph unicode="&#x645;" horiz-adv-x="564" arabic-form="final" d="M579 91v-88l-16 -3h-11q-38 0 -63 10t-47 34q-6 -5 -18 -13.5t-30.5 -16.5t-43.5 -14t-56 -6q-32 0 -59 7.5t-47 24.5q-36 -8 -56.5 -16t-20.5 -16q0 -2 1.5 -15.5t4.5 -34.5t6 -47t7 -53q8 -63 19 -142h-87q-10 67 -17 126q-5 34 -7.5 56t-4.5 43t-3.5 38.5t-1.5 27.5 q0 42 17.5 66t45.5 38q11 5 25.5 10t28.5 7q-1 5 -1 10.5v10.5q0 34 13 69t35 63.5t51 47t61 18.5q46 0 75 -33t63 -98q17 -32 29 -53t24 -33t27.5 -17t40.5 -5zM293 87q32 0 59 7.5t46 17.5q-1 1 -3 5q-12 23 -24 45t-24.5 39t-26.5 27.5t-32 10.5q-19 0 -35 -10.5 t-27.5 -26.5t-18 -33.5t-6.5 -31.5q0 -7 3.5 -16t13.5 -16.5t28 -12.5t47 -5z" />
<glyph unicode="&#x645;" horiz-adv-x="464" arabic-form="initial" d="M277 333q35 0 63 -20t47 -50t29 -65t10 -65q0 -23 -7 -47.5t-24.5 -45t-47.5 -33.5t-76 -13q-15 0 -35 1.5t-42.5 6.5t-45.5 14.5t-44 25.5q-20 -23 -43 -32.5t-61 -9.5l-16 3v88l16 3q22 0 37 4t27 14.5t24 29.5t29 50q15 29 31.5 55t36 45t42 30t50.5 11zM265 88 q43 0 67 9.5t24 23.5t-6.5 34t-18.5 39t-29 32t-37 13q-31 0 -56.5 -26.5t-47.5 -68.5l-14 -28q22 -13 52.5 -20.5t65.5 -7.5z" />
<glyph unicode="&#x645;" horiz-adv-x="520" arabic-form="medial" d="M535 91v-88l-16 -3h-11q-37 0 -62.5 10t-47.5 34q-6 -5 -18 -13.5t-30.5 -16.5t-43.5 -14t-56 -6q-42 0 -75 13.5t-53 42.5q-17 -22 -47 -36t-75 -14l-16 3v88l16 3q30 0 59 8.5t41 25.5v7q0 34 13 69t35 63.5t51 47t61 18.5q46 0 75 -33t63 -98q17 -32 29 -53t24 -33 t27.5 -17t40.5 -5zM249 87q32 0 59 7.5t46 17.5q-1 1 -3 5q-12 23 -24 45t-24.5 39t-26.5 27.5t-32 10.5q-19 0 -35 -10.5t-27.5 -26.5t-18 -33.5t-6.5 -31.5q0 -7 3.5 -16t13.5 -16.5t28 -12.5t47 -5z" />
<glyph unicode="&#x646;" horiz-adv-x="629" arabic-form="final" d="M272 244q-10 8 -20 18q-10 8 -19.5 18.5t-18.5 22.5q9 12 19 23t19 19q10 10 20 18q10 -8 21 -18q9 -8 19.5 -19t19.5 -23q-9 -12 -19.5 -22.5t-19.5 -18.5q-11 -10 -21 -18zM645 91v-88l-16 -3q-38 0 -67 9t-49 29q1 -8 1 -16v-14q0 -32 -10.5 -64t-36.5 -61 q-29 -32 -85 -55t-128 -23t-116 21.5t-68.5 53.5t-32.5 69.5t-8 69.5q0 38 6 70t13 57q8 28 19 51h77q-11 -25 -20 -51q-9 -24 -15 -51t-6 -55q0 -18 3.5 -42.5t19.5 -46t47.5 -37t86.5 -15.5q41 0 74.5 9t57 21t36.5 24.5t13 20.5q0 20 -5 61t-11.5 83.5t-12 76t-6.5 39.5 l83 17q2 -13 3.5 -25.5t3.5 -26.5q9 -49 37 -77t96 -28z" />
<glyph unicode="&#x646;" horiz-adv-x="230" arabic-form="initial" d="M56 456q9 12 19 23t19 19q10 10 20 18q10 -8 21 -18q9 -8 19.5 -19t19.5 -23q-9 -12 -19.5 -22.5t-19.5 -18.5q-11 -10 -21 -18q-10 8 -20 18q-10 8 -19.5 18.5t-18.5 22.5zM158 359q4 -21 8.5 -48t8 -55t6 -54t2.5 -46q0 -39 -13 -68t-33 -46q-45 -42 -137 -42l-16 3v88 l16 3q57 0 81.5 11t24.5 25q0 32 -6.5 85.5t-19.5 128.5z" />
<glyph unicode="&#x646;" horiz-adv-x="312" arabic-form="medial" d="M166 341q-10 8 -20 18q-10 8 -19.5 18.5t-18.5 22.5q9 12 19 23t19 19q10 10 20 18q10 -8 21 -18q9 -8 19.5 -19t19.5 -23q-9 -12 -19.5 -22.5t-19.5 -18.5q-11 -10 -21 -18zM329 91v-88l-16 -3q-22 0 -45.5 1.5t-45.5 7t-41.5 16t-34.5 27.5q-6 -7 -15 -15 q-18 -15 -48.5 -26t-81.5 -11l-16 3v88l16 3q32 0 53 4t33 10t17.5 13t6.5 13q2 8 5 32t6 50.5t5.5 48t2.5 24.5h78l-18 -169q20 -14 54 -20t69 -6z" />
<glyph unicode="&#x647;" horiz-adv-x="380" arabic-form="isolated" d="M202 398q27 -20 52.5 -47.5t45 -59.5t31 -67t11.5 -71q0 -32 -10 -60.5t-30.5 -50.5t-52 -34.5t-74.5 -12.5q-38 0 -65.5 11.5t-45.5 32t-26.5 47.5t-8.5 57q0 62 33.5 126.5t89.5 114.5zM176 89q44 0 70 15t26 38q0 34 -25.5 78.5t-70.5 80.5q-21 -17 -37 -37.5 t-27.5 -41.5t-17.5 -40t-6 -32q0 -16 7.5 -28t20 -19t28.5 -10.5t32 -3.5z" />
<glyph unicode="&#x647;" horiz-adv-x="439" arabic-form="final" d="M456 91v-88l-16 -3q-71 0 -109 25t-55 67q-12 -6 -39.5 -15.5t-71.5 -9.5q-35 0 -64.5 11t-49.5 37q-17 23 -21 59t13 64q14 26 37.5 48.5t52 42t59.5 36.5t60 31v57l81 6v-257q0 -24 4 -44t15.5 -34.5t32.5 -22t55 -7.5zM173 158q29 0 49.5 5t34.5 10q-1 8 -1 15t-1 15 q-2 16 -2 45.5t-1 62.5q-38 -17 -68.5 -35t-52 -34.5t-33 -30t-11.5 -21.5q0 -11 24.5 -21.5t61.5 -10.5z" />
<glyph unicode="&#x647;" horiz-adv-x="487" arabic-form="initial" d="M134 429q107 -52 169.5 -102t95 -95.5t41.5 -85.5t9 -73q0 -14 -6.5 -30t-17 -29.5t-25 -22t-29.5 -8.5t-37.5 4.5t-47.5 12t-51 18t-50 22.5q-38 -18 -85 -29t-100 -11l-16 3v88l16 3q29 0 53.5 1t44.5 3q-27 23 -39 48t-12 60t19.5 71.5t49.5 60.5l-20 9zM182 293 q-17 0 -31.5 -9.5t-25.5 -23t-17.5 -27.5t-6.5 -24q0 -9 9.5 -20t24 -22t32.5 -21t35 -19q20 13 36.5 32t16.5 35q0 12 -5 29t-15 32.5t-23 26.5t-30 11zM267 98q33 -12 65.5 -20t57.5 -10q-5 39 -21 74t-51 70v-2q0 -26 -12.5 -56.5t-38.5 -55.5z" />
<glyph unicode="&#x647;" horiz-adv-x="446" arabic-form="medial" d="M462 91v-88l-16 -3h-77q17 -16 28 -37.5t11 -48.5q0 -24 -9 -45.5t-27 -38t-45 -26.5t-63 -10q-34 0 -68 12.5t-62.5 38.5t-49.5 65.5t-29 93.5q-14 -2 -28.5 -3t-26.5 -1l-16 3v88l16 3h53q5 66 21 116.5t39 84.5t50.5 51t55.5 17q30 0 53.5 -18.5t40 -45.5t25.5 -57.5 t9 -54.5q0 -32 -17 -62t-47 -53l1 -1q13 7 33.5 15t55.5 8h73zM206 269q-33 0 -60 -45.5t-34 -129.5q46 0 77.5 8.5t50.5 21t27.5 26.5t8.5 26t-5.5 28t-15.5 30.5t-22.5 24.5t-26.5 10zM271 -114q30 0 48.5 9t18.5 20q0 22 -13.5 41t-36.5 33t-53.5 23t-64.5 10 q-12 -2 -25.5 -5.5t-30.5 -5.5q14 -52 53.5 -88.5t103.5 -36.5z" />
<glyph unicode="&#x648;" horiz-adv-x="404" arabic-form="final" d="M420 90v-87l-16 -3h-58q-8 -39 -24 -74t-41.5 -62t-60.5 -43t-81 -16q-25 0 -45 3.5t-34 7.5q-16 5 -28 11l-3 86q5 -2 33 -10t77 -8q59 0 94 31.5t48 73.5h-108q-64 0 -103 31.5t-39 100.5q0 31 11.5 66.5t33 65.5t52 49.5t67.5 19.5q39 0 68 -22.5t49.5 -57.5t31 -77 t11.5 -82h49zM90 136q0 -13 8 -21.5t20 -13.5t27 -7t29 -2h113q-3 26 -11.5 52t-22 47t-32 34.5t-41.5 13.5q-21 0 -37.5 -10.5t-28 -26t-18 -33.5t-6.5 -33z" />
<glyph unicode="&#x649;" horiz-adv-x="593" arabic-form="final" d="M609 91v-88l-16 -3h-32q9 -15 9 -31q0 -19 -5 -49t-30 -62q-14 -17 -38 -36.5t-58 -35.5t-77.5 -26.5t-96.5 -10.5q-71 0 -117 20.5t-72.5 52t-36.5 69t-10 70.5q0 38 6 70.5t13 57.5q8 28 19 52h77q-11 -25 -20 -52q-9 -25 -15 -52t-6 -55q0 -19 5.5 -43t23.5 -45.5 t51.5 -36t89.5 -14.5q47 0 88.5 11t73 26t49.5 31t18 27t-9 22t-25.5 20t-39.5 14.5t-51 5.5h-1l18 94h199z" />
<glyph unicode="&#x64a;" horiz-adv-x="593" arabic-form="final" d="M609 91v-88l-16 -3h-32q9 -15 9 -31q0 -19 -5 -49t-30 -62q-14 -17 -38 -36.5t-58 -35.5t-77.5 -26.5t-96.5 -10.5q-71 0 -117 20.5t-72.5 52t-36.5 69t-10 70.5q0 38 6 70.5t13 57.5q8 28 19 52h77q-11 -25 -20 -52q-9 -25 -15 -52t-6 -55q0 -19 5.5 -43t23.5 -45.5 t51.5 -36t89.5 -14.5q47 0 88.5 11t73 26t49.5 31t18 27t-9 22t-25.5 20t-39.5 14.5t-51 5.5h-1l18 94h199zM347 -295q9 -8 19 -17q9 -8 18.5 -18t18.5 -22q-9 -11 -19 -21l-18 -18q-10 -10 -19 -18q-8 7 -17 15l-15.5 15.5t-16.5 17.5q-8 -9 -17 -18t-16 -15q-8 -8 -16 -15 q-10 8 -20 18q-9 8 -18 18t-17 21q8 12 17.5 22t17.5 18q10 9 20 17q8 -6 16 -14q8 -7 16.5 -15.5t16.5 -18.5q8 10 16.5 19t15.5 15q9 8 17 14z" />
<glyph unicode="&#x64a;" horiz-adv-x="243" arabic-form="initial" d="M137 42q-45 -42 -137 -42l-16 3v88l16 3q57 0 81.5 11t24.5 25q0 32 -6.5 85.5t-19.5 128.5l78 15q4 -21 8.5 -48t8 -55t6 -54t2.5 -46q0 -39 -13 -68t-33 -46zM136 -48q9 -8 18 -17q9 -8 18 -17.5t17 -20.5q-8 -11 -17.5 -20.5l-17.5 -17.5q-9 -9 -18 -17l-16 14 q-7 7 -15 15.5t-16 17.5q-8 -9 -16.5 -17.5l-15.5 -15.5q-8 -7 -15 -14q-9 8 -19 17q-8 8 -17 17.5t-17 20.5q8 11 17 21t17 17q10 9 19 17q7 -6 15 -14q8 -7 16 -15t16 -18q8 10 16 18.5t15 14.5q8 8 16 14z" />
<glyph unicode="&#x64a;" horiz-adv-x="312" arabic-form="medial" d="M329 91v-88l-16 -3q-22 0 -45.5 1.5t-45.5 7t-41.5 16t-34.5 27.5q-6 -7 -15 -15q-18 -15 -48.5 -26t-81.5 -11l-16 3v88l16 3q32 0 53 4t33 10t17.5 13t6.5 13q2 8 5 32t6 50.5t5.5 48t2.5 24.5h78l-18 -169q20 -14 54 -20t69 -6zM190 -50q9 -8 18 -17q9 -8 18 -17.5 t17 -20.5q-8 -11 -17.5 -20.5l-17.5 -17.5q-9 -9 -18 -17l-16 14q-7 7 -15 15.5t-16 17.5q-8 -9 -16.5 -17.5l-15.5 -15.5q-8 -7 -15 -14q-9 8 -19 17q-8 8 -17 17.5t-17 20.5q8 11 17 21t17 17q10 9 19 17q7 -6 15 -14q8 -7 16 -15t16 -18q8 10 16 18.5t15 14.5q8 8 16 14z " />
<glyph unicode=" "  horiz-adv-x="254" />
<glyph unicode="&#x09;" horiz-adv-x="254" />
<glyph unicode="&#xa0;" horiz-adv-x="254" />
<glyph unicode="!" horiz-adv-x="292" d="M109 179q0 38 -1 92.5t-4 116t-7.5 126.5t-10.5 124l79 8q6 -54 10.5 -106.5t8 -108t5 -117t1.5 -135.5h-81zM87 45q9 11 19 22l20.5 20.5t21.5 20.5q13 -11 24 -22q11 -10 21 -20.5t17 -20.5q-9 -14 -20 -25t-20 -19q-11 -10 -22 -18q-14 10 -25 21t-19 20 q-10 11 -17 21z" />
<glyph unicode="&#x22;" horiz-adv-x="370" d="M151 653l-12 -205h-77v205h89zM316 653l-14 -205h-78v205h92z" />
<glyph unicode="#" horiz-adv-x="621" d="M199 432l32 151h64l-32 -151h146l32 151h65l-32 -151h114l-11 -61h-116l-34 -160h120l-10 -61h-123l-32 -150h-64l31 150h-146l-31 -150h-65l32 150h-105l10 61h108l34 160h-111l10 61h114zM362 211l34 160h-146l-34 -160h146z" />
<glyph unicode="$" horiz-adv-x="470" d="M198 -6q-38 2 -75 10t-72 23v91q27 -16 66 -28.5t81 -16.5v189q-28 11 -55.5 24t-49 32t-34.5 45t-13 62q0 34 11.5 62t32 48.5t48.5 34t60 18.5v79h62v-76q46 -2 84 -11t64 -23v-90q-32 20 -69.5 32.5t-78.5 14.5v-177q31 -12 61.5 -26t54.5 -34t39 -47.5t15 -66.5 q0 -37 -13.5 -66.5t-36.5 -50.5t-54 -33.5t-66 -16.5v-82h-62v80zM198 509q-26 -8 -43.5 -24.5t-17.5 -41.5q0 -30 15.5 -48t45.5 -32v146zM260 75q35 6 57 26.5t22 52.5q0 31 -22.5 50t-56.5 33v-162z" />
<glyph unicode="%" horiz-adv-x="692" d="M33 437q0 72 36.5 113.5t91.5 41.5t91.5 -37.5t36.5 -115.5q0 -71 -36.5 -110.5t-91.5 -39.5t-91.5 36.5t-36.5 111.5zM547 583v-20l-128 -192h-63l119 212h72zM222 435q0 60 -16.5 82t-47.5 22q-29 0 -43.5 -22t-14.5 -79q0 -51 17.5 -74.5t47.5 -23.5q26 0 41.5 21 t15.5 74zM402 140q0 72 36.5 114t92.5 42q55 0 91 -38t36 -115q0 -71 -36 -111t-91 -40q-56 0 -92.5 37t-36.5 111zM591 138q0 60 -16.5 82.5t-47.5 22.5q-57 0 -57 -101q0 -51 17 -75t47 -24q27 0 42 21t15 74zM157 0v20l131 213h62l-121 -233h-72z" />
<glyph unicode="&#x26;" horiz-adv-x="705" d="M524 124q44 -30 84 -56.5t75 -46.5v-21h-120q-23 12 -48.5 28t-54.5 35q-44 -33 -97 -52.5t-116 -19.5q-46 0 -83.5 12t-64 33t-41 50t-14.5 64q0 58 29.5 97.5t76.5 65.5q-25 29 -39.5 58.5t-14.5 59.5q0 32 13 61t37 51t59 35.5t78 13.5q41 0 72.5 -12.5t53.5 -32.5 t33 -46t11 -53q0 -29 -12 -53.5t-32.5 -45t-47 -36.5t-56.5 -28l59 -45q23 -18 47 -35.5t48 -34.5q32 38 54.5 84.5t35.5 94.5h95q-17 -57 -46 -115.5t-74 -109.5zM253 330q48 22 77 48.5t29 62.5q0 33 -21.5 55t-60.5 22q-45 0 -67 -21.5t-22 -60.5q0 -26 18 -52.5 t47 -53.5zM196 265q-29 -20 -44.5 -46t-15.5 -49q0 -42 30.5 -72.5t92.5 -30.5q38 0 71.5 11t62.5 31q-61 43 -119 90q-42 33 -78 66z" />
<glyph unicode="'" horiz-adv-x="207" d="M152 653l-13 -205h-77v205h90z" />
<glyph unicode="(" horiz-adv-x="288" d="M175 -146q-13 13 -39.5 49.5t-52.5 90.5t-45.5 122.5t-19.5 145.5t19.5 142.5t46 115t52.5 81.5t38 43h85q-13 -12 -40 -43t-54 -79.5t-47 -113.5t-20 -145q0 -81 21 -150.5t48.5 -123t54.5 -89t39 -48.5z" />
<glyph unicode=")" horiz-adv-x="288" d="M110 644q12 -11 38 -43t52.5 -81.5t46 -115t19.5 -142.5t-19.5 -145.5t-45 -122.5t-51.5 -90.5t-40 -49.5l-87 -2q12 13 39 48.5t54.5 89t48.5 123t21 150.5q0 80 -20 145t-47 113.5t-53.5 79.5t-39.5 43h84z" />
<glyph unicode="*" horiz-adv-x="385" d="M177 505l-15 121h63l-17 -120l96 74l32 -56l-114 -46l114 -43l-33 -58l-94 74l15 -118h-63l14 118l-94 -74l-31 57l108 43l-108 47l33 56z" />
<glyph unicode="+" horiz-adv-x="496" d="M214 329v176h68v-176h175v-66h-175v-176h-68v176h-176v66h176z" />
<glyph unicode="," horiz-adv-x="244" d="M20 -159q27 32 45 70t18 70q0 21 -6.5 37t-26.5 27q0 26 20 47t49 21q31 0 51.5 -20t20.5 -51q0 -29 -8.5 -60.5t-25 -61.5t-40 -57.5t-53.5 -49.5z" />
<glyph unicode="-" horiz-adv-x="353" d="M293 279v-72h-232v72h232z" />
<glyph unicode="." horiz-adv-x="234" d="M48 51q10 12 21 24q10 11 22 22.5t24 22.5q14 -12 27 -24q11 -11 22 -22.5t19 -22.5q-10 -15 -21.5 -27t-22.5 -21q-12 -11 -24 -19q-15 11 -27.5 22.5t-21.5 21.5q-10 12 -18 23z" />
<glyph unicode="/" horiz-adv-x="333" d="M303 674l-198 -767h-75l198 767h75z" />
<glyph unicode="0" horiz-adv-x="527" d="M51 283q0 70 13 127t40 97.5t67.5 62.5t94.5 22q61 0 101.5 -23t64.5 -62.5t34 -93t10 -114.5q0 -70 -14 -127t-41.5 -97t-68 -61.5t-93.5 -21.5q-57 0 -96.5 20t-64 58t-36 92t-11.5 121zM380 296q0 44 -6 83.5t-20.5 70t-37.5 48.5t-57 18q-33 0 -55 -18.5t-35.5 -49.5 t-19 -72.5t-5.5 -87.5q0 -50 6.5 -90.5t20.5 -69.5t37 -45t56 -16q35 0 57 17.5t35.5 48.5t18.5 72.5t5 90.5z" />
<glyph unicode="1" horiz-adv-x="321" d="M155 482l-133 -23v71l177 53h50v-583h-94v482z" />
<glyph unicode="2" horiz-adv-x="475" d="M42 62q53 44 103 90t89 92t63 90t24 84q0 23 -9.5 40.5t-24.5 30.5t-34.5 19.5t-40.5 6.5q-35 0 -72 -9.5t-83 -44.5v80q34 26 79 38.5t90 12.5q37 0 71 -10t59.5 -30.5t41 -51.5t15.5 -73q0 -40 -19.5 -84.5t-52.5 -89.5t-77 -88.5t-93 -82.5v-2h260v-80h-389v62z" />
<glyph unicode="3" horiz-adv-x="450" d="M51 101q40 -21 77 -27.5t75 -6.5q23 0 43 7.5t35 21t24 31t9 36.5q0 48 -46 72.5t-126 26.5v59q27 2 53 11.5t47 24.5t34 34t13 40q0 36 -24.5 59.5t-70.5 23.5q-30 0 -65.5 -11.5t-73.5 -43.5v82q31 26 71 38.5t82 12.5q83 0 126.5 -39t43.5 -101q0 -29 -11 -53 t-27.5 -42t-34 -29t-31.5 -14v-4q27 -3 50.5 -14t41 -29t27.5 -42t10 -53q0 -45 -19 -78.5t-49.5 -56t-69 -34t-77.5 -11.5q-51 0 -83 8t-54 19v82z" />
<glyph unicode="4" horiz-adv-x="482" d="M271 143h-242v74l248 366h86v-366h85v-74h-85v-143h-92v143zM271 454h-6l-158 -237h164v237z" />
<glyph unicode="5" horiz-adv-x="445" d="M311 171q0 58 -43 86t-126 28q-17 0 -36.5 -1.5t-38.5 -3.5l26 303h294v-75h-227l-14 -153q6 1 12.5 1h13.5q51 0 92.5 -10.5t71.5 -32t46 -54.5t16 -79t-19 -81t-49 -59t-67.5 -36t-73.5 -12q-47 0 -81.5 8.5t-60.5 17.5v84q73 -35 147 -35q24 0 45 7.5t37 21.5t25.5 33 t9.5 42z" />
<glyph unicode="6" horiz-adv-x="496" d="M305 516q-70 0 -109 -44.5t-50 -139.5q25 14 58 25.5t78 11.5q36 0 67.5 -10t55 -31t37 -53t13.5 -76q0 -41 -14 -78.5t-40.5 -66t-64.5 -45.5t-87 -17q-103 0 -151 72.5t-48 196.5q0 72 17 132.5t49.5 105t79.5 69t108 24.5q26 0 56 -4.5t59 -14.5v-83q-35 18 -62 22 t-52 4zM143 261q0 -98 27 -146.5t84 -48.5q49 0 78.5 31t29.5 90q0 54 -27 82.5t-78 28.5q-35 0 -63.5 -10t-50.5 -21v-6z" />
<glyph unicode="7" horiz-adv-x="413" d="M70 4l233 504h-271v75h360v-51l-235 -532h-84z" />
<glyph unicode="8" horiz-adv-x="497" d="M348 296q41 -21 70.5 -51.5t29.5 -82.5q0 -34 -16.5 -64.5t-44.5 -54t-66 -37.5t-82 -14q-46 0 -81.5 12.5t-59.5 34.5t-36.5 52t-12.5 65q0 42 25.5 83t67.5 65q-33 23 -55 53.5t-22 76.5q0 30 13.5 58.5t37.5 50.5t57.5 35.5t73.5 13.5q41 0 75.5 -10.5t59.5 -29 t39.5 -45.5t14.5 -60q0 -47 -25 -86t-63 -65zM288 323q29 25 44 55t15 56q0 34 -25 59t-77 25q-38 0 -65 -21t-27 -59q0 -23 11.5 -39.5t30 -30t43 -24t50.5 -21.5zM192 276q-26 -23 -41 -51t-15 -63q0 -24 9.5 -42.5t25 -31t36 -18.5t41.5 -6q20 0 39 5.5t34 16.5t24.5 28 t9.5 41q0 22 -14.5 38.5t-37.5 30t-52.5 26t-58.5 26.5z" />
<glyph unicode="9" horiz-adv-x="496" d="M192 68q69 0 108 44.5t49 139.5q-25 -14 -58 -25.5t-77 -11.5q-36 0 -67 10.5t-54.5 31.5t-37 53.5t-13.5 75.5q0 41 14 78t40.5 65.5t64.5 45.5t87 17q103 0 150.5 -72t47.5 -197q0 -72 -17 -132.5t-49 -104.5t-79.5 -69t-108.5 -25q-26 0 -56 4.5t-59 15.5v82 q36 -17 62.5 -21.5t52.5 -4.5zM353 324q0 97 -26.5 146t-84.5 49q-49 0 -78 -31.5t-29 -89.5q0 -54 26.5 -82.5t77.5 -28.5q35 0 63 9t51 21v7z" />
<glyph unicode=":" horiz-adv-x="305" d="M85 402q10 12 21 24q10 11 22 22.5t24 22.5q14 -12 27 -24q11 -11 22 -22.5t19 -22.5q-10 -15 -21.5 -27t-22.5 -21q-12 -11 -24 -19q-15 11 -27.5 22.5t-21.5 21.5q-10 12 -18 23zM85 59q10 12 21 24q10 11 22 22.5t24 22.5q14 -12 27 -24q11 -11 22 -22.5t19 -22.5 q-10 -15 -21.5 -27t-22.5 -21q-12 -11 -24 -19q-15 11 -27.5 22.5t-21.5 21.5q-10 12 -18 23z" />
<glyph unicode=";" horiz-adv-x="266" d="M67 392q0 27 19.5 47.5t48.5 20.5t48 -20.5t19 -47.5q0 -26 -19 -46t-48 -20t-48.5 20t-19.5 46zM33 -159q27 32 45 70t18 70q0 21 -6.5 37t-26.5 27q0 26 20 47t49 21q31 0 51.5 -20t20.5 -51q0 -29 -8.5 -60.5t-25 -61.5t-40 -57.5t-53.5 -49.5z" />
<glyph unicode="&#x3c;" horiz-adv-x="492" d="M34 325l398 206l-1 -78l-310 -156v-2l310 -157v-78l-397 205v60z" />
<glyph unicode="=" horiz-adv-x="524" d="M461 427v-69h-398v69h398zM461 236v-70h-398v70h398z" />
<glyph unicode="&#x3e;" horiz-adv-x="492" d="M61 138l307 156v3l-307 156v78l397 -206v-60l-397 -205v78z" />
<glyph unicode="?" horiz-adv-x="395" d="M125 302q17 6 41 17.5t46.5 29t38 41.5t15.5 55q0 41 -26 57.5t-64 16.5q-32 0 -69 -10.5t-69 -25.5v77q16 8 35 13.5t39 10t39 6.5t34 2q38 0 70.5 -8.5t56 -26t37 -44t13.5 -63.5q0 -38 -18 -68.5t-43.5 -54t-53 -38.5t-45.5 -22v-73h-77v108zM97 58q0 27 19.5 47.5 t48.5 20.5t48 -20.5t19 -47.5q0 -26 -19 -46t-48 -20t-48.5 20t-19.5 46z" />
<glyph unicode="@" horiz-adv-x="911" d="M337 -8h-53q-6 21 -9.5 50t-3.5 61q0 36 4 75t11.5 75t19 66.5t26.5 50.5q26 35 58 61.5t79 26.5q15 0 38 -5.5t46 -14.5l4 21h76l-66 -385l10 -7q113 42 165 103.5t52 130.5q0 63 -20 114t-58 88t-93 57t-126 20q-76 0 -144.5 -29t-120 -79.5t-81.5 -119.5t-30 -150 q0 -163 85.5 -249t244.5 -86q35 0 74 7t78.5 20t76.5 30.5t67 37.5v-68q-27 -21 -64 -38t-79 -29.5t-87 -19t-88 -6.5q-92 0 -164 27.5t-121 79t-74.5 125t-25.5 165.5q0 93 36 174.5t98.5 142t147 95t180.5 34.5q77 0 143 -24.5t114.5 -68t76 -103.5t27.5 -132 q0 -60 -26.5 -112t-72.5 -94t-108.5 -72t-134.5 -47l-47 14l24 138zM515 222l25 143q-26 11 -53 19t-48 9q-5 0 -9.5 -0.5t-9.5 -1.5q-29 -38 -50.5 -103t-21.5 -140q0 -11 0.5 -21.5t1.5 -21.5l15 -5z" />
<glyph unicode="A" horiz-adv-x="543" d="M325 583l193 -583h-105l-49 170h-202l-61 -170h-92l224 583h92zM341 248l-20 70l-44 155h-5l-56 -155l-26 -70h151z" />
</font>
</defs>
</svg>
